<?xml version="1.0" encoding="UTF-8" standalone="no"?>
<!-- Created with Inkscape (http://www.inkscape.org/) -->

<svg
   xmlns:dc="http://purl.org/dc/elements/1.1/"
   xmlns:cc="http://creativecommons.org/ns#"
   xmlns:rdf="http://www.w3.org/1999/02/22-rdf-syntax-ns#"
   xmlns:svg="http://www.w3.org/2000/svg"
   xmlns="http://www.w3.org/2000/svg"
   xmlns:sodipodi="http://sodipodi.sourceforge.net/DTD/sodipodi-0.dtd"
   xmlns:inkscape="http://www.inkscape.org/namespaces/inkscape"
   version="1.1"
   id="svg1277"
   xml:space="preserve"
   width="240"
   height="85.333336"
   viewBox="0 0 240 85.333336"
   sodipodi:docname="hodograph_3_4.svg"
   inkscape:version="0.92.2 5c3e80d, 2017-08-06"
   inkscape:export-filename="/Users/lyxkg/Desktop/ANU/PHYS3001/report 2/pic/hodograph/hodograph_3_4.png"
   inkscape:export-xdpi="96"
   inkscape:export-ydpi="96"><metadata
     id="metadata1283"><rdf:RDF><cc:Work
         rdf:about=""><dc:format>image/svg+xml</dc:format><dc:type
           rdf:resource="http://purl.org/dc/dcmitype/StillImage" /><dc:title></dc:title></cc:Work></rdf:RDF></metadata><defs
     id="defs1281" /><sodipodi:namedview
     pagecolor="#ffffff"
     bordercolor="#666666"
     borderopacity="1"
     objecttolerance="10"
     gridtolerance="10"
     guidetolerance="10"
     inkscape:pageopacity="0"
     inkscape:pageshadow="2"
     inkscape:window-width="1232"
     inkscape:window-height="755"
     id="namedview1279"
     showgrid="false"
     inkscape:zoom="1.090123"
     inkscape:cx="22.472887"
     inkscape:cy="163.95794"
     inkscape:window-x="48"
     inkscape:window-y="1"
     inkscape:window-maximized="1"
     inkscape:current-layer="g1285" /><g
     id="g1285"
     inkscape:groupmode="layer"
     inkscape:label="hodograph3"
     transform="matrix(1.3333333,0,0,1.3333333,0,1.8e-6)"><g
       id="g1287"><path
         d="M 8.773,47.062 H 73.535"
         style="fill:none;stroke:#5e81b5;stroke-width:1.60000002;stroke-linecap:butt;stroke-linejoin:miter;stroke-miterlimit:3.25;stroke-dasharray:none;stroke-opacity:1"
         id="path1289"
         inkscape:connector-curvature="0" /><path
         d="m 40.363,44.016 0.172,0.343 0.371,0.832 0.196,0.5 0.171,0.508 0.118,0.469 0.043,0.394 -0.043,0.36 -0.118,0.461 -0.171,0.523 -0.196,0.532 -0.371,0.91 -0.172,0.386 11.586,-3.172 z"
         style="fill:#5e81b5;fill-opacity:1;fill-rule:nonzero;stroke:#5e81b5;stroke-width:0.03;stroke-linecap:square;stroke-linejoin:miter;stroke-miterlimit:3.25;stroke-dasharray:none;stroke-opacity:1"
         id="path1291"
         inkscape:connector-curvature="0" /><path
         d="m 73.535,47.062 h 0.535 l 0.055,-0.003 h 0.301 l 0.097,-0.004 h 0.098 l 0.094,-0.004 h 0.097 l 0.094,-0.004 H 75 l 0.094,-0.004 h 0.105 l 0.305,-0.012 h 0.098 l 0.093,-0.004 0.192,-0.007 0.418,-0.016 0.406,-0.02 0.379,-0.019 0.41,-0.024 0.387,-0.023 0.375,-0.027 0.41,-0.032 0.379,-0.031 0.414,-0.035 0.402,-0.039 0.379,-0.039 0.41,-0.043 0.379,-0.043 0.414,-0.051 0.406,-0.051 0.375,-0.05 0.192,-0.028"
         style="fill:none;stroke:#5e81b5;stroke-width:1.60000002;stroke-linecap:butt;stroke-linejoin:miter;stroke-miterlimit:3.25;stroke-dasharray:none;stroke-opacity:1"
         id="path1293"
         inkscape:connector-curvature="0" /><path
         d="m 80.707,43.609 0.238,0.305 0.539,0.734 0.297,0.45 0.274,0.457 0.215,0.433 0.121,0.379 0.035,0.36 -0.02,0.476 -0.058,0.547 -0.082,0.562 -0.172,0.965 -0.086,0.414 10.668,-5.519 z"
         style="fill:#5e81b5;fill-opacity:1;fill-rule:nonzero;stroke:#5e81b5;stroke-width:0.03;stroke-linecap:square;stroke-linejoin:miter;stroke-miterlimit:3.25;stroke-dasharray:none;stroke-opacity:1"
         id="path1295"
         inkscape:connector-curvature="0" /><path
         d="m 92.676,44.172 0.015,-0.008 0.02,-0.004 0.039,-0.012 0.074,-0.023 0.457,-0.141 0.606,-0.187 1.316,-0.41 1.231,-0.379 1.207,-0.375 1.304,-0.403 1.223,-0.378 1.32,-0.407 1.301,-0.402 1.211,-0.375 1.312,-0.406 1.223,-0.379 1.203,-0.371 1.305,-0.407 1.215,-0.375 1.32,-0.406 1.293,-0.402 1.207,-0.371 1.313,-0.406 1.222,-0.379 1.325,-0.411 1.296,-0.402 1.215,-0.375 1.317,-0.406 1.226,-0.379 1.203,-0.375 1.309,-0.402 1.219,-0.375 1.32,-0.411 1.297,-0.402 1.207,-0.375 1.312,-0.402 1.227,-0.379 1.199,-0.371 1.301,-0.406 1.215,-0.375 1.32,-0.407 1.231,-0.383 1.203,-0.371 1.308,-0.406 1.223,-0.375 1.32,-0.41 1.301,-0.402 1.211,-0.375 1.312,-0.407 1.227,-0.379 1.203,-0.371 1.305,-0.406 1.219,-0.375 0.019,-0.008 0.024,-0.004 0.043,-0.015 0.082,-0.028 0.171,-0.05 0.34,-0.106 0.02,-0.008 0.023,-0.004 0.043,-0.015 0.082,-0.024 0.172,-0.054 0.02,-0.004 0.023,-0.008 0.043,-0.016 0.082,-0.023 0.024,-0.008 0.019,-0.008 0.043,-0.011 0.023,-0.008 0.02,-0.004 0.02,-0.008 0.023,-0.008"
         style="fill:none;stroke:#5e81b5;stroke-width:1.60000002;stroke-linecap:butt;stroke-linejoin:miter;stroke-miterlimit:3.25;stroke-dasharray:none;stroke-opacity:1"
         id="path1297"
         inkscape:connector-curvature="0" /><path
         d="m 121.949,31.922 0.266,0.281 0.601,0.688 0.336,0.418 0.313,0.429 0.254,0.414 0.156,0.368 0.066,0.355 0.024,0.477 -0.012,0.546 -0.031,0.571 -0.086,0.976 -0.047,0.418 10.129,-6.453 z"
         style="fill:#5e81b5;fill-opacity:1;fill-rule:nonzero;stroke:#5e81b5;stroke-width:0.03;stroke-linecap:square;stroke-linejoin:miter;stroke-miterlimit:3.25;stroke-dasharray:none;stroke-opacity:1"
         id="path1299"
         inkscape:connector-curvature="0" /><path
         d="m 11.484,47 c 0,-0.66 -0.261,-1.289 -0.73,-1.754 C 10.289,44.777 9.66,44.516 9,44.516 c -0.66,0 -1.289,0.261 -1.754,0.73 -0.469,0.465 -0.73,1.094 -0.73,1.754 0,0.66 0.261,1.289 0.73,1.754 0.465,0.469 1.094,0.73 1.754,0.73 0.66,0 1.289,-0.261 1.754,-0.73 0.469,-0.465 0.73,-1.094 0.73,-1.754 z"
         style="fill:#000000;fill-opacity:1;fill-rule:evenodd;stroke:none"
         id="path1301"
         inkscape:connector-curvature="0" /><path
         d="m 76.484,47 c 0,-0.66 -0.261,-1.289 -0.73,-1.754 -0.465,-0.469 -1.094,-0.73 -1.754,-0.73 -0.66,0 -1.289,0.261 -1.754,0.73 -0.469,0.465 -0.73,1.094 -0.73,1.754 0,0.66 0.261,1.289 0.73,1.754 0.465,0.469 1.094,0.73 1.754,0.73 0.66,0 1.289,-0.261 1.754,-0.73 0.469,-0.465 0.73,-1.094 0.73,-1.754 z"
         style="fill:#000000;fill-opacity:1;fill-rule:evenodd;stroke:none"
         id="path1303"
         inkscape:connector-curvature="0" /><path
         d="m 95.484,44 c 0,-0.66 -0.261,-1.289 -0.73,-1.754 -0.465,-0.469 -1.094,-0.73 -1.754,-0.73 -0.66,0 -1.289,0.261 -1.754,0.73 -0.469,0.465 -0.73,1.094 -0.73,1.754 0,0.66 0.261,1.289 0.73,1.754 0.465,0.469 1.094,0.73 1.754,0.73 0.66,0 1.289,-0.261 1.754,-0.73 0.469,-0.465 0.73,-1.094 0.73,-1.754 z"
         style="fill:#000000;fill-opacity:1;fill-rule:evenodd;stroke:none"
         id="path1305"
         inkscape:connector-curvature="0" /><path
         d="m 157.484,25 c 0,-0.66 -0.261,-1.289 -0.73,-1.754 -0.465,-0.469 -1.094,-0.73 -1.754,-0.73 -0.66,0 -1.289,0.261 -1.754,0.73 -0.469,0.465 -0.73,1.094 -0.73,1.754 0,0.66 0.261,1.289 0.73,1.754 0.465,0.469 1.094,0.73 1.754,0.73 0.66,0 1.289,-0.261 1.754,-0.73 0.469,-0.465 0.73,-1.094 0.73,-1.754 z"
         style="fill:#000000;fill-opacity:1;fill-rule:evenodd;stroke:none"
         id="path1307"
         inkscape:connector-curvature="0" /><path
         d="M 0.5,47.062 H 166"
         style="fill:none;stroke:#666666;stroke-width:0.2;stroke-linecap:butt;stroke-linejoin:miter;stroke-miterlimit:3.25;stroke-dasharray:none;stroke-opacity:1"
         id="path1309"
         inkscape:connector-curvature="0" /><text
         transform="translate(174,49.563043)"
         style="font-style:italic;font-variant:normal;font-size:10px;font-family:Arial;-inkscape-font-specification:Arial-ItalicMT;writing-mode:lr-tb;fill:#666666;fill-opacity:1;fill-rule:nonzero;stroke:none"
         id="text1313"><tspan
           x="0"
           y="0"
           id="tspan1311">x</tspan></text>
<path
         d="M 73.535,62.176 V 19"
         style="fill:none;stroke:#666666;stroke-width:0.2;stroke-linecap:butt;stroke-linejoin:miter;stroke-miterlimit:3.25;stroke-dasharray:none;stroke-opacity:1"
         id="path1315"
         inkscape:connector-curvature="0" /><text
         transform="translate(71.03587,9)"
         style="font-style:italic;font-variant:normal;font-size:10px;font-family:Arial;-inkscape-font-specification:Arial-ItalicMT;writing-mode:lr-tb;fill:#666666;fill-opacity:1;fill-rule:nonzero;stroke:none"
         id="text1319"><tspan
           x="0"
           y="0"
           id="tspan1317">y</tspan></text>
</g><g
       transform="translate(-189.87189,-28.805875)"
       inkscape:label="hodograph4"
       id="g2503"><g
         id="g2505"><path
           inkscape:connector-curvature="0"
           id="path2507"
           style="fill:none;stroke:#5e81b5;stroke-width:1.60000002;stroke-linecap:butt;stroke-linejoin:miter;stroke-miterlimit:3.25;stroke-dasharray:none;stroke-opacity:1"
           d="m 21.523,75.824 h 130.5" /><path
           inkscape:connector-curvature="0"
           id="path2509"
           style="fill:#5e81b5;fill-opacity:1;fill-rule:nonzero;stroke:#5e81b5;stroke-width:0.03;stroke-linecap:square;stroke-linejoin:miter;stroke-miterlimit:3.25;stroke-dasharray:none;stroke-opacity:1"
           d="m 75.609,72.887 0.164,0.336 0.36,0.8 0.187,0.481 0.168,0.488 0.114,0.453 0.039,0.379 -0.039,0.348 -0.114,0.445 -0.168,0.504 -0.187,0.512 -0.36,0.875 -0.164,0.371 11.164,-3.055 z" /><path
           inkscape:connector-curvature="0"
           id="path2511"
           style="fill:none;stroke:#5e81b5;stroke-width:1.60000002;stroke-linecap:butt;stroke-linejoin:miter;stroke-miterlimit:3.25;stroke-dasharray:none;stroke-opacity:1"
           d="m 152.023,75.824 v -0.871 l -0.003,-0.105 v -0.313 l -0.004,-0.101 v -0.309 l -0.004,-0.098 v -0.191 l -0.004,-0.012 v -0.183 l -0.004,-0.196 V 73.398 L 152,73.352 v -0.098 l -0.004,-0.192 v -0.046 l -0.004,-0.047 v -0.094 l -0.004,-0.191 v -0.028 l -0.004,-0.023 v -0.055 l -0.004,-0.101 -0.003,-0.207 -0.012,-0.415 v -0.046 l -0.004,-0.047 -0.004,-0.098 -0.004,-0.195 -0.015,-0.383 -0.032,-0.836 -0.039,-0.82 -0.039,-0.766 -0.047,-0.832 -0.051,-0.773 -0.054,-0.758 -0.063,-0.824 -0.062,-0.766 -0.074,-0.832 -0.079,-0.817 -0.074,-0.757 -0.09,-0.825 -0.086,-0.769 -0.101,-0.832 -0.102,-0.817 -0.101,-0.761 -0.114,-0.824 -0.113,-0.77 -0.113,-0.75 -0.129,-0.816 -0.125,-0.762 -0.141,-0.824 -0.14,-0.809 -0.137,-0.754 -0.156,-0.816 -0.149,-0.758 -0.148,-0.746 -0.168,-0.805 -0.164,-0.754 -0.176,-0.812 -0.059,-0.254" /><path
           inkscape:connector-curvature="0"
           id="path2513"
           style="fill:#5e81b5;fill-opacity:1;fill-rule:nonzero;stroke:#5e81b5;stroke-width:0.03;stroke-linecap:square;stroke-linejoin:miter;stroke-miterlimit:3.25;stroke-dasharray:none;stroke-opacity:1"
           d="m 146.195,48.805 0.282,-0.243 0.683,-0.55 0.418,-0.309 0.43,-0.281 0.406,-0.227 0.359,-0.133 0.344,-0.05 0.461,-0.004 0.527,0.031 0.547,0.055 0.938,0.121 0.402,0.066 -5.797,-10.023 z" /><path
           inkscape:connector-curvature="0"
           id="path2515"
           style="fill:none;stroke:#5e81b5;stroke-width:1.60000002;stroke-linecap:butt;stroke-linejoin:miter;stroke-miterlimit:3.25;stroke-dasharray:none;stroke-opacity:1"
           d="m 146.195,37.258 -0.039,0.012 -0.035,0.015 -0.078,0.024 -0.457,0.14 -0.613,0.188 -1.223,0.379 -2.652,0.82 -2.477,0.769 -2.43,0.75 -2.636,0.813 -2.457,0.762 -2.664,0.824 -2.618,0.808 -2.437,0.758 -2.649,0.817 -2.468,0.765 -2.422,0.746 -2.629,0.813 -2.449,0.762 -2.657,0.82 -2.609,0.809 -2.434,0.75 -2.64,0.816 -2.461,0.762 -2.668,0.828 -2.621,0.808 -2.445,0.758 -2.649,0.821 -2.476,0.765 -2.426,0.75 -2.633,0.813 -2.453,0.761 -2.664,0.821 -2.614,0.808 -2.437,0.754 -2.641,0.821 -2.468,0.761 -2.418,0.75 -2.625,0.809 -2.45,0.758 -2.656,0.82 -2.476,0.769 -2.43,0.75 -2.637,0.817 -2.461,0.762 -2.664,0.824 -2.621,0.808 -2.441,0.758 -2.645,0.817 -2.472,0.765 -2.426,0.75 -2.629,0.813 -2.453,0.758 -0.039,0.015 -0.043,0.012 -0.086,0.027 -0.172,0.051 -0.344,0.109 -0.683,0.211 -0.043,0.012 -0.043,0.016 -0.086,0.023 -0.172,0.055 -0.34,0.105 -0.043,0.012 -0.043,0.016 -0.086,0.027 -0.172,0.051 -0.043,0.011 -0.043,0.016 -0.086,0.027 -0.086,0.024 -0.043,0.015 -0.043,0.012" /><path
           inkscape:connector-curvature="0"
           id="path2517"
           style="fill:#5e81b5;fill-opacity:1;fill-rule:nonzero;stroke:#5e81b5;stroke-width:0.03;stroke-linecap:square;stroke-linejoin:miter;stroke-miterlimit:3.25;stroke-dasharray:none;stroke-opacity:1"
           d="m 95.395,56.051 -0.254,-0.274 -0.579,-0.66 -0.324,-0.402 -0.3,-0.418 -0.247,-0.399 -0.148,-0.351 -0.066,-0.34 -0.02,-0.461 0.008,-0.527 0.031,-0.547 0.082,-0.945 0.047,-0.403 -9.766,6.219 z" /><path
           inkscape:connector-curvature="0"
           id="path2519"
           style="fill:#000000;fill-opacity:1;fill-rule:evenodd;stroke:none"
           d="m 24.391,76 c 0,-0.633 -0.25,-1.242 -0.7,-1.691 -0.449,-0.45 -1.058,-0.7 -1.691,-0.7 -0.633,0 -1.242,0.25 -1.691,0.7 -0.45,0.449 -0.7,1.058 -0.7,1.691 0,0.633 0.25,1.242 0.7,1.691 0.449,0.45 1.058,0.7 1.691,0.7 0.633,0 1.242,-0.25 1.691,-0.7 0.45,-0.449 0.7,-1.058 0.7,-1.691 z" /><path
           inkscape:connector-curvature="0"
           id="path2521"
           style="fill:#000000;fill-opacity:1;fill-rule:evenodd;stroke:none"
           d="m 154.391,76 c 0,-0.633 -0.25,-1.242 -0.7,-1.691 -0.449,-0.45 -1.058,-0.7 -1.691,-0.7 -0.633,0 -1.242,0.25 -1.691,0.7 -0.45,0.449 -0.7,1.058 -0.7,1.691 0,0.633 0.25,1.242 0.7,1.691 0.449,0.45 1.058,0.7 1.691,0.7 0.633,0 1.242,-0.25 1.691,-0.7 0.45,-0.449 0.7,-1.058 0.7,-1.691 z" /><path
           inkscape:connector-curvature="0"
           id="path2523"
           style="fill:#000000;fill-opacity:1;fill-rule:evenodd;stroke:none"
           d="m 148.391,37 c 0,-0.633 -0.25,-1.242 -0.7,-1.691 -0.449,-0.45 -1.058,-0.7 -1.691,-0.7 -0.633,0 -1.242,0.25 -1.691,0.7 -0.45,0.449 -0.7,1.058 -0.7,1.691 0,0.633 0.25,1.242 0.7,1.691 0.449,0.45 1.058,0.7 1.691,0.7 0.633,0 1.242,-0.25 1.691,-0.7 0.45,-0.449 0.7,-1.058 0.7,-1.691 z" /><path
           inkscape:connector-curvature="0"
           id="path2525"
           style="fill:none;stroke:#666666;stroke-width:0.2;stroke-linecap:butt;stroke-linejoin:miter;stroke-miterlimit:3.25;stroke-dasharray:none;stroke-opacity:1"
           d="M 0.5,75.824 H 160" /><text
           id="text2529"
           style="font-style:italic;font-variant:normal;font-size:10px;font-family:Arial;-inkscape-font-specification:Arial-ItalicMT;writing-mode:lr-tb;fill:#666666;fill-opacity:1;fill-rule:nonzero;stroke:none"
           transform="translate(168,78.325)"><tspan
             id="tspan2527"
             y="0"
             x="0">v</tspan></text>
<text
           id="text2533"
           style="font-style:italic;font-variant:normal;font-size:9px;font-family:Arial;-inkscape-font-specification:Arial-ItalicMT;writing-mode:lr-tb;fill:#666666;fill-opacity:1;fill-rule:nonzero;stroke:none"
           transform="translate(173,80.325)"><tspan
             id="tspan2531"
             y="0"
             x="0">x</tspan></text>
<path
           inkscape:connector-curvature="0"
           id="path2535"
           style="fill:none;stroke:#666666;stroke-width:0.2;stroke-linecap:butt;stroke-linejoin:miter;stroke-miterlimit:3.25;stroke-dasharray:none;stroke-opacity:1"
           d="M 21.523,92.5 V 20" /><text
           id="text2539"
           style="font-style:italic;font-variant:normal;font-size:10px;font-family:Arial;-inkscape-font-specification:Arial-ItalicMT;writing-mode:lr-tb;fill:#666666;fill-opacity:1;fill-rule:nonzero;stroke:none"
           transform="translate(16.025,9)"><tspan
             id="tspan2537"
             y="0"
             x="0">v</tspan></text>
<text
           id="text2543"
           style="font-style:italic;font-variant:normal;font-size:9px;font-family:Arial;-inkscape-font-specification:Arial-ItalicMT;writing-mode:lr-tb;fill:#666666;fill-opacity:1;fill-rule:nonzero;stroke:none"
           transform="translate(21.025,11)"><tspan
             id="tspan2541"
             y="0"
             x="0">y</tspan></text>
</g></g><text
       xml:space="preserve"
       style="font-style:normal;font-weight:normal;font-size:30px;line-height:1.25;font-family:sans-serif;letter-spacing:0px;word-spacing:0px;fill:#000000;fill-opacity:1;stroke:none;stroke-width:0.75"
       x="-165.73903"
       y="63.1642"
       id="text2568"><tspan
         sodipodi:role="line"
         id="tspan2566"
         x="-165.73903"
         y="63.1642"
         style="font-size:15px;stroke-width:0.75">1</tspan></text>
<text
       xml:space="preserve"
       style="font-style:normal;font-weight:normal;font-size:30px;line-height:1.25;font-family:sans-serif;letter-spacing:0px;word-spacing:0px;fill:#000000;fill-opacity:1;stroke:none;stroke-width:0.75"
       x="-39.991352"
       y="66.02755"
       id="text2568-3"><tspan
         sodipodi:role="line"
         id="tspan2566-7"
         x="-39.991352"
         y="66.02755"
         style="font-size:15px;stroke-width:0.75">2</tspan></text>
<text
       xml:space="preserve"
       style="font-style:normal;font-weight:normal;font-size:30px;line-height:1.25;font-family:sans-serif;letter-spacing:0px;word-spacing:0px;fill:#000000;fill-opacity:1;stroke:none;stroke-width:0.75"
       x="-46.871307"
       y="-0.020044904"
       id="text2568-9"><tspan
         sodipodi:role="line"
         id="tspan2566-0"
         x="-46.871307"
         y="-0.020044904"
         style="font-size:15px;stroke-width:0.75">3</tspan></text>
<text
       xml:space="preserve"
       style="font-style:normal;font-weight:normal;font-size:30px;line-height:1.25;font-family:sans-serif;letter-spacing:0px;word-spacing:0px;fill:#000000;fill-opacity:1;stroke:none;stroke-width:0.75"
       x="-182.40648"
       y="39.195717"
       id="text2568-2"><tspan
         sodipodi:role="line"
         id="tspan2566-3"
         x="-182.40648"
         y="39.195717"
         style="font-size:15px;stroke-width:0.75">4</tspan></text>
<text
       xml:space="preserve"
       style="font-style:normal;font-weight:normal;font-size:30px;line-height:1.25;font-family:sans-serif;letter-spacing:0px;word-spacing:0px;fill:#000000;fill-opacity:1;stroke:none;stroke-width:0.75"
       x="9.2283773"
       y="64.651558"
       id="text2568-99"><tspan
         sodipodi:role="line"
         id="tspan2566-70"
         x="9.2283773"
         y="64.651558"
         style="font-size:15px;stroke-width:0.75">1</tspan></text>
<text
       xml:space="preserve"
       style="font-style:normal;font-weight:normal;font-size:30px;line-height:1.25;font-family:sans-serif;letter-spacing:0px;word-spacing:0px;fill:#000000;fill-opacity:1;stroke:none;stroke-width:0.75"
       x="75.925194"
       y="63.718445"
       id="text2568-3-3"><tspan
         sodipodi:role="line"
         id="tspan2566-7-9"
         x="75.925194"
         y="63.718445"
         style="font-size:15px;stroke-width:0.75">2</tspan></text>
<text
       xml:space="preserve"
       style="font-style:normal;font-weight:normal;font-size:30px;line-height:1.25;font-family:sans-serif;letter-spacing:0px;word-spacing:0px;fill:#000000;fill-opacity:1;stroke:none;stroke-width:0.75"
       x="96.736946"
       y="58.108276"
       id="text2568-9-5"><tspan
         sodipodi:role="line"
         id="tspan2566-0-7"
         x="96.736946"
         y="58.108276"
         style="font-size:15px;stroke-width:0.75">3</tspan></text>
<text
       xml:space="preserve"
       style="font-style:normal;font-weight:normal;font-size:30px;line-height:1.25;font-family:sans-serif;letter-spacing:0px;word-spacing:0px;fill:#000000;fill-opacity:1;stroke:none;stroke-width:0.75"
       x="155.24223"
       y="38.851719"
       id="text2568-2-6"><tspan
         sodipodi:role="line"
         id="tspan2566-3-2"
         x="155.24223"
         y="38.851719"
         style="font-size:15px;stroke-width:0.75">4</tspan></text>
<text
       xml:space="preserve"
       style="font-style:normal;font-weight:normal;font-size:30px;line-height:1.25;font-family:sans-serif;letter-spacing:0px;word-spacing:0px;fill:#000000;fill-opacity:1;stroke:none;stroke-width:0.75"
       x="25.483871"
       y="42.672134"
       id="text2695"><tspan
         sodipodi:role="line"
         id="tspan2693"
         x="25.483871"
         y="42.672134"
         style="font-style:normal;font-variant:normal;font-weight:normal;font-stretch:normal;font-size:8px;font-family:Helvetica;-inkscape-font-specification:Helvetica;stroke-width:0.75">accelerate</tspan></text>
<text
       xml:space="preserve"
       style="font-style:normal;font-weight:normal;font-size:30px;line-height:1.25;font-family:sans-serif;letter-spacing:0px;word-spacing:0px;fill:#000000;fill-opacity:1;stroke:none;stroke-width:0.75"
       x="92.329926"
       y="60.809139"
       id="text2695-7"
       transform="rotate(-15.22089)"><tspan
         sodipodi:role="line"
         id="tspan2693-0"
         x="92.329926"
         y="60.809139"
         style="font-style:normal;font-variant:normal;font-weight:normal;font-stretch:normal;font-size:7.99999952px;font-family:Helvetica;-inkscape-font-specification:Helvetica;stroke-width:0.75">decelerate</tspan></text>
<text
       xml:space="preserve"
       style="font-style:normal;font-weight:normal;font-size:30px;line-height:1.25;font-family:sans-serif;letter-spacing:0px;word-spacing:0px;fill:#000000;fill-opacity:1;stroke:none;stroke-width:0.75"
       x="1.154757"
       y="41.683079"
       id="text2695-3"><tspan
         sodipodi:role="line"
         id="tspan2693-9"
         x="1.154757"
         y="41.683079"
         style="font-style:normal;font-variant:normal;font-weight:normal;font-stretch:normal;font-size:7.99999952px;font-family:Helvetica;-inkscape-font-specification:Helvetica;stroke-width:0.75">rest</tspan></text>
<text
       xml:space="preserve"
       style="font-style:normal;font-weight:normal;font-size:30px;line-height:1.25;font-family:sans-serif;letter-spacing:0px;word-spacing:0px;fill:#000000;fill-opacity:1;stroke:none;stroke-width:0.75"
       x="151.9834"
       y="18.875978"
       id="text2695-3-9"><tspan
         sodipodi:role="line"
         id="tspan2693-9-9"
         x="151.9834"
         y="18.875978"
         style="font-style:normal;font-variant:normal;font-weight:normal;font-stretch:normal;font-size:7.99999952px;font-family:Helvetica;-inkscape-font-specification:Helvetica;stroke-width:0.75">rest</tspan></text>
</g></svg>