<?xml version="1.0" encoding="UTF-8" standalone="no"?>
<!-- Created with Inkscape (http://www.inkscape.org/) -->

<svg
   xmlns:dc="http://purl.org/dc/elements/1.1/"
   xmlns:cc="http://creativecommons.org/ns#"
   xmlns:rdf="http://www.w3.org/1999/02/22-rdf-syntax-ns#"
   xmlns:svg="http://www.w3.org/2000/svg"
   xmlns="http://www.w3.org/2000/svg"
   xmlns:sodipodi="http://sodipodi.sourceforge.net/DTD/sodipodi-0.dtd"
   xmlns:inkscape="http://www.inkscape.org/namespaces/inkscape"
   version="1.1"
   id="svg834"
   xml:space="preserve"
   width="240"
   height="248"
   viewBox="0 0 240 248"
   sodipodi:docname="hodograph_1_2.svg"
   inkscape:version="0.92.2 5c3e80d, 2017-08-06"
   inkscape:export-filename="/Users/lyxkg/Desktop/ANU/PHYS3001/report 2/pic/hodograph/hodograph_1_2.png"
   inkscape:export-xdpi="96"
   inkscape:export-ydpi="96"><metadata
     id="metadata840"><rdf:RDF><cc:Work
         rdf:about=""><dc:format>image/svg+xml</dc:format><dc:type
           rdf:resource="http://purl.org/dc/dcmitype/StillImage" /><dc:title></dc:title></cc:Work></rdf:RDF></metadata><defs
     id="defs838" /><sodipodi:namedview
     pagecolor="#ffffff"
     bordercolor="#666666"
     borderopacity="1"
     objecttolerance="10"
     gridtolerance="10"
     guidetolerance="10"
     inkscape:pageopacity="0"
     inkscape:pageshadow="2"
     inkscape:window-width="1232"
     inkscape:window-height="755"
     id="namedview836"
     showgrid="false"
     inkscape:zoom="1.1290323"
     inkscape:cx="23.144599"
     inkscape:cy="77.723093"
     inkscape:window-x="48"
     inkscape:window-y="1"
     inkscape:window-maximized="1"
     inkscape:current-layer="g1153" /><g
     id="g842"
     inkscape:groupmode="layer"
     inkscape:label="hodograph1"
     transform="matrix(1.3333333,0,0,1.3333333,0,6.2e-6)"><g
       id="g1112"><g
         id="g903"
         inkscape:label="hodograph2"
         transform="translate(-168.80708,2.1303571)"><g
           id="g905"><path
             d="m 133.773,148.648 5.793,-8.484 0.079,-0.117 0.156,-0.227 0.304,-0.461 0.606,-0.925 1.164,-1.883 0.07,-0.121 0.071,-0.118 0.14,-0.238 0.278,-0.48 0.546,-0.961 1.043,-1.949 0.071,-0.137 0.066,-0.133 0.137,-0.266 0.269,-0.535 0.524,-1.082 0.992,-2.183 0.117,-0.274 0.352,-0.832 0.449,-1.109 0.844,-2.246 0.094,-0.266 0.093,-0.262 0.184,-0.531 0.351,-1.062 0.086,-0.266 0.082,-0.27 0.168,-0.535 0.317,-1.074 0.078,-0.266 0.074,-0.269 0.149,-0.543 0.285,-1.082 0.519,-2.18 0.031,-0.133 0.028,-0.132 0.058,-0.27 0.114,-0.539 0.211,-1.078 0.027,-0.133 0.023,-0.137 0.051,-0.269 0.098,-0.539 0.18,-1.082 0.039,-0.274 0.043,-0.269 0.078,-0.543 0.078,-0.547 0.07,-0.543 0.016,-0.137 0.019,-0.136 0.032,-0.274 0.062,-0.543 0.113,-1.094 0.016,-0.148 0.012,-0.149 0.027,-0.296 0.051,-0.594 0.023,-0.297 0.059,-0.891 0.012,-0.148 0.062,-1.188 0.004,-0.148 0.012,-0.301 0.007,-0.148 0.012,-0.446 0.008,-0.148 0.004,-0.148 v -0.149 l 0.008,-0.297 0.004,-0.152 v -0.149 l 0.004,-0.148 v -0.148 l 0.003,-0.149 V 99.176 L 152.02,99.027 V 98.73 l -0.004,-0.148 -0.004,-0.152 v -0.149 l -0.02,-0.742 -0.008,-0.148 -0.007,-0.297 -0.008,-0.141 -0.004,-0.141 -0.012,-0.277 -0.008,-0.137 -0.004,-0.14 -0.015,-0.278 -0.008,-0.136 -0.008,-0.141 -0.015,-0.277 -0.036,-0.555 -0.011,-0.137 -0.008,-0.14 -0.02,-0.278 -0.047,-0.554 -0.011,-0.137 -0.012,-0.141 -0.023,-0.273 -0.055,-0.555 -0.012,-0.136 -0.015,-0.141 -0.028,-0.277 -0.062,-0.551 -0.137,-1.102 -0.016,-0.14 -0.058,-0.411 -0.078,-0.55 -0.168,-1.102 -0.024,-0.148 -0.027,-0.149 -0.047,-0.297 -0.105,-0.593 -0.223,-1.184 -0.031,-0.148 -0.028,-0.145 -0.062,-0.297 -0.121,-0.59 -0.266,-1.175 -0.031,-0.145 -0.035,-0.148 -0.071,-0.293 -0.144,-0.586 -0.301,-1.164 -0.664,-2.317 -0.043,-0.14 -0.043,-0.145 -0.086,-0.281 -0.18,-0.563 -0.371,-1.125 -0.8,-2.226 -0.051,-0.137 -0.055,-0.137 -0.105,-0.277 -0.215,-0.551 -0.446,-1.094 -0.945,-2.171 -0.058,-0.125 -0.055,-0.125 -0.352,-0.75 -0.48,-0.993 -1.004,-1.965 -0.067,-0.121 -0.062,-0.121 -0.398,-0.726 -0.54,-0.965 -1.124,-1.899 -0.079,-0.125 -0.078,-0.128 -0.156,-0.254 -0.32,-0.504 -0.653,-1.004 -1.347,-1.977 -0.09,-0.121 -0.086,-0.121 -0.176,-0.246 -0.351,-0.48 -0.715,-0.961 -1.481,-1.879 -0.086,-0.11 -0.09,-0.105 -0.175,-0.219 -0.36,-0.426 -0.726,-0.851 -1.489,-1.664 -0.093,-0.102 -0.098,-0.101 -0.187,-0.204 -0.387,-0.406 -0.774,-0.804 -1.593,-1.567 -0.098,-0.098 -0.098,-0.093 -0.199,-0.188 -0.402,-0.375 -0.809,-0.738 -1.648,-1.438 -0.106,-0.089 -0.105,-0.086 -0.211,-0.176 -0.422,-0.348 -0.852,-0.687 -1.734,-1.336 -0.117,-0.09 -0.121,-0.09 -0.238,-0.176 -0.481,-0.347 -0.969,-0.688 -1.972,-1.324 -0.125,-0.078 -0.125,-0.082 -0.25,-0.16 -0.504,-0.317 -1.012,-0.621 -2.059,-1.191 -0.968,-0.532 -0.981,-0.515 -1.984,-0.988 -0.125,-0.063 -0.125,-0.059 -0.254,-0.117 -0.5,-0.234 -1.012,-0.457 -2.043,-0.863 -0.137,-0.055 -0.14,-0.059 -0.277,-0.109 -0.563,-0.219 -1.125,-0.422 -2.269,-0.789 -0.141,-0.047 -0.145,-0.047 -0.285,-0.093 -0.574,-0.18 -1.148,-0.348 -2.317,-0.636 -0.289,-0.071 -0.285,-0.074 -0.57,-0.137 -1.153,-0.265 -0.144,-0.031 -0.141,-0.032 -0.289,-0.062 -0.578,-0.121 -1.156,-0.227 -0.149,-0.027 -0.144,-0.028 -0.289,-0.05 -0.582,-0.102 -1.164,-0.187 -0.29,-0.047 -0.293,-0.043 -0.585,-0.082 -1.168,-0.149 -0.137,-0.015 -0.137,-0.02 L 88.262,28.422 87.715,28.363 87.578,28.352 87.441,28.336 87.168,28.309 86.621,28.258 86.348,28.234 86.07,28.211 85.523,28.168 85.387,28.16 85.25,28.148 84.977,28.129 84.426,28.098 84.152,28.082 83.875,28.066 83.738,28.059 83.602,28.055 83.328,28.039 83.191,28.035 83.051,28.031 82.777,28.02 82.504,28.012 82.227,28.004 81.68,27.988 H 81.539 L 81.266,27.98 h -0.274 l -0.14,-0.003 h -1.27 L 79.43,27.98 h -0.149 l -0.148,0.004 h -0.149 l -0.296,0.008 -0.153,0.004 -0.594,0.016 -0.3,0.011 -0.149,0.004 -0.148,0.008 -0.297,0.012 -0.149,0.008 -0.148,0.004 -0.301,0.015 -0.148,0.008 -0.149,0.012 -0.297,0.015 -0.597,0.039 -0.297,0.024 -0.297,0.019 -0.594,0.051 -0.148,0.012 -0.149,0.016 -0.296,0.027 -0.594,0.058 -0.594,0.063 -0.594,0.07 -1.183,0.149 -0.274,0.039 -0.277,0.039 -0.551,0.082 -1.098,0.18 -0.14,0.023 -0.41,0.07 -0.547,0.098 -1.094,0.211 -0.273,0.055 -0.274,0.058 -0.543,0.113 -1.086,0.247 -2.16,0.539 -0.148,0.039 -0.145,0.039 -0.293,0.082 -0.578,0.16 -1.16,0.34 -2.297,0.738 -0.144,0.047 -0.141,0.051 -0.285,0.097 -0.571,0.204 -1.132,0.417 -2.243,0.887 -0.273,0.117 -0.273,0.114 -0.543,0.234 -1.082,0.484 -2.141,1.02 -0.129,0.066 -0.133,0.063 -0.265,0.137 -0.528,0.269 -1.047,0.551 -2.07,1.16 -0.117,0.066 -0.121,0.071 -0.238,0.14 -0.473,0.286 -0.942,0.578 -1.859,1.195 -0.113,0.078 -0.117,0.078 -0.227,0.153 -0.457,0.312 -0.906,0.637 -1.778,1.308 -0.121,0.09 -0.117,0.094 -0.238,0.18 -0.473,0.371 -0.937,0.746 -1.832,1.547 -0.227,0.195 -0.668,0.598 -0.887,0.808 -1.722,1.664 -0.102,0.098 -0.097,0.102 -0.196,0.199 -0.394,0.398 -0.774,0.809 -1.508,1.652 -0.093,0.102 -0.094,0.105 -0.551,0.633 -0.719,0.855 -1.406,1.743 -0.082,0.109 -0.086,0.109 -0.168,0.215 -0.332,0.438 -0.652,0.879 -1.27,1.789 -0.156,0.226 -0.152,0.227 -0.305,0.457 -0.602,0.918 -1.156,1.863 -0.078,0.129 -0.074,0.129 -0.152,0.254 -0.301,0.515 -0.586,1.036 -1.121,2.097 -0.133,0.266 -0.137,0.266 -0.265,0.535 -0.516,1.07 -0.981,2.168 -0.054,0.129 -0.055,0.125 -0.105,0.258 -0.215,0.511 -0.418,1.032 -0.785,2.074 -0.047,0.133 -0.047,0.129 -0.094,0.261 -0.18,0.528 -0.351,1.05 -0.656,2.122 -0.043,0.144 -0.039,0.145 -0.082,0.289 -0.164,0.582 -0.309,1.164 -0.07,0.289 -0.075,0.293 -0.14,0.586 -0.27,1.172 -0.031,0.148 -0.035,0.145 -0.063,0.296 -0.121,0.59 -0.23,1.18 -0.055,0.297 -0.051,0.297 -0.101,0.59 -0.192,1.191 -0.019,0.145 -0.024,0.148 -0.043,0.289 -0.078,0.586 -0.019,0.148 -0.02,0.145 -0.039,0.293 -0.07,0.586 -0.02,0.148 L 8.93,91.676 8.898,91.973 8.836,92.559 8.82,92.707 8.809,92.852 8.781,93.148 8.727,93.734 8.703,94.031 8.68,94.324 8.668,94.473 8.66,94.617 8.637,94.914 8.629,95.062 8.617,95.207 8.602,95.504 8.566,96.094 8.562,96.242 8.555,96.387 8.539,96.684 8.535,96.832 8.527,96.977 8.52,97.273 8.512,97.422 8.508,97.57 8.504,97.715 8.488,98.309 v 0.144 L 8.484,98.594 8.48,98.73 v 0.274 l -0.003,0.141 v 1.238 l 0.003,0.137 v 0.14 l 0.004,0.137 v 0.137 l 0.004,0.136 v 0.141 l 0.008,0.273 0.008,0.278 0.008,0.273 0.008,0.277 0.007,0.137 0.004,0.137 0.012,0.277 0.004,0.137 0.008,0.137 0.015,0.277 0.004,0.137 0.024,0.41 0.007,0.141 0.012,0.136 0.016,0.274 0.039,0.55 0.012,0.137 0.007,0.137 0.024,0.277 0.047,0.547 0.105,1.098 0.016,0.148 0.019,0.149 0.032,0.297 0.07,0.593 0.019,0.149 0.016,0.148 0.039,0.297 0.082,0.59 0.039,0.297 0.043,0.297 0.09,0.589 0.195,1.18 0.024,0.145 0.027,0.148 0.055,0.293 0.105,0.59 0.235,1.172 0.527,2.332 0.031,0.137 0.031,0.132 0.071,0.274 0.137,0.539 0.289,1.078 0.625,2.141 0.043,0.132 0.039,0.133 0.257,0.797 0.356,1.059 0.758,2.097 0.047,0.129 0.05,0.129 0.098,0.254 0.199,0.508 0.41,1.016 0.868,2.007 0.058,0.125 0.055,0.121 0.113,0.25 0.231,0.497 0.472,0.988 0.989,1.949 0.07,0.133 0.07,0.129 0.137,0.262 0.285,0.523 0.578,1.035 1.207,2.043 0.078,0.125 0.078,0.129 0.157,0.25 0.316,0.504 0.645,0.996 1.34,1.957 0.164,0.227 0.16,0.222 0.324,0.449 0.66,0.891 1.363,1.742 0.086,0.11 0.09,0.105 0.172,0.215 0.355,0.43 0.715,0.843 1.465,1.661 0.203,0.218 0.203,0.223 0.411,0.437 0.832,0.868 1.707,1.687 0.109,0.106 0.105,0.101 0.219,0.207 0.438,0.41 0.89,0.809 1.813,1.57 0.109,0.09 0.106,0.09 0.215,0.18 0.437,0.355 0.875,0.699 1.785,1.356 0.11,0.082 0.113,0.082 0.226,0.168 0.457,0.324 0.918,0.645 1.864,1.242 0.234,0.148 0.231,0.149 0.464,0.293 0.938,0.57 1.902,1.105 0.117,0.067 0.364,0.199 0.48,0.266 0.969,0.515 1.965,0.985 0.137,0.062 0.132,0.067 0.27,0.128 0.539,0.25 1.086,0.493 2.195,0.929 0.141,0.055 0.137,0.055 0.277,0.109 0.555,0.215 1.117,0.418 2.254,0.781 0.132,0.043 0.129,0.043 0.266,0.086 0.531,0.168 1.067,0.32 0.531,0.157 0.535,0.148 1.074,0.289 0.137,0.035 0.133,0.035 0.269,0.067 0.543,0.136 1.082,0.254 2.176,0.461 0.149,0.028 0.148,0.031 0.297,0.055 0.59,0.105 1.191,0.203 0.594,0.094 0.597,0.086 1.196,0.164 0.148,0.016 0.149,0.019 0.3,0.035 0.598,0.071 0.149,0.015 0.152,0.016 0.301,0.031 0.597,0.059 0.153,0.011 0.148,0.016 0.902,0.07 0.149,0.012 0.152,0.012 0.903,0.058 0.144,0.008 0.742,0.039 0.293,0.012 0.149,0.008 0.148,0.004 0.149,0.007 0.148,0.004 0.145,0.004 1.039,0.028 h 0.144 l 0.149,0.004 h 0.148 l 0.148,0.003 h 1.333 l 0.148,-0.003 h 0.148 l 0.145,-0.004 0.148,-0.004 h 0.149 l 0.742,-0.02 0.144,-0.004 0.149,-0.004 0.148,-0.007 0.297,-0.012 0.149,-0.004 0.144,-0.008 0.297,-0.012 0.297,-0.015 0.293,-0.016 0.148,-0.012 0.149,-0.007 0.297,-0.02 0.59,-0.039 0.136,-0.012 0.137,-0.008 0.277,-0.023 0.547,-0.047 0.141,-0.012 0.137,-0.011 0.273,-0.028 0.551,-0.054 0.547,-0.063 0.55,-0.062 1.094,-0.141 0.137,-0.019 0.137,-0.016 0.273,-0.039 0.547,-0.082 1.09,-0.172 0.273,-0.047 0.27,-0.047 0.543,-0.097 1.086,-0.207 0.144,-0.032 0.149,-0.027 0.879,-0.188 1.167,-0.261 0.29,-0.071 0.293,-0.07 0.582,-0.141 1.156,-0.304 0.578,-0.156 0.574,-0.165 1.149,-0.339 2.277,-0.739 0.133,-0.043 0.398,-0.14 0.524,-0.188 1.05,-0.386 2.079,-0.821 0.257,-0.109 0.258,-0.106 0.512,-0.218 1.023,-0.453 2.024,-0.95 0.125,-0.062 0.121,-0.059 0.246,-0.121 0.488,-0.246 0.973,-0.504 1.922,-1.051 0.121,-0.07 0.117,-0.066 0.238,-0.137 0.473,-0.274 0.941,-0.562 1.856,-1.168 0.125,-0.082 0.125,-0.078 0.246,-0.164 0.496,-0.332 0.98,-0.672 1.926,-1.395 0.117,-0.09 0.122,-0.089 0.234,-0.18 0.473,-0.359 0.933,-0.739 1.828,-1.515 0.106,-0.09 0.105,-0.094 0.211,-0.18 0.414,-0.367 0.824,-0.742 1.618,-1.52 0.097,-0.097 0.102,-0.098 0.195,-0.191 0.395,-0.395 0.777,-0.789 1.516,-1.617 0.105,-0.117 0.106,-0.114 0.207,-0.23 0.41,-0.465 0.808,-0.937 1.571,-1.914 0.093,-0.121 0.098,-0.122 0.188,-0.246 0.378,-0.488 0.743,-0.992 0.093,-0.125 0.09,-0.125 0.184,-0.25 0.359,-0.504 0.09,-0.125 0.09,-0.129 0.176,-0.254 0.09,-0.125 0.085,-0.129 0.09,-0.125 0.086,-0.129"
             style="fill:none;stroke:#5e81b5;stroke-width:1.60000002;stroke-linecap:butt;stroke-linejoin:miter;stroke-miterlimit:3.25;stroke-dasharray:none;stroke-opacity:1"
             id="path907"
             inkscape:connector-curvature="0" /><path
             d="m 130.766,147.84 0.371,0.055 0.863,0.156 0.504,0.113 0.496,0.141 0.438,0.16 0.335,0.183 0.262,0.227 0.305,0.344 0.324,0.422 0.316,0.445 0.52,0.789 0.215,0.348 3.773,-10.946 z"
             style="fill:#5e81b5;fill-opacity:1;fill-rule:nonzero;stroke:#5e81b5;stroke-width:0.03;stroke-linecap:square;stroke-linejoin:miter;stroke-miterlimit:3.25;stroke-dasharray:none;stroke-opacity:1"
             id="path909"
             inkscape:connector-curvature="0" /><path
             d="m 127.633,49.805 0.082,-0.364 0.223,-0.851 0.156,-0.492 0.176,-0.485 0.191,-0.422 0.211,-0.324 0.246,-0.242 0.371,-0.277 0.441,-0.289 0.469,-0.282 0.828,-0.457 0.364,-0.187 -10.618,-4.617 z"
             style="fill:#5e81b5;fill-opacity:1;fill-rule:nonzero;stroke:#5e81b5;stroke-width:0.03;stroke-linecap:square;stroke-linejoin:miter;stroke-miterlimit:3.25;stroke-dasharray:none;stroke-opacity:1"
             id="path911"
             inkscape:connector-curvature="0" /><path
             d="M 30.301,52.371 29.938,52.285 29.09,52.062 28.594,51.91 28.113,51.73 27.688,51.539 27.367,51.328 27.125,51.082 26.848,50.711 26.559,50.27 26.277,49.801 25.82,48.973 25.633,48.609 21.012,59.223 Z"
             style="fill:#5e81b5;fill-opacity:1;fill-rule:nonzero;stroke:#5e81b5;stroke-width:0.03;stroke-linecap:square;stroke-linejoin:miter;stroke-miterlimit:3.25;stroke-dasharray:none;stroke-opacity:1"
             id="path913"
             inkscape:connector-curvature="0" /><path
             d="m 32.867,149.699 -0.082,0.36 -0.223,0.851 -0.152,0.496 -0.18,0.481 -0.191,0.425 -0.211,0.321 -0.246,0.242 -0.371,0.277 -0.441,0.289 -0.469,0.282 -0.828,0.457 -0.364,0.187 10.618,4.617 z"
             style="fill:#5e81b5;fill-opacity:1;fill-rule:nonzero;stroke:#5e81b5;stroke-width:0.03;stroke-linecap:square;stroke-linejoin:miter;stroke-miterlimit:3.25;stroke-dasharray:none;stroke-opacity:1"
             id="path915"
             inkscape:connector-curvature="0" /><path
             d="m 82.391,28 c 0,-0.633 -0.25,-1.242 -0.7,-1.691 -0.449,-0.45 -1.058,-0.7 -1.691,-0.7 -0.633,0 -1.242,0.25 -1.691,0.7 -0.45,0.449 -0.7,1.058 -0.7,1.691 0,0.633 0.25,1.242 0.7,1.691 0.449,0.45 1.058,0.7 1.691,0.7 0.633,0 1.242,-0.25 1.691,-0.7 0.45,-0.449 0.7,-1.058 0.7,-1.691 z"
             style="fill:#000000;fill-opacity:1;fill-rule:evenodd;stroke:none"
             id="path917"
             inkscape:connector-curvature="0" /><path
             d="m 154.391,100 c 0,-0.633 -0.25,-1.242 -0.7,-1.691 -0.449,-0.45 -1.058,-0.7 -1.691,-0.7 -0.633,0 -1.242,0.25 -1.691,0.7 -0.45,0.449 -0.7,1.058 -0.7,1.691 0,0.633 0.25,1.242 0.7,1.691 0.449,0.45 1.058,0.7 1.691,0.7 0.633,0 1.242,-0.25 1.691,-0.7 0.45,-0.449 0.7,-1.058 0.7,-1.691 z"
             style="fill:#000000;fill-opacity:1;fill-rule:evenodd;stroke:none"
             id="path919"
             inkscape:connector-curvature="0" /><path
             d="m 10.391,100 c 0,-0.633 -0.25,-1.242 -0.7,-1.691 -0.449,-0.45 -1.058,-0.7 -1.691,-0.7 -0.633,0 -1.242,0.25 -1.691,0.7 -0.45,0.449 -0.7,1.058 -0.7,1.691 0,0.633 0.25,1.242 0.7,1.691 0.449,0.45 1.058,0.7 1.691,0.7 0.633,0 1.242,-0.25 1.691,-0.7 0.45,-0.449 0.7,-1.058 0.7,-1.691 z"
             style="fill:#000000;fill-opacity:1;fill-rule:evenodd;stroke:none"
             id="path921"
             inkscape:connector-curvature="0" /><path
             d="m 82.391,172 c 0,-0.633 -0.25,-1.242 -0.7,-1.691 -0.449,-0.45 -1.058,-0.7 -1.691,-0.7 -0.633,0 -1.242,0.25 -1.691,0.7 -0.45,0.449 -0.7,1.058 -0.7,1.691 0,0.633 0.25,1.242 0.7,1.691 0.449,0.45 1.058,0.7 1.691,0.7 0.633,0 1.242,-0.25 1.691,-0.7 0.45,-0.449 0.7,-1.058 0.7,-1.691 z"
             style="fill:#000000;fill-opacity:1;fill-rule:evenodd;stroke:none"
             id="path923"
             inkscape:connector-curvature="0" /><path
             d="M 0.5,99.75 H 160"
             style="fill:none;stroke:#666666;stroke-width:0.2;stroke-linecap:butt;stroke-linejoin:miter;stroke-miterlimit:3.25;stroke-dasharray:none;stroke-opacity:1"
             id="path925"
             inkscape:connector-curvature="0" /><text
             transform="translate(168,102.24999)"
             style="font-style:italic;font-variant:normal;font-size:10px;font-family:Arial;-inkscape-font-specification:Arial-ItalicMT;writing-mode:lr-tb;fill:#666666;fill-opacity:1;fill-rule:nonzero;stroke:none"
             id="text929"><tspan
               x="0"
               y="0"
               id="tspan927">v</tspan></text>
<text
             transform="translate(173,104.24999)"
             style="font-style:italic;font-variant:normal;font-size:9px;font-family:Arial;-inkscape-font-specification:Arial-ItalicMT;writing-mode:lr-tb;fill:#666666;fill-opacity:1;fill-rule:nonzero;stroke:none"
             id="text933"><tspan
               x="0"
               y="0"
               id="tspan931">x</tspan></text>
<path
             d="M 80.25,179.5 V 20"
             style="fill:none;stroke:#666666;stroke-width:0.2;stroke-linecap:butt;stroke-linejoin:miter;stroke-miterlimit:3.25;stroke-dasharray:none;stroke-opacity:1"
             id="path935"
             inkscape:connector-curvature="0" /><text
             transform="translate(74.749991,9)"
             style="font-style:italic;font-variant:normal;font-size:10px;font-family:Arial;-inkscape-font-specification:Arial-ItalicMT;writing-mode:lr-tb;fill:#666666;fill-opacity:1;fill-rule:nonzero;stroke:none"
             id="text939"><tspan
               x="0"
               y="0"
               id="tspan937">v</tspan></text>
<text
             transform="translate(79.749991,11)"
             style="font-style:italic;font-variant:normal;font-size:9px;font-family:Arial;-inkscape-font-specification:Arial-ItalicMT;writing-mode:lr-tb;fill:#666666;fill-opacity:1;fill-rule:nonzero;stroke:none"
             id="text943"><tspan
               x="0"
               y="0"
               id="tspan941">y</tspan></text>
</g></g><g
         id="g1031"><text
           xml:space="preserve"
           style="font-style:normal;font-weight:normal;font-size:30px;line-height:1.25;font-family:sans-serif;letter-spacing:0px;word-spacing:0px;fill:#000000;fill-opacity:1;stroke:none;stroke-width:0.75"
           x="-85.028572"
           y="167.40001"
           id="text968"><tspan
             sodipodi:role="line"
             id="tspan966"
             x="-85.028572"
             y="167.40001"
             style="font-size:15px;stroke-width:0.75">1</tspan></text>
<text
           xml:space="preserve"
           style="font-style:normal;font-weight:normal;font-size:30px;line-height:1.25;font-family:sans-serif;letter-spacing:0px;word-spacing:0px;fill:#000000;fill-opacity:1;stroke:none;stroke-width:0.75"
           x="-30.146423"
           y="98.467522"
           id="text968-7"><tspan
             sodipodi:role="line"
             id="tspan966-9"
             x="-30.146423"
             y="98.467522"
             style="font-size:15px;stroke-width:0.75">2</tspan></text>
<text
           xml:space="preserve"
           style="font-style:normal;font-weight:normal;font-size:30px;line-height:1.25;font-family:sans-serif;letter-spacing:0px;word-spacing:0px;fill:#000000;fill-opacity:1;stroke:none;stroke-width:0.75"
           x="-86.61071"
           y="46.65324"
           id="text968-3"><tspan
             sodipodi:role="line"
             id="tspan966-8"
             x="-86.61071"
             y="46.65324"
             style="font-size:15px;stroke-width:0.75">3</tspan></text>
<text
           xml:space="preserve"
           style="font-style:normal;font-weight:normal;font-size:30px;line-height:1.25;font-family:sans-serif;letter-spacing:0px;word-spacing:0px;fill:#000000;fill-opacity:1;stroke:none;stroke-width:0.75"
           x="-157.02499"
           y="98.467529"
           id="text968-0"><tspan
             sodipodi:role="line"
             id="tspan966-2"
             x="-157.02499"
             y="98.467529"
             style="font-size:15px;stroke-width:0.75">4</tspan></text>
</g></g><g
       id="g1153"
       transform="translate(15)"><g
         id="g1256"><g
           id="g844"
           transform="translate(10.5,-0.36964291)"><path
             d="m 138.789,152.488 6.008,-8.804 0.082,-0.118 0.16,-0.238 0.32,-0.48 0.625,-0.961 1.207,-1.953 0.075,-0.122 0.074,-0.124 0.144,-0.247 0.289,-0.496 0.567,-1 1.082,-2.023 0.074,-0.141 0.07,-0.136 0.141,-0.278 0.277,-0.558 0.543,-1.118 1.032,-2.265 0.062,-0.145 0.059,-0.144 0.125,-0.285 0.238,-0.575 0.469,-1.152 0.875,-2.332 0.051,-0.137 0.046,-0.136 0.098,-0.274 0.188,-0.551 0.367,-1.101 0.043,-0.137 0.043,-0.141 0.089,-0.277 0.172,-0.555 0.328,-1.113 0.04,-0.141 0.043,-0.14 0.078,-0.278 0.152,-0.562 0.297,-1.121 0.539,-2.262 0.031,-0.14 0.028,-0.141 0.062,-0.277 0.117,-0.559 0.219,-1.117 0.027,-0.141 0.028,-0.137 0.152,-0.843 0.184,-1.121 0.046,-0.282 0.043,-0.285 0.082,-0.562 0.079,-0.563 0.074,-0.566 0.015,-0.141 0.02,-0.14 0.031,-0.286 0.067,-0.566 0.117,-1.133 0.031,-0.305 0.027,-0.308 0.051,-0.617 0.012,-0.153 0.012,-0.156 0.023,-0.308 0.039,-0.618 0.012,-0.152 0.008,-0.152 0.019,-0.309 0.008,-0.156 0.008,-0.153 0.012,-0.308 0.007,-0.156 0.008,-0.153 0.012,-0.312 0.008,-0.153 0.004,-0.156 0.007,-0.308 0.008,-0.153 0.004,-0.156 0.004,-0.152 v -0.157 l 0.004,-0.152 0.004,-0.156 0.004,-0.153 v -0.156 l 0.004,-0.156 v -0.461 l 0.004,-0.156 v -0.309 l -0.004,-0.152 V 101 l -0.004,-0.156 v -0.153 l -0.004,-0.156 -0.004,-0.152 v -0.156 l -0.004,-0.153 -0.004,-0.156 -0.004,-0.152 -0.004,-0.157 -0.004,-0.152 -0.007,-0.156 -0.008,-0.309 -0.008,-0.144 -0.004,-0.145 -0.016,-0.289 -0.003,-0.141 -0.04,-0.722 -0.015,-0.285 -0.035,-0.578 -0.012,-0.145 -0.012,-0.141 -0.019,-0.289 -0.047,-0.574 -0.024,-0.289 -0.027,-0.285 -0.055,-0.574 -0.011,-0.145 -0.016,-0.144 -0.031,-0.286 -0.063,-0.574 -0.14,-1.144 -0.02,-0.145 -0.019,-0.141 -0.039,-0.285 -0.082,-0.574 -0.176,-1.137 -0.024,-0.156 -0.027,-0.152 -0.051,-0.309 -0.109,-0.617 -0.231,-1.227 -0.031,-0.156 -0.094,-0.457 -0.125,-0.613 -0.273,-1.219 -0.07,-0.305 -0.075,-0.304 -0.148,-0.606 -0.313,-1.211 -0.687,-2.402 -0.047,-0.148 -0.043,-0.145 -0.094,-0.293 -0.183,-0.586 -0.387,-1.164 -0.828,-2.312 -0.055,-0.145 -0.055,-0.141 -0.109,-0.289 -0.226,-0.57 -0.461,-1.137 -0.981,-2.25 -0.058,-0.129 -0.059,-0.132 -0.121,-0.258 -0.242,-0.52 -0.5,-1.031 -1.043,-2.035 -0.067,-0.129 -0.066,-0.125 -0.137,-0.254 -0.273,-0.5 -0.563,-1 -1.168,-1.969 -0.078,-0.132 -0.082,-0.133 -0.164,-0.262 -0.332,-0.527 -0.676,-1.039 -1.402,-2.051 -0.18,-0.25 -0.179,-0.254 -0.368,-0.5 -0.742,-0.996 -1.535,-1.949 -0.09,-0.114 -0.094,-0.113 -0.183,-0.223 -0.371,-0.445 -0.754,-0.883 -1.543,-1.726 -0.098,-0.106 -0.101,-0.105 -0.196,-0.211 -0.398,-0.422 -0.809,-0.832 -1.648,-1.629 -0.102,-0.098 -0.105,-0.097 -0.203,-0.196 -0.418,-0.386 -0.836,-0.766 -1.715,-1.496 -0.109,-0.09 -0.106,-0.094 -0.219,-0.179 -0.437,-0.364 -0.887,-0.714 -1.801,-1.383 -0.121,-0.094 -0.125,-0.09 -0.246,-0.183 -0.5,-0.364 -1.008,-0.711 -2.047,-1.375 -0.128,-0.082 -0.129,-0.086 -0.258,-0.164 -0.524,-0.328 -1.05,-0.644 -2.133,-1.239 -0.125,-0.066 -0.125,-0.07 -0.254,-0.141 -0.504,-0.273 -1.02,-0.536 -2.058,-1.027 -0.258,-0.125 -0.262,-0.121 -0.519,-0.242 -1.051,-0.473 -2.117,-0.898 -0.145,-0.055 -0.433,-0.176 -0.582,-0.226 -1.168,-0.438 -2.356,-0.82 -0.144,-0.047 -0.149,-0.051 -0.297,-0.094 -0.597,-0.187 -1.192,-0.359 -2.406,-0.661 -0.148,-0.039 -0.149,-0.035 -0.89,-0.223 L 99.367,29.039 99.219,29.008 99.066,28.973 98.77,28.91 98.168,28.785 96.969,28.551 96.816,28.52 96.668,28.492 96.367,28.438 95.762,28.332 94.555,28.137 94.402,28.113 94.254,28.094 93.949,28.047 93.344,27.961 92.129,27.805 91.848,27.773 91.562,27.742 90.996,27.68 90.855,27.664 90.711,27.648 90.43,27.621 89.859,27.57 89.719,27.555 89.574,27.543 89.289,27.52 88.723,27.477 88.578,27.465 88.438,27.457 88.152,27.438 87.582,27.402 87.441,27.395 87.297,27.387 87.012,27.371 86.871,27.363 86.727,27.355 86.441,27.344 86.301,27.336 86.156,27.332 85.871,27.32 85.73,27.316 85.586,27.312 85.301,27.305 85.16,27.301 85.016,27.297 84.875,27.293 84.73,27.289 84.59,27.285 h -0.145 l -0.14,-0.004 H 84.16 L 84.02,27.277 H 83.59 L 83.449,27.273 H 83.02 l -0.157,0.004 h -0.308 l -0.153,0.004 h -0.156 l -0.156,0.004 h -0.152 l -0.313,0.008 -0.152,0.004 -0.157,0.004 -0.152,0.004 -0.312,0.007 -0.309,0.012 -0.152,0.004 -0.157,0.008 -0.308,0.012 -0.156,0.007 -0.153,0.008 -0.308,0.016 -0.157,0.008 -0.152,0.008 -0.312,0.019 -0.618,0.043 -0.152,0.008 -0.156,0.012 -0.309,0.023 -0.617,0.051 -0.152,0.015 -0.157,0.012 -0.304,0.031 -0.618,0.059 -0.156,0.016 -0.152,0.015 -0.309,0.035 -0.613,0.071 -1.23,0.16 -0.141,0.019 -0.145,0.02 -0.285,0.039 -0.57,0.086 -1.141,0.183 -0.144,0.024 -0.141,0.023 -0.855,0.153 -1.133,0.218 -0.141,0.032 -0.144,0.027 -0.282,0.059 -0.566,0.121 -1.125,0.254 -2.242,0.558 -0.152,0.043 -0.153,0.039 -0.301,0.082 -0.601,0.168 -1.203,0.356 -2.383,0.765 -0.149,0.047 -0.148,0.051 -0.297,0.106 -0.59,0.207 -1.175,0.433 -2.329,0.922 -0.14,0.062 -0.141,0.059 -0.285,0.121 -0.563,0.242 -1.125,0.5 -2.218,1.059 -0.137,0.066 -0.137,0.071 -0.277,0.136 -0.547,0.282 -1.086,0.574 -2.144,1.199 -0.125,0.074 -0.125,0.071 -0.247,0.144 -0.492,0.297 -0.976,0.598 -1.926,1.242 -0.121,0.082 -0.117,0.078 -0.239,0.16 -0.472,0.324 -0.942,0.661 -1.847,1.359 -0.121,0.094 -0.125,0.093 -0.739,0.575 -0.968,0.773 -1.903,1.606 -0.234,0.203 -0.231,0.207 -0.464,0.414 -0.918,0.84 -1.789,1.722 -0.208,0.207 -0.609,0.621 -0.805,0.836 -1.566,1.715 -0.094,0.11 -0.097,0.109 -0.192,0.219 -0.379,0.437 -0.75,0.887 -1.457,1.809 -0.172,0.226 -0.175,0.223 -0.344,0.453 -0.68,0.914 -1.316,1.855 -0.082,0.118 -0.078,0.117 -0.161,0.238 -0.316,0.473 -0.621,0.953 -1.203,1.933 -0.156,0.266 -0.161,0.266 -0.308,0.531 -0.61,1.074 -1.164,2.18 -0.14,0.273 -0.137,0.278 -0.277,0.55 -0.535,1.114 -1.016,2.25 -0.059,0.132 -0.054,0.133 -0.114,0.266 -0.222,0.531 -0.434,1.067 -0.812,2.156 -0.051,0.137 -0.047,0.136 -0.098,0.27 -0.187,0.543 -0.363,1.094 -0.68,2.203 -0.047,0.148 -0.043,0.152 -0.086,0.297 -0.164,0.602 -0.32,1.211 -0.039,0.148 -0.039,0.153 -0.075,0.304 -0.148,0.606 -0.277,1.218 -0.036,0.153 -0.031,0.152 -0.066,0.305 -0.125,0.609 -0.239,1.227 -0.031,0.152 -0.027,0.156 -0.055,0.305 -0.105,0.617 -0.196,1.235 -0.023,0.148 -0.024,0.152 -0.042,0.305 -0.086,0.606 -0.079,0.609 -0.074,0.609 -0.015,0.153 -0.02,0.152 -0.031,0.305 -0.067,0.609 -0.015,0.152 -0.012,0.153 -0.031,0.304 -0.055,0.61 -0.023,0.304 -0.024,0.309 -0.023,0.305 -0.02,0.304 -0.011,0.153 -0.008,0.156 -0.02,0.305 -0.035,0.613 -0.016,0.305 -0.011,0.304 -0.008,0.157 -0.004,0.152 -0.012,0.305 -0.008,0.152 -0.003,0.156 -0.016,0.61 -0.004,0.156 v 0.152 l -0.004,0.141 -0.004,0.144 v 0.145 l -0.004,0.141 v 0.429 l -0.004,0.145 v 0.426 l 0.004,0.144 v 0.43 l 0.004,0.14 v 0.145 l 0.004,0.144 0.004,0.141 v 0.145 l 0.004,0.14 0.004,0.145 0.008,0.285 0.004,0.144 0.003,0.141 0.012,0.285 0.004,0.145 0.004,0.14 0.012,0.289 0.008,0.141 0.007,0.145 0.012,0.285 0.008,0.14 0.008,0.145 0.015,0.285 0.008,0.141 0.012,0.144 0.016,0.285 0.042,0.571 0.008,0.144 0.012,0.141 0.023,0.285 0.051,0.57 0.11,1.137 0.015,0.156 0.016,0.153 0.035,0.308 0.074,0.617 0.039,0.305 0.039,0.309 0.082,0.613 0.02,0.156 0.023,0.153 0.043,0.308 0.094,0.61 0.203,1.226 0.028,0.152 0.023,0.153 0.055,0.304 0.113,0.61 0.242,1.215 0.547,2.422 0.035,0.14 0.031,0.141 0.071,0.281 0.144,0.559 0.297,1.121 0.652,2.219 0.043,0.14 0.043,0.137 0.086,0.277 0.18,0.551 0.367,1.098 0.785,2.175 0.203,0.532 0.208,0.527 0.429,1.051 0.899,2.086 0.234,0.515 0.238,0.516 0.492,1.023 1.024,2.024 0.074,0.137 0.07,0.136 0.145,0.27 0.297,0.543 0.598,1.074 1.253,2.121 0.082,0.129 0.079,0.133 0.164,0.262 0.328,0.519 0.672,1.031 1.386,2.035 0.086,0.118 0.082,0.117 0.168,0.23 0.336,0.465 0.688,0.922 1.414,1.813 0.09,0.113 0.09,0.109 0.183,0.223 0.363,0.445 0.743,0.875 1.523,1.723 0.105,0.113 0.106,0.117 0.211,0.227 0.426,0.453 0.863,0.898 1.769,1.754 0.11,0.11 0.113,0.105 0.227,0.215 0.457,0.426 0.918,0.84 1.883,1.629 0.226,0.187 0.223,0.184 0.449,0.367 0.91,0.726 1.852,1.411 0.234,0.171 0.234,0.168 0.473,0.34 0.953,0.668 1.934,1.289 0.242,0.157 0.238,0.152 0.485,0.301 0.972,0.597 1.973,1.145 0.121,0.07 0.125,0.07 0.75,0.411 1.008,0.535 2.18,1.09 0.136,0.066 0.282,0.133 0.558,0.262 1.129,0.507 2.277,0.965 0.145,0.055 0.141,0.059 0.867,0.339 1.156,0.434 2.336,0.809 0.137,0.042 0.14,0.047 0.274,0.086 0.55,0.176 1.106,0.332 0.137,0.043 0.14,0.039 0.832,0.235 1.114,0.3 0.281,0.071 0.277,0.074 0.563,0.137 1.121,0.265 2.261,0.477 0.153,0.031 0.152,0.027 0.309,0.059 0.613,0.113 1.234,0.207 0.157,0.028 0.152,0.023 0.309,0.047 0.621,0.094 1.238,0.164 0.156,0.019 0.153,0.02 0.312,0.039 0.621,0.07 0.313,0.031 0.308,0.036 0.625,0.058 0.156,0.016 0.153,0.012 0.312,0.027 0.625,0.051 0.313,0.023 0.308,0.02 0.625,0.039 0.153,0.007 0.156,0.008 0.305,0.02 0.152,0.008 0.156,0.004 0.305,0.015 0.156,0.004 0.153,0.008 0.152,0.004 0.152,0.008 0.157,0.004 0.457,0.011 0.156,0.004 0.304,0.008 0.157,0.004 h 0.152 l 0.152,0.004 h 0.153 l 0.156,0.004 h 0.305 l 0.156,0.004 h 0.305 l 0.156,-0.004 h 0.457 l 0.156,-0.004 h 0.153 l 0.152,-0.004 h 0.156 l 0.305,-0.008 0.156,-0.004 0.457,-0.012 0.156,-0.003 0.153,-0.008 0.152,-0.004 0.309,-0.012 0.152,-0.008 0.152,-0.004 0.309,-0.015 0.305,-0.016 0.308,-0.016 0.153,-0.011 0.152,-0.008 0.308,-0.02 0.61,-0.043 0.144,-0.011 0.145,-0.008 0.285,-0.024 0.57,-0.05 0.141,-0.012 0.145,-0.012 0.285,-0.027 0.57,-0.059 0.141,-0.015 0.144,-0.016 0.281,-0.031 0.571,-0.067 1.136,-0.144 0.141,-0.02 0.145,-0.019 0.281,-0.039 0.566,-0.086 1.133,-0.18 0.563,-0.094 0.566,-0.101 1.125,-0.215 0.609,-0.125 0.606,-0.129 1.211,-0.273 0.304,-0.071 0.903,-0.222 1.203,-0.313 0.148,-0.043 0.153,-0.039 0.297,-0.082 0.597,-0.168 1.192,-0.355 2.363,-0.766 0.273,-0.094 0.278,-0.097 0.543,-0.192 1.089,-0.402 2.157,-0.852 0.133,-0.058 0.136,-0.055 0.797,-0.34 1.063,-0.469 2.101,-0.984 0.125,-0.062 0.129,-0.063 0.254,-0.129 0.508,-0.254 1.012,-0.523 1.992,-1.09 0.125,-0.07 0.121,-0.071 0.25,-0.14 0.488,-0.285 0.977,-0.586 1.925,-1.207 0.258,-0.172 0.258,-0.168 0.512,-0.344 1.019,-0.695 1.996,-1.45 0.125,-0.089 0.122,-0.094 0.246,-0.188 0.488,-0.375 0.969,-0.765 1.898,-1.574 0.438,-0.375 0.429,-0.379 0.856,-0.77 1.676,-1.578 0.105,-0.102 0.102,-0.101 0.207,-0.199 0.406,-0.407 0.808,-0.824 1.575,-1.676 0.105,-0.121 0.109,-0.117 0.215,-0.238 0.426,-0.485 0.84,-0.968 1.629,-1.989 0.098,-0.129 0.101,-0.124 0.195,-0.254 0.395,-0.508 0.769,-1.028 0.094,-0.128 0.094,-0.133 0.191,-0.258 0.371,-0.524 0.094,-0.128 0.094,-0.133 0.184,-0.262 0.093,-0.133 0.18,-0.265 0.094,-0.133"
             style="fill:none;stroke:#5e81b5;stroke-width:1.60000002;stroke-linecap:butt;stroke-linejoin:miter;stroke-miterlimit:3.25;stroke-dasharray:none;stroke-opacity:1"
             id="path846"
             inkscape:connector-curvature="0" /><path
             d="m 135.668,151.652 0.383,0.055 0.894,0.16 0.524,0.121 0.515,0.141 0.454,0.168 0.351,0.191 0.27,0.235 0.316,0.359 0.336,0.434 0.328,0.464 0.539,0.821 0.227,0.355 3.914,-11.355 z"
             style="fill:#5e81b5;fill-opacity:1;fill-rule:nonzero;stroke:#5e81b5;stroke-width:0.03;stroke-linecap:square;stroke-linejoin:miter;stroke-miterlimit:3.25;stroke-dasharray:none;stroke-opacity:1"
             id="path848"
             inkscape:connector-curvature="0" /><path
             d="m 132.414,49.926 0.086,-0.379 0.23,-0.879 0.161,-0.516 0.183,-0.5 0.203,-0.441 0.215,-0.332 0.258,-0.254 0.383,-0.285 0.457,-0.301 0.488,-0.289 0.86,-0.477 0.374,-0.195 -11.015,-4.789 z"
             style="fill:#5e81b5;fill-opacity:1;fill-rule:nonzero;stroke:#5e81b5;stroke-width:0.03;stroke-linecap:square;stroke-linejoin:miter;stroke-miterlimit:3.25;stroke-dasharray:none;stroke-opacity:1"
             id="path850"
             inkscape:connector-curvature="0" /><path
             d="M 31.422,52.586 31.047,52.5 30.164,52.27 29.652,52.109 29.152,51.926 28.711,51.723 28.379,51.508 28.125,51.25 27.84,50.867 27.539,50.406 27.25,49.922 26.773,49.062 26.578,48.688 21.781,59.699 Z"
             style="fill:#5e81b5;fill-opacity:1;fill-rule:nonzero;stroke:#5e81b5;stroke-width:0.03;stroke-linecap:square;stroke-linejoin:miter;stroke-miterlimit:3.25;stroke-dasharray:none;stroke-opacity:1"
             id="path852"
             inkscape:connector-curvature="0" /><path
             d="m 34.086,153.578 -0.086,0.375 -0.23,0.879 -0.161,0.516 -0.183,0.5 -0.203,0.441 -0.215,0.332 -0.258,0.254 -0.383,0.285 -0.461,0.301 -0.484,0.289 -0.86,0.477 -0.374,0.195 11.011,4.793 z"
             style="fill:#5e81b5;fill-opacity:1;fill-rule:nonzero;stroke:#5e81b5;stroke-width:0.03;stroke-linecap:square;stroke-linejoin:miter;stroke-miterlimit:3.25;stroke-dasharray:none;stroke-opacity:1"
             id="path854"
             inkscape:connector-curvature="0" /><path
             d="m 85.484,27 c 0,-0.66 -0.261,-1.289 -0.73,-1.754 -0.465,-0.469 -1.094,-0.73 -1.754,-0.73 -0.66,0 -1.289,0.261 -1.754,0.73 -0.469,0.465 -0.73,1.094 -0.73,1.754 0,0.66 0.261,1.289 0.73,1.754 0.465,0.469 1.094,0.73 1.754,0.73 0.66,0 1.289,-0.261 1.754,-0.73 0.469,-0.465 0.73,-1.094 0.73,-1.754 z"
             style="fill:#000000;fill-opacity:1;fill-rule:evenodd;stroke:none"
             id="path856"
             inkscape:connector-curvature="0" /><path
             d="m 160.484,102 c 0,-0.66 -0.261,-1.289 -0.73,-1.754 -0.465,-0.469 -1.094,-0.73 -1.754,-0.73 -0.66,0 -1.289,0.261 -1.754,0.73 -0.469,0.465 -0.73,1.094 -0.73,1.754 0,0.66 0.261,1.289 0.73,1.754 0.465,0.469 1.094,0.73 1.754,0.73 0.66,0 1.289,-0.261 1.754,-0.73 0.469,-0.465 0.73,-1.094 0.73,-1.754 z"
             style="fill:#000000;fill-opacity:1;fill-rule:evenodd;stroke:none"
             id="path858"
             inkscape:connector-curvature="0" /><path
             d="m 11.484,102 c 0,-0.66 -0.261,-1.289 -0.73,-1.754 C 10.289,99.777 9.66,99.516 9,99.516 c -0.66,0 -1.289,0.261 -1.754,0.73 -0.469,0.465 -0.73,1.094 -0.73,1.754 0,0.66 0.261,1.289 0.73,1.754 0.465,0.469 1.094,0.73 1.754,0.73 0.66,0 1.289,-0.261 1.754,-0.73 0.469,-0.465 0.73,-1.094 0.73,-1.754 z"
             style="fill:#000000;fill-opacity:1;fill-rule:evenodd;stroke:none"
             id="path860"
             inkscape:connector-curvature="0" /><path
             d="m 85.484,176 c 0,-0.66 -0.261,-1.289 -0.73,-1.754 -0.465,-0.469 -1.094,-0.73 -1.754,-0.73 -0.66,0 -1.289,0.261 -1.754,0.73 -0.469,0.465 -0.73,1.094 -0.73,1.754 0,0.66 0.261,1.289 0.73,1.754 0.465,0.469 1.094,0.73 1.754,0.73 0.66,0 1.289,-0.261 1.754,-0.73 0.469,-0.465 0.73,-1.094 0.73,-1.754 z"
             style="fill:#000000;fill-opacity:1;fill-rule:evenodd;stroke:none"
             id="path862"
             inkscape:connector-curvature="0" /><path
             d="M 0.5,101.75 H 166"
             style="fill:none;stroke:#666666;stroke-width:0.2;stroke-linecap:butt;stroke-linejoin:miter;stroke-miterlimit:3.25;stroke-dasharray:none;stroke-opacity:1"
             id="path864"
             inkscape:connector-curvature="0" /><text
             transform="translate(174,104.24999)"
             style="font-style:italic;font-variant:normal;font-size:10px;font-family:Arial;-inkscape-font-specification:Arial-ItalicMT;writing-mode:lr-tb;fill:#666666;fill-opacity:1;fill-rule:nonzero;stroke:none"
             id="text868"><tspan
               x="0"
               y="0"
               id="tspan866">x</tspan></text>
<path
             d="M 83.25,184.5 V 19"
             style="fill:none;stroke:#666666;stroke-width:0.2;stroke-linecap:butt;stroke-linejoin:miter;stroke-miterlimit:3.25;stroke-dasharray:none;stroke-opacity:1"
             id="path870"
             inkscape:connector-curvature="0" /><text
             transform="translate(80.74999,9)"
             style="font-style:italic;font-variant:normal;font-size:10px;font-family:Arial;-inkscape-font-specification:Arial-ItalicMT;writing-mode:lr-tb;fill:#666666;fill-opacity:1;fill-rule:nonzero;stroke:none"
             id="text874"><tspan
               x="0"
               y="0"
               id="tspan872">y</tspan></text>
</g><g
           id="g1229"><text
             id="text968-8"
             y="97.482643"
             x="25.427073"
             style="font-style:normal;font-weight:normal;font-size:30px;line-height:1.25;font-family:sans-serif;letter-spacing:0px;word-spacing:0px;fill:#000000;fill-opacity:1;stroke:none;stroke-width:0.75"
             xml:space="preserve"><tspan
               style="font-size:15px;stroke-width:0.75"
               y="97.482643"
               x="25.427073"
               id="tspan966-3"
               sodipodi:role="line">1</tspan></text>
<text
             id="text968-7-9"
             y="169.87158"
             x="96.25209"
             style="font-style:normal;font-weight:normal;font-size:30px;line-height:1.25;font-family:sans-serif;letter-spacing:0px;word-spacing:0px;fill:#000000;fill-opacity:1;stroke:none;stroke-width:0.75"
             xml:space="preserve"><tspan
               style="font-size:15px;stroke-width:0.75"
               y="169.87158"
               x="96.25209"
               id="tspan966-9-0"
               sodipodi:role="line">2</tspan></text>
<text
             id="text968-3-5"
             y="97.464447"
             x="153.38065"
             style="font-style:normal;font-weight:normal;font-size:30px;line-height:1.25;font-family:sans-serif;letter-spacing:0px;word-spacing:0px;fill:#000000;fill-opacity:1;stroke:none;stroke-width:0.75"
             xml:space="preserve"><tspan
               style="font-size:15px;stroke-width:0.75"
               y="97.464447"
               x="153.38065"
               id="tspan966-8-2"
               sodipodi:role="line">3</tspan></text>
<text
             id="text968-0-2"
             y="43.657307"
             x="96.916374"
             style="font-style:normal;font-weight:normal;font-size:30px;line-height:1.25;font-family:sans-serif;letter-spacing:0px;word-spacing:0px;fill:#000000;fill-opacity:1;stroke:none;stroke-width:0.75"
             xml:space="preserve"><tspan
               style="font-size:15px;stroke-width:0.75"
               y="43.657307"
               x="96.916374"
               id="tspan966-2-7"
               sodipodi:role="line">4</tspan></text>
</g></g></g></g></svg>