<?xml version="1.0" encoding="UTF-8" standalone="no"?>
<!-- Created with Inkscape (http://www.inkscape.org/) -->

<svg
   xmlns:dc="http://purl.org/dc/elements/1.1/"
   xmlns:cc="http://creativecommons.org/ns#"
   xmlns:rdf="http://www.w3.org/1999/02/22-rdf-syntax-ns#"
   xmlns:svg="http://www.w3.org/2000/svg"
   xmlns="http://www.w3.org/2000/svg"
   xmlns:sodipodi="http://sodipodi.sourceforge.net/DTD/sodipodi-0.dtd"
   xmlns:inkscape="http://www.inkscape.org/namespaces/inkscape"
   version="1.1"
   id="svg4133"
   xml:space="preserve"
   width="289.33334"
   height="288"
   viewBox="0 0 289.33334 288"
   sodipodi:docname="infinitesimal_boost_t_x.svg"
   inkscape:version="0.92.2 5c3e80d, 2017-08-06"
   inkscape:export-filename="/Users/lyxkg/Desktop/ANU/PHYS3001/report 2/pic/infinitesimal_boost_t_x.png"
   inkscape:export-xdpi="96"
   inkscape:export-ydpi="96"><metadata
     id="metadata4139"><rdf:RDF><cc:Work
         rdf:about=""><dc:format>image/svg+xml</dc:format><dc:type
           rdf:resource="http://purl.org/dc/dcmitype/StillImage" /><dc:title></dc:title></cc:Work></rdf:RDF></metadata><defs
     id="defs4137"><marker
       inkscape:isstock="true"
       style="overflow:visible;"
       id="marker5171"
       refX="0.0"
       refY="0.0"
       orient="auto"
       inkscape:stockid="Arrow2Mend"><path
         transform="scale(0.6) rotate(180) translate(0,0)"
         d="M 8.7185878,4.0337352 L -2.2072895,0.016013256 L 8.7185884,-4.0017078 C 6.9730900,-1.6296469 6.9831476,1.6157441 8.7185878,4.0337352 z "
         style="fill-rule:evenodd;stroke-width:0.625;stroke-linejoin:round;stroke:#000000;stroke-opacity:1;fill:#000000;fill-opacity:1"
         id="path5169" /></marker><marker
       inkscape:stockid="Arrow2Mend"
       orient="auto"
       refY="0.0"
       refX="0.0"
       id="Arrow2Mend"
       style="overflow:visible;"
       inkscape:isstock="true"
       inkscape:collect="always"><path
         id="path4854"
         style="fill-rule:evenodd;stroke-width:0.625;stroke-linejoin:round;stroke:#000000;stroke-opacity:1;fill:#000000;fill-opacity:1"
         d="M 8.7185878,4.0337352 L -2.2072895,0.016013256 L 8.7185884,-4.0017078 C 6.9730900,-1.6296469 6.9831476,1.6157441 8.7185878,4.0337352 z "
         transform="scale(0.6) rotate(180) translate(0,0)" /></marker><marker
       inkscape:isstock="true"
       style="overflow:visible;"
       id="marker5111"
       refX="0.0"
       refY="0.0"
       orient="auto"
       inkscape:stockid="Arrow1Lend"><path
         transform="scale(0.8) rotate(180) translate(12.5,0)"
         style="fill-rule:evenodd;stroke:#000000;stroke-width:1pt;stroke-opacity:1;fill:#000000;fill-opacity:1"
         d="M 0.0,0.0 L 5.0,-5.0 L -12.5,0.0 L 5.0,5.0 L 0.0,0.0 z "
         id="path5109" /></marker></defs><sodipodi:namedview
     pagecolor="#ffffff"
     bordercolor="#666666"
     borderopacity="1"
     objecttolerance="10"
     gridtolerance="10"
     guidetolerance="10"
     inkscape:pageopacity="0"
     inkscape:pageshadow="2"
     inkscape:window-width="1232"
     inkscape:window-height="755"
     id="namedview4135"
     showgrid="false"
     inkscape:zoom="1.1588694"
     inkscape:cx="274.59012"
     inkscape:cy="97.110074"
     inkscape:window-x="48"
     inkscape:window-y="1"
     inkscape:window-maximized="1"
     inkscape:current-layer="g4141" /><g
     id="g4141"
     inkscape:groupmode="layer"
     inkscape:label="infinitesimal_boost_t_x"
     transform="matrix(1.3333333,0,0,1.3333333,0,7.2e-6)"><g
       id="g4143"><path
         d="m 17.027,204.742 17.192,-17.191 3.347,-3.344 3.622,-3.625 145.41,-145.41"
         style="fill:none;stroke:#ff8000;stroke-width:1.60000002;stroke-linecap:square;stroke-linejoin:miter;stroke-miterlimit:3.25;stroke-dasharray:4, 4;stroke-dashoffset:0;stroke-opacity:0.4"
         id="path4145"
         inkscape:connector-curvature="0" /><path
         d="m 186.598,204.742 -17.192,-17.191 -3.347,-3.344 -3.621,-3.625 L 17.027,35.172"
         style="fill:none;stroke:#ff8000;stroke-width:1.60000002;stroke-linecap:square;stroke-linejoin:miter;stroke-miterlimit:3.25;stroke-dasharray:4, 4;stroke-dashoffset:0;stroke-opacity:0.4"
         id="path4147"
         inkscape:connector-curvature="0" /><path
         d="m 101.812,119.957 -0.007,-0.016 -0.004,-0.011 -0.012,-0.032 -0.023,-0.054 -0.051,-0.117 -0.098,-0.227 -0.191,-0.461 -0.422,-0.996 -0.391,-0.926 -0.383,-0.914 -0.418,-0.988 -0.39,-0.922 -0.422,-0.996 -0.41,-0.985 -0.387,-0.914 -0.422,-0.992 -0.39,-0.926 -0.383,-0.91 -0.414,-0.984 -0.387,-0.918 -0.422,-0.996 -0.414,-0.981 -0.383,-0.91 -0.418,-0.992 -0.39,-0.922 -0.422,-1 -0.414,-0.984 -0.387,-0.918 -0.422,-0.992 -0.39,-0.93 -0.383,-0.91 -0.418,-0.985 -0.387,-0.921 -0.422,-1 -0.414,-0.981 -0.387,-0.914 -0.418,-0.988 -0.39,-0.926 -0.379,-0.906 -0.418,-0.985 -0.387,-0.922 -0.422,-0.992 -0.39,-0.929 -0.383,-0.914 -0.418,-0.989 -0.391,-0.922 -0.422,-1 -0.371,-0.882"
         style="fill:none;stroke:#5e81b5;stroke-width:1.60000002;stroke-linecap:butt;stroke-linejoin:miter;stroke-miterlimit:3.25;stroke-dasharray:none;stroke-opacity:1"
         id="path4149"
         inkscape:connector-curvature="0" /><path
         d="m 83.27,81.496 0.179,-0.203 0.434,-0.465 0.269,-0.266 0.278,-0.246 0.273,-0.203 0.242,-0.136 0.243,-0.071 0.332,-0.047 0.382,-0.035 0.395,-0.015 0.687,-0.008 0.297,0.004 -5.195,-6.606 z"
         style="fill:#5e81b5;fill-opacity:1;fill-rule:nonzero;stroke:#5e81b5;stroke-width:0.03;stroke-linecap:square;stroke-linejoin:miter;stroke-miterlimit:3.25;stroke-dasharray:none;stroke-opacity:1"
         id="path4151"
         inkscape:connector-curvature="0" /><path
         d="m 101.812,119.957 0.016,0.008 0.012,0.004 0.031,0.011 0.055,0.024 0.117,0.051 0.227,0.097 0.46,0.192 0.997,0.422 0.929,0.39 0.91,0.383 0.989,0.418 0.922,0.391 0.996,0.422 0.984,0.414 0.914,0.382 0.992,0.422 0.926,0.391 0.91,0.383 0.985,0.414 0.918,0.386 0.996,0.422 0.98,0.414 0.91,0.383 0.992,0.418 0.922,0.391 1,0.422 0.985,0.414 0.918,0.386 0.992,0.422 0.93,0.391 0.91,0.383 0.984,0.418 0.922,0.386 1,0.422 0.98,0.414 0.915,0.387 0.988,0.418 0.926,0.391 0.906,0.383 0.984,0.414 0.922,0.386 0.992,0.422 0.93,0.391 0.914,0.383 0.988,0.418 0.922,0.39 1,0.422 0.883,0.371"
         style="fill:none;stroke:#5e81b5;stroke-width:1.60000002;stroke-linecap:butt;stroke-linejoin:miter;stroke-miterlimit:3.25;stroke-dasharray:none;stroke-opacity:1"
         id="path4153"
         inkscape:connector-curvature="0" /><path
         d="m 141.93,134.566 0.015,0.274 0.016,0.637 -0.012,0.375 -0.023,0.371 -0.055,0.336 -0.078,0.265 -0.125,0.219 -0.203,0.266 -0.25,0.293 -0.274,0.289 -0.488,0.484 -0.215,0.203 8.332,1.106 z"
         style="fill:#5e81b5;fill-opacity:1;fill-rule:nonzero;stroke:#5e81b5;stroke-width:0.03;stroke-linecap:square;stroke-linejoin:miter;stroke-miterlimit:3.25;stroke-dasharray:none;stroke-opacity:1"
         id="path4155"
         inkscape:connector-curvature="0" /><path
         d="m 101.812,119.957 -0.011,-0.016 -0.012,-0.019 -0.07,-0.106 -0.09,-0.136 -0.188,-0.278 -0.367,-0.558 -0.801,-1.207 -0.75,-1.125 -0.734,-1.106 -0.793,-1.199 -0.742,-1.117 -0.805,-1.211 -0.789,-1.191 -0.738,-1.11 -0.801,-1.203 -0.746,-1.121 -0.73,-1.102 -0.793,-1.195 -0.739,-1.113 -0.804,-1.211 L 89.52,101.449 88.785,100.34 87.988,99.141 87.246,98.02 86.441,96.809 85.648,95.617 84.91,94.504 84.109,93.297 83.363,92.172 82.629,91.07 81.836,89.875 81.094,88.758 80.289,87.547 79.5,86.359 78.766,85.25 77.969,84.047 77.223,82.926 76.492,81.824 75.699,80.633 74.961,79.52 74.156,78.309 73.41,77.184 72.676,76.078 71.879,74.879 71.137,73.762 70.332,72.547 69.539,71.359 68.805,70.246 68.234,69.391"
         style="fill:none;stroke:#5e81b5;stroke-width:1.60000002;stroke-linecap:butt;stroke-linejoin:miter;stroke-miterlimit:3.25;stroke-dasharray:none;stroke-opacity:1"
         id="path4157"
         inkscape:connector-curvature="0" /><path
         d="m 66.871,71.191 0.137,-0.23 0.34,-0.539 0.214,-0.309 0.227,-0.297 0.231,-0.25 0.214,-0.175 0.223,-0.118 0.316,-0.109 0.372,-0.102 0.386,-0.089 0.672,-0.137 0.293,-0.051 -6.332,-5.523 z"
         style="fill:#5e81b5;fill-opacity:1;fill-rule:nonzero;stroke:#5e81b5;stroke-width:0.03;stroke-linecap:square;stroke-linejoin:miter;stroke-miterlimit:3.25;stroke-dasharray:none;stroke-opacity:1"
         id="path4159"
         inkscape:connector-curvature="0" /><path
         d="m 101.812,119.957 0.016,0.012 0.02,0.011 0.105,0.071 0.137,0.09 0.277,0.187 0.559,0.367 1.207,0.801 1.125,0.75 1.105,0.734 1.199,0.793 1.118,0.743 1.211,0.804 1.191,0.789 1.109,0.739 1.204,0.8 1.121,0.747 1.101,0.73 1.195,0.793 1.114,0.738 1.211,0.805 1.187,0.789 1.106,0.734 1.199,0.797 1.121,0.742 1.211,0.805 1.191,0.793 1.114,0.738 1.207,0.801 1.125,0.746 1.101,0.735 1.196,0.793 1.117,0.742 1.211,0.804 1.191,0.79 1.106,0.734 1.203,0.801 1.121,0.742 1.101,0.73 1.192,0.793 1.113,0.739 1.211,0.804 1.125,0.746 1.105,0.735 1.2,0.797 1.117,0.742 1.215,0.805 1.191,0.792 1.109,0.735 0.856,0.57"
         style="fill:none;stroke:#5e81b5;stroke-width:1.60000002;stroke-linecap:butt;stroke-linejoin:miter;stroke-miterlimit:3.25;stroke-dasharray:none;stroke-opacity:1"
         id="path4161"
         inkscape:connector-curvature="0" /><path
         d="m 152.938,151.344 -0.036,0.269 -0.105,0.629 -0.078,0.367 -0.098,0.36 -0.109,0.32 -0.133,0.246 -0.16,0.195 -0.25,0.223 -0.301,0.238 -0.32,0.235 -0.571,0.386 -0.246,0.157 7.977,2.636 z"
         style="fill:#5e81b5;fill-opacity:1;fill-rule:nonzero;stroke:#5e81b5;stroke-width:0.03;stroke-linecap:square;stroke-linejoin:miter;stroke-miterlimit:3.25;stroke-dasharray:none;stroke-opacity:1"
         id="path4163"
         inkscape:connector-curvature="0" /><path
         d="m 192.992,200.684 -0.066,-0.079 -0.071,-0.078 -0.136,-0.156 -0.278,-0.312 -0.546,-0.621 -1.086,-1.227 -2.118,-2.418 -4.367,-5.047 -3.812,-4.48 -3.5,-4.2 -3.547,-4.339 -3.082,-3.872 -3.102,-4.011 -2.82,-3.762 -2.438,-3.363 -2.433,-3.504 -2.09,-3.149 -1.883,-2.976 -1.863,-3.117 -1.574,-2.817 -1.535,-2.961 -1.336,-2.82 -1.102,-2.566 -1.035,-2.715 -0.824,-2.489 -0.012,-0.039 -0.012,-0.043 -0.027,-0.082 -0.051,-0.168 -0.098,-0.332 -0.191,-0.664 -0.348,-1.316 -0.011,-0.043 -0.008,-0.039 -0.02,-0.078 -0.039,-0.164 -0.078,-0.321 -0.148,-0.64 -0.008,-0.039 -0.012,-0.039 -0.015,-0.082 -0.036,-0.161 -0.066,-0.32 -0.129,-0.637 -0.008,-0.035 -0.008,-0.039 -0.015,-0.074 -0.028,-0.145 -0.054,-0.296 -0.106,-0.594 -0.004,-0.035 -0.007,-0.035 -0.036,-0.223 -0.046,-0.293 -0.086,-0.59 -0.008,-0.039 -0.004,-0.039 -0.012,-0.082 -0.023,-0.16 -0.039,-0.317 -0.008,-0.039 -0.004,-0.039 -0.012,-0.082 -0.019,-0.156 -0.035,-0.32 -0.016,-0.157 -0.02,-0.16 -0.031,-0.316 -0.058,-0.633 -0.004,-0.039 v -0.035 l -0.008,-0.074 -0.012,-0.149 -0.019,-0.297 -0.008,-0.07 -0.012,-0.223 -0.019,-0.297 v -0.035 l -0.004,-0.035 -0.012,-0.223 v -0.039 l -0.004,-0.035 v -0.074 l -0.008,-0.148 -0.004,-0.036 v -0.035 l -0.004,-0.074 -0.004,-0.148 v -0.036 l -0.003,-0.039 v -0.074 l -0.004,-0.144 -0.004,-0.039 v -0.106 l -0.004,-0.039 v -0.145 l -0.004,-0.035 v -0.144 l -0.004,-0.071 v -0.398 l -0.004,-0.035 v -0.324 l 0.004,-0.039 v -0.395 l 0.004,-0.035 v -0.145 l 0.004,-0.074 v -0.144 l 0.004,-0.145 0.004,-0.039 v -0.117 l 0.007,-0.156 v -0.078 l 0.012,-0.235 v -0.039 l 0.004,-0.039 v -0.078 l 0.008,-0.156 0.019,-0.317 v -0.039 l 0.004,-0.039 0.012,-0.234 0.023,-0.313 v -0.039 l 0.004,-0.043 0.008,-0.078 0.035,-0.469 0.004,-0.039 0.004,-0.035 0.008,-0.074 0.012,-0.145 0.027,-0.297 0.063,-0.585 0.003,-0.036 0.004,-0.039 0.008,-0.074 0.02,-0.144 0.035,-0.297 0.078,-0.59 0.008,-0.039 0.004,-0.039 0.011,-0.082 0.071,-0.481 0.105,-0.64 0.008,-0.039 0.004,-0.043 0.016,-0.079 0.027,-0.16 0.059,-0.324 0.124,-0.644 0.016,-0.079 0.016,-0.082 0.031,-0.156 0.066,-0.32 0.141,-0.637 0.305,-1.281 0.011,-0.039 0.008,-0.035 0.02,-0.075 0.039,-0.152 0.078,-0.301 0.164,-0.601 0.355,-1.215 0.883,-2.668 0.969,-2.539 1.086,-2.547 1.34,-2.836 1.398,-2.719 1.692,-3.043 1.746,-2.933 1.871,-2.977 2.219,-3.351 2.25,-3.25 2.648,-3.668 2.82,-3.762 2.832,-3.664 3.301,-4.156 3.313,-4.063 3.472,-4.168 4.028,-4.742 4.019,-4.648 0.071,-0.083 0.074,-0.082 0.144,-0.168 0.289,-0.332 0.59,-0.671 1.188,-1.356 0.148,-0.172 0.152,-0.172 0.301,-0.34 0.606,-0.691 0.078,-0.086 0.074,-0.086 0.156,-0.172 0.305,-0.347 0.078,-0.09 0.078,-0.086 0.153,-0.176 0.156,-0.172 0.078,-0.09 0.074,-0.086"
         style="fill:none;stroke:#000000;stroke-width:1.60000002;stroke-linecap:square;stroke-linejoin:miter;stroke-miterlimit:3.25;stroke-dasharray:none;stroke-opacity:0.2"
         id="path4165"
         inkscape:connector-curvature="0" /><path
         d="m 10.633,200.684 0.066,-0.079 0.071,-0.078 0.136,-0.156 0.278,-0.312 0.546,-0.621 1.086,-1.227 2.118,-2.418 4.367,-5.047 3.812,-4.48 3.5,-4.2 3.547,-4.339 3.082,-3.872 3.102,-4.011 2.82,-3.762 2.438,-3.363 2.433,-3.504 2.09,-3.149 1.883,-2.976 1.863,-3.117 1.574,-2.817 1.535,-2.961 1.336,-2.82 1.102,-2.566 1.035,-2.715 0.824,-2.489 0.012,-0.039 0.012,-0.043 0.027,-0.082 0.051,-0.168 0.098,-0.332 0.191,-0.664 0.348,-1.316 0.011,-0.043 0.008,-0.039 0.02,-0.078 0.039,-0.164 0.078,-0.321 0.148,-0.64 0.008,-0.039 0.012,-0.039 0.015,-0.082 0.036,-0.161 0.066,-0.32 0.129,-0.637 0.008,-0.035 0.008,-0.039 0.015,-0.074 0.028,-0.145 0.054,-0.296 0.106,-0.594 0.004,-0.035 0.007,-0.035 0.036,-0.223 0.046,-0.293 0.086,-0.59 0.008,-0.039 0.004,-0.039 0.012,-0.082 0.023,-0.16 0.039,-0.317 0.008,-0.039 0.004,-0.039 0.012,-0.082 0.019,-0.156 0.035,-0.32 0.016,-0.157 0.02,-0.16 0.031,-0.316 0.058,-0.633 0.004,-0.039 v -0.035 l 0.008,-0.074 0.012,-0.149 0.019,-0.297 0.008,-0.07 0.012,-0.223 0.019,-0.297 v -0.035 l 0.004,-0.035 0.012,-0.223 v -0.039 l 0.004,-0.035 v -0.074 l 0.008,-0.148 0.004,-0.036 v -0.035 l 0.004,-0.074 0.004,-0.148 v -0.036 l 0.003,-0.039 v -0.074 l 0.004,-0.144 0.004,-0.039 v -0.106 l 0.004,-0.039 v -0.145 l 0.004,-0.035 v -0.144 l 0.004,-0.071 v -0.398 l 0.004,-0.035 v -0.324 l -0.004,-0.039 v -0.395 l -0.004,-0.035 v -0.145 l -0.004,-0.074 v -0.144 l -0.004,-0.145 -0.004,-0.039 v -0.117 l -0.007,-0.156 v -0.078 l -0.012,-0.235 v -0.039 l -0.004,-0.039 v -0.078 l -0.008,-0.156 -0.019,-0.317 v -0.039 l -0.004,-0.039 -0.012,-0.234 -0.024,-0.313 v -0.039 l -0.003,-0.043 -0.008,-0.078 -0.035,-0.469 -0.004,-0.039 -0.004,-0.035 -0.008,-0.074 -0.012,-0.145 -0.027,-0.297 -0.063,-0.585 -0.003,-0.036 -0.004,-0.039 -0.008,-0.074 -0.02,-0.144 -0.035,-0.297 -0.078,-0.59 -0.008,-0.039 -0.004,-0.039 -0.011,-0.082 -0.071,-0.481 -0.105,-0.64 -0.008,-0.039 -0.004,-0.043 -0.016,-0.079 -0.027,-0.16 -0.058,-0.324 -0.126,-0.644 -0.015,-0.079 -0.016,-0.082 -0.031,-0.156 -0.066,-0.32 -0.141,-0.637 -0.305,-1.281 -0.011,-0.039 -0.008,-0.035 -0.02,-0.075 -0.039,-0.152 -0.078,-0.301 -0.164,-0.601 -0.356,-1.215 -0.882,-2.668 -0.969,-2.539 -1.086,-2.547 -1.34,-2.836 -1.398,-2.719 -1.692,-3.043 -1.746,-2.933 -1.871,-2.977 -2.219,-3.351 -2.25,-3.25 -2.648,-3.668 -2.82,-3.762 -2.832,-3.664 -3.301,-4.156 -3.313,-4.063 -3.472,-4.168 -4.028,-4.742 -4.019,-4.648 -0.071,-0.083 -0.074,-0.082 -0.144,-0.168 -0.289,-0.332 -0.59,-0.671 L 13.07,41.996 12.922,41.824 12.77,41.652 12.469,41.312 11.863,40.621 11.785,40.535 11.711,40.449 11.555,40.277 11.25,39.93 11.172,39.84 11.094,39.754 10.941,39.578 10.785,39.406 10.707,39.316 10.633,39.23"
         style="fill:none;stroke:#000000;stroke-width:1.60000002;stroke-linecap:square;stroke-linejoin:miter;stroke-miterlimit:3.25;stroke-dasharray:none;stroke-opacity:0.2"
         id="path4167"
         inkscape:connector-curvature="0" /><path
         d="m 21.086,28.777 0.078,0.067 0.078,0.07 0.156,0.137 0.313,0.277 0.621,0.547 1.227,1.086 2.418,2.117 5.046,4.367 4.481,3.813 4.199,3.5 4.34,3.547 3.871,3.082 4.012,3.101 3.762,2.821 3.363,2.437 3.508,2.434 3.144,2.09 2.977,1.882 3.117,1.864 2.816,1.574 2.961,1.535 2.821,1.336 2.566,1.101 2.715,1.036 2.488,0.824 0.039,0.012 0.043,0.011 0.082,0.028 0.168,0.05 0.332,0.098 0.664,0.191 1.317,0.348 0.043,0.012 0.039,0.008 0.078,0.019 0.164,0.039 0.32,0.078 0.641,0.149 0.039,0.008 0.039,0.011 0.082,0.016 0.16,0.035 0.32,0.067 0.637,0.128 0.035,0.008 0.039,0.008 0.075,0.016 0.144,0.027 0.297,0.055 0.594,0.105 0.035,0.004 0.035,0.008 0.223,0.035 0.293,0.047 0.589,0.09 0.079,0.008 0.082,0.011 0.16,0.024 0.316,0.039 0.039,0.008 0.039,0.004 0.082,0.011 0.157,0.02 0.32,0.035 0.078,0.008 0.078,0.011 0.16,0.016 0.317,0.031 0.633,0.059 0.039,0.004 h 0.035 l 0.074,0.008 0.148,0.011 0.297,0.02 0.071,0.008 0.222,0.011 0.297,0.02 h 0.035 l 0.035,0.004 0.223,0.012 h 0.039 l 0.035,0.004 0.075,0.003 0.148,0.004 0.035,0.004 h 0.035 l 0.075,0.004 0.148,0.004 h 0.035 l 0.039,0.004 h 0.074 l 0.145,0.004 0.039,0.004 h 0.105 l 0.039,0.004 h 0.145 l 0.035,0.004 h 0.145 l 0.07,0.003 h 0.398 l 0.036,0.004 h 0.363 l 0.035,-0.004 h 0.359 l 0.036,-0.003 h 0.218 l 0.036,-0.004 h 0.109 l 0.144,-0.004 h 0.039 l 0.04,-0.004 h 0.078 l 0.156,-0.008 h 0.078 l 0.234,-0.012 h 0.039 l 0.04,-0.004 h 0.078 l 0.156,-0.007 0.316,-0.016 0.078,-0.008 0.235,-0.012 0.312,-0.023 h 0.043 l 0.117,-0.012 0.469,-0.035 0.039,-0.004 0.035,-0.004 0.075,-0.007 0.144,-0.012 0.297,-0.028 0.586,-0.062 0.039,-0.004 0.035,-0.004 0.074,-0.008 0.145,-0.019 0.297,-0.035 0.59,-0.078 0.039,-0.008 0.039,-0.004 0.082,-0.012 0.48,-0.07 0.641,-0.106 0.039,-0.007 0.043,-0.004 0.078,-0.016 0.16,-0.027 0.324,-0.059 0.645,-0.125 0.078,-0.016 0.082,-0.015 0.156,-0.031 0.321,-0.067 0.636,-0.14 1.282,-0.305 0.039,-0.012 0.035,-0.008 0.074,-0.019 0.152,-0.039 0.301,-0.078 0.602,-0.165 1.215,-0.355 2.668,-0.883 2.539,-0.969 2.547,-1.085 2.836,-1.34 2.718,-1.399 3.043,-1.691 2.934,-1.746 2.976,-1.871 3.352,-2.219 3.25,-2.25 3.668,-2.649 3.762,-2.82 3.664,-2.832 4.156,-3.301 4.062,-3.312 4.168,-3.473 4.743,-4.027 4.648,-4.02 0.082,-0.07 0.082,-0.074 0.168,-0.145 0.332,-0.289 0.672,-0.59 1.355,-1.187 0.172,-0.149 0.172,-0.152 0.34,-0.301 0.691,-0.605 0.086,-0.078 0.086,-0.075 0.172,-0.156 0.348,-0.304 0.09,-0.079 0.086,-0.078 0.175,-0.152 0.172,-0.156 0.09,-0.078 0.086,-0.075"
         style="fill:none;stroke:#000000;stroke-width:1.60000002;stroke-linecap:square;stroke-linejoin:miter;stroke-miterlimit:3.25;stroke-dasharray:none;stroke-opacity:0.2"
         id="path4169"
         inkscape:connector-curvature="0" /><path
         d="M 0.5,119.957 H 203.125"
         style="fill:none;stroke:#666666;stroke-width:0.2;stroke-linecap:butt;stroke-linejoin:miter;stroke-miterlimit:3.25;stroke-dasharray:none;stroke-opacity:1"
         id="path4171"
         inkscape:connector-curvature="0" /><text
         transform="translate(211.125,122.45712)"
         style="font-style:italic;font-variant:normal;font-size:10px;font-family:Arial;-inkscape-font-specification:Arial-ItalicMT;writing-mode:lr-tb;fill:#666666;fill-opacity:1;fill-rule:nonzero;stroke:none"
         id="text4175"><tspan
           x="0"
           y="0"
           id="tspan4173">x</tspan></text>
<path
         d="M 101.812,214.516 V 19"
         style="fill:none;stroke:#666666;stroke-width:0.2;stroke-linecap:butt;stroke-linejoin:miter;stroke-miterlimit:3.25;stroke-dasharray:none;stroke-opacity:1"
         id="path4177"
         inkscape:connector-curvature="0" /><text
         transform="translate(100.3125,9)"
         style="font-style:italic;font-variant:normal;font-size:10px;font-family:Arial;-inkscape-font-specification:Arial-ItalicMT;writing-mode:lr-tb;fill:#666666;fill-opacity:1;fill-rule:nonzero;stroke:none"
         id="text4181"><tspan
           x="0"
           y="0"
           id="tspan4179">t</tspan></text>
</g><text
       xml:space="preserve"
       style="font-style:normal;font-weight:normal;font-size:22.94226456px;line-height:1.25;font-family:sans-serif;letter-spacing:0px;word-spacing:0px;fill:#000000;fill-opacity:1;stroke:none;stroke-width:0.5735566"
       x="49.971226"
       y="67.568657"
       id="text2013"><tspan
         sodipodi:role="line"
         id="tspan2011"
         x="49.971226"
         y="67.568657"
         style="stroke-width:0.5735566"><tspan
           style="font-size:15.29484367px;stroke-width:0.5735566"
           id="tspan2015">e</tspan><tspan
           style="font-size:7.64742184px;stroke-width:0.5735566"
           id="tspan2017">t</tspan></tspan></text>
<text
       xml:space="preserve"
       style="font-style:normal;font-weight:normal;font-size:22.94226456px;line-height:1.25;font-family:sans-serif;letter-spacing:0px;word-spacing:0px;fill:#000000;fill-opacity:1;stroke:none;stroke-width:0.5735566"
       x="80.013504"
       y="68.401085"
       id="text2013-7"><tspan
         sodipodi:role="line"
         id="tspan2011-3"
         x="80.013504"
         y="68.401085"
         style="stroke-width:0.5735566"><tspan
           style="font-size:15.29484367px;stroke-width:0.5735566"
           id="tspan2015-7">de</tspan><tspan
           style="font-size:7.64742184px;stroke-width:0.5735566"
           id="tspan2017-9">t<tspan
   style="font-size:15.29484367px;stroke-width:0.5735566"
   id="tspan4127" /></tspan></tspan></text>
<text
       xml:space="preserve"
       style="font-style:normal;font-weight:normal;font-size:22.94226456px;line-height:1.25;font-family:sans-serif;letter-spacing:0px;word-spacing:0px;fill:#000000;fill-opacity:1;stroke:none;stroke-width:0.5735566"
       x="150.91788"
       y="169.41853"
       id="text2013-0"><tspan
         sodipodi:role="line"
         id="tspan2011-2"
         x="150.91788"
         y="169.41853"
         style="stroke-width:0.5735566"><tspan
           style="font-size:15.29484272px;stroke-width:0.5735566"
           id="tspan2015-3">e</tspan><tspan
           style="font-size:7.64742136px;stroke-width:0.5735566"
           id="tspan2017-99">x</tspan></tspan></text>
<text
       xml:space="preserve"
       style="font-style:normal;font-weight:normal;font-size:22.94226456px;line-height:1.25;font-family:sans-serif;letter-spacing:0px;word-spacing:0px;fill:#000000;fill-opacity:1;stroke:none;stroke-width:0.5735566"
       x="149.24823"
       y="137.56825"
       id="text2013-7-7"><tspan
         sodipodi:role="line"
         id="tspan2011-3-0"
         x="149.24823"
         y="137.56825"
         style="stroke-width:0.5735566"><tspan
           style="font-size:15.29484272px;stroke-width:0.5735566"
           id="tspan2015-7-3">de</tspan><tspan
           style="font-size:7.64742136px;stroke-width:0.5735566"
           id="tspan2017-9-9">x</tspan></tspan></text>
<path
       style="fill:none;stroke:#000000;stroke-width:0.75px;stroke-linecap:butt;stroke-linejoin:miter;stroke-opacity:1;marker-end:url(#Arrow2Mend)"
       d="m 64.164,63.262 17.922002,9.937"
       id="path4823"
       inkscape:connector-curvature="0" /><path
       style="fill:none;stroke:#000000;stroke-width:0.75px;stroke-linecap:butt;stroke-linejoin:miter;stroke-opacity:1;marker-end:url(#marker5171)"
       d="M 158.508,157.605 148.57,139.684"
       id="path4825"
       inkscape:connector-curvature="0"
       sodipodi:nodetypes="cc" /></g></svg>