<?xml version="1.0" encoding="UTF-8" standalone="no"?>
<!-- Created with Inkscape (http://www.inkscape.org/) -->

<svg
   xmlns:dc="http://purl.org/dc/elements/1.1/"
   xmlns:cc="http://creativecommons.org/ns#"
   xmlns:rdf="http://www.w3.org/1999/02/22-rdf-syntax-ns#"
   xmlns:svg="http://www.w3.org/2000/svg"
   xmlns="http://www.w3.org/2000/svg"
   xmlns:sodipodi="http://sodipodi.sourceforge.net/DTD/sodipodi-0.dtd"
   xmlns:inkscape="http://www.inkscape.org/namespaces/inkscape"
   version="1.1"
   id="svg2095"
   xml:space="preserve"
   width="240"
   height="222.66667"
   viewBox="0 0 240 222.66667"
   sodipodi:docname="velocity_circle_symmetric_1_1.svg"
   inkscape:version="0.92.2 5c3e80d, 2017-08-06"
   inkscape:export-filename="/Users/lyxkg/Desktop/ANU/PHYS3001/report 2/pic/velocity_circle_symmetric_1_1.png"
   inkscape:export-xdpi="96"
   inkscape:export-ydpi="96"><metadata
     id="metadata2101"><rdf:RDF><cc:Work
         rdf:about=""><dc:format>image/svg+xml</dc:format><dc:type
           rdf:resource="http://purl.org/dc/dcmitype/StillImage" /><dc:title></dc:title></cc:Work></rdf:RDF></metadata><defs
     id="defs2099" /><sodipodi:namedview
     pagecolor="#ffffff"
     bordercolor="#666666"
     borderopacity="1"
     objecttolerance="10"
     gridtolerance="10"
     guidetolerance="10"
     inkscape:pageopacity="0"
     inkscape:pageshadow="2"
     inkscape:window-width="1232"
     inkscape:window-height="755"
     id="namedview2097"
     showgrid="false"
     inkscape:zoom="2.1197604"
     inkscape:cx="78.914518"
     inkscape:cy="101.70548"
     inkscape:window-x="48"
     inkscape:window-y="1"
     inkscape:window-maximized="1"
     inkscape:current-layer="g2103" /><g
     id="g2103"
     inkscape:groupmode="layer"
     inkscape:label="velocity_circle_symmetric_1_1"
     transform="matrix(1.3333333,0,0,1.3333333,0,8.9e-6)"><g
       id="g2105"><path
         d="m 17.203,158.43 0.043,-0.039 0.039,-0.043 0.082,-0.078 0.16,-0.165 2.27,-2.269 2.812,-2.809 2.621,-2.625 2.575,-2.574 2.793,-2.789 2.605,-2.605 2.82,-2.825 2.774,-2.769 2.586,-2.586 2.801,-2.805 5.183,-5.183 2.785,-2.782 2.598,-2.597 2.812,-2.817 5.344,-5.343 2.797,-2.793 5.438,-5.438 2.773,-2.777 40.316,-40.317 2.629,-2.625 2.575,-2.578 10.996,-10.996 2.59,-2.586 2.804,-2.805 2.617,-2.621 2.567,-2.566 2.789,-2.785 2.598,-2.602 0.046,-0.043 0.043,-0.047 0.09,-0.089 0.184,-0.18 0.363,-0.363 0.723,-0.727 0.047,-0.047 0.047,-0.043 0.089,-0.09 0.18,-0.183 0.363,-0.364 0.047,-0.042 0.043,-0.047 0.5,-0.5 0.047,-0.043 0.043,-0.047 0.047,-0.043"
         style="fill:none;stroke:#ff8000;stroke-width:1.60000002;stroke-linecap:square;stroke-linejoin:miter;stroke-miterlimit:3.25;stroke-dasharray:4, 4;stroke-dashoffset:0;stroke-opacity:1"
         id="path2107"
         inkscape:connector-curvature="0" /><path
         d="m 149.297,158.43 -0.043,-0.039 -0.039,-0.043 -0.082,-0.078 -0.16,-0.165 -2.27,-2.269 -2.812,-2.809 -2.621,-2.625 -2.575,-2.574 -2.793,-2.789 -2.605,-2.605 -2.82,-2.825 -2.774,-2.769 -2.586,-2.586 -2.801,-2.805 -5.183,-5.183 -2.785,-2.782 -2.598,-2.597 -2.812,-2.817 -5.344,-5.343 -2.797,-2.793 -5.438,-5.438 -2.773,-2.777 L 52.27,61.402 49.641,58.777 47.066,56.199 36.07,45.203 33.48,42.617 30.676,39.812 28.059,37.191 25.492,34.625 22.703,31.84 20.105,29.238 20.059,29.195 20.016,29.148 19.926,29.059 19.742,28.879 19.379,28.516 18.656,27.789 18.609,27.742 18.562,27.699 18.473,27.609 18.293,27.426 17.93,27.062 17.883,27.02 17.84,26.973 17.34,26.473 17.293,26.43 17.25,26.383 17.203,26.34"
         style="fill:none;stroke:#ff8000;stroke-width:1.60000002;stroke-linecap:square;stroke-linejoin:miter;stroke-miterlimit:3.25;stroke-dasharray:4, 4;stroke-dashoffset:0;stroke-opacity:1"
         id="path2109"
         inkscape:connector-curvature="0" /><path
         d="m 83.25,92.383 0.004,-0.012 0.008,-0.008 0.008,-0.023 0.023,-0.047 0.043,-0.09 0.082,-0.183 0.168,-0.368 0.367,-0.793 0.344,-0.738 0.336,-0.726 0.363,-0.786 0.34,-0.734 0.367,-0.797 0.359,-0.781 0.336,-0.727 0.368,-0.793 0.339,-0.738 0.336,-0.723 0.36,-0.785 0.34,-0.73 0.367,-0.793 0.359,-0.781 0.336,-0.727 0.363,-0.789 0.34,-0.734 0.371,-0.797 0.36,-0.782 0.34,-0.73 0.363,-0.793 0.344,-0.738 0.332,-0.727 0.363,-0.785 0.34,-0.734 0.367,-0.793 0.363,-0.782 0.336,-0.726 0.363,-0.789 0.34,-0.739 0.336,-0.722 0.364,-0.785 0.335,-0.731 0.368,-0.793 0.156,-0.34"
         style="fill:none;stroke:#5e81b5;stroke-width:1.60000002;stroke-linecap:butt;stroke-linejoin:miter;stroke-miterlimit:3.25;stroke-dasharray:none;stroke-opacity:1"
         id="path2111"
         inkscape:connector-curvature="0" /><path
         d="m 92.832,64.383 0.383,-0.008 0.914,0.012 0.535,0.031 0.531,0.055 0.477,0.089 0.375,0.129 0.308,0.188 0.372,0.305 0.402,0.371 0.398,0.402 0.668,0.719 0.282,0.316 1.98,-11.844 z"
         style="fill:#5e81b5;fill-opacity:1;fill-rule:nonzero;stroke:#5e81b5;stroke-width:0.03;stroke-linecap:square;stroke-linejoin:miter;stroke-miterlimit:3.25;stroke-dasharray:none;stroke-opacity:1"
         id="path2113"
         inkscape:connector-curvature="0" /><path
         d="m 8.773,126.801 0.047,-0.02 0.047,-0.023 0.09,-0.043 0.184,-0.082 0.367,-0.172 0.73,-0.336 1.461,-0.676 3.168,-1.465 2.961,-1.367 2.902,-1.34 3.145,-1.457 2.937,-1.355 3.184,-1.473 3.125,-1.441 2.918,-1.348 3.16,-1.461 2.949,-1.363 2.895,-1.34 3.141,-1.449 2.925,-1.356 3.176,-1.464 3.117,-1.442 2.907,-1.344 3.152,-1.457 2.945,-1.359 3.188,-1.473 3.129,-1.445 2.922,-1.352 3.167,-1.46 2.954,-1.368 2.898,-1.34 3.145,-1.453 2.933,-1.355 3.18,-1.469 3.125,-1.445 2.91,-1.344 3.16,-1.461 2.945,-1.363 2.891,-1.332 3.137,-1.449 2.926,-1.352 3.172,-1.469 2.96,-1.367 2.903,-1.344 3.148,-1.453 2.942,-1.359 3.183,-1.473 3.129,-1.445 2.918,-1.348 3.16,-1.461 2.953,-1.363 2.899,-1.34 3.14,-1.449 2.93,-1.356 0.203,-0.093 0.207,-0.094 0.407,-0.191 0.82,-0.379 0.203,-0.094 0.207,-0.094 0.457,-0.211 0.051,-0.027 0.105,-0.047 0.508,-0.234 0.055,-0.024 0.051,-0.023"
         style="fill:none;stroke:#5e81b5;stroke-width:1.60000002;stroke-linecap:square;stroke-linejoin:miter;stroke-miterlimit:3.25;stroke-dasharray:none;stroke-opacity:1"
         id="path2115"
         inkscape:connector-curvature="0" /><path
         d="m 154.277,155.27 -0.05,-0.063 -0.055,-0.059 -0.11,-0.121 -0.214,-0.242 -0.426,-0.484 -0.844,-0.961 -1.648,-1.879 -3.403,-3.934 -2.972,-3.492 -2.727,-3.265 -2.762,-3.383 -2.398,-3.016 -2.422,-3.125 -2.195,-2.93 -1.895,-2.621 -1.898,-2.73 -1.629,-2.453 -1.465,-2.317 -1.453,-2.429 -1.227,-2.196 -1.195,-2.304 -1.039,-2.2 -0.859,-1.996 -0.805,-2.117 -0.645,-1.937 -0.007,-0.032 -0.012,-0.031 -0.02,-0.066 -0.117,-0.387 -0.144,-0.52 -0.274,-1.023 -0.015,-0.062 -0.016,-0.067 -0.031,-0.125 -0.176,-0.75 -0.008,-0.027 -0.004,-0.031 -0.015,-0.063 -0.028,-0.125 -0.051,-0.25 -0.101,-0.496 -0.008,-0.027 -0.004,-0.032 -0.012,-0.054 -0.019,-0.118 -0.043,-0.23 -0.082,-0.461 -0.004,-0.027 -0.008,-0.032 -0.008,-0.054 -0.019,-0.117 -0.035,-0.227 -0.071,-0.461 -0.015,-0.125 -0.016,-0.121 -0.035,-0.25 -0.008,-0.063 -0.008,-0.058 -0.015,-0.125 -0.028,-0.25 -0.004,-0.027 -0.003,-0.032 -0.004,-0.062 -0.016,-0.125 -0.07,-0.738 v -0.032 l -0.004,-0.027 -0.004,-0.059 -0.008,-0.113 -0.019,-0.23 v -0.028 l -0.004,-0.031 -0.004,-0.059 -0.008,-0.113 -0.012,-0.23 v -0.028 l -0.004,-0.031 -0.004,-0.055 -0.004,-0.117 v -0.027 l -0.003,-0.027 v -0.059 l -0.008,-0.113 v -0.059 l -0.004,-0.059 -0.004,-0.113 v -0.031 l -0.004,-0.027 v -0.059 l -0.004,-0.113 V 93.25 l -0.004,-0.059 v -0.14 l -0.004,-0.028 v -0.222 l -0.004,-0.031 v -0.758 l 0.004,-0.055 v -0.172 l 0.004,-0.055 v -0.113 l 0.004,-0.113 v -0.059 l 0.004,-0.062 0.004,-0.121 v -0.063 l 0.004,-0.058 0.004,-0.125 v -0.028 l 0.004,-0.031 v -0.062 l 0.007,-0.122 0.012,-0.246 0.004,-0.027 v -0.031 l 0.004,-0.063 0.008,-0.121 0.015,-0.246 0.004,-0.031 V 89.98 l 0.004,-0.062 0.012,-0.121 0.02,-0.246 0.003,-0.028 v -0.031 l 0.004,-0.054 0.012,-0.118 0.024,-0.226 0.046,-0.457 0.004,-0.032 0.004,-0.027 0.008,-0.058 0.012,-0.114 0.027,-0.23 0.063,-0.457 0.015,-0.125 0.137,-0.875 0.008,-0.031 0.004,-0.032 0.011,-0.062 0.02,-0.125 0.047,-0.254 0.097,-0.5 0.004,-0.031 0.008,-0.032 0.035,-0.187 0.055,-0.246 0.105,-0.496 0.243,-1 0.007,-0.028 0.008,-0.031 0.012,-0.059 0.031,-0.117 0.063,-0.23 0.129,-0.473 0.273,-0.945 0.688,-2.078 0.753,-1.977 0.848,-1.984 1.043,-2.207 1.09,-2.121 1.316,-2.368 1.36,-2.289 1.461,-2.316 1.726,-2.609 1.754,-2.532 2.063,-2.859 2.195,-2.93 2.207,-2.855 2.574,-3.238 2.578,-3.165 2.703,-3.246 3.141,-3.695 3.129,-3.621 0.055,-0.062 0.058,-0.067 0.114,-0.129 0.226,-0.262 0.457,-0.519 0.926,-1.059 0.469,-0.531 0.472,-0.539 0.118,-0.133 0.121,-0.137 0.238,-0.269 0.062,-0.066 0.059,-0.071 0.121,-0.136 0.059,-0.067 0.062,-0.066 0.059,-0.071 0.058,-0.066"
         style="fill:none;stroke:#000000;stroke-width:1.60000002;stroke-linecap:square;stroke-linejoin:miter;stroke-miterlimit:3.25;stroke-dasharray:none;stroke-opacity:1"
         id="path2117"
         inkscape:connector-curvature="0" /><path
         d="m 12.223,155.27 0.05,-0.063 0.055,-0.059 0.11,-0.121 0.214,-0.242 0.426,-0.484 0.844,-0.961 1.648,-1.879 3.403,-3.934 2.972,-3.492 2.727,-3.265 2.762,-3.383 2.398,-3.016 2.422,-3.125 2.195,-2.93 1.895,-2.621 1.898,-2.73 1.629,-2.453 1.465,-2.317 1.453,-2.429 1.227,-2.196 1.195,-2.304 1.039,-2.2 0.859,-1.996 0.805,-2.117 0.645,-1.937 0.007,-0.032 0.012,-0.031 0.02,-0.066 0.117,-0.387 0.144,-0.52 0.274,-1.023 0.015,-0.062 0.016,-0.067 0.031,-0.125 0.176,-0.75 0.008,-0.027 0.004,-0.031 0.015,-0.063 0.028,-0.125 0.051,-0.25 0.101,-0.496 0.008,-0.027 0.004,-0.032 0.012,-0.054 0.019,-0.118 0.043,-0.23 0.082,-0.461 0.004,-0.027 0.008,-0.032 0.008,-0.054 0.019,-0.117 0.035,-0.227 0.071,-0.461 0.015,-0.125 0.016,-0.121 0.035,-0.25 0.008,-0.063 0.008,-0.058 0.015,-0.125 0.028,-0.25 0.004,-0.027 0.003,-0.032 0.004,-0.062 0.016,-0.125 0.07,-0.738 v -0.032 l 0.004,-0.027 0.004,-0.059 0.008,-0.113 0.019,-0.23 v -0.028 l 0.004,-0.031 0.004,-0.059 0.008,-0.113 0.012,-0.23 v -0.028 l 0.004,-0.031 0.004,-0.055 0.004,-0.117 v -0.027 l 0.003,-0.027 v -0.059 l 0.008,-0.113 v -0.059 l 0.004,-0.059 0.004,-0.113 v -0.031 l 0.004,-0.027 v -0.059 l 0.004,-0.113 V 93.25 l 0.004,-0.059 v -0.14 l 0.004,-0.028 V 92.801 L 50.227,92.77 V 92.012 L 50.223,91.957 V 91.785 L 50.219,91.73 V 91.617 L 50.215,91.504 V 91.445 L 50.211,91.383 50.207,91.262 V 91.199 L 50.203,91.141 50.199,91.016 V 90.988 L 50.195,90.957 V 90.895 L 50.188,90.773 50.176,90.527 50.172,90.5 V 90.469 L 50.168,90.406 50.16,90.285 50.145,90.039 50.141,90.008 V 89.98 l -0.004,-0.062 -0.012,-0.121 -0.02,-0.246 -0.003,-0.028 V 89.492 L 50.098,89.438 50.086,89.32 50.062,89.094 50.016,88.637 50.012,88.605 50.008,88.578 50,88.52 l -0.012,-0.114 -0.027,-0.23 -0.063,-0.457 -0.015,-0.125 -0.137,-0.875 -0.008,-0.031 -0.004,-0.032 -0.011,-0.062 -0.02,-0.125 -0.047,-0.254 -0.097,-0.5 -0.004,-0.031 -0.008,-0.032 -0.035,-0.187 -0.055,-0.246 -0.105,-0.496 -0.243,-1 -0.007,-0.028 -0.008,-0.031 -0.012,-0.059 -0.031,-0.117 -0.063,-0.23 -0.129,-0.473 -0.273,-0.945 -0.688,-2.078 -0.753,-1.977 -0.848,-1.984 -1.043,-2.207 -1.09,-2.121 -1.316,-2.368 -1.36,-2.289 L 40.027,64.5 38.301,61.891 36.547,59.359 34.484,56.5 32.289,53.57 30.082,50.715 27.508,47.477 24.93,44.312 22.227,41.066 19.086,37.371 15.957,33.75 15.902,33.688 15.844,33.621 15.73,33.492 15.504,33.23 15.047,32.711 14.121,31.652 13.652,31.121 13.18,30.582 13.062,30.449 12.941,30.312 12.703,30.043 12.641,29.977 12.582,29.906 12.461,29.77 12.402,29.703 12.34,29.637 12.281,29.566 12.223,29.5"
         style="fill:none;stroke:#000000;stroke-width:1.60000002;stroke-linecap:square;stroke-linejoin:miter;stroke-miterlimit:3.25;stroke-dasharray:none;stroke-opacity:1"
         id="path2119"
         inkscape:connector-curvature="0" /><path
         d="M 0.5,92.383 H 166"
         style="fill:none;stroke:#666666;stroke-width:0.2;stroke-linecap:butt;stroke-linejoin:miter;stroke-miterlimit:3.25;stroke-dasharray:none;stroke-opacity:1"
         id="path2121"
         inkscape:connector-curvature="0" /><text
         transform="translate(174,94.884263)"
         style="font-style:italic;font-variant:normal;font-size:10px;font-family:Arial;-inkscape-font-specification:Arial-ItalicMT;writing-mode:lr-tb;fill:#666666;fill-opacity:1;fill-rule:nonzero;stroke:none"
         id="text2125"><tspan
           x="0"
           y="0"
           id="tspan2123">x</tspan></text>
<path
         d="M 83.25,165.77 V 19"
         style="fill:none;stroke:#666666;stroke-width:0.2;stroke-linecap:butt;stroke-linejoin:miter;stroke-miterlimit:3.25;stroke-dasharray:none;stroke-opacity:1"
         id="path2127"
         inkscape:connector-curvature="0" /><text
         transform="translate(81.75,9)"
         style="font-style:italic;font-variant:normal;font-size:10px;font-family:Arial;-inkscape-font-specification:Arial-ItalicMT;writing-mode:lr-tb;fill:#666666;fill-opacity:1;fill-rule:nonzero;stroke:none"
         id="text2131"><tspan
           x="0"
           y="0"
           id="tspan2129">t</tspan></text>
</g><text
       xml:space="preserve"
       style="font-style:normal;font-weight:normal;font-size:30px;line-height:1.25;font-family:sans-serif;letter-spacing:0px;word-spacing:0px;fill:#000000;fill-opacity:1;stroke:none;stroke-width:0.75"
       x="96.891518"
       y="52.516182"
       id="text2013"><tspan
         sodipodi:role="line"
         id="tspan2011"
         x="96.891518"
         y="52.516182"
         style="stroke-width:0.75"><tspan
           style="font-size:20px;stroke-width:0.75"
           id="tspan2015">e</tspan><tspan
           style="font-size:10px;stroke-width:0.75"
           id="tspan2017">t</tspan></tspan></text>
<text
       xml:space="preserve"
       style="font-style:normal;font-weight:normal;font-size:30px;line-height:1.25;font-family:sans-serif;letter-spacing:0px;word-spacing:0px;fill:#000000;fill-opacity:1;stroke:none;stroke-width:0.75"
       x="161.99323"
       y="53.577621"
       id="text2013-9"><tspan
         sodipodi:role="line"
         id="tspan2011-0"
         x="161.99323"
         y="53.577621"
         style="font-style:normal;font-variant:normal;font-weight:normal;font-stretch:normal;font-size:20px;font-family:sans-serif;-inkscape-font-specification:sans-serif;stroke-width:0.75">l</tspan></text>
<circle
       style="fill:#000000;fill-opacity:1;stroke:#000000;stroke-width:1;stroke-linecap:round;stroke-linejoin:bevel;stroke-miterlimit:4;stroke-dasharray:none;stroke-dashoffset:0;stroke-opacity:1"
       id="path2731"
       cx="46.192612"
       cy="109.37499"
       r="2.4766951" /><circle
       style="fill:#000000;fill-opacity:1;stroke:#000000;stroke-width:0.99999994;stroke-linecap:round;stroke-linejoin:bevel;stroke-miterlimit:4;stroke-dasharray:none;stroke-dashoffset:0;stroke-opacity:1"
       id="path2731-2"
       cx="120.29662"
       cy="75.008469"
       r="2.4766951" /><text
       xml:space="preserve"
       style="font-style:normal;font-weight:normal;font-size:30px;line-height:1.25;font-family:sans-serif;letter-spacing:0px;word-spacing:0px;fill:#000000;fill-opacity:1;stroke:none;stroke-width:0.75"
       x="123.70087"
       y="89.061897"
       id="text2013-0"><tspan
         sodipodi:role="line"
         id="tspan2011-2"
         x="123.70087"
         y="89.061897"
         style="stroke-width:0.75"><tspan
           style="font-size:20px;stroke-width:0.75"
           id="tspan2015-4">S(e</tspan><tspan
           style="font-size:10px;stroke-width:0.75"
           id="tspan2017-83">t<tspan
   style="font-size:20px;stroke-width:0.75"
   id="tspan2055">)</tspan></tspan></tspan></text>
</g></svg>