<?xml version="1.0" encoding="utf-8" standalone="no"?>
<!DOCTYPE svg PUBLIC "-//W3C//DTD SVG 1.1//EN"
  "http://www.w3.org/Graphics/SVG/1.1/DTD/svg11.dtd">
<svg xmlns:xlink="http://www.w3.org/1999/xlink" width="864pt" height="288pt" viewBox="0 0 864 288" xmlns="http://www.w3.org/2000/svg" version="1.1">
 <metadata>
  <rdf:RDF xmlns:dc="http://purl.org/dc/elements/1.1/" xmlns:cc="http://creativecommons.org/ns#" xmlns:rdf="http://www.w3.org/1999/02/22-rdf-syntax-ns#">
   <cc:Work>
    <dc:type rdf:resource="http://purl.org/dc/dcmitype/StillImage"/>
    <dc:date>2024-04-11T01:07:42.668069</dc:date>
    <dc:format>image/svg+xml</dc:format>
    <dc:creator>
     <cc:Agent>
      <dc:title>Matplotlib v3.7.1, https://matplotlib.org/</dc:title>
     </cc:Agent>
    </dc:creator>
   </cc:Work>
  </rdf:RDF>
 </metadata>
 <defs>
  <style type="text/css">*{stroke-linejoin: round; stroke-linecap: butt}</style>
 </defs>
 <g id="figure_1">
  <g id="patch_1">
   <path d="M 0 288 
L 864 288 
L 864 0 
L 0 0 
z
" style="fill: #ffffff"/>
  </g>
  <g id="axes_1">
   <g id="patch_2">
    <path d="M 38.86 260.12 
L 272.127655 260.12 
L 272.127655 28.32 
L 38.86 28.32 
z
" style="fill: #ffffff"/>
   </g>
   <g id="matplotlib.axis_1">
    <g id="xtick_1">
     <g id="line2d_1">
      <defs>
       <path id="md17e8ce078" d="M 0 0 
L 0 3.5 
" style="stroke: #000000; stroke-width: 0.8"/>
      </defs>
      <g>
       <use xlink:href="#md17e8ce078" x="49.463075" y="260.12" style="stroke: #000000; stroke-width: 0.8"/>
      </g>
     </g>
     <g id="text_1">
      <!-- 0 -->
      <g transform="translate(46.281825 274.718437) scale(0.1 -0.1)">
       <defs>
        <path id="DejaVuSans-30" d="M 2034 4250 
Q 1547 4250 1301 3770 
Q 1056 3291 1056 2328 
Q 1056 1369 1301 889 
Q 1547 409 2034 409 
Q 2525 409 2770 889 
Q 3016 1369 3016 2328 
Q 3016 3291 2770 3770 
Q 2525 4250 2034 4250 
z
M 2034 4750 
Q 2819 4750 3233 4129 
Q 3647 3509 3647 2328 
Q 3647 1150 3233 529 
Q 2819 -91 2034 -91 
Q 1250 -91 836 529 
Q 422 1150 422 2328 
Q 422 3509 836 4129 
Q 1250 4750 2034 4750 
z
" transform="scale(0.015625)"/>
       </defs>
       <use xlink:href="#DejaVuSans-30"/>
      </g>
     </g>
    </g>
    <g id="xtick_2">
     <g id="line2d_2">
      <g>
       <use xlink:href="#md17e8ce078" x="91.917831" y="260.12" style="stroke: #000000; stroke-width: 0.8"/>
      </g>
     </g>
     <g id="text_2">
      <!-- 200 -->
      <g transform="translate(82.374081 274.718437) scale(0.1 -0.1)">
       <defs>
        <path id="DejaVuSans-32" d="M 1228 531 
L 3431 531 
L 3431 0 
L 469 0 
L 469 531 
Q 828 903 1448 1529 
Q 2069 2156 2228 2338 
Q 2531 2678 2651 2914 
Q 2772 3150 2772 3378 
Q 2772 3750 2511 3984 
Q 2250 4219 1831 4219 
Q 1534 4219 1204 4116 
Q 875 4013 500 3803 
L 500 4441 
Q 881 4594 1212 4672 
Q 1544 4750 1819 4750 
Q 2544 4750 2975 4387 
Q 3406 4025 3406 3419 
Q 3406 3131 3298 2873 
Q 3191 2616 2906 2266 
Q 2828 2175 2409 1742 
Q 1991 1309 1228 531 
z
" transform="scale(0.015625)"/>
       </defs>
       <use xlink:href="#DejaVuSans-32"/>
       <use xlink:href="#DejaVuSans-30" x="63.623047"/>
       <use xlink:href="#DejaVuSans-30" x="127.246094"/>
      </g>
     </g>
    </g>
    <g id="xtick_3">
     <g id="line2d_3">
      <g>
       <use xlink:href="#md17e8ce078" x="134.372587" y="260.12" style="stroke: #000000; stroke-width: 0.8"/>
      </g>
     </g>
     <g id="text_3">
      <!-- 400 -->
      <g transform="translate(124.828837 274.718437) scale(0.1 -0.1)">
       <defs>
        <path id="DejaVuSans-34" d="M 2419 4116 
L 825 1625 
L 2419 1625 
L 2419 4116 
z
M 2253 4666 
L 3047 4666 
L 3047 1625 
L 3713 1625 
L 3713 1100 
L 3047 1100 
L 3047 0 
L 2419 0 
L 2419 1100 
L 313 1100 
L 313 1709 
L 2253 4666 
z
" transform="scale(0.015625)"/>
       </defs>
       <use xlink:href="#DejaVuSans-34"/>
       <use xlink:href="#DejaVuSans-30" x="63.623047"/>
       <use xlink:href="#DejaVuSans-30" x="127.246094"/>
      </g>
     </g>
    </g>
    <g id="xtick_4">
     <g id="line2d_4">
      <g>
       <use xlink:href="#md17e8ce078" x="176.827342" y="260.12" style="stroke: #000000; stroke-width: 0.8"/>
      </g>
     </g>
     <g id="text_4">
      <!-- 600 -->
      <g transform="translate(167.283592 274.718437) scale(0.1 -0.1)">
       <defs>
        <path id="DejaVuSans-36" d="M 2113 2584 
Q 1688 2584 1439 2293 
Q 1191 2003 1191 1497 
Q 1191 994 1439 701 
Q 1688 409 2113 409 
Q 2538 409 2786 701 
Q 3034 994 3034 1497 
Q 3034 2003 2786 2293 
Q 2538 2584 2113 2584 
z
M 3366 4563 
L 3366 3988 
Q 3128 4100 2886 4159 
Q 2644 4219 2406 4219 
Q 1781 4219 1451 3797 
Q 1122 3375 1075 2522 
Q 1259 2794 1537 2939 
Q 1816 3084 2150 3084 
Q 2853 3084 3261 2657 
Q 3669 2231 3669 1497 
Q 3669 778 3244 343 
Q 2819 -91 2113 -91 
Q 1303 -91 875 529 
Q 447 1150 447 2328 
Q 447 3434 972 4092 
Q 1497 4750 2381 4750 
Q 2619 4750 2861 4703 
Q 3103 4656 3366 4563 
z
" transform="scale(0.015625)"/>
       </defs>
       <use xlink:href="#DejaVuSans-36"/>
       <use xlink:href="#DejaVuSans-30" x="63.623047"/>
       <use xlink:href="#DejaVuSans-30" x="127.246094"/>
      </g>
     </g>
    </g>
    <g id="xtick_5">
     <g id="line2d_5">
      <g>
       <use xlink:href="#md17e8ce078" x="219.282098" y="260.12" style="stroke: #000000; stroke-width: 0.8"/>
      </g>
     </g>
     <g id="text_5">
      <!-- 800 -->
      <g transform="translate(209.738348 274.718437) scale(0.1 -0.1)">
       <defs>
        <path id="DejaVuSans-38" d="M 2034 2216 
Q 1584 2216 1326 1975 
Q 1069 1734 1069 1313 
Q 1069 891 1326 650 
Q 1584 409 2034 409 
Q 2484 409 2743 651 
Q 3003 894 3003 1313 
Q 3003 1734 2745 1975 
Q 2488 2216 2034 2216 
z
M 1403 2484 
Q 997 2584 770 2862 
Q 544 3141 544 3541 
Q 544 4100 942 4425 
Q 1341 4750 2034 4750 
Q 2731 4750 3128 4425 
Q 3525 4100 3525 3541 
Q 3525 3141 3298 2862 
Q 3072 2584 2669 2484 
Q 3125 2378 3379 2068 
Q 3634 1759 3634 1313 
Q 3634 634 3220 271 
Q 2806 -91 2034 -91 
Q 1263 -91 848 271 
Q 434 634 434 1313 
Q 434 1759 690 2068 
Q 947 2378 1403 2484 
z
M 1172 3481 
Q 1172 3119 1398 2916 
Q 1625 2713 2034 2713 
Q 2441 2713 2670 2916 
Q 2900 3119 2900 3481 
Q 2900 3844 2670 4047 
Q 2441 4250 2034 4250 
Q 1625 4250 1398 4047 
Q 1172 3844 1172 3481 
z
" transform="scale(0.015625)"/>
       </defs>
       <use xlink:href="#DejaVuSans-38"/>
       <use xlink:href="#DejaVuSans-30" x="63.623047"/>
       <use xlink:href="#DejaVuSans-30" x="127.246094"/>
      </g>
     </g>
    </g>
    <g id="xtick_6">
     <g id="line2d_6">
      <g>
       <use xlink:href="#md17e8ce078" x="261.736854" y="260.12" style="stroke: #000000; stroke-width: 0.8"/>
      </g>
     </g>
     <g id="text_6">
      <!-- 1000 -->
      <g transform="translate(249.011854 274.718437) scale(0.1 -0.1)">
       <defs>
        <path id="DejaVuSans-31" d="M 794 531 
L 1825 531 
L 1825 4091 
L 703 3866 
L 703 4441 
L 1819 4666 
L 2450 4666 
L 2450 531 
L 3481 531 
L 3481 0 
L 794 0 
L 794 531 
z
" transform="scale(0.015625)"/>
       </defs>
       <use xlink:href="#DejaVuSans-31"/>
       <use xlink:href="#DejaVuSans-30" x="63.623047"/>
       <use xlink:href="#DejaVuSans-30" x="127.246094"/>
       <use xlink:href="#DejaVuSans-30" x="190.869141"/>
      </g>
     </g>
    </g>
   </g>
   <g id="matplotlib.axis_2">
    <g id="ytick_1">
     <g id="line2d_7">
      <defs>
       <path id="m6d2fc576e3" d="M 0 0 
L -3.5 0 
" style="stroke: #000000; stroke-width: 0.8"/>
      </defs>
      <g>
       <use xlink:href="#m6d2fc576e3" x="38.86" y="247.320599" style="stroke: #000000; stroke-width: 0.8"/>
      </g>
     </g>
     <g id="text_7">
      <!-- −40 -->
      <g transform="translate(10.755313 251.119817) scale(0.1 -0.1)">
       <defs>
        <path id="DejaVuSans-2212" d="M 678 2272 
L 4684 2272 
L 4684 1741 
L 678 1741 
L 678 2272 
z
" transform="scale(0.015625)"/>
       </defs>
       <use xlink:href="#DejaVuSans-2212"/>
       <use xlink:href="#DejaVuSans-34" x="83.789062"/>
       <use xlink:href="#DejaVuSans-30" x="147.412109"/>
      </g>
     </g>
    </g>
    <g id="ytick_2">
     <g id="line2d_8">
      <g>
       <use xlink:href="#m6d2fc576e3" x="38.86" y="215.84454" style="stroke: #000000; stroke-width: 0.8"/>
      </g>
     </g>
     <g id="text_8">
      <!-- −30 -->
      <g transform="translate(10.755313 219.643759) scale(0.1 -0.1)">
       <defs>
        <path id="DejaVuSans-33" d="M 2597 2516 
Q 3050 2419 3304 2112 
Q 3559 1806 3559 1356 
Q 3559 666 3084 287 
Q 2609 -91 1734 -91 
Q 1441 -91 1130 -33 
Q 819 25 488 141 
L 488 750 
Q 750 597 1062 519 
Q 1375 441 1716 441 
Q 2309 441 2620 675 
Q 2931 909 2931 1356 
Q 2931 1769 2642 2001 
Q 2353 2234 1838 2234 
L 1294 2234 
L 1294 2753 
L 1863 2753 
Q 2328 2753 2575 2939 
Q 2822 3125 2822 3475 
Q 2822 3834 2567 4026 
Q 2313 4219 1838 4219 
Q 1578 4219 1281 4162 
Q 984 4106 628 3988 
L 628 4550 
Q 988 4650 1302 4700 
Q 1616 4750 1894 4750 
Q 2613 4750 3031 4423 
Q 3450 4097 3450 3541 
Q 3450 3153 3228 2886 
Q 3006 2619 2597 2516 
z
" transform="scale(0.015625)"/>
       </defs>
       <use xlink:href="#DejaVuSans-2212"/>
       <use xlink:href="#DejaVuSans-33" x="83.789062"/>
       <use xlink:href="#DejaVuSans-30" x="147.412109"/>
      </g>
     </g>
    </g>
    <g id="ytick_3">
     <g id="line2d_9">
      <g>
       <use xlink:href="#m6d2fc576e3" x="38.86" y="184.368482" style="stroke: #000000; stroke-width: 0.8"/>
      </g>
     </g>
     <g id="text_9">
      <!-- −20 -->
      <g transform="translate(10.755313 188.167701) scale(0.1 -0.1)">
       <use xlink:href="#DejaVuSans-2212"/>
       <use xlink:href="#DejaVuSans-32" x="83.789062"/>
       <use xlink:href="#DejaVuSans-30" x="147.412109"/>
      </g>
     </g>
    </g>
    <g id="ytick_4">
     <g id="line2d_10">
      <g>
       <use xlink:href="#m6d2fc576e3" x="38.86" y="152.892424" style="stroke: #000000; stroke-width: 0.8"/>
      </g>
     </g>
     <g id="text_10">
      <!-- −10 -->
      <g transform="translate(10.755313 156.691643) scale(0.1 -0.1)">
       <use xlink:href="#DejaVuSans-2212"/>
       <use xlink:href="#DejaVuSans-31" x="83.789062"/>
       <use xlink:href="#DejaVuSans-30" x="147.412109"/>
      </g>
     </g>
    </g>
    <g id="ytick_5">
     <g id="line2d_11">
      <g>
       <use xlink:href="#m6d2fc576e3" x="38.86" y="121.416366" style="stroke: #000000; stroke-width: 0.8"/>
      </g>
     </g>
     <g id="text_11">
      <!-- 0 -->
      <g transform="translate(25.4975 125.215585) scale(0.1 -0.1)">
       <use xlink:href="#DejaVuSans-30"/>
      </g>
     </g>
    </g>
    <g id="ytick_6">
     <g id="line2d_12">
      <g>
       <use xlink:href="#m6d2fc576e3" x="38.86" y="89.940308" style="stroke: #000000; stroke-width: 0.8"/>
      </g>
     </g>
     <g id="text_12">
      <!-- 10 -->
      <g transform="translate(19.135 93.739527) scale(0.1 -0.1)">
       <use xlink:href="#DejaVuSans-31"/>
       <use xlink:href="#DejaVuSans-30" x="63.623047"/>
      </g>
     </g>
    </g>
    <g id="ytick_7">
     <g id="line2d_13">
      <g>
       <use xlink:href="#m6d2fc576e3" x="38.86" y="58.46425" style="stroke: #000000; stroke-width: 0.8"/>
      </g>
     </g>
     <g id="text_13">
      <!-- 20 -->
      <g transform="translate(19.135 62.263469) scale(0.1 -0.1)">
       <use xlink:href="#DejaVuSans-32"/>
       <use xlink:href="#DejaVuSans-30" x="63.623047"/>
      </g>
     </g>
    </g>
   </g>
   <g id="line2d_14">
    <path d="M 49.463075 120.885193 
L 49.675349 126.820747 
L 49.887623 128.982271 
L 50.099897 135.804007 
L 50.31217 134.49435 
L 50.524444 134.863031 
L 50.736718 134.593329 
L 50.948992 127.710509 
L 51.161265 129.001054 
L 51.373539 127.593086 
L 51.585813 128.393402 
L 51.798087 125.610483 
L 52.010361 125.879423 
L 52.222634 124.17572 
L 52.434908 129.815421 
L 52.647182 124.355417 
L 52.859456 125.761242 
L 53.071729 130.866177 
L 53.284003 128.614296 
L 53.496277 127.84312 
L 53.708551 121.923296 
L 53.920825 120.74409 
L 54.133098 125.608925 
L 54.345372 124.990966 
L 54.982193 129.668499 
L 55.194467 129.96985 
L 55.619015 124.924822 
L 55.831289 125.165244 
L 56.255836 133.188162 
L 56.892657 122.01831 
L 57.104931 121.83735 
L 57.317205 122.917897 
L 57.529479 127.643103 
L 57.954026 123.617428 
L 58.1663 129.501923 
L 58.378574 131.020335 
L 58.590848 129.630793 
L 58.803121 133.725578 
L 59.227669 130.974939 
L 59.439943 133.374344 
L 59.652217 132.416266 
L 59.86449 129.990493 
L 60.076764 128.974295 
L 60.289038 130.849317 
L 60.501312 123.672559 
L 60.713585 124.141952 
L 60.925859 122.939979 
L 61.138133 120.830316 
L 61.350407 117.290228 
L 61.562681 117.476508 
L 61.774954 116.975801 
L 61.987228 115.743965 
L 62.411776 121.461615 
L 62.836323 127.826059 
L 63.048597 126.295332 
L 63.260871 122.046943 
L 63.473145 122.578962 
L 63.685418 121.927003 
L 63.897692 120.172651 
L 64.109966 128.82937 
L 64.746787 116.802034 
L 64.959061 119.752348 
L 65.171335 113.876935 
L 65.595882 119.236854 
L 66.02043 113.410081 
L 66.232704 113.768424 
L 66.444977 115.106249 
L 66.657251 118.318039 
L 67.506346 108.566316 
L 67.71862 108.397418 
L 67.930894 104.241936 
L 68.355441 102.608877 
L 68.567715 108.72006 
L 68.779989 108.633384 
L 69.204537 103.455439 
L 69.41681 110.546876 
L 69.841358 111.279372 
L 70.265906 120.528169 
L 70.478179 118.938375 
L 70.690453 123.382471 
L 70.902727 123.2157 
L 71.115001 126.708646 
L 71.539548 120.897221 
L 71.751822 121.302412 
L 71.964096 122.127044 
L 72.388643 113.218014 
L 72.600917 115.777384 
L 73.237738 130.234276 
L 73.450012 129.219162 
L 73.87456 134.734972 
L 74.086834 135.22783 
L 74.299107 133.820594 
L 74.723655 128.68959 
L 75.148202 132.706097 
L 75.57275 130.716971 
L 75.785024 129.992718 
L 76.634119 121.042886 
L 76.846393 114.380259 
L 77.058666 118.020496 
L 77.27094 116.429243 
L 77.695488 109.931988 
L 77.907762 110.539402 
L 78.120035 110.412635 
L 78.332309 107.151691 
L 78.544583 101.180683 
L 78.756857 98.985376 
L 78.96913 99.2189 
L 79.181404 91.674762 
L 79.393678 91.597019 
L 79.605952 87.94263 
L 79.818226 90.147116 
L 80.242773 97.329773 
L 80.455047 99.387392 
L 80.879594 94.165079 
L 81.091868 100.11812 
L 81.304142 98.45857 
L 81.516416 94.391277 
L 81.72869 99.696405 
L 81.940963 97.405283 
L 82.365511 95.483891 
L 82.577785 96.490023 
L 82.790058 95.606128 
L 83.002332 93.586996 
L 83.214606 87.937921 
L 83.42688 85.508933 
L 83.639154 85.149696 
L 83.851427 90.802796 
L 84.063701 91.251775 
L 84.275975 90.565903 
L 84.912796 79.894103 
L 85.12507 79.557977 
L 85.337344 76.244877 
L 85.549618 75.626421 
L 85.761891 74.469391 
L 85.974165 76.570632 
L 86.186439 73.184702 
L 86.398713 78.977595 
L 86.610986 79.881362 
L 86.82326 87.478131 
L 87.035534 84.98956 
L 87.247808 84.499852 
L 87.460082 84.435257 
L 87.672355 88.140164 
L 87.884629 89.822098 
L 88.096903 89.488499 
L 88.309177 88.864566 
L 88.52145 89.360268 
L 88.945998 81.739515 
L 89.158272 83.587599 
L 89.370546 80.461371 
L 89.582819 84.550857 
L 89.795093 85.869754 
L 90.219641 80.007584 
L 90.431914 71.510223 
L 90.644188 75.410787 
L 90.856462 76.138288 
L 91.068736 75.522528 
L 91.28101 73.820783 
L 91.493283 69.783644 
L 91.917831 67.252867 
L 92.130105 66.009773 
L 92.342378 68.84159 
L 92.554652 66.628087 
L 92.766926 65.824524 
L 92.9792 68.855527 
L 93.191474 74.781015 
L 93.403747 75.338479 
L 93.616021 74.381106 
L 93.828295 72.842787 
L 94.040569 73.603751 
L 94.465116 82.068374 
L 94.67739 76.080784 
L 94.889664 75.015782 
L 95.314211 80.06693 
L 95.526485 75.72727 
L 95.738759 75.73641 
L 95.951033 66.268927 
L 96.163306 66.631398 
L 96.37558 69.303944 
L 96.587854 66.197109 
L 96.800128 65.044118 
L 97.224675 59.566242 
L 97.436949 59.478521 
L 97.649223 60.613057 
L 97.861497 55.883171 
L 98.07377 53.995209 
L 98.498318 45.348124 
L 98.710592 45.262778 
L 99.135139 38.856364 
L 99.347413 44.199115 
L 99.559687 45.426695 
L 99.771961 43.731355 
L 100.196508 46.62877 
L 100.408782 42.299601 
L 100.621056 40.512037 
L 100.83333 40.922727 
L 101.045603 48.217298 
L 101.257877 47.963433 
L 101.470151 47.481465 
L 101.682425 49.075633 
L 101.894698 49.579486 
L 102.743794 39.395638 
L 102.956067 38.942323 
L 103.168341 38.952231 
L 103.592889 44.718972 
L 103.805162 44.247822 
L 104.017436 44.485799 
L 104.22971 44.911253 
L 104.441984 50.921898 
L 104.866531 48.402992 
L 105.078805 50.23242 
L 105.291079 48.116089 
L 105.9279 55.771255 
L 106.140174 55.955172 
L 106.352448 53.838699 
L 106.564722 59.555599 
L 106.776995 59.322736 
L 106.989269 64.857495 
L 107.201543 63.828969 
L 107.413817 70.230245 
L 107.62609 65.187575 
L 107.838364 63.582175 
L 108.050638 67.881452 
L 108.262912 68.136167 
L 108.475186 65.415914 
L 108.687459 64.458348 
L 109.112007 72.464896 
L 109.536554 65.831938 
L 109.748828 67.6202 
L 109.961102 63.596135 
L 110.173376 63.076789 
L 110.38565 58.401687 
L 110.597923 59.761212 
L 110.810197 55.642478 
L 111.022471 54.513411 
L 111.234745 56.003787 
L 111.447019 62.810524 
L 111.659292 59.398527 
L 111.871566 58.279817 
L 112.08384 58.571878 
L 112.296114 57.846888 
L 112.508387 55.866556 
L 112.720661 51.136585 
L 112.932935 53.45979 
L 113.145209 58.375281 
L 113.357483 53.7884 
L 113.78203 65.835781 
L 113.994304 64.53381 
L 114.418851 66.91848 
L 114.631125 70.025083 
L 114.843399 68.336044 
L 115.055673 71.014306 
L 115.267947 72.106811 
L 115.48022 74.009763 
L 115.692494 71.545763 
L 115.904768 71.144406 
L 116.117042 64.206026 
L 116.329315 61.759203 
L 116.541589 63.849247 
L 116.753863 63.603253 
L 116.966137 66.330495 
L 117.178411 67.611274 
L 117.602958 77.843859 
L 118.027506 73.06774 
L 118.239779 72.294371 
L 118.452053 76.297074 
L 118.876601 74.293239 
L 119.088875 73.77657 
L 119.301148 80.466583 
L 120.362517 67.578663 
L 120.574791 74.968076 
L 120.787065 71.532641 
L 120.999339 73.691823 
L 121.211612 79.036786 
L 121.423886 77.455772 
L 121.848434 72.080395 
L 122.060707 74.241888 
L 122.485255 84.109981 
L 122.697529 86.749932 
L 123.33435 82.002114 
L 123.546624 84.474673 
L 123.758898 84.698469 
L 123.971171 80.862792 
L 124.183445 83.18146 
L 124.395719 80.118489 
L 124.607993 78.828524 
L 125.244814 82.21128 
L 125.457088 86.855925 
L 125.669362 82.655446 
L 126.518457 78.041939 
L 127.155278 82.436205 
L 127.367552 82.415008 
L 127.792099 92.516321 
L 128.216647 90.082489 
L 128.641195 85.026341 
L 128.853468 83.816435 
L 129.065742 84.27248 
L 129.914837 94.091778 
L 130.127111 100.451166 
L 130.551659 102.973956 
L 130.976206 96.914632 
L 131.18848 97.587072 
L 131.400754 95.926672 
L 131.613027 100.265733 
L 131.825301 97.538836 
L 132.249849 105.89497 
L 132.462123 110.854226 
L 132.674396 112.15097 
L 132.88667 110.863959 
L 133.098944 111.756092 
L 133.311218 110.004996 
L 133.948039 114.539026 
L 134.160313 113.965051 
L 134.58486 119.931509 
L 134.797134 113.609473 
L 135.009408 114.069655 
L 135.221682 113.898586 
L 135.646229 117.897841 
L 135.858503 121.372675 
L 136.070777 128.722139 
L 136.283051 131.437901 
L 136.495324 130.007705 
L 136.707598 130.159565 
L 136.919872 127.738972 
L 137.132146 133.845249 
L 137.556693 128.457622 
L 137.981241 122.449667 
L 138.193515 124.461255 
L 138.405788 122.630328 
L 138.618062 125.255707 
L 138.830336 124.216707 
L 139.04261 120.037523 
L 139.254883 125.589924 
L 139.467157 125.606118 
L 139.679431 127.990455 
L 139.891705 132.580551 
L 140.103979 131.439815 
L 140.528526 141.568013 
L 140.7408 141.498894 
L 141.165347 148.202668 
L 141.589895 138.388147 
L 142.014443 133.009495 
L 142.226716 129.642848 
L 142.43899 134.376098 
L 142.651264 133.750232 
L 143.075811 129.911829 
L 143.288085 130.310486 
L 143.500359 131.347748 
L 143.712633 129.231619 
L 143.924907 128.313838 
L 144.13718 131.984796 
L 144.349454 132.385157 
L 144.774002 132.355854 
L 144.986275 133.950167 
L 145.623097 150.601778 
L 145.835371 147.165202 
L 146.047644 152.566585 
L 146.472192 145.707924 
L 146.684466 145.578648 
L 146.896739 143.700325 
L 147.109013 148.012262 
L 147.533561 143.260196 
L 147.745835 139.539682 
L 147.958108 133.84885 
L 148.170382 140.590994 
L 148.382656 141.522907 
L 148.59493 140.911285 
L 149.019477 136.030358 
L 149.231751 143.126305 
L 149.444025 141.264296 
L 149.656299 134.294448 
L 150.080846 137.467288 
L 150.505394 139.246595 
L 150.717667 138.125561 
L 150.929941 131.472212 
L 151.142215 130.298044 
L 151.354489 126.228833 
L 151.566763 125.490704 
L 151.779036 122.938945 
L 151.99131 126.760287 
L 152.203584 124.213594 
L 152.628131 129.987368 
L 152.840405 133.061804 
L 153.052679 126.00825 
L 153.6895 133.192803 
L 153.901774 127.138778 
L 154.114048 127.82502 
L 154.326322 129.621379 
L 154.750869 142.150345 
L 154.963143 143.061633 
L 155.175417 141.772775 
L 155.387691 139.633921 
L 155.599964 139.976533 
L 156.024512 138.044653 
L 156.236786 133.78549 
L 156.44906 137.257336 
L 156.661333 131.830905 
L 156.873607 133.848784 
L 157.085881 132.665735 
L 157.298155 127.726427 
L 157.510428 127.647971 
L 157.722702 135.175252 
L 157.934976 137.345795 
L 158.14725 136.522965 
L 158.359524 133.436006 
L 158.571797 135.987639 
L 159.208619 129.459905 
L 159.84544 142.726072 
L 160.057714 142.852444 
L 160.269988 142.777457 
L 160.482261 137.505259 
L 160.694535 138.694464 
L 161.119083 130.507525 
L 161.331356 128.35209 
L 161.54363 130.95348 
L 161.755904 131.085332 
L 161.968178 125.559505 
L 162.180452 124.173767 
L 162.392725 126.427211 
L 162.604999 130.735624 
L 162.817273 131.321054 
L 163.029547 133.860729 
L 163.24182 139.15283 
L 163.454094 138.687396 
L 163.878642 143.39858 
L 164.303189 142.890846 
L 164.515463 144.965972 
L 164.727737 141.980149 
L 164.940011 134.361476 
L 165.152284 142.541084 
L 165.364558 140.953764 
L 165.576832 141.972244 
L 165.789106 144.072215 
L 166.00138 139.825645 
L 166.213653 140.265257 
L 166.425927 144.361935 
L 166.638201 143.064269 
L 167.062748 133.676932 
L 167.275022 131.752944 
L 167.487296 132.404287 
L 167.69957 131.116496 
L 168.124117 120.453708 
L 168.336391 113.637487 
L 168.548665 113.270285 
L 168.760939 111.043492 
L 168.973212 105.996205 
L 169.610034 107.701918 
L 170.034581 100.876669 
L 170.246855 101.919352 
L 170.671403 109.157869 
L 170.883676 108.932951 
L 171.09595 108.131677 
L 171.308224 110.484964 
L 171.520498 109.626594 
L 171.732772 110.506387 
L 171.945045 112.211963 
L 172.157319 116.035333 
L 172.369593 117.669918 
L 172.581867 125.244232 
L 172.79414 127.166287 
L 173.218688 119.158221 
L 173.430962 117.874435 
L 173.643236 119.445768 
L 173.855509 119.769476 
L 174.067783 114.141478 
L 174.280057 114.450466 
L 174.492331 112.491039 
L 174.704604 109.336394 
L 175.129152 112.596652 
L 175.341426 106.071082 
L 175.5537 113.593234 
L 175.765973 112.440411 
L 175.978247 114.431368 
L 176.190521 113.202892 
L 176.402795 113.5314 
L 176.615068 116.970915 
L 176.827342 116.597358 
L 177.039616 120.913956 
L 177.25189 120.516787 
L 177.464164 126.306438 
L 177.676437 126.905756 
L 177.888711 128.113648 
L 178.100985 120.99348 
L 178.313259 124.354383 
L 178.525532 125.153737 
L 178.737806 121.922877 
L 178.95008 123.677504 
L 179.374628 132.828541 
L 179.586901 135.216734 
L 179.799175 135.545732 
L 180.011449 131.722999 
L 180.435996 134.515404 
L 180.860544 130.595179 
L 181.072818 126.252891 
L 181.497365 128.970859 
L 181.921913 137.181437 
L 182.134187 133.318949 
L 182.34646 135.381615 
L 182.558734 133.468144 
L 182.771008 135.654531 
L 182.983282 136.310068 
L 183.407829 130.722634 
L 183.832377 133.208822 
L 184.044651 131.029294 
L 184.469198 136.856969 
L 184.681472 136.971941 
L 184.893746 127.619182 
L 185.10602 125.604444 
L 185.318293 127.974099 
L 185.530567 132.750079 
L 185.742841 131.914803 
L 185.955115 139.361274 
L 186.167388 140.585059 
L 186.379662 145.911705 
L 186.591936 145.170523 
L 186.80421 146.521918 
L 187.016484 146.591756 
L 187.228757 148.586497 
L 187.441031 148.310959 
L 187.865579 141.549041 
L 188.077852 145.315111 
L 188.290126 141.785192 
L 188.5024 144.012087 
L 188.926948 149.821428 
L 189.139221 147.608368 
L 189.351495 153.184476 
L 189.563769 153.020823 
L 189.776043 155.371163 
L 190.20059 166.305135 
L 190.412864 167.591997 
L 190.625138 167.079216 
L 191.049685 168.901046 
L 191.261959 171.378622 
L 191.474233 168.045108 
L 191.686507 171.44238 
L 191.89878 167.623785 
L 192.111054 170.908051 
L 192.323328 169.273225 
L 192.535602 170.152428 
L 192.747876 168.951072 
L 192.960149 174.940142 
L 193.172423 175.764338 
L 193.384697 171.828334 
L 193.809244 181.860215 
L 194.233792 183.688867 
L 194.446066 187.992135 
L 194.65834 189.811304 
L 194.870613 188.91657 
L 195.082887 192.917856 
L 195.295161 189.836479 
L 195.507435 184.367852 
L 195.719708 185.130797 
L 195.931982 181.536509 
L 196.144256 181.066134 
L 196.35653 178.773501 
L 196.568804 181.819171 
L 196.993351 173.63941 
L 197.205625 173.571553 
L 197.417899 173.219152 
L 197.630173 172.279191 
L 197.842446 174.897084 
L 198.05472 173.017871 
L 198.266994 175.571287 
L 198.479268 174.488196 
L 198.691541 175.191558 
L 198.903815 178.777366 
L 199.116089 176.165296 
L 199.328363 175.476443 
L 199.540637 179.573716 
L 199.965184 169.180874 
L 200.177458 169.340951 
L 200.389732 167.453533 
L 200.814279 179.411456 
L 201.026553 181.429115 
L 201.238827 177.305301 
L 201.451101 178.045411 
L 201.663374 180.218645 
L 201.875648 175.525848 
L 202.087922 173.996881 
L 202.300196 182.16145 
L 202.512469 183.549028 
L 202.937017 192.131564 
L 203.149291 192.926177 
L 203.361565 191.105885 
L 203.573838 192.078478 
L 203.786112 195.814133 
L 203.998386 205.503478 
L 204.635207 215.709567 
L 204.847481 217.690923 
L 205.059755 218.237157 
L 205.272029 214.780687 
L 205.484302 214.655465 
L 205.90885 217.249502 
L 206.121124 217.851613 
L 206.333397 214.393 
L 206.757945 223.883745 
L 206.970219 222.388391 
L 207.182493 225.269011 
L 207.394766 230.746871 
L 207.60704 231.188776 
L 207.819314 225.948567 
L 208.031588 225.46898 
L 208.243861 228.358187 
L 208.456135 222.517267 
L 208.668409 224.254763 
L 208.880683 222.894149 
L 209.092957 223.297357 
L 209.30523 228.273105 
L 209.517504 227.695467 
L 209.729778 229.113641 
L 209.942052 228.571943 
L 210.154325 226.037106 
L 210.366599 226.502896 
L 210.578873 223.369454 
L 211.003421 226.416983 
L 211.215694 222.970597 
L 211.427968 222.576944 
L 211.640242 222.980756 
L 211.852516 224.679507 
L 212.064789 224.355242 
L 212.277063 224.941938 
L 212.701611 218.05683 
L 212.913885 221.133496 
L 213.126158 213.905989 
L 213.338432 213.930047 
L 213.550706 213.023608 
L 213.975253 204.855868 
L 214.187527 211.198673 
L 214.399801 209.995379 
L 214.612075 206.978885 
L 214.824349 206.90239 
L 215.036622 209.167471 
L 215.248896 207.656049 
L 215.46117 210.738104 
L 215.673444 211.961058 
L 215.885717 218.360469 
L 216.097991 216.949094 
L 216.310265 220.053842 
L 216.522539 219.420937 
L 216.947086 221.579306 
L 217.15936 219.697289 
L 217.371634 226.31267 
L 217.583908 226.414522 
L 217.796181 229.97406 
L 218.008455 225.123903 
L 218.220729 224.145975 
L 218.645277 228.475662 
L 218.85755 227.86758 
L 219.282098 236.722833 
L 219.494372 236.79594 
L 219.706645 232.028914 
L 219.918919 231.940056 
L 220.131193 233.629907 
L 220.343467 230.067912 
L 220.555741 234.707706 
L 221.404836 241.372256 
L 221.617109 245.199644 
L 221.829383 246.700694 
L 222.041657 245.257276 
L 222.253931 244.840657 
L 222.466205 242.086579 
L 222.678478 236.259574 
L 222.890752 234.475709 
L 223.103026 235.807548 
L 223.3153 235.976954 
L 223.527573 234.7658 
L 223.739847 228.254593 
L 223.952121 227.827292 
L 224.164395 227.970744 
L 224.376669 226.56347 
L 224.588942 220.040433 
L 224.801216 218.895072 
L 225.01349 218.729134 
L 225.225764 219.458358 
L 225.438037 223.220512 
L 225.862585 215.39419 
L 226.074859 214.092317 
L 226.499406 220.684074 
L 226.923954 223.905296 
L 227.136228 221.973869 
L 227.348501 223.306535 
L 227.985323 230.604833 
L 228.197597 222.578092 
L 228.40987 221.338921 
L 228.622144 226.75525 
L 228.834418 218.095374 
L 229.046692 221.36573 
L 229.471239 217.498142 
L 229.683513 218.37947 
L 229.895787 217.899223 
L 230.108061 220.130274 
L 230.320334 224.946241 
L 230.532608 223.27672 
L 230.744882 223.513255 
L 230.957156 223.221699 
L 232.018525 238.473304 
L 232.230798 238.409321 
L 232.443072 240.253155 
L 232.655346 240.317859 
L 232.86762 237.179081 
L 233.079893 238.738223 
L 233.292167 245.090781 
L 233.504441 245.489371 
L 233.716715 245.406501 
L 233.928989 243.715344 
L 234.141262 249.460752 
L 234.353536 249.583636 
L 234.56581 245.980305 
L 234.778084 245.649417 
L 234.990357 241.862768 
L 235.202631 242.73807 
L 235.414905 239.885811 
L 235.627179 241.138961 
L 235.839453 240.946626 
L 236.051726 239.784223 
L 236.476274 225.932896 
L 236.688548 227.84622 
L 236.900821 228.723089 
L 237.113095 231.158742 
L 237.325369 230.620859 
L 237.537643 229.304842 
L 237.749917 226.057769 
L 237.96219 226.829595 
L 238.386738 221.249334 
L 238.811285 209.753139 
L 239.023559 207.874396 
L 239.448107 207.455864 
L 239.660381 200.760491 
L 239.872654 202.569642 
L 240.084928 197.483673 
L 240.297202 196.588511 
L 240.509476 199.457367 
L 240.934023 196.199576 
L 241.146297 197.414945 
L 241.358571 200.042035 
L 241.570845 200.917881 
L 241.995392 211.394646 
L 242.207666 212.394931 
L 242.41994 215.572327 
L 242.632214 213.6895 
L 243.056761 199.49783 
L 243.269035 199.480892 
L 243.481309 197.908996 
L 243.693582 204.821766 
L 243.905856 200.237813 
L 244.330404 197.749065 
L 244.542678 194.375888 
L 244.754951 195.996259 
L 244.967225 196.51792 
L 245.179499 191.211006 
L 245.604046 198.721635 
L 245.81632 200.086335 
L 246.028594 202.350593 
L 246.240868 196.250346 
L 246.453142 196.23266 
L 246.665415 192.925142 
L 246.877689 195.518241 
L 247.089963 195.803688 
L 247.302237 197.759593 
L 247.726784 187.1432 
L 247.939058 187.694045 
L 248.151332 185.820121 
L 248.363606 185.108464 
L 248.575879 185.270745 
L 248.788153 181.754777 
L 249.000427 189.673901 
L 249.212701 187.817263 
L 249.424974 184.948744 
L 249.637248 190.155988 
L 249.849522 189.256447 
L 250.061796 191.803907 
L 250.27407 190.275557 
L 250.486343 193.800254 
L 250.910891 191.010449 
L 251.335438 199.670426 
L 251.547712 198.067956 
L 251.97226 193.192092 
L 252.184534 192.568795 
L 252.609081 197.538005 
L 252.821355 195.343579 
L 253.033629 187.548984 
L 253.245902 190.405584 
L 253.458176 185.000314 
L 253.67045 186.05018 
L 253.882724 186.528533 
L 254.094998 186.146581 
L 254.519545 180.059543 
L 254.731819 180.094799 
L 254.944093 178.424788 
L 255.156366 175.350616 
L 255.36864 176.198032 
L 255.580914 172.915812 
L 255.793188 176.716787 
L 256.005462 172.531667 
L 256.430009 171.163118 
L 256.642283 171.000796 
L 256.854557 169.343431 
L 257.06683 170.926993 
L 257.279104 171.4061 
L 257.491378 171.279176 
L 257.703652 166.342217 
L 257.915926 168.346729 
L 258.128199 168.997283 
L 258.340473 174.434385 
L 258.552747 175.578939 
L 258.765021 171.685421 
L 258.977294 170.375037 
L 259.189568 171.395937 
L 259.401842 173.864244 
L 260.250937 164.575952 
L 260.463211 164.842762 
L 260.675485 164.722704 
L 260.887758 164.137547 
L 261.100032 165.148903 
L 261.312306 165.135906 
L 261.52458 164.981031 
L 261.52458 164.981031 
" clip-path="url(#pbc9c7c35d3)" style="fill: none; stroke: #1f77b4; stroke-width: 1.5; stroke-linecap: square"/>
   </g>
   <g id="patch_3">
    <path d="M 38.86 260.12 
L 38.86 28.32 
" style="fill: none; stroke: #000000; stroke-width: 0.8; stroke-linejoin: miter; stroke-linecap: square"/>
   </g>
   <g id="patch_4">
    <path d="M 272.127655 260.12 
L 272.127655 28.32 
" style="fill: none; stroke: #000000; stroke-width: 0.8; stroke-linejoin: miter; stroke-linecap: square"/>
   </g>
   <g id="patch_5">
    <path d="M 38.86 260.12 
L 272.127655 260.12 
" style="fill: none; stroke: #000000; stroke-width: 0.8; stroke-linejoin: miter; stroke-linecap: square"/>
   </g>
   <g id="patch_6">
    <path d="M 38.86 28.32 
L 272.127655 28.32 
" style="fill: none; stroke: #000000; stroke-width: 0.8; stroke-linejoin: miter; stroke-linecap: square"/>
   </g>
   <g id="text_14">
    <!-- Gaussian -->
    <g transform="translate(127.96789 22.32) scale(0.12 -0.12)">
     <defs>
      <path id="DejaVuSans-47" d="M 3809 666 
L 3809 1919 
L 2778 1919 
L 2778 2438 
L 4434 2438 
L 4434 434 
Q 4069 175 3628 42 
Q 3188 -91 2688 -91 
Q 1594 -91 976 548 
Q 359 1188 359 2328 
Q 359 3472 976 4111 
Q 1594 4750 2688 4750 
Q 3144 4750 3555 4637 
Q 3966 4525 4313 4306 
L 4313 3634 
Q 3963 3931 3569 4081 
Q 3175 4231 2741 4231 
Q 1884 4231 1454 3753 
Q 1025 3275 1025 2328 
Q 1025 1384 1454 906 
Q 1884 428 2741 428 
Q 3075 428 3337 486 
Q 3600 544 3809 666 
z
" transform="scale(0.015625)"/>
      <path id="DejaVuSans-61" d="M 2194 1759 
Q 1497 1759 1228 1600 
Q 959 1441 959 1056 
Q 959 750 1161 570 
Q 1363 391 1709 391 
Q 2188 391 2477 730 
Q 2766 1069 2766 1631 
L 2766 1759 
L 2194 1759 
z
M 3341 1997 
L 3341 0 
L 2766 0 
L 2766 531 
Q 2569 213 2275 61 
Q 1981 -91 1556 -91 
Q 1019 -91 701 211 
Q 384 513 384 1019 
Q 384 1609 779 1909 
Q 1175 2209 1959 2209 
L 2766 2209 
L 2766 2266 
Q 2766 2663 2505 2880 
Q 2244 3097 1772 3097 
Q 1472 3097 1187 3025 
Q 903 2953 641 2809 
L 641 3341 
Q 956 3463 1253 3523 
Q 1550 3584 1831 3584 
Q 2591 3584 2966 3190 
Q 3341 2797 3341 1997 
z
" transform="scale(0.015625)"/>
      <path id="DejaVuSans-75" d="M 544 1381 
L 544 3500 
L 1119 3500 
L 1119 1403 
Q 1119 906 1312 657 
Q 1506 409 1894 409 
Q 2359 409 2629 706 
Q 2900 1003 2900 1516 
L 2900 3500 
L 3475 3500 
L 3475 0 
L 2900 0 
L 2900 538 
Q 2691 219 2414 64 
Q 2138 -91 1772 -91 
Q 1169 -91 856 284 
Q 544 659 544 1381 
z
M 1991 3584 
L 1991 3584 
z
" transform="scale(0.015625)"/>
      <path id="DejaVuSans-73" d="M 2834 3397 
L 2834 2853 
Q 2591 2978 2328 3040 
Q 2066 3103 1784 3103 
Q 1356 3103 1142 2972 
Q 928 2841 928 2578 
Q 928 2378 1081 2264 
Q 1234 2150 1697 2047 
L 1894 2003 
Q 2506 1872 2764 1633 
Q 3022 1394 3022 966 
Q 3022 478 2636 193 
Q 2250 -91 1575 -91 
Q 1294 -91 989 -36 
Q 684 19 347 128 
L 347 722 
Q 666 556 975 473 
Q 1284 391 1588 391 
Q 1994 391 2212 530 
Q 2431 669 2431 922 
Q 2431 1156 2273 1281 
Q 2116 1406 1581 1522 
L 1381 1569 
Q 847 1681 609 1914 
Q 372 2147 372 2553 
Q 372 3047 722 3315 
Q 1072 3584 1716 3584 
Q 2034 3584 2315 3537 
Q 2597 3491 2834 3397 
z
" transform="scale(0.015625)"/>
      <path id="DejaVuSans-69" d="M 603 3500 
L 1178 3500 
L 1178 0 
L 603 0 
L 603 3500 
z
M 603 4863 
L 1178 4863 
L 1178 4134 
L 603 4134 
L 603 4863 
z
" transform="scale(0.015625)"/>
      <path id="DejaVuSans-6e" d="M 3513 2113 
L 3513 0 
L 2938 0 
L 2938 2094 
Q 2938 2591 2744 2837 
Q 2550 3084 2163 3084 
Q 1697 3084 1428 2787 
Q 1159 2491 1159 1978 
L 1159 0 
L 581 0 
L 581 3500 
L 1159 3500 
L 1159 2956 
Q 1366 3272 1645 3428 
Q 1925 3584 2291 3584 
Q 2894 3584 3203 3211 
Q 3513 2838 3513 2113 
z
" transform="scale(0.015625)"/>
     </defs>
     <use xlink:href="#DejaVuSans-47"/>
     <use xlink:href="#DejaVuSans-61" x="77.490234"/>
     <use xlink:href="#DejaVuSans-75" x="138.769531"/>
     <use xlink:href="#DejaVuSans-73" x="202.148438"/>
     <use xlink:href="#DejaVuSans-73" x="254.248047"/>
     <use xlink:href="#DejaVuSans-69" x="306.347656"/>
     <use xlink:href="#DejaVuSans-61" x="334.130859"/>
     <use xlink:href="#DejaVuSans-6e" x="395.410156"/>
    </g>
   </g>
  </g>
  <g id="axes_2">
   <g id="patch_7">
    <path d="M 327.46 260.12 
L 560.727655 260.12 
L 560.727655 28.32 
L 327.46 28.32 
z
" style="fill: #ffffff"/>
   </g>
   <g id="matplotlib.axis_3">
    <g id="xtick_7">
     <g id="line2d_15">
      <g>
       <use xlink:href="#md17e8ce078" x="338.063075" y="260.12" style="stroke: #000000; stroke-width: 0.8"/>
      </g>
     </g>
     <g id="text_15">
      <!-- 0 -->
      <g transform="translate(334.881825 274.718437) scale(0.1 -0.1)">
       <use xlink:href="#DejaVuSans-30"/>
      </g>
     </g>
    </g>
    <g id="xtick_8">
     <g id="line2d_16">
      <g>
       <use xlink:href="#md17e8ce078" x="380.517831" y="260.12" style="stroke: #000000; stroke-width: 0.8"/>
      </g>
     </g>
     <g id="text_16">
      <!-- 200 -->
      <g transform="translate(370.974081 274.718437) scale(0.1 -0.1)">
       <use xlink:href="#DejaVuSans-32"/>
       <use xlink:href="#DejaVuSans-30" x="63.623047"/>
       <use xlink:href="#DejaVuSans-30" x="127.246094"/>
      </g>
     </g>
    </g>
    <g id="xtick_9">
     <g id="line2d_17">
      <g>
       <use xlink:href="#md17e8ce078" x="422.972587" y="260.12" style="stroke: #000000; stroke-width: 0.8"/>
      </g>
     </g>
     <g id="text_17">
      <!-- 400 -->
      <g transform="translate(413.428837 274.718437) scale(0.1 -0.1)">
       <use xlink:href="#DejaVuSans-34"/>
       <use xlink:href="#DejaVuSans-30" x="63.623047"/>
       <use xlink:href="#DejaVuSans-30" x="127.246094"/>
      </g>
     </g>
    </g>
    <g id="xtick_10">
     <g id="line2d_18">
      <g>
       <use xlink:href="#md17e8ce078" x="465.427342" y="260.12" style="stroke: #000000; stroke-width: 0.8"/>
      </g>
     </g>
     <g id="text_18">
      <!-- 600 -->
      <g transform="translate(455.883592 274.718437) scale(0.1 -0.1)">
       <use xlink:href="#DejaVuSans-36"/>
       <use xlink:href="#DejaVuSans-30" x="63.623047"/>
       <use xlink:href="#DejaVuSans-30" x="127.246094"/>
      </g>
     </g>
    </g>
    <g id="xtick_11">
     <g id="line2d_19">
      <g>
       <use xlink:href="#md17e8ce078" x="507.882098" y="260.12" style="stroke: #000000; stroke-width: 0.8"/>
      </g>
     </g>
     <g id="text_19">
      <!-- 800 -->
      <g transform="translate(498.338348 274.718437) scale(0.1 -0.1)">
       <use xlink:href="#DejaVuSans-38"/>
       <use xlink:href="#DejaVuSans-30" x="63.623047"/>
       <use xlink:href="#DejaVuSans-30" x="127.246094"/>
      </g>
     </g>
    </g>
    <g id="xtick_12">
     <g id="line2d_20">
      <g>
       <use xlink:href="#md17e8ce078" x="550.336854" y="260.12" style="stroke: #000000; stroke-width: 0.8"/>
      </g>
     </g>
     <g id="text_20">
      <!-- 1000 -->
      <g transform="translate(537.611854 274.718437) scale(0.1 -0.1)">
       <use xlink:href="#DejaVuSans-31"/>
       <use xlink:href="#DejaVuSans-30" x="63.623047"/>
       <use xlink:href="#DejaVuSans-30" x="127.246094"/>
       <use xlink:href="#DejaVuSans-30" x="190.869141"/>
      </g>
     </g>
    </g>
   </g>
   <g id="matplotlib.axis_4">
    <g id="ytick_8">
     <g id="line2d_21">
      <g>
       <use xlink:href="#m6d2fc576e3" x="327.46" y="227.354173" style="stroke: #000000; stroke-width: 0.8"/>
      </g>
     </g>
     <g id="text_21">
      <!-- −2000 -->
      <g transform="translate(286.630313 231.153392) scale(0.1 -0.1)">
       <use xlink:href="#DejaVuSans-2212"/>
       <use xlink:href="#DejaVuSans-32" x="83.789062"/>
       <use xlink:href="#DejaVuSans-30" x="147.412109"/>
       <use xlink:href="#DejaVuSans-30" x="211.035156"/>
       <use xlink:href="#DejaVuSans-30" x="274.658203"/>
      </g>
     </g>
    </g>
    <g id="ytick_9">
     <g id="line2d_22">
      <g>
       <use xlink:href="#m6d2fc576e3" x="327.46" y="182.648088" style="stroke: #000000; stroke-width: 0.8"/>
      </g>
     </g>
     <g id="text_22">
      <!-- −1500 -->
      <g transform="translate(286.630313 186.447307) scale(0.1 -0.1)">
       <defs>
        <path id="DejaVuSans-35" d="M 691 4666 
L 3169 4666 
L 3169 4134 
L 1269 4134 
L 1269 2991 
Q 1406 3038 1543 3061 
Q 1681 3084 1819 3084 
Q 2600 3084 3056 2656 
Q 3513 2228 3513 1497 
Q 3513 744 3044 326 
Q 2575 -91 1722 -91 
Q 1428 -91 1123 -41 
Q 819 9 494 109 
L 494 744 
Q 775 591 1075 516 
Q 1375 441 1709 441 
Q 2250 441 2565 725 
Q 2881 1009 2881 1497 
Q 2881 1984 2565 2268 
Q 2250 2553 1709 2553 
Q 1456 2553 1204 2497 
Q 953 2441 691 2322 
L 691 4666 
z
" transform="scale(0.015625)"/>
       </defs>
       <use xlink:href="#DejaVuSans-2212"/>
       <use xlink:href="#DejaVuSans-31" x="83.789062"/>
       <use xlink:href="#DejaVuSans-35" x="147.412109"/>
       <use xlink:href="#DejaVuSans-30" x="211.035156"/>
       <use xlink:href="#DejaVuSans-30" x="274.658203"/>
      </g>
     </g>
    </g>
    <g id="ytick_10">
     <g id="line2d_23">
      <g>
       <use xlink:href="#m6d2fc576e3" x="327.46" y="137.942002" style="stroke: #000000; stroke-width: 0.8"/>
      </g>
     </g>
     <g id="text_23">
      <!-- −1000 -->
      <g transform="translate(286.630313 141.741221) scale(0.1 -0.1)">
       <use xlink:href="#DejaVuSans-2212"/>
       <use xlink:href="#DejaVuSans-31" x="83.789062"/>
       <use xlink:href="#DejaVuSans-30" x="147.412109"/>
       <use xlink:href="#DejaVuSans-30" x="211.035156"/>
       <use xlink:href="#DejaVuSans-30" x="274.658203"/>
      </g>
     </g>
    </g>
    <g id="ytick_11">
     <g id="line2d_24">
      <g>
       <use xlink:href="#m6d2fc576e3" x="327.46" y="93.235917" style="stroke: #000000; stroke-width: 0.8"/>
      </g>
     </g>
     <g id="text_24">
      <!-- −500 -->
      <g transform="translate(292.992813 97.035136) scale(0.1 -0.1)">
       <use xlink:href="#DejaVuSans-2212"/>
       <use xlink:href="#DejaVuSans-35" x="83.789062"/>
       <use xlink:href="#DejaVuSans-30" x="147.412109"/>
       <use xlink:href="#DejaVuSans-30" x="211.035156"/>
      </g>
     </g>
    </g>
    <g id="ytick_12">
     <g id="line2d_25">
      <g>
       <use xlink:href="#m6d2fc576e3" x="327.46" y="48.529832" style="stroke: #000000; stroke-width: 0.8"/>
      </g>
     </g>
     <g id="text_25">
      <!-- 0 -->
      <g transform="translate(314.0975 52.32905) scale(0.1 -0.1)">
       <use xlink:href="#DejaVuSans-30"/>
      </g>
     </g>
    </g>
   </g>
   <g id="line2d_26">
    <path d="M 338.063075 46.230517 
L 339.336718 46.466076 
L 339.761265 46.291865 
L 339.973539 46.090897 
L 341.034908 45.929725 
L 341.247182 45.974987 
L 341.459456 46.426331 
L 341.671729 46.377751 
L 341.884003 48.088243 
L 342.308551 47.945961 
L 342.520825 47.949732 
L 342.945372 47.775804 
L 343.157646 47.841876 
L 343.36992 47.366413 
L 343.582193 47.286708 
L 343.794467 46.839243 
L 344.219015 46.833966 
L 344.431289 46.695376 
L 344.855836 46.72555 
L 345.06811 46.729 
L 345.280384 46.962321 
L 345.492657 46.851569 
L 345.704931 46.447156 
L 345.917205 46.33932 
L 346.129479 46.405046 
L 346.341753 47.122846 
L 346.554026 46.759996 
L 346.7663 46.796856 
L 346.978574 46.445338 
L 347.403121 46.396712 
L 348.039943 46.242848 
L 348.252217 46.344234 
L 348.46449 45.990138 
L 348.676764 46.247651 
L 348.889038 46.130485 
L 349.313585 45.084502 
L 349.525859 45.277181 
L 349.738133 45.265777 
L 349.950407 44.956467 
L 350.162681 45.52468 
L 350.374954 42.698505 
L 350.799502 42.895286 
L 351.011776 42.888438 
L 351.224049 43.285571 
L 351.860871 43.060217 
L 352.073145 38.989831 
L 352.285418 38.856364 
L 352.497692 38.856609 
L 352.709966 39.110827 
L 353.134513 39.135566 
L 354.195882 38.867527 
L 354.408156 40.591693 
L 354.832704 40.536916 
L 355.044977 41.415231 
L 355.257251 41.490699 
L 355.469525 41.406646 
L 355.894073 41.524033 
L 356.106346 41.885024 
L 356.955441 42.092038 
L 357.379989 41.908716 
L 358.01681 41.784887 
L 358.229084 41.502042 
L 358.441358 41.416685 
L 358.653632 41.52682 
L 358.865906 41.42728 
L 359.078179 41.662977 
L 359.290453 41.678642 
L 359.502727 42.091466 
L 359.715001 43.046015 
L 360.351822 43.282985 
L 360.988643 42.383015 
L 361.200917 42.311343 
L 361.413191 42.666203 
L 361.837738 42.604103 
L 362.050012 42.574903 
L 362.262286 41.981812 
L 362.899107 42.222206 
L 363.535929 42.154525 
L 363.748202 40.973257 
L 363.960476 40.988999 
L 364.17275 40.759854 
L 365.021845 41.556509 
L 365.446393 41.299674 
L 365.87094 41.574792 
L 366.295488 41.657504 
L 366.720035 42.10389 
L 366.932309 41.971583 
L 367.356857 41.943612 
L 367.56913 42.14839 
L 367.993678 51.675238 
L 368.205952 50.832857 
L 368.418226 50.854124 
L 368.630499 49.44226 
L 368.842773 49.558392 
L 369.055047 49.081979 
L 369.267321 48.997999 
L 369.691868 48.178728 
L 369.904142 47.940683 
L 370.116416 47.959002 
L 370.32869 48.688525 
L 370.540963 48.538969 
L 371.177785 48.56578 
L 371.602332 48.406097 
L 371.814606 47.702439 
L 372.02688 47.675732 
L 372.663701 48.070472 
L 372.875975 47.730604 
L 373.300522 47.682711 
L 373.72507 47.723804 
L 373.937344 49.075513 
L 374.149618 48.424288 
L 374.574165 48.275753 
L 374.786439 48.400074 
L 374.998713 48.273213 
L 375.42326 48.381337 
L 375.635534 48.465708 
L 376.060082 48.366034 
L 376.272355 48.554422 
L 376.696903 48.5474 
L 376.909177 48.512641 
L 377.12145 49.158617 
L 377.333724 48.986072 
L 377.545998 49.228276 
L 377.970546 49.258487 
L 378.182819 51.346179 
L 378.607367 51.373538 
L 378.819641 51.165534 
L 379.031914 51.411177 
L 379.244188 51.241891 
L 379.456462 51.609578 
L 379.668736 52.298561 
L 380.517831 52.460278 
L 380.730105 51.733806 
L 381.154652 51.442165 
L 381.5792 51.442933 
L 382.003747 50.678897 
L 382.216021 50.730191 
L 382.640569 50.642166 
L 382.852842 50.702939 
L 383.27739 50.540012 
L 383.489664 50.75673 
L 383.701938 51.343055 
L 384.338759 51.781213 
L 384.551033 52.392531 
L 384.763306 52.476289 
L 385.400128 52.143162 
L 386.036949 52.421162 
L 386.249223 52.277275 
L 386.461497 52.870765 
L 386.67377 89.992421 
L 387.098318 90.122898 
L 387.735139 89.90505 
L 388.159687 89.857343 
L 388.371961 88.975866 
L 388.796508 89.160381 
L 389.645603 89.160512 
L 389.857877 88.931313 
L 390.282425 89.112759 
L 390.494698 89.013858 
L 390.706972 89.14278 
L 391.343794 89.072527 
L 391.980615 89.755743 
L 392.192889 89.787283 
L 392.405162 89.673694 
L 393.041984 89.864127 
L 393.254258 101.411655 
L 393.466531 101.540118 
L 393.891079 101.526177 
L 394.103353 100.310419 
L 394.5279 99.528454 
L 394.952448 99.481572 
L 395.164722 99.614182 
L 395.376995 99.311184 
L 395.589269 99.593691 
L 396.013817 99.667726 
L 396.650638 99.00357 
L 396.862912 99.085913 
L 397.075186 99.669834 
L 397.287459 99.364222 
L 397.712007 99.231032 
L 397.924281 99.422043 
L 398.136554 99.224315 
L 398.561102 98.119797 
L 398.98565 98.29194 
L 399.197923 98.668452 
L 399.622471 98.601432 
L 399.834745 98.164258 
L 400.047019 98.188361 
L 400.259292 97.932298 
L 400.68384 97.710975 
L 400.896114 97.621153 
L 401.108387 98.149255 
L 401.320661 98.214 
L 401.745209 98.065607 
L 402.169756 98.055685 
L 402.38203 95.355704 
L 402.594304 94.485787 
L 402.806578 94.376989 
L 403.018851 93.92161 
L 403.655673 93.892198 
L 404.292494 94.573065 
L 404.504768 94.562119 
L 404.717042 94.31849 
L 404.929315 94.52622 
L 405.353863 94.652687 
L 405.566137 92.59372 
L 405.778411 92.526849 
L 405.990684 90.761097 
L 406.415232 90.497628 
L 406.627506 238.890298 
L 406.839779 238.919045 
L 407.052053 239.478132 
L 407.264327 239.463467 
L 407.476601 240.230288 
L 408.325696 240.219395 
L 408.750243 240.548849 
L 409.811612 240.911892 
L 410.023886 240.634362 
L 410.23616 234.641513 
L 410.872981 234.878775 
L 411.085255 235.125085 
L 411.509803 234.983299 
L 411.722076 235.032437 
L 411.93435 235.256236 
L 412.146624 235.258562 
L 412.571171 234.669741 
L 412.995719 234.731265 
L 413.207993 235.238255 
L 413.420267 234.828984 
L 413.63254 235.047148 
L 413.844814 235.075777 
L 414.057088 235.297689 
L 414.693909 235.363201 
L 415.330731 235.281522 
L 415.755278 235.347716 
L 416.179826 234.801567 
L 417.241195 235.381856 
L 417.665742 235.424763 
L 417.878016 235.251799 
L 418.514837 235.109156 
L 418.939385 236.388905 
L 419.151659 235.024125 
L 419.363932 235.604283 
L 419.78848 235.59728 
L 420.213027 236.506862 
L 420.425301 236.59482 
L 420.637575 236.333604 
L 420.849849 236.901763 
L 421.062123 237.089618 
L 421.274396 236.606652 
L 422.760313 237.311636 
L 422.972587 237.116841 
L 423.18486 237.117905 
L 423.609408 236.84445 
L 423.821682 236.904176 
L 424.246229 236.61683 
L 424.458503 236.762553 
L 424.670777 237.127449 
L 424.883051 236.990606 
L 425.095324 235.968078 
L 425.307598 234.089703 
L 425.519872 234.171001 
L 425.732146 233.797636 
L 426.156693 233.89891 
L 426.368967 233.795468 
L 426.581241 234.456199 
L 426.793515 234.514097 
L 427.005788 233.914466 
L 427.430336 233.84875 
L 427.64261 233.112667 
L 428.067157 233.234827 
L 428.279431 232.907058 
L 428.703979 232.912401 
L 429.3408 232.968327 
L 429.553074 233.23388 
L 429.765347 233.226265 
L 430.189895 232.986708 
L 430.402169 232.341118 
L 430.614443 232.446267 
L 430.826716 232.695491 
L 431.463538 232.934075 
L 431.675811 233.093527 
L 432.312633 233.12363 
L 432.524907 232.866218 
L 432.73718 233.818163 
L 433.374002 233.710086 
L 433.586275 233.672756 
L 433.798549 233.501268 
L 434.010823 233.856985 
L 434.435371 233.554543 
L 435.284466 233.636186 
L 435.496739 233.450511 
L 435.709013 233.544263 
L 435.921287 233.374961 
L 436.133561 233.524643 
L 436.345835 233.100776 
L 436.770382 233.179266 
L 436.982656 233.343159 
L 437.19493 232.163199 
L 437.407203 232.210578 
L 437.619477 231.993653 
L 437.831751 232.067915 
L 438.256299 231.918322 
L 439.105394 231.894895 
L 439.954489 232.080422 
L 440.379036 232.620123 
L 440.59131 232.634554 
L 440.803584 232.914647 
L 441.015858 232.814749 
L 441.228131 232.968783 
L 441.440405 232.974954 
L 441.652679 248.999327 
L 441.864953 249.147467 
L 442.077227 249.043563 
L 442.2895 248.669844 
L 442.714048 248.718806 
L 442.926322 249.022956 
L 443.138596 249.583636 
L 443.563143 249.511723 
L 443.775417 248.930769 
L 444.199964 248.795399 
L 444.412238 248.781471 
L 444.624512 247.743813 
L 445.261333 247.611644 
L 445.473607 205.264642 
L 445.685881 205.227924 
L 445.898155 82.919352 
L 446.110428 83.085038 
L 446.74725 83.008553 
L 447.171797 83.203966 
L 447.384071 83.137493 
L 447.596345 83.276587 
L 447.808619 83.054193 
L 448.657714 82.851065 
L 448.869988 80.71869 
L 449.294535 80.795494 
L 449.931356 80.816912 
L 450.14363 80.934329 
L 450.355904 80.572697 
L 450.568178 80.680564 
L 450.780452 80.422436 
L 450.992725 80.54736 
L 451.204999 80.197978 
L 452.054094 80.429029 
L 452.266368 80.267342 
L 452.478642 80.311146 
L 452.690916 79.908842 
L 453.115463 80.52926 
L 453.540011 80.562899 
L 453.752284 80.485316 
L 453.964558 80.531509 
L 454.176832 80.43442 
L 454.389106 80.497289 
L 454.60138 81.06609 
L 454.813653 80.257082 
L 455.025927 80.251707 
L 455.238201 80.686287 
L 455.450475 81.613882 
L 456.29957 81.750808 
L 456.724117 81.572102 
L 456.936391 81.664621 
L 457.148665 81.611463 
L 457.360939 81.695838 
L 457.785486 81.705111 
L 457.99776 81.133106 
L 458.210034 81.018099 
L 458.422308 81.03836 
L 458.634581 80.842019 
L 458.846855 81.588068 
L 459.059129 81.495839 
L 459.271403 81.813307 
L 459.483676 81.676483 
L 459.69595 81.981972 
L 460.120498 81.742758 
L 460.332772 81.988915 
L 460.545045 81.928888 
L 460.757319 82.234028 
L 461.181867 82.276432 
L 461.39414 82.55602 
L 462.243236 82.535993 
L 462.455509 81.712664 
L 462.880057 81.832415 
L 463.092331 81.650209 
L 463.516878 81.675406 
L 463.941426 81.478271 
L 464.365973 81.581901 
L 465.002795 80.814231 
L 465.215068 80.955865 
L 465.639616 80.650605 
L 465.85189 80.609948 
L 466.064164 80.271115 
L 466.276437 80.204087 
L 466.488711 80.318254 
L 466.700985 79.537207 
L 466.913259 79.734542 
L 467.125532 78.824205 
L 467.337806 78.686534 
L 468.399175 78.901447 
L 468.823723 78.422761 
L 469.24827 78.374359 
L 469.460544 78.212444 
L 470.097365 78.263319 
L 470.309639 78.105473 
L 470.521913 78.747019 
L 470.734187 78.728427 
L 470.94646 78.85752 
L 471.371008 78.862508 
L 471.583282 79.11435 
L 471.795556 78.973164 
L 472.007829 79.591087 
L 472.856924 79.773302 
L 473.069198 80.560952 
L 473.70602 80.703394 
L 473.918293 83.839883 
L 474.342841 83.835987 
L 474.555115 83.962118 
L 474.979662 84.008135 
L 475.191936 83.425321 
L 475.828757 83.195974 
L 476.041031 83.159122 
L 476.890126 84.443703 
L 477.314674 84.135056 
L 477.526948 83.978104 
L 477.739221 83.977785 
L 477.951495 84.230759 
L 478.163769 84.249968 
L 478.376043 84.015518 
L 478.588316 84.157325 
L 478.80059 84.004739 
L 479.012864 82.884302 
L 479.225138 83.242183 
L 479.437412 83.143134 
L 479.861959 83.136022 
L 480.711054 83.139959 
L 480.923328 82.447863 
L 481.135602 82.642309 
L 481.560149 82.527837 
L 481.772423 82.802824 
L 481.984697 82.727187 
L 482.196971 82.777434 
L 482.409244 83.048538 
L 482.621518 83.052533 
L 482.833792 83.349878 
L 483.046066 83.346323 
L 483.25834 83.529545 
L 483.682887 83.514505 
L 483.895161 83.724729 
L 484.107435 83.739463 
L 484.319708 84.023725 
L 484.744256 84.066614 
L 484.95653 83.969386 
L 485.168804 84.141966 
L 485.381077 84.109887 
L 485.593351 84.44057 
L 485.805625 84.362352 
L 486.230173 84.525571 
L 486.65472 84.540802 
L 487.079268 84.2712 
L 487.503815 84.42485 
L 487.928363 84.225049 
L 488.35291 84.346004 
L 488.565184 83.812761 
L 488.777458 84.072812 
L 488.989732 83.951087 
L 489.202005 84.003828 
L 489.414279 83.921646 
L 489.626553 83.976656 
L 489.838827 84.352721 
L 490.263374 84.222464 
L 490.475648 84.292449 
L 490.900196 84.179971 
L 491.112469 84.79083 
L 491.324743 84.575717 
L 491.537017 84.850819 
L 491.749291 85.449186 
L 492.173838 85.762426 
L 492.386112 85.816506 
L 492.81066 85.54232 
L 493.235207 85.492221 
L 493.447481 85.477888 
L 493.659755 85.808654 
L 493.872029 85.532094 
L 494.296576 86.091009 
L 494.50885 86.76863 
L 494.721124 86.431999 
L 495.357945 86.519695 
L 495.570219 86.203033 
L 495.782493 86.185413 
L 495.994766 86.304356 
L 496.20704 92.54502 
L 496.419314 92.496082 
L 496.631588 92.679971 
L 496.843861 92.472983 
L 497.480683 92.57089 
L 497.90523 92.482629 
L 498.117504 92.004628 
L 498.754325 91.996985 
L 498.966599 91.928657 
L 499.178873 91.449266 
L 499.391147 91.397837 
L 499.603421 91.863665 
L 499.815694 92.059936 
L 500.027968 92.022222 
L 500.240242 92.099799 
L 500.452516 89.500777 
L 500.877063 89.56717 
L 501.089337 89.468895 
L 501.726158 89.614248 
L 502.150706 89.392121 
L 502.575253 89.483719 
L 502.787527 89.493984 
L 502.999801 88.988981 
L 503.848896 88.866457 
L 504.06117 89.003475 
L 504.273444 88.754949 
L 505.122539 88.891283 
L 505.334813 88.978332 
L 505.547086 88.820918 
L 505.75936 88.855482 
L 505.971634 89.063215 
L 506.820729 88.737197 
L 507.033003 88.38454 
L 507.882098 88.294976 
L 508.094372 89.248138 
L 508.306645 89.302171 
L 508.518919 87.251945 
L 508.731193 87.187826 
L 508.943467 86.779681 
L 509.155741 86.772594 
L 509.368014 87.420662 
L 509.580288 87.059898 
L 509.792562 87.059204 
L 510.429383 86.822424 
L 510.641657 86.92785 
L 510.853931 86.469749 
L 511.278478 86.350403 
L 511.490752 96.341463 
L 511.703026 96.213655 
L 511.9153 96.237196 
L 512.127573 95.784408 
L 512.339847 95.692438 
L 512.552121 95.472393 
L 512.764395 96.993665 
L 513.188942 97.275965 
L 513.401216 97.079651 
L 513.61349 97.072988 
L 513.825764 96.811923 
L 514.038037 97.268585 
L 514.250311 93.564417 
L 514.462585 93.825645 
L 514.887133 93.72782 
L 515.099406 94.062721 
L 515.31168 94.134023 
L 515.523954 94.018143 
L 515.736228 95.334944 
L 515.948501 95.259422 
L 516.160775 126.101576 
L 516.797597 126.04789 
L 517.00987 125.78821 
L 517.434418 125.801522 
L 517.858965 125.859939 
L 518.920334 125.876805 
L 519.344882 126.059862 
L 519.769429 125.982057 
L 519.981703 126.159167 
L 520.193977 128.342592 
L 520.830798 128.550269 
L 521.043072 128.421273 
L 521.255346 129.447905 
L 521.46762 131.593975 
L 521.892167 131.524977 
L 522.316715 131.61707 
L 522.528989 130.562404 
L 522.741262 131.036529 
L 523.16581 131.010606 
L 523.802631 131.02747 
L 524.014905 130.858824 
L 524.651726 130.883318 
L 524.864 130.893379 
L 525.076274 131.015587 
L 525.288548 130.168538 
L 526.137643 129.968986 
L 526.349917 118.736753 
L 526.56219 119.027634 
L 526.774464 119.073273 
L 526.986738 118.895465 
L 527.411285 118.887248 
L 527.623559 118.439788 
L 527.835833 118.851271 
L 528.048107 118.834913 
L 528.260381 118.931049 
L 528.472654 129.715836 
L 528.684928 127.17594 
L 528.897202 126.988717 
L 529.109476 125.286369 
L 529.32175 124.63053 
L 529.534023 124.367213 
L 530.595392 124.829679 
L 530.807666 132.12917 
L 531.232214 132.099556 
L 531.656761 131.945535 
L 532.081309 131.720187 
L 532.293582 131.729668 
L 532.71813 131.547214 
L 532.930404 131.678118 
L 533.142678 131.645545 
L 533.354951 126.604215 
L 533.779499 126.814828 
L 533.991773 126.685946 
L 534.204046 126.717254 
L 534.41632 126.874951 
L 534.628594 126.842787 
L 534.840868 126.966437 
L 535.265415 126.920199 
L 535.477689 126.961186 
L 535.689963 126.496605 
L 535.902237 126.583213 
L 536.11451 126.4326 
L 536.539058 126.542776 
L 536.751332 129.510439 
L 537.175879 129.594209 
L 537.388153 129.989728 
L 538.237248 129.980248 
L 538.449522 130.255426 
L 539.298617 130.072223 
L 539.723165 130.119244 
L 539.935438 129.551771 
L 540.147712 129.991724 
L 540.57226 130.051677 
L 540.996807 130.070245 
L 541.421355 130.127508 
L 542.27045 130.494604 
L 542.482724 130.469326 
L 542.694998 129.79972 
L 543.331819 129.931724 
L 543.96864 129.852366 
L 544.180914 130.296645 
L 544.393188 130.282907 
L 544.605462 130.461077 
L 544.817735 130.078912 
L 545.030009 130.43879 
L 545.454557 130.397314 
L 545.66683 130.069679 
L 545.879104 130.218426 
L 546.091378 130.008952 
L 546.303652 129.991173 
L 546.728199 130.065556 
L 547.577294 129.999402 
L 547.789568 130.129623 
L 548.001842 131.012317 
L 548.42639 130.837104 
L 548.850937 130.627922 
L 549.275485 130.694434 
L 549.487758 130.630335 
L 549.700032 132.497888 
L 549.912306 132.542064 
L 550.12458 131.780615 
L 550.12458 131.780615 
" clip-path="url(#p5f50f93dec)" style="fill: none; stroke: #1f77b4; stroke-width: 1.5; stroke-linecap: square"/>
   </g>
   <g id="patch_8">
    <path d="M 327.46 260.12 
L 327.46 28.32 
" style="fill: none; stroke: #000000; stroke-width: 0.8; stroke-linejoin: miter; stroke-linecap: square"/>
   </g>
   <g id="patch_9">
    <path d="M 560.727655 260.12 
L 560.727655 28.32 
" style="fill: none; stroke: #000000; stroke-width: 0.8; stroke-linejoin: miter; stroke-linecap: square"/>
   </g>
   <g id="patch_10">
    <path d="M 327.46 260.12 
L 560.727655 260.12 
" style="fill: none; stroke: #000000; stroke-width: 0.8; stroke-linejoin: miter; stroke-linecap: square"/>
   </g>
   <g id="patch_11">
    <path d="M 327.46 28.32 
L 560.727655 28.32 
" style="fill: none; stroke: #000000; stroke-width: 0.8; stroke-linejoin: miter; stroke-linecap: square"/>
   </g>
   <g id="text_26">
    <!-- Cauchy -->
    <g transform="translate(421.771953 22.32) scale(0.12 -0.12)">
     <defs>
      <path id="DejaVuSans-43" d="M 4122 4306 
L 4122 3641 
Q 3803 3938 3442 4084 
Q 3081 4231 2675 4231 
Q 1875 4231 1450 3742 
Q 1025 3253 1025 2328 
Q 1025 1406 1450 917 
Q 1875 428 2675 428 
Q 3081 428 3442 575 
Q 3803 722 4122 1019 
L 4122 359 
Q 3791 134 3420 21 
Q 3050 -91 2638 -91 
Q 1578 -91 968 557 
Q 359 1206 359 2328 
Q 359 3453 968 4101 
Q 1578 4750 2638 4750 
Q 3056 4750 3426 4639 
Q 3797 4528 4122 4306 
z
" transform="scale(0.015625)"/>
      <path id="DejaVuSans-63" d="M 3122 3366 
L 3122 2828 
Q 2878 2963 2633 3030 
Q 2388 3097 2138 3097 
Q 1578 3097 1268 2742 
Q 959 2388 959 1747 
Q 959 1106 1268 751 
Q 1578 397 2138 397 
Q 2388 397 2633 464 
Q 2878 531 3122 666 
L 3122 134 
Q 2881 22 2623 -34 
Q 2366 -91 2075 -91 
Q 1284 -91 818 406 
Q 353 903 353 1747 
Q 353 2603 823 3093 
Q 1294 3584 2113 3584 
Q 2378 3584 2631 3529 
Q 2884 3475 3122 3366 
z
" transform="scale(0.015625)"/>
      <path id="DejaVuSans-68" d="M 3513 2113 
L 3513 0 
L 2938 0 
L 2938 2094 
Q 2938 2591 2744 2837 
Q 2550 3084 2163 3084 
Q 1697 3084 1428 2787 
Q 1159 2491 1159 1978 
L 1159 0 
L 581 0 
L 581 4863 
L 1159 4863 
L 1159 2956 
Q 1366 3272 1645 3428 
Q 1925 3584 2291 3584 
Q 2894 3584 3203 3211 
Q 3513 2838 3513 2113 
z
" transform="scale(0.015625)"/>
      <path id="DejaVuSans-79" d="M 2059 -325 
Q 1816 -950 1584 -1140 
Q 1353 -1331 966 -1331 
L 506 -1331 
L 506 -850 
L 844 -850 
Q 1081 -850 1212 -737 
Q 1344 -625 1503 -206 
L 1606 56 
L 191 3500 
L 800 3500 
L 1894 763 
L 2988 3500 
L 3597 3500 
L 2059 -325 
z
" transform="scale(0.015625)"/>
     </defs>
     <use xlink:href="#DejaVuSans-43"/>
     <use xlink:href="#DejaVuSans-61" x="69.824219"/>
     <use xlink:href="#DejaVuSans-75" x="131.103516"/>
     <use xlink:href="#DejaVuSans-63" x="194.482422"/>
     <use xlink:href="#DejaVuSans-68" x="249.462891"/>
     <use xlink:href="#DejaVuSans-79" x="312.841797"/>
    </g>
   </g>
  </g>
  <g id="axes_3">
   <g id="patch_12">
    <path d="M 616.06 260.12 
L 849.327655 260.12 
L 849.327655 28.32 
L 616.06 28.32 
z
" style="fill: #ffffff"/>
   </g>
   <g id="matplotlib.axis_5">
    <g id="xtick_13">
     <g id="line2d_27">
      <g>
       <use xlink:href="#md17e8ce078" x="626.663075" y="260.12" style="stroke: #000000; stroke-width: 0.8"/>
      </g>
     </g>
     <g id="text_27">
      <!-- 0 -->
      <g transform="translate(623.481825 274.718437) scale(0.1 -0.1)">
       <use xlink:href="#DejaVuSans-30"/>
      </g>
     </g>
    </g>
    <g id="xtick_14">
     <g id="line2d_28">
      <g>
       <use xlink:href="#md17e8ce078" x="669.117831" y="260.12" style="stroke: #000000; stroke-width: 0.8"/>
      </g>
     </g>
     <g id="text_28">
      <!-- 200 -->
      <g transform="translate(659.574081 274.718437) scale(0.1 -0.1)">
       <use xlink:href="#DejaVuSans-32"/>
       <use xlink:href="#DejaVuSans-30" x="63.623047"/>
       <use xlink:href="#DejaVuSans-30" x="127.246094"/>
      </g>
     </g>
    </g>
    <g id="xtick_15">
     <g id="line2d_29">
      <g>
       <use xlink:href="#md17e8ce078" x="711.572587" y="260.12" style="stroke: #000000; stroke-width: 0.8"/>
      </g>
     </g>
     <g id="text_29">
      <!-- 400 -->
      <g transform="translate(702.028837 274.718437) scale(0.1 -0.1)">
       <use xlink:href="#DejaVuSans-34"/>
       <use xlink:href="#DejaVuSans-30" x="63.623047"/>
       <use xlink:href="#DejaVuSans-30" x="127.246094"/>
      </g>
     </g>
    </g>
    <g id="xtick_16">
     <g id="line2d_30">
      <g>
       <use xlink:href="#md17e8ce078" x="754.027342" y="260.12" style="stroke: #000000; stroke-width: 0.8"/>
      </g>
     </g>
     <g id="text_30">
      <!-- 600 -->
      <g transform="translate(744.483592 274.718437) scale(0.1 -0.1)">
       <use xlink:href="#DejaVuSans-36"/>
       <use xlink:href="#DejaVuSans-30" x="63.623047"/>
       <use xlink:href="#DejaVuSans-30" x="127.246094"/>
      </g>
     </g>
    </g>
    <g id="xtick_17">
     <g id="line2d_31">
      <g>
       <use xlink:href="#md17e8ce078" x="796.482098" y="260.12" style="stroke: #000000; stroke-width: 0.8"/>
      </g>
     </g>
     <g id="text_31">
      <!-- 800 -->
      <g transform="translate(786.938348 274.718437) scale(0.1 -0.1)">
       <use xlink:href="#DejaVuSans-38"/>
       <use xlink:href="#DejaVuSans-30" x="63.623047"/>
       <use xlink:href="#DejaVuSans-30" x="127.246094"/>
      </g>
     </g>
    </g>
    <g id="xtick_18">
     <g id="line2d_32">
      <g>
       <use xlink:href="#md17e8ce078" x="838.936854" y="260.12" style="stroke: #000000; stroke-width: 0.8"/>
      </g>
     </g>
     <g id="text_32">
      <!-- 1000 -->
      <g transform="translate(826.211854 274.718437) scale(0.1 -0.1)">
       <use xlink:href="#DejaVuSans-31"/>
       <use xlink:href="#DejaVuSans-30" x="63.623047"/>
       <use xlink:href="#DejaVuSans-30" x="127.246094"/>
       <use xlink:href="#DejaVuSans-30" x="190.869141"/>
      </g>
     </g>
    </g>
   </g>
   <g id="matplotlib.axis_6">
    <g id="ytick_13">
     <g id="line2d_33">
      <g>
       <use xlink:href="#m6d2fc576e3" x="616.06" y="216.078784" style="stroke: #000000; stroke-width: 0.8"/>
      </g>
     </g>
     <g id="text_33">
      <!-- −4000 -->
      <g transform="translate(575.230313 219.878003) scale(0.1 -0.1)">
       <use xlink:href="#DejaVuSans-2212"/>
       <use xlink:href="#DejaVuSans-34" x="83.789062"/>
       <use xlink:href="#DejaVuSans-30" x="147.412109"/>
       <use xlink:href="#DejaVuSans-30" x="211.035156"/>
       <use xlink:href="#DejaVuSans-30" x="274.658203"/>
      </g>
     </g>
    </g>
    <g id="ytick_14">
     <g id="line2d_34">
      <g>
       <use xlink:href="#m6d2fc576e3" x="616.06" y="165.998397" style="stroke: #000000; stroke-width: 0.8"/>
      </g>
     </g>
     <g id="text_34">
      <!-- −2000 -->
      <g transform="translate(575.230313 169.797616) scale(0.1 -0.1)">
       <use xlink:href="#DejaVuSans-2212"/>
       <use xlink:href="#DejaVuSans-32" x="83.789062"/>
       <use xlink:href="#DejaVuSans-30" x="147.412109"/>
       <use xlink:href="#DejaVuSans-30" x="211.035156"/>
       <use xlink:href="#DejaVuSans-30" x="274.658203"/>
      </g>
     </g>
    </g>
    <g id="ytick_15">
     <g id="line2d_35">
      <g>
       <use xlink:href="#m6d2fc576e3" x="616.06" y="115.918011" style="stroke: #000000; stroke-width: 0.8"/>
      </g>
     </g>
     <g id="text_35">
      <!-- 0 -->
      <g transform="translate(602.6975 119.717229) scale(0.1 -0.1)">
       <use xlink:href="#DejaVuSans-30"/>
      </g>
     </g>
    </g>
    <g id="ytick_16">
     <g id="line2d_36">
      <g>
       <use xlink:href="#m6d2fc576e3" x="616.06" y="65.837624" style="stroke: #000000; stroke-width: 0.8"/>
      </g>
     </g>
     <g id="text_36">
      <!-- 2000 -->
      <g transform="translate(583.61 69.636843) scale(0.1 -0.1)">
       <use xlink:href="#DejaVuSans-32"/>
       <use xlink:href="#DejaVuSans-30" x="63.623047"/>
       <use xlink:href="#DejaVuSans-30" x="127.246094"/>
       <use xlink:href="#DejaVuSans-30" x="190.869141"/>
      </g>
     </g>
    </g>
   </g>
   <g id="line2d_37">
    <path d="M 626.663075 115.847536 
L 626.875349 115.720988 
L 627.087623 115.154541 
L 627.51217 115.263615 
L 627.936718 115.296953 
L 628.148992 115.614925 
L 628.361265 113.343535 
L 628.573539 113.496652 
L 628.785813 113.134709 
L 628.998087 110.886364 
L 629.634908 110.860996 
L 629.847182 110.888067 
L 630.059456 101.581792 
L 630.271729 191.560305 
L 630.484003 191.39168 
L 630.696277 191.460063 
L 630.908551 190.768033 
L 631.120825 190.794176 
L 631.333098 190.677965 
L 631.545372 191.058968 
L 631.757646 192.387445 
L 632.182193 192.48774 
L 632.394467 191.887066 
L 633.031289 192.031364 
L 633.243562 192.117265 
L 633.880384 192.049239 
L 634.092657 193.551753 
L 634.304931 193.621444 
L 634.517205 193.8397 
L 634.729479 192.547998 
L 635.3663 192.509888 
L 635.578574 192.895852 
L 635.790848 192.842214 
L 636.003121 192.593278 
L 636.215395 193.060437 
L 636.427669 197.606766 
L 636.852217 197.420519 
L 637.06449 196.090113 
L 637.276764 197.129014 
L 638.125859 197.370462 
L 638.338133 197.414383 
L 638.550407 194.757459 
L 638.974954 194.606927 
L 639.187228 194.632978 
L 639.399502 194.901221 
L 640.036323 194.868226 
L 640.248597 194.91968 
L 640.460871 195.156642 
L 640.885418 195.184769 
L 641.309966 195.167196 
L 641.52224 193.521747 
L 641.734513 193.485576 
L 642.159061 193.155426 
L 642.371335 193.080413 
L 642.583609 193.126935 
L 643.008156 193.348003 
L 643.22043 194.886611 
L 643.432704 194.921762 
L 643.644977 195.074349 
L 643.857251 194.877619 
L 644.494073 195.033731 
L 644.706346 194.709025 
L 644.91862 195.173305 
L 645.130894 196.047814 
L 645.343168 195.864967 
L 645.767715 195.869359 
L 645.979989 197.298219 
L 646.829084 197.343461 
L 647.041358 197.3011 
L 647.465906 197.42241 
L 647.678179 197.121741 
L 647.890453 197.081267 
L 648.102727 196.447677 
L 648.315001 195.243243 
L 648.951822 195.036052 
L 649.800917 195.636226 
L 650.225465 195.717547 
L 650.437738 198.617361 
L 650.650012 198.719842 
L 651.07456 198.136368 
L 651.286834 199.238328 
L 652.135929 199.181816 
L 652.348202 198.333204 
L 652.77275 198.293588 
L 652.985024 198.535183 
L 653.621845 198.710466 
L 654.258666 198.7587 
L 654.47094 198.283154 
L 654.683214 198.410211 
L 655.744583 198.331587 
L 655.956857 196.885789 
L 656.381404 196.888692 
L 657.230499 196.681943 
L 657.442773 196.285645 
L 657.655047 196.21957 
L 658.504142 196.47921 
L 658.92869 196.459499 
L 659.140963 196.496571 
L 659.353237 196.29548 
L 659.777785 196.271735 
L 659.990058 197.704059 
L 660.414606 198.136517 
L 660.62688 197.869886 
L 660.839154 197.787369 
L 661.051427 197.884151 
L 661.475975 197.792048 
L 662.32507 197.951317 
L 662.537344 197.887317 
L 662.749618 199.055456 
L 663.598713 198.811991 
L 664.02326 198.579622 
L 664.235534 202.858209 
L 664.447808 202.739984 
L 664.872355 202.741259 
L 665.084629 202.655802 
L 665.296903 202.033956 
L 666.145998 202.050862 
L 666.782819 201.943802 
L 667.207367 201.732794 
L 668.056462 201.78516 
L 668.268736 201.619848 
L 668.693283 201.678592 
L 668.905557 201.353639 
L 669.330105 201.515104 
L 669.754652 201.280102 
L 670.1792 201.257334 
L 671.240569 201.403699 
L 671.452842 201.682957 
L 671.665116 201.714398 
L 672.089664 201.261764 
L 672.514211 201.317662 
L 672.726485 200.546716 
L 672.938759 200.260712 
L 673.787854 200.369662 
L 674.000128 200.194641 
L 674.424675 200.322318 
L 674.636949 200.293711 
L 675.061497 200.078816 
L 676.122866 200.141791 
L 676.335139 200.671866 
L 676.547413 200.633256 
L 676.759687 202.215007 
L 676.971961 202.724669 
L 677.184234 202.529917 
L 677.608782 202.49237 
L 678.245603 202.274757 
L 678.457877 198.370851 
L 678.670151 216.206286 
L 679.094698 216.184213 
L 679.519246 216.205722 
L 679.73152 216.243361 
L 679.943794 214.883256 
L 680.156067 215.112938 
L 680.368341 215.038863 
L 680.580615 215.09994 
L 680.792889 215.27842 
L 681.217436 215.151072 
L 681.42971 215.360799 
L 682.278805 215.177314 
L 682.491079 215.291898 
L 683.1279 215.239778 
L 683.340174 215.298335 
L 683.552448 217.289916 
L 683.764722 217.091529 
L 683.976995 217.288513 
L 684.189269 218.085335 
L 684.401543 218.17502 
L 685.462912 218.004414 
L 685.675186 218.197481 
L 686.099733 217.978052 
L 686.312007 218.077448 
L 686.736554 218.101751 
L 687.373376 217.456644 
L 688.434745 217.548983 
L 688.647019 218.124649 
L 688.859292 215.98419 
L 689.071566 215.869821 
L 689.28384 217.126696 
L 689.920661 216.97844 
L 690.132935 207.457717 
L 690.345209 207.380878 
L 690.557483 172.054097 
L 690.769756 172.149257 
L 690.98203 172.116904 
L 691.194304 171.767185 
L 691.406578 171.714922 
L 691.618851 171.415226 
L 691.831125 171.448931 
L 692.043399 171.321124 
L 692.68022 171.53145 
L 693.317042 171.78473 
L 693.529315 171.606064 
L 693.741589 171.094184 
L 693.953863 171.272933 
L 694.166137 172.38008 
L 695.015232 172.450635 
L 695.227506 172.930893 
L 695.439779 172.893833 
L 695.652053 173.074517 
L 696.076601 172.812511 
L 696.501148 173.108253 
L 697.13797 173.013968 
L 697.350243 173.136727 
L 697.987065 172.878639 
L 698.411612 172.998864 
L 698.623886 172.698344 
L 699.472981 172.761744 
L 699.685255 172.553059 
L 700.109803 172.451249 
L 700.322076 173.259541 
L 700.53435 173.31511 
L 700.746624 173.188304 
L 701.383445 173.300996 
L 701.807993 173.094447 
L 702.020267 173.010035 
L 702.23254 173.428265 
L 702.444814 173.490012 
L 702.657088 173.195328 
L 702.869362 173.166333 
L 703.293909 171.919267 
L 703.506183 171.946835 
L 703.718457 172.234571 
L 703.930731 172.135688 
L 704.143004 172.231158 
L 704.355278 172.506243 
L 705.416647 172.743261 
L 705.628921 172.892234 
L 706.478016 172.812061 
L 706.69029 174.848718 
L 706.902563 174.257595 
L 707.114837 174.376654 
L 707.327111 174.309529 
L 707.539385 173.806274 
L 707.963932 173.829538 
L 708.38848 174.020434 
L 708.813027 173.934027 
L 709.025301 173.6267 
L 709.874396 173.57967 
L 710.08667 173.189002 
L 710.935765 173.257363 
L 711.148039 173.175543 
L 711.360313 237.45751 
L 711.572587 245.596133 
L 712.421682 245.444228 
L 712.633955 244.998138 
L 712.846229 245.403655 
L 713.270777 245.405844 
L 713.483051 247.035202 
L 713.907598 247.099508 
L 714.119872 248.528911 
L 714.544419 248.583439 
L 714.968967 247.594971 
L 715.605788 247.371277 
L 716.030336 248.063119 
L 717.091705 248.101786 
L 717.303979 247.04777 
L 717.516252 246.963517 
L 717.728526 247.60311 
L 717.9408 247.292697 
L 718.577621 247.142954 
L 718.789895 246.689272 
L 719.214443 246.675024 
L 719.63899 246.609392 
L 719.851264 246.903912 
L 720.275811 246.886116 
L 720.488085 247.146249 
L 720.700359 247.028379 
L 721.124907 247.218515 
L 721.33718 249.268046 
L 721.761728 249.341018 
L 721.974002 249.221668 
L 722.823097 249.324477 
L 723.035371 249.583636 
L 723.247644 249.4995 
L 723.459918 248.854121 
L 723.884466 248.969048 
L 724.521287 248.883715 
L 724.733561 248.956392 
L 724.945835 249.392171 
L 725.158108 249.32571 
L 725.370382 249.455782 
L 725.582656 249.421475 
L 725.79493 249.15049 
L 726.007203 249.18905 
L 726.431751 248.857701 
L 726.644025 249.183035 
L 727.068572 249.162035 
L 727.49312 249.14114 
L 727.705394 249.11325 
L 727.917667 227.823895 
L 728.129941 227.36206 
L 728.342215 227.428111 
L 728.766763 227.136624 
L 729.19131 227.088009 
L 729.403584 227.22603 
L 729.828131 221.635209 
L 730.040405 222.134946 
L 730.252679 222.029436 
L 730.464953 113.157363 
L 730.8895 113.274966 
L 731.314048 112.092309 
L 731.738596 112.111202 
L 731.950869 112.153684 
L 732.375417 111.883591 
L 733.012238 112.234203 
L 733.64906 111.836483 
L 733.861333 111.173365 
L 734.285881 111.199168 
L 734.498155 110.753244 
L 734.922702 110.760491 
L 735.34725 110.683944 
L 735.559524 110.399055 
L 735.771797 109.896668 
L 735.984071 109.727494 
L 736.196345 109.142376 
L 736.408619 108.909279 
L 736.833166 108.98709 
L 737.04544 110.759176 
L 737.469988 110.753479 
L 737.682261 107.506791 
L 737.894535 107.561401 
L 738.106809 107.388428 
L 738.319083 107.444772 
L 738.531356 107.285174 
L 738.74363 107.315953 
L 738.955904 107.167136 
L 739.168178 107.336295 
L 739.380452 107.675453 
L 739.592725 108.685128 
L 740.017273 108.69296 
L 740.229547 108.773831 
L 740.44182 108.576008 
L 740.654094 108.601372 
L 740.866368 109.519581 
L 741.290916 109.298043 
L 741.503189 109.567505 
L 742.140011 109.324098 
L 742.776832 109.491632 
L 742.989106 109.768084 
L 743.20138 109.794767 
L 743.413653 109.708753 
L 744.050475 109.856829 
L 744.475022 109.693064 
L 744.687296 109.750719 
L 744.89957 109.633478 
L 745.111844 110.776678 
L 745.324117 110.724456 
L 745.536391 107.92182 
L 746.59776 107.790468 
L 746.810034 110.014515 
L 747.022308 109.985197 
L 747.659129 110.205313 
L 747.871403 110.159279 
L 748.083676 125.92106 
L 748.720498 125.964663 
L 749.357319 125.559071 
L 749.569593 125.591265 
L 749.781867 125.251811 
L 749.99414 140.209403 
L 750.206414 140.050001 
L 750.630962 140.106143 
L 750.843236 139.965726 
L 751.055509 140.017436 
L 751.267783 138.643396 
L 751.904604 138.694669 
L 752.329152 137.680223 
L 753.178247 137.451714 
L 753.602795 137.429581 
L 753.815068 137.222245 
L 754.027342 138.277514 
L 755.088711 138.172023 
L 755.300985 140.410722 
L 755.725532 140.505905 
L 755.937806 140.612158 
L 756.15008 140.492125 
L 756.574628 140.492522 
L 756.786901 140.740408 
L 757.423723 140.72324 
L 757.635996 140.766753 
L 757.84827 141.760343 
L 758.485092 141.656542 
L 758.909639 141.823364 
L 759.54646 141.846834 
L 759.758734 141.780677 
L 760.607829 142.054342 
L 760.820103 141.904742 
L 762.093746 142.179727 
L 762.30602 142.210059 
L 762.518293 142.47196 
L 763.155115 142.255654 
L 763.579662 141.942718 
L 763.791936 141.808567 
L 764.216484 142.030656 
L 764.428757 142.003615 
L 764.641031 141.756334 
L 764.853305 139.367641 
L 765.7024 139.560694 
L 766.339221 139.413688 
L 766.976043 139.454019 
L 767.188316 138.8434 
L 767.825138 138.824589 
L 768.037412 138.854178 
L 768.249685 142.384591 
L 768.461959 142.255255 
L 768.674233 142.31313 
L 769.09878 142.190138 
L 769.311054 142.510686 
L 770.372423 142.256972 
L 770.584697 137.222604 
L 771.221518 137.284057 
L 771.433792 137.179765 
L 771.85834 137.3044 
L 772.070613 137.650942 
L 772.282887 137.573051 
L 772.495161 109.235198 
L 772.707435 109.321582 
L 773.131982 109.200552 
L 773.55653 109.342747 
L 773.981077 109.350936 
L 774.193351 46.369249 
L 774.405625 46.297038 
L 774.617899 46.927064 
L 774.830173 46.952212 
L 775.042446 47.129252 
L 776.316089 47.263936 
L 776.740637 47.184039 
L 777.165184 47.208941 
L 777.377458 47.160105 
L 777.589732 45.303046 
L 778.014279 45.45171 
L 778.226553 45.1273 
L 778.438827 45.620161 
L 779.075648 45.642363 
L 779.500196 45.467457 
L 779.712469 45.36362 
L 779.924743 45.394849 
L 780.349291 45.236896 
L 780.773838 45.292994 
L 781.198386 45.305799 
L 781.622933 45.165998 
L 781.835207 44.64826 
L 782.047481 44.500929 
L 782.259755 44.557421 
L 782.684302 44.422724 
L 782.896576 44.550262 
L 783.10885 44.873832 
L 783.321124 44.972925 
L 783.533397 39.487859 
L 783.745671 39.457426 
L 783.957945 38.856364 
L 784.170219 39.042351 
L 784.382493 39.00383 
L 785.019314 39.317786 
L 785.231588 39.285408 
L 785.443861 39.406892 
L 786.292957 39.26847 
L 786.50523 39.945126 
L 786.717504 39.417199 
L 787.142052 39.400733 
L 787.566599 39.388172 
L 787.778873 39.506482 
L 787.991147 39.164554 
L 788.415694 39.275992 
L 788.627968 39.110722 
L 788.840242 39.317936 
L 789.052516 39.080776 
L 789.901611 39.265754 
L 790.113885 39.594846 
L 790.538432 39.399772 
L 791.387527 39.260898 
L 791.599801 39.705832 
L 792.024349 39.667951 
L 792.236622 39.632855 
L 792.448896 39.456079 
L 792.66117 40.999728 
L 792.873444 40.93593 
L 793.297991 40.999238 
L 793.722539 40.851667 
L 794.147086 40.894386 
L 794.571634 40.890469 
L 794.996181 40.804581 
L 795.208455 41.01956 
L 795.845277 41.012639 
L 796.05755 41.326067 
L 796.269824 41.19462 
L 796.482098 41.259901 
L 796.694372 41.116916 
L 796.906645 42.163806 
L 797.118919 42.125664 
L 797.331193 42.437438 
L 797.543467 44.051023 
L 797.968014 44.019857 
L 798.180288 43.992966 
L 798.392562 43.799148 
L 799.241657 43.694645 
L 799.453931 44.617493 
L 799.666205 44.422032 
L 799.878478 44.647113 
L 800.090752 44.687255 
L 800.303026 44.514277 
L 800.5153 42.599681 
L 801.364395 42.830416 
L 801.576669 42.908162 
L 801.788942 42.820203 
L 802.001216 43.564639 
L 802.21349 43.653655 
L 802.638037 46.589118 
L 803.062585 46.380913 
L 803.274859 46.172106 
L 803.487133 45.342386 
L 803.91168 45.165044 
L 804.336228 45.041358 
L 804.548501 44.770937 
L 804.760775 43.223444 
L 804.973049 43.197084 
L 805.185323 43.35851 
L 805.60987 43.061686 
L 806.246692 43.099577 
L 806.458965 45.051336 
L 806.671239 44.952593 
L 806.883513 45.267999 
L 807.308061 45.334582 
L 807.520334 45.267128 
L 807.732608 45.007525 
L 807.944882 45.76632 
L 808.157156 45.738182 
L 808.369429 50.083811 
L 808.793977 49.944884 
L 809.006251 50.002467 
L 809.218525 50.323091 
L 809.430798 48.676874 
L 809.855346 48.683522 
L 810.06762 48.710595 
L 810.279893 64.363004 
L 810.492167 64.332108 
L 810.916715 64.484721 
L 811.553536 64.649818 
L 811.76581 64.330746 
L 812.190357 64.366337 
L 812.402631 64.340673 
L 812.614905 64.516583 
L 812.827179 64.390163 
L 813.039453 66.064866 
L 813.888548 65.831287 
L 814.100821 90.605883 
L 814.313095 90.634577 
L 814.737643 90.043454 
L 814.949917 92.199541 
L 815.16219 91.988529 
L 815.374464 92.0238 
L 815.586738 91.73594 
L 815.799012 91.763063 
L 816.011285 91.503025 
L 816.435833 91.8955 
L 816.648107 91.856907 
L 816.860381 92.379486 
L 817.072654 92.406187 
L 817.497202 92.350226 
L 817.709476 91.897923 
L 817.92175 91.777013 
L 818.983118 92.04476 
L 819.195392 91.99046 
L 819.407666 91.695459 
L 820.044487 91.825719 
L 820.256761 91.440695 
L 820.469035 91.602406 
L 820.681309 89.874062 
L 821.105856 89.919134 
L 821.31813 90.645559 
L 821.742678 90.668316 
L 822.379499 90.709667 
L 822.591773 90.542676 
L 823.228594 92.432015 
L 823.440868 92.486316 
L 823.865415 92.255478 
L 824.077689 92.298583 
L 824.289963 90.459797 
L 824.926784 90.627101 
L 825.139058 90.464997 
L 825.563606 90.470656 
L 825.775879 90.426997 
L 825.988153 88.517758 
L 826.200427 88.490382 
L 826.412701 88.581945 
L 826.624974 88.3058 
L 826.837248 88.333817 
L 827.049522 88.486043 
L 827.261796 88.276197 
L 827.47407 88.305878 
L 827.686343 88.179533 
L 827.898617 88.264901 
L 828.110891 88.206034 
L 828.323165 88.291204 
L 828.747712 88.294057 
L 828.959986 88.337447 
L 829.17226 88.059521 
L 829.384534 88.211943 
L 829.596807 88.118491 
L 829.809081 88.30009 
L 830.445902 88.317153 
L 830.87045 88.720834 
L 831.294998 88.693732 
L 831.507271 88.658319 
L 831.719545 88.766549 
L 832.993188 88.694465 
L 833.205462 88.288047 
L 833.417735 88.184405 
L 833.842283 88.170767 
L 834.054557 89.401857 
L 834.26683 89.427585 
L 834.691378 89.696359 
L 835.115926 89.713894 
L 835.328199 89.586469 
L 835.540473 89.994638 
L 835.752747 90.086356 
L 836.389568 89.914493 
L 836.601842 90.123496 
L 837.02639 90.025893 
L 837.238663 90.240903 
L 837.450937 90.200112 
L 837.875485 90.745146 
L 838.087758 90.802275 
L 838.300032 90.631353 
L 838.72458 90.856584 
L 838.72458 90.856584 
" clip-path="url(#pd7bc541f4d)" style="fill: none; stroke: #1f77b4; stroke-width: 1.5; stroke-linecap: square"/>
   </g>
   <g id="patch_13">
    <path d="M 616.06 260.12 
L 616.06 28.32 
" style="fill: none; stroke: #000000; stroke-width: 0.8; stroke-linejoin: miter; stroke-linecap: square"/>
   </g>
   <g id="patch_14">
    <path d="M 849.327655 260.12 
L 849.327655 28.32 
" style="fill: none; stroke: #000000; stroke-width: 0.8; stroke-linejoin: miter; stroke-linecap: square"/>
   </g>
   <g id="patch_15">
    <path d="M 616.06 260.12 
L 849.327655 260.12 
" style="fill: none; stroke: #000000; stroke-width: 0.8; stroke-linejoin: miter; stroke-linecap: square"/>
   </g>
   <g id="patch_16">
    <path d="M 616.06 28.32 
L 849.327655 28.32 
" style="fill: none; stroke: #000000; stroke-width: 0.8; stroke-linejoin: miter; stroke-linecap: square"/>
   </g>
   <g id="text_37">
    <!-- Pareto ($\mu=0.7$) -->
    <g transform="translate(686.313828 22.32) scale(0.12 -0.12)">
     <defs>
      <path id="DejaVuSans-50" d="M 1259 4147 
L 1259 2394 
L 2053 2394 
Q 2494 2394 2734 2622 
Q 2975 2850 2975 3272 
Q 2975 3691 2734 3919 
Q 2494 4147 2053 4147 
L 1259 4147 
z
M 628 4666 
L 2053 4666 
Q 2838 4666 3239 4311 
Q 3641 3956 3641 3272 
Q 3641 2581 3239 2228 
Q 2838 1875 2053 1875 
L 1259 1875 
L 1259 0 
L 628 0 
L 628 4666 
z
" transform="scale(0.015625)"/>
      <path id="DejaVuSans-72" d="M 2631 2963 
Q 2534 3019 2420 3045 
Q 2306 3072 2169 3072 
Q 1681 3072 1420 2755 
Q 1159 2438 1159 1844 
L 1159 0 
L 581 0 
L 581 3500 
L 1159 3500 
L 1159 2956 
Q 1341 3275 1631 3429 
Q 1922 3584 2338 3584 
Q 2397 3584 2469 3576 
Q 2541 3569 2628 3553 
L 2631 2963 
z
" transform="scale(0.015625)"/>
      <path id="DejaVuSans-65" d="M 3597 1894 
L 3597 1613 
L 953 1613 
Q 991 1019 1311 708 
Q 1631 397 2203 397 
Q 2534 397 2845 478 
Q 3156 559 3463 722 
L 3463 178 
Q 3153 47 2828 -22 
Q 2503 -91 2169 -91 
Q 1331 -91 842 396 
Q 353 884 353 1716 
Q 353 2575 817 3079 
Q 1281 3584 2069 3584 
Q 2775 3584 3186 3129 
Q 3597 2675 3597 1894 
z
M 3022 2063 
Q 3016 2534 2758 2815 
Q 2500 3097 2075 3097 
Q 1594 3097 1305 2825 
Q 1016 2553 972 2059 
L 3022 2063 
z
" transform="scale(0.015625)"/>
      <path id="DejaVuSans-74" d="M 1172 4494 
L 1172 3500 
L 2356 3500 
L 2356 3053 
L 1172 3053 
L 1172 1153 
Q 1172 725 1289 603 
Q 1406 481 1766 481 
L 2356 481 
L 2356 0 
L 1766 0 
Q 1100 0 847 248 
Q 594 497 594 1153 
L 594 3053 
L 172 3053 
L 172 3500 
L 594 3500 
L 594 4494 
L 1172 4494 
z
" transform="scale(0.015625)"/>
      <path id="DejaVuSans-6f" d="M 1959 3097 
Q 1497 3097 1228 2736 
Q 959 2375 959 1747 
Q 959 1119 1226 758 
Q 1494 397 1959 397 
Q 2419 397 2687 759 
Q 2956 1122 2956 1747 
Q 2956 2369 2687 2733 
Q 2419 3097 1959 3097 
z
M 1959 3584 
Q 2709 3584 3137 3096 
Q 3566 2609 3566 1747 
Q 3566 888 3137 398 
Q 2709 -91 1959 -91 
Q 1206 -91 779 398 
Q 353 888 353 1747 
Q 353 2609 779 3096 
Q 1206 3584 1959 3584 
z
" transform="scale(0.015625)"/>
      <path id="DejaVuSans-20" transform="scale(0.015625)"/>
      <path id="DejaVuSans-28" d="M 1984 4856 
Q 1566 4138 1362 3434 
Q 1159 2731 1159 2009 
Q 1159 1288 1364 580 
Q 1569 -128 1984 -844 
L 1484 -844 
Q 1016 -109 783 600 
Q 550 1309 550 2009 
Q 550 2706 781 3412 
Q 1013 4119 1484 4856 
L 1984 4856 
z
" transform="scale(0.015625)"/>
      <path id="DejaVuSans-Oblique-3bc" d="M -84 -1331 
L 856 3500 
L 1434 3500 
L 1009 1322 
Q 997 1256 987 1175 
Q 978 1094 978 1013 
Q 978 722 1161 565 
Q 1344 409 1684 409 
Q 2147 409 2431 671 
Q 2716 934 2816 1459 
L 3213 3500 
L 3788 3500 
L 3266 809 
Q 3253 750 3248 706 
Q 3244 663 3244 628 
Q 3244 531 3283 486 
Q 3322 441 3406 441 
Q 3438 441 3492 456 
Q 3547 472 3647 513 
L 3559 50 
Q 3422 -19 3297 -55 
Q 3172 -91 3053 -91 
Q 2847 -91 2730 40 
Q 2613 172 2613 403 
Q 2438 153 2195 31 
Q 1953 -91 1625 -91 
Q 1334 -91 1117 43 
Q 900 178 831 397 
L 494 -1331 
L -84 -1331 
z
" transform="scale(0.015625)"/>
      <path id="DejaVuSans-3d" d="M 678 2906 
L 4684 2906 
L 4684 2381 
L 678 2381 
L 678 2906 
z
M 678 1631 
L 4684 1631 
L 4684 1100 
L 678 1100 
L 678 1631 
z
" transform="scale(0.015625)"/>
      <path id="DejaVuSans-2e" d="M 684 794 
L 1344 794 
L 1344 0 
L 684 0 
L 684 794 
z
" transform="scale(0.015625)"/>
      <path id="DejaVuSans-37" d="M 525 4666 
L 3525 4666 
L 3525 4397 
L 1831 0 
L 1172 0 
L 2766 4134 
L 525 4134 
L 525 4666 
z
" transform="scale(0.015625)"/>
      <path id="DejaVuSans-29" d="M 513 4856 
L 1013 4856 
Q 1481 4119 1714 3412 
Q 1947 2706 1947 2009 
Q 1947 1309 1714 600 
Q 1481 -109 1013 -844 
L 513 -844 
Q 928 -128 1133 580 
Q 1338 1288 1338 2009 
Q 1338 2731 1133 3434 
Q 928 4138 513 4856 
z
" transform="scale(0.015625)"/>
     </defs>
     <use xlink:href="#DejaVuSans-50" transform="translate(0 0.125)"/>
     <use xlink:href="#DejaVuSans-61" transform="translate(60.302734 0.125)"/>
     <use xlink:href="#DejaVuSans-72" transform="translate(121.582031 0.125)"/>
     <use xlink:href="#DejaVuSans-65" transform="translate(162.695312 0.125)"/>
     <use xlink:href="#DejaVuSans-74" transform="translate(224.21875 0.125)"/>
     <use xlink:href="#DejaVuSans-6f" transform="translate(263.427734 0.125)"/>
     <use xlink:href="#DejaVuSans-20" transform="translate(324.609375 0.125)"/>
     <use xlink:href="#DejaVuSans-28" transform="translate(356.396484 0.125)"/>
     <use xlink:href="#DejaVuSans-Oblique-3bc" transform="translate(395.410156 0.125)"/>
     <use xlink:href="#DejaVuSans-3d" transform="translate(478.515625 0.125)"/>
     <use xlink:href="#DejaVuSans-30" transform="translate(581.787109 0.125)"/>
     <use xlink:href="#DejaVuSans-2e" transform="translate(645.410156 0.125)"/>
     <use xlink:href="#DejaVuSans-37" transform="translate(669.447266 0.125)"/>
     <use xlink:href="#DejaVuSans-29" transform="translate(733.070312 0.125)"/>
    </g>
   </g>
  </g>
 </g>
 <defs>
  <clipPath id="pbc9c7c35d3">
   <rect x="38.86" y="28.32" width="233.267655" height="231.8"/>
  </clipPath>
  <clipPath id="p5f50f93dec">
   <rect x="327.46" y="28.32" width="233.267655" height="231.8"/>
  </clipPath>
  <clipPath id="pd7bc541f4d">
   <rect x="616.06" y="28.32" width="233.267655" height="231.8"/>
  </clipPath>
 </defs>
</svg>
