<svg version="1.1" viewBox="0.0 0.0 600.0 371.0" fill="none" stroke="none" stroke-linecap="square" stroke-miterlimit="10" width="600" height="371" xmlns:xlink="http://www.w3.org/1999/xlink" xmlns="http://www.w3.org/2000/svg"><path fill="#ffffff" d="M0 0L600.0 0L600.0 371.0L0 371.0L0 0Z" fill-rule="nonzero"/><path stroke="#cccccc" stroke-width="1.0" stroke-linecap="butt" d="M141.5 69.5L141.5 332.5" fill-rule="nonzero"/><path stroke="#cccccc" stroke-width="1.0" stroke-linecap="butt" d="M279.5 69.5L279.5 332.5" fill-rule="nonzero"/><path stroke="#cccccc" stroke-width="1.0" stroke-linecap="butt" d="M416.5 69.5L416.5 332.5" fill-rule="nonzero"/><path stroke="#cccccc" stroke-width="1.0" stroke-linecap="butt" d="M553.5 69.5L553.5 332.5" fill-rule="nonzero"/><path stroke="#333333" stroke-width="1.0" stroke-linecap="butt" d="M45.5 332.5L581.5 332.5" fill-rule="nonzero"/><path stroke="#cccccc" stroke-width="1.0" stroke-linecap="butt" d="M45.5 244.5L581.5 244.5" fill-rule="nonzero"/><path stroke="#cccccc" stroke-width="1.0" stroke-linecap="butt" d="M45.5 157.5L581.5 157.5" fill-rule="nonzero"/><path stroke="#cccccc" stroke-width="1.0" stroke-linecap="butt" d="M45.5 69.5L581.5 69.5" fill-rule="nonzero"/><clipPath id="id_0"><path d="M45.55 69.916664L581.45 69.916664L581.45 332.45L45.55 332.45L45.55 69.916664Z" clip-rule="nonzero"/></clipPath><path stroke="#4285f4" stroke-width="2.0" stroke-linecap="butt" clip-path="url(#id_0)" d="M128.01352 328.07443L128.01352 323.69888L141.7449 323.69888L141.7449 323.69888L155.47627 323.69888L166.91283 319.32333L187.49107 323.69888L210.4394 328.94955L210.4394 323.69888L219.58113 323.69888L244.44809 314.94778L299.336 320.19846L302.04465 319.32333L310.02014 319.32333L310.28348 306.19666L312.54068 320.19846L334.09708 310.57224L347.86606 313.19757L361.59744 313.19757L365.50995 306.19666L367.20285 304.44644L375.32883 292.1949L416.56058 293.07L481.1921 218.68556L498.0836 201.18333L512.7555 148.67667L581.45 69.916664" fill-rule="nonzero"/><path stroke="#ea4335" stroke-width="2.0" stroke-linecap="butt" clip-path="url(#id_0)" d="M244.44809 297.44556L295.34824 293.07L299.336 288.69446L310.02014 279.94333L512.7555 227.43666L540.21826 157.42778" fill-rule="nonzero"/><path stroke="#fbbc04" stroke-width="2.0" stroke-linecap="butt" clip-path="url(#id_0)" d="M210.4394 323.69888L295.34824 288.69446L299.336 288.69446L310.02014 279.94333L310.28348 279.94333L361.59744 253.69L402.8292 266.81668L416.56058 253.69L512.7555 244.93889L540.21826 157.42778L581.45 157.42778" fill-rule="nonzero"/><path stroke="#34a853" stroke-width="2.0" stroke-linecap="butt" clip-path="url(#id_0)" d="M128.01352 279.94333L128.01352 279.94333L141.7449 288.69446L155.47627 297.44556L210.4394 244.93889L302.04465 244.93889L310.28348 288.69446L347.86606 244.93889L498.0836 323.69888L501.73276 332.45" fill-rule="nonzero"/><path fill="#000000" fill-opacity="0.0" clip-path="url(#id_0)" d="M131.01352 328.07443C131.01352 329.7313 129.67036 331.07443 128.01352 331.07443C126.35667 331.07443 125.01352 329.7313 125.01352 328.07443C125.01352 326.4176 126.35667 325.07443 128.01352 325.07443C129.67036 325.07443 131.01352 326.4176 131.01352 328.07443Z" fill-rule="nonzero"/><path fill="#000000" fill-opacity="0.0" clip-path="url(#id_0)" d="M131.01352 323.69888C131.01352 325.35574 129.67036 326.69888 128.01352 326.69888C126.35667 326.69888 125.01352 325.35574 125.01352 323.69888C125.01352 322.04202 126.35667 320.69888 128.01352 320.69888C129.67036 320.69888 131.01352 322.04202 131.01352 323.69888Z" fill-rule="nonzero"/><path fill="#000000" fill-opacity="0.0" clip-path="url(#id_0)" d="M144.7449 323.69888C144.7449 325.35574 143.40175 326.69888 141.7449 326.69888C140.08804 326.69888 138.7449 325.35574 138.7449 323.69888C138.7449 322.04202 140.08804 320.69888 141.7449 320.69888C143.40175 320.69888 144.7449 322.04202 144.7449 323.69888Z" fill-rule="nonzero"/><path fill="#000000" fill-opacity="0.0" clip-path="url(#id_0)" d="M144.7449 323.69888C144.7449 325.35574 143.40175 326.69888 141.7449 326.69888C140.08804 326.69888 138.7449 325.35574 138.7449 323.69888C138.7449 322.04202 140.08804 320.69888 141.7449 320.69888C143.40175 320.69888 144.7449 322.04202 144.7449 323.69888Z" fill-rule="nonzero"/><path fill="#000000" fill-opacity="0.0" clip-path="url(#id_0)" d="M158.47627 323.69888C158.47627 325.35574 157.13313 326.69888 155.47627 326.69888C153.81943 326.69888 152.47627 325.35574 152.47627 323.69888C152.47627 322.04202 153.81943 320.69888 155.47627 320.69888C157.13313 320.69888 158.47627 322.04202 158.47627 323.69888Z" fill-rule="nonzero"/><path fill="#000000" fill-opacity="0.0" clip-path="url(#id_0)" d="M169.91283 319.32333C169.91283 320.9802 168.56967 322.32333 166.91283 322.32333C165.25597 322.32333 163.91283 320.9802 163.91283 319.32333C163.91283 317.66647 165.25597 316.32333 166.91283 316.32333C168.56967 316.32333 169.91283 317.66647 169.91283 319.32333Z" fill-rule="nonzero"/><path fill="#000000" fill-opacity="0.0" clip-path="url(#id_0)" d="M190.49107 323.69888C190.49107 325.35574 189.14793 326.69888 187.49107 326.69888C185.83423 326.69888 184.49107 325.35574 184.49107 323.69888C184.49107 322.04202 185.83423 320.69888 187.49107 320.69888C189.14793 320.69888 190.49107 322.04202 190.49107 323.69888Z" fill-rule="nonzero"/><path fill="#000000" fill-opacity="0.0" clip-path="url(#id_0)" d="M213.4394 328.94955C213.4394 330.6064 212.09627 331.94955 210.4394 331.94955C208.78256 331.94955 207.4394 330.6064 207.4394 328.94955C207.4394 327.2927 208.78256 325.94955 210.4394 325.94955C212.09627 325.94955 213.4394 327.2927 213.4394 328.94955Z" fill-rule="nonzero"/><path fill="#000000" fill-opacity="0.0" clip-path="url(#id_0)" d="M213.4394 323.69888C213.4394 325.35574 212.09627 326.69888 210.4394 326.69888C208.78256 326.69888 207.4394 325.35574 207.4394 323.69888C207.4394 322.04202 208.78256 320.69888 210.4394 320.69888C212.09627 320.69888 213.4394 322.04202 213.4394 323.69888Z" fill-rule="nonzero"/><path fill="#000000" fill-opacity="0.0" clip-path="url(#id_0)" d="M222.58113 323.69888C222.58113 325.35574 221.23798 326.69888 219.58113 326.69888C217.92427 326.69888 216.58113 325.35574 216.58113 323.69888C216.58113 322.04202 217.92427 320.69888 219.58113 320.69888C221.23798 320.69888 222.58113 322.04202 222.58113 323.69888Z" fill-rule="nonzero"/><path fill="#000000" fill-opacity="0.0" clip-path="url(#id_0)" d="M247.44809 314.94778C247.44809 316.60464 246.10495 317.94778 244.44809 317.94778C242.79123 317.94778 241.44809 316.60464 241.44809 314.94778C241.44809 313.29092 242.79123 311.94778 244.44809 311.94778C246.10495 311.94778 247.44809 313.29092 247.44809 314.94778Z" fill-rule="nonzero"/><path fill="#000000" fill-opacity="0.0" clip-path="url(#id_0)" d="M302.336 320.19846C302.336 321.8553 300.99283 323.19846 299.336 323.19846C297.67914 323.19846 296.336 321.8553 296.336 320.19846C296.336 318.5416 297.67914 317.19846 299.336 317.19846C300.99283 317.19846 302.336 318.5416 302.336 320.19846Z" fill-rule="nonzero"/><path fill="#000000" fill-opacity="0.0" clip-path="url(#id_0)" d="M305.04465 319.32333C305.04465 320.9802 303.7015 322.32333 302.04465 322.32333C300.3878 322.32333 299.04465 320.9802 299.04465 319.32333C299.04465 317.66647 300.3878 316.32333 302.04465 316.32333C303.7015 316.32333 305.04465 317.66647 305.04465 319.32333Z" fill-rule="nonzero"/><path fill="#000000" fill-opacity="0.0" clip-path="url(#id_0)" d="M313.02014 319.32333C313.02014 320.9802 311.67697 322.32333 310.02014 322.32333C308.36328 322.32333 307.02014 320.9802 307.02014 319.32333C307.02014 317.66647 308.36328 316.32333 310.02014 316.32333C311.67697 316.32333 313.02014 317.66647 313.02014 319.32333Z" fill-rule="nonzero"/><path fill="#000000" fill-opacity="0.0" clip-path="url(#id_0)" d="M313.28348 306.19666C313.28348 307.85352 311.94034 309.19666 310.28348 309.19666C308.62662 309.19666 307.28348 307.85352 307.28348 306.19666C307.28348 304.53983 308.62662 303.19666 310.28348 303.19666C311.94034 303.19666 313.28348 304.53983 313.28348 306.19666Z" fill-rule="nonzero"/><path fill="#000000" fill-opacity="0.0" clip-path="url(#id_0)" d="M315.54068 320.19846C315.54068 321.8553 314.19754 323.19846 312.54068 323.19846C310.88382 323.19846 309.54068 321.8553 309.54068 320.19846C309.54068 318.5416 310.88382 317.19846 312.54068 317.19846C314.19754 317.19846 315.54068 318.5416 315.54068 320.19846Z" fill-rule="nonzero"/><path fill="#000000" fill-opacity="0.0" clip-path="url(#id_0)" d="M337.09708 310.57224C337.09708 312.22906 335.75394 313.57224 334.09708 313.57224C332.44022 313.57224 331.09708 312.22906 331.09708 310.57224C331.09708 308.91537 332.44022 307.57224 334.09708 307.57224C335.75394 307.57224 337.09708 308.91537 337.09708 310.57224Z" fill-rule="nonzero"/><path fill="#000000" fill-opacity="0.0" clip-path="url(#id_0)" d="M350.86606 313.19757C350.86606 314.8544 349.52292 316.19757 347.86606 316.19757C346.20923 316.19757 344.86606 314.8544 344.86606 313.19757C344.86606 311.5407 346.20923 310.19757 347.86606 310.19757C349.52292 310.19757 350.86606 311.5407 350.86606 313.19757Z" fill-rule="nonzero"/><path fill="#000000" fill-opacity="0.0" clip-path="url(#id_0)" d="M364.59744 313.19757C364.59744 314.8544 363.2543 316.19757 361.59744 316.19757C359.94058 316.19757 358.59744 314.8544 358.59744 313.19757C358.59744 311.5407 359.94058 310.19757 361.59744 310.19757C363.2543 310.19757 364.59744 311.5407 364.59744 313.19757Z" fill-rule="nonzero"/><path fill="#000000" fill-opacity="0.0" clip-path="url(#id_0)" d="M368.50995 306.19666C368.50995 307.85352 367.1668 309.19666 365.50995 309.19666C363.8531 309.19666 362.50995 307.85352 362.50995 306.19666C362.50995 304.53983 363.8531 303.19666 365.50995 303.19666C367.1668 303.19666 368.50995 304.53983 368.50995 306.19666Z" fill-rule="nonzero"/><path fill="#000000" fill-opacity="0.0" clip-path="url(#id_0)" d="M370.20285 304.44644C370.20285 306.1033 368.8597 307.44644 367.20285 307.44644C365.54602 307.44644 364.20285 306.1033 364.20285 304.44644C364.20285 302.78958 365.54602 301.44644 367.20285 301.44644C368.8597 301.44644 370.20285 302.78958 370.20285 304.44644Z" fill-rule="nonzero"/><path fill="#000000" fill-opacity="0.0" clip-path="url(#id_0)" d="M378.32883 292.1949C378.32883 293.85175 376.9857 295.1949 375.32883 295.1949C373.67197 295.1949 372.32883 293.85175 372.32883 292.1949C372.32883 290.53802 373.67197 289.1949 375.32883 289.1949C376.9857 289.1949 378.32883 290.53802 378.32883 292.1949Z" fill-rule="nonzero"/><path fill="#000000" fill-opacity="0.0" clip-path="url(#id_0)" d="M419.56058 293.07C419.56058 294.72687 418.21744 296.07 416.56058 296.07C414.90372 296.07 413.56058 294.72687 413.56058 293.07C413.56058 291.41315 414.90372 290.07 416.56058 290.07C418.21744 290.07 419.56058 291.41315 419.56058 293.07Z" fill-rule="nonzero"/><path fill="#000000" fill-opacity="0.0" clip-path="url(#id_0)" d="M484.1921 218.68556C484.1921 220.3424 482.84897 221.68556 481.1921 221.68556C479.53528 221.68556 478.1921 220.3424 478.1921 218.68556C478.1921 217.0287 479.53528 215.68556 481.1921 215.68556C482.84897 215.68556 484.1921 217.0287 484.1921 218.68556Z" fill-rule="nonzero"/><path fill="#000000" fill-opacity="0.0" clip-path="url(#id_0)" d="M501.0836 201.18333C501.0836 202.8402 499.74045 204.18333 498.0836 204.18333C496.42676 204.18333 495.0836 202.8402 495.0836 201.18333C495.0836 199.52647 496.42676 198.18333 498.0836 198.18333C499.74045 198.18333 501.0836 199.52647 501.0836 201.18333Z" fill-rule="nonzero"/><path fill="#000000" fill-opacity="0.0" clip-path="url(#id_0)" d="M515.7555 148.67667C515.7555 150.33353 514.41235 151.67667 512.7555 151.67667C511.09863 151.67667 509.7555 150.33353 509.7555 148.67667C509.7555 147.0198 511.09863 145.67667 512.7555 145.67667C514.41235 145.67667 515.7555 147.0198 515.7555 148.67667Z" fill-rule="nonzero"/><path fill="#000000" fill-opacity="0.0" clip-path="url(#id_0)" d="M584.45 69.916664C584.45 71.573524 583.1069 72.916664 581.45 72.916664C579.79315 72.916664 578.45 71.573524 578.45 69.916664C578.45 68.25981 579.79315 66.916664 581.45 66.916664C583.1069 66.916664 584.45 68.25981 584.45 69.916664Z" fill-rule="nonzero"/><path fill="#000000" fill-opacity="0.0" clip-path="url(#id_0)" d="M247.44809 297.44556C247.44809 299.10242 246.10495 300.44556 244.44809 300.44556C242.79123 300.44556 241.44809 299.10242 241.44809 297.44556C241.44809 295.7887 242.79123 294.44556 244.44809 294.44556C246.10495 294.44556 247.44809 295.7887 247.44809 297.44556Z" fill-rule="nonzero"/><path fill="#000000" fill-opacity="0.0" clip-path="url(#id_0)" d="M298.34824 293.07C298.34824 294.72687 297.0051 296.07 295.34824 296.07C293.69138 296.07 292.34824 294.72687 292.34824 293.07C292.34824 291.41315 293.69138 290.07 295.34824 290.07C297.0051 290.07 298.34824 291.41315 298.34824 293.07Z" fill-rule="nonzero"/><path fill="#000000" fill-opacity="0.0" clip-path="url(#id_0)" d="M302.336 288.69446C302.336 290.3513 300.99283 291.69446 299.336 291.69446C297.67914 291.69446 296.336 290.3513 296.336 288.69446C296.336 287.0376 297.67914 285.69446 299.336 285.69446C300.99283 285.69446 302.336 287.0376 302.336 288.69446Z" fill-rule="nonzero"/><path fill="#000000" fill-opacity="0.0" clip-path="url(#id_0)" d="M313.02014 279.94333C313.02014 281.6002 311.67697 282.94333 310.02014 282.94333C308.36328 282.94333 307.02014 281.6002 307.02014 279.94333C307.02014 278.28647 308.36328 276.94333 310.02014 276.94333C311.67697 276.94333 313.02014 278.28647 313.02014 279.94333Z" fill-rule="nonzero"/><path fill="#000000" fill-opacity="0.0" clip-path="url(#id_0)" d="M515.7555 227.43666C515.7555 229.09352 514.41235 230.43666 512.7555 230.43666C511.09863 230.43666 509.7555 229.09352 509.7555 227.43666C509.7555 225.77982 511.09863 224.43666 512.7555 224.43666C514.41235 224.43666 515.7555 225.77982 515.7555 227.43666Z" fill-rule="nonzero"/><path fill="#000000" fill-opacity="0.0" clip-path="url(#id_0)" d="M543.21826 157.42778C543.21826 159.08463 541.8751 160.42778 540.21826 160.42778C538.5614 160.42778 537.21826 159.08463 537.21826 157.42778C537.21826 155.77092 538.5614 154.42778 540.21826 154.42778C541.8751 154.42778 543.21826 155.77092 543.21826 157.42778Z" fill-rule="nonzero"/><path fill="#000000" fill-opacity="0.0" clip-path="url(#id_0)" d="M213.4394 323.69888C213.4394 325.35574 212.09627 326.69888 210.4394 326.69888C208.78256 326.69888 207.4394 325.35574 207.4394 323.69888C207.4394 322.04202 208.78256 320.69888 210.4394 320.69888C212.09627 320.69888 213.4394 322.04202 213.4394 323.69888Z" fill-rule="nonzero"/><path fill="#000000" fill-opacity="0.0" clip-path="url(#id_0)" d="M298.34824 288.69446C298.34824 290.3513 297.0051 291.69446 295.34824 291.69446C293.69138 291.69446 292.34824 290.3513 292.34824 288.69446C292.34824 287.0376 293.69138 285.69446 295.34824 285.69446C297.0051 285.69446 298.34824 287.0376 298.34824 288.69446Z" fill-rule="nonzero"/><path fill="#000000" fill-opacity="0.0" clip-path="url(#id_0)" d="M302.336 288.69446C302.336 290.3513 300.99283 291.69446 299.336 291.69446C297.67914 291.69446 296.336 290.3513 296.336 288.69446C296.336 287.0376 297.67914 285.69446 299.336 285.69446C300.99283 285.69446 302.336 287.0376 302.336 288.69446Z" fill-rule="nonzero"/><path fill="#000000" fill-opacity="0.0" clip-path="url(#id_0)" d="M313.02014 279.94333C313.02014 281.6002 311.67697 282.94333 310.02014 282.94333C308.36328 282.94333 307.02014 281.6002 307.02014 279.94333C307.02014 278.28647 308.36328 276.94333 310.02014 276.94333C311.67697 276.94333 313.02014 278.28647 313.02014 279.94333Z" fill-rule="nonzero"/><path fill="#000000" fill-opacity="0.0" clip-path="url(#id_0)" d="M313.28348 279.94333C313.28348 281.6002 311.94034 282.94333 310.28348 282.94333C308.62662 282.94333 307.28348 281.6002 307.28348 279.94333C307.28348 278.28647 308.62662 276.94333 310.28348 276.94333C311.94034 276.94333 313.28348 278.28647 313.28348 279.94333Z" fill-rule="nonzero"/><path fill="#000000" fill-opacity="0.0" clip-path="url(#id_0)" d="M364.59744 253.69C364.59744 255.34685 363.2543 256.69 361.59744 256.69C359.94058 256.69 358.59744 255.34685 358.59744 253.69C358.59744 252.03314 359.94058 250.69 361.59744 250.69C363.2543 250.69 364.59744 252.03314 364.59744 253.69Z" fill-rule="nonzero"/><path fill="#000000" fill-opacity="0.0" clip-path="url(#id_0)" d="M405.8292 266.81668C405.8292 268.4735 404.48605 269.81668 402.8292 269.81668C401.17236 269.81668 399.8292 268.4735 399.8292 266.81668C399.8292 265.15982 401.17236 263.81668 402.8292 263.81668C404.48605 263.81668 405.8292 265.15982 405.8292 266.81668Z" fill-rule="nonzero"/><path fill="#000000" fill-opacity="0.0" clip-path="url(#id_0)" d="M419.56058 253.69C419.56058 255.34685 418.21744 256.69 416.56058 256.69C414.90372 256.69 413.56058 255.34685 413.56058 253.69C413.56058 252.03314 414.90372 250.69 416.56058 250.69C418.21744 250.69 419.56058 252.03314 419.56058 253.69Z" fill-rule="nonzero"/><path fill="#000000" fill-opacity="0.0" clip-path="url(#id_0)" d="M515.7555 244.93889C515.7555 246.59575 514.41235 247.93889 512.7555 247.93889C511.09863 247.93889 509.7555 246.59575 509.7555 244.93889C509.7555 243.28203 511.09863 241.93889 512.7555 241.93889C514.41235 241.93889 515.7555 243.28203 515.7555 244.93889Z" fill-rule="nonzero"/><path fill="#000000" fill-opacity="0.0" clip-path="url(#id_0)" d="M543.21826 157.42778C543.21826 159.08463 541.8751 160.42778 540.21826 160.42778C538.5614 160.42778 537.21826 159.08463 537.21826 157.42778C537.21826 155.77092 538.5614 154.42778 540.21826 154.42778C541.8751 154.42778 543.21826 155.77092 543.21826 157.42778Z" fill-rule="nonzero"/><path fill="#000000" fill-opacity="0.0" clip-path="url(#id_0)" d="M584.45 157.42778C584.45 159.08463 583.1069 160.42778 581.45 160.42778C579.79315 160.42778 578.45 159.08463 578.45 157.42778C578.45 155.77092 579.79315 154.42778 581.45 154.42778C583.1069 154.42778 584.45 155.77092 584.45 157.42778Z" fill-rule="nonzero"/><path fill="#34a853" clip-path="url(#id_0)" d="M128.01352 279.94333C128.01352 279.94333 128.01352 279.94333 128.01352 279.94333C128.01352 279.94333 128.01352 279.94333 128.01352 279.94333C128.01352 279.94333 128.01352 279.94333 128.01352 279.94333C128.01352 279.94333 128.01352 279.94333 128.01352 279.94333Z" fill-rule="nonzero"/><path fill="#34a853" clip-path="url(#id_0)" d="M128.01352 279.94333C128.01352 279.94333 128.01352 279.94333 128.01352 279.94333C128.01352 279.94333 128.01352 279.94333 128.01352 279.94333C128.01352 279.94333 128.01352 279.94333 128.01352 279.94333C128.01352 279.94333 128.01352 279.94333 128.01352 279.94333Z" fill-rule="nonzero"/><path fill="#34a853" clip-path="url(#id_0)" d="M141.7449 288.69446C141.7449 288.69446 141.7449 288.69446 141.7449 288.69446C141.7449 288.69446 141.7449 288.69446 141.7449 288.69446C141.7449 288.69446 141.7449 288.69446 141.7449 288.69446C141.7449 288.69446 141.7449 288.69446 141.7449 288.69446Z" fill-rule="nonzero"/><path fill="#34a853" clip-path="url(#id_0)" d="M155.47627 297.44556C155.47627 297.44556 155.47627 297.44556 155.47627 297.44556C155.47627 297.44556 155.47627 297.44556 155.47627 297.44556C155.47627 297.44556 155.47627 297.44556 155.47627 297.44556C155.47627 297.44556 155.47627 297.44556 155.47627 297.44556Z" fill-rule="nonzero"/><path fill="#34a853" clip-path="url(#id_0)" d="M210.4394 244.93889C210.4394 244.93889 210.4394 244.93889 210.4394 244.93889C210.4394 244.93889 210.4394 244.93889 210.4394 244.93889C210.4394 244.93889 210.4394 244.93889 210.4394 244.93889C210.4394 244.93889 210.4394 244.93889 210.4394 244.93889Z" fill-rule="nonzero"/><path fill="#34a853" clip-path="url(#id_0)" d="M302.04465 244.93889C302.04465 244.93889 302.04465 244.93889 302.04465 244.93889C302.04465 244.93889 302.04465 244.93889 302.04465 244.93889C302.04465 244.93889 302.04465 244.93889 302.04465 244.93889C302.04465 244.93889 302.04465 244.93889 302.04465 244.93889Z" fill-rule="nonzero"/><path fill="#34a853" clip-path="url(#id_0)" d="M310.28348 288.69446C310.28348 288.69446 310.28348 288.69446 310.28348 288.69446C310.28348 288.69446 310.28348 288.69446 310.28348 288.69446C310.28348 288.69446 310.28348 288.69446 310.28348 288.69446C310.28348 288.69446 310.28348 288.69446 310.28348 288.69446Z" fill-rule="nonzero"/><path fill="#34a853" clip-path="url(#id_0)" d="M347.86606 244.93889C347.86606 244.93889 347.86606 244.93889 347.86606 244.93889C347.86606 244.93889 347.86606 244.93889 347.86606 244.93889C347.86606 244.93889 347.86606 244.93889 347.86606 244.93889C347.86606 244.93889 347.86606 244.93889 347.86606 244.93889Z" fill-rule="nonzero"/><path fill="#34a853" clip-path="url(#id_0)" d="M498.0836 323.69888C498.0836 323.69888 498.0836 323.69888 498.0836 323.69888C498.0836 323.69888 498.0836 323.69888 498.0836 323.69888C498.0836 323.69888 498.0836 323.69888 498.0836 323.69888C498.0836 323.69888 498.0836 323.69888 498.0836 323.69888Z" fill-rule="nonzero"/><path fill="#34a853" clip-path="url(#id_0)" d="M501.73276 332.45C501.73276 332.45 501.73276 332.45 501.73276 332.45C501.73276 332.45 501.73276 332.45 501.73276 332.45C501.73276 332.45 501.73276 332.45 501.73276 332.45C501.73276 332.45 501.73276 332.45 501.73276 332.45Z" fill-rule="nonzero"/><path fill="#000000" d="M33.05 332.21564Q33.05 330.6844 33.3625 329.7625Q33.675 328.825 34.284374 328.325Q34.909374 327.825 35.846874 327.825Q36.534374 327.825 37.05 328.10626Q37.58125 328.3875 37.925 328.91876Q38.26875 329.4344 38.45625 330.1844Q38.64375 330.9344 38.64375 332.21564Q38.64375 333.73126 38.33125 334.65314Q38.034374 335.575 37.409374 336.09064Q36.8 336.59064 35.846874 336.59064Q34.6125 336.59064 33.89375 335.7Q33.05 334.6375 33.05 332.21564ZM34.128124 332.21564Q34.128124 334.325 34.628124 335.02814Q35.128124 335.73126 35.846874 335.73126Q36.58125 335.73126 37.065624 335.02814Q37.565624 334.325 37.565624 332.21564Q37.565624 330.09064 37.065624 329.40314Q36.58125 328.7 35.83125 328.7Q35.1125 328.7 34.675 329.3094Q34.128124 330.09064 34.128124 332.21564Z" fill-rule="nonzero"/><path fill="#000000" d="M30.01875 248.93889L28.971874 248.93889L28.971874 242.22014Q28.58125 242.57951 27.95625 242.95451Q27.346874 243.31389 26.8625 243.48576L26.8625 242.47014Q27.7375 242.04826 28.39375 241.47014Q29.065624 240.87639 29.346874 240.31389L30.01875 240.31389L30.01875 248.93889ZM33.05 244.70451Q33.05 243.17326 33.3625 242.25139Q33.675 241.31389 34.284374 240.81389Q34.909374 240.31389 35.846874 240.31389Q36.534374 240.31389 37.05 240.59514Q37.58125 240.87639 37.925 241.40764Q38.26875 241.92326 38.45625 242.67326Q38.64375 243.42326 38.64375 244.70451Q38.64375 246.22014 38.33125 247.14201Q38.034374 248.06389 37.409374 248.57951Q36.8 249.07951 35.846874 249.07951Q34.6125 249.07951 33.89375 248.18889Q33.05 247.12639 33.05 244.70451ZM34.128124 244.70451Q34.128124 246.81389 34.628124 247.51701Q35.128124 248.22014 35.846874 248.22014Q36.58125 248.22014 37.065624 247.51701Q37.565624 246.81389 37.565624 244.70451Q37.565624 242.57951 37.065624 241.89201Q36.58125 241.18889 35.83125 241.18889Q35.1125 241.18889 34.675 241.79826Q34.128124 242.57951 34.128124 244.70451Z" fill-rule="nonzero"/><path fill="#000000" d="M31.596874 160.41216L31.596874 161.42778L25.909374 161.42778Q25.909374 161.05278 26.034374 160.6934Q26.253124 160.11528 26.721874 159.55278Q27.20625 158.99028 28.1125 158.2559Q29.51875 157.09966 30.003124 156.42778Q30.503124 155.7559 30.503124 155.16216Q30.503124 154.53716 30.05 154.11528Q29.596874 153.67778 28.878124 153.67778Q28.1125 153.67778 27.659374 154.1309Q27.20625 154.58403 27.190624 155.39653L26.1125 155.28716Q26.221874 154.0684 26.940624 153.4434Q27.675 152.80278 28.909374 152.80278Q30.14375 152.80278 30.8625 153.49028Q31.58125 154.17778 31.58125 155.1934Q31.58125 155.70903 31.3625 156.20903Q31.159374 156.6934 30.659374 157.2559Q30.175 157.80278 29.05 158.7559Q28.096874 159.55278 27.815624 159.84966Q27.55 160.1309 27.378124 160.41216L31.596874 160.41216ZM33.05 157.1934Q33.05 155.66216 33.3625 154.74028Q33.675 153.80278 34.284374 153.30278Q34.909374 152.80278 35.846874 152.80278Q36.534374 152.80278 37.05 153.08403Q37.58125 153.36528 37.925 153.89653Q38.26875 154.41216 38.45625 155.16216Q38.64375 155.91216 38.64375 157.1934Q38.64375 158.70903 38.33125 159.6309Q38.034374 160.55278 37.409374 161.0684Q36.8 161.5684 35.846874 161.5684Q34.6125 161.5684 33.89375 160.67778Q33.05 159.61528 33.05 157.1934ZM34.128124 157.1934Q34.128124 159.30278 34.628124 160.0059Q35.128124 160.70903 35.846874 160.70903Q36.58125 160.70903 37.065624 160.0059Q37.565624 159.30278 37.565624 157.1934Q37.565624 155.0684 37.065624 154.3809Q36.58125 153.67778 35.83125 153.67778Q35.1125 153.67778 34.675 154.28716Q34.128124 155.0684 34.128124 157.1934Z" fill-rule="nonzero"/><path fill="#000000" d="M26.05 71.65104L27.1125 71.510414Q27.284374 72.40104 27.721874 72.80729Q28.159374 73.197914 28.784374 73.197914Q29.534374 73.197914 30.05 72.68229Q30.565624 72.166664 30.565624 71.40104Q30.565624 70.68229 30.08125 70.21354Q29.6125 69.729164 28.878124 69.729164Q28.58125 69.729164 28.128124 69.854164L28.253124 68.916664Q28.3625 68.93229 28.425 68.93229Q29.096874 68.93229 29.628124 68.58854Q30.175 68.229164 30.175 67.49479Q30.175 66.916664 29.784374 66.541664Q29.39375 66.15104 28.76875 66.15104Q28.159374 66.15104 27.7375 66.541664Q27.33125 66.93229 27.221874 67.697914L26.159374 67.510414Q26.346874 66.46354 27.034374 65.885414Q27.721874 65.291664 28.7375 65.291664Q29.440624 65.291664 30.034374 65.604164Q30.628124 65.90104 30.940624 66.416664Q31.253124 66.93229 31.253124 67.52604Q31.253124 68.072914 30.95625 68.541664Q30.659374 68.99479 30.08125 69.260414Q30.83125 69.43229 31.253124 69.99479Q31.675 70.541664 31.675 71.385414Q31.675 72.510414 30.846874 73.291664Q30.034374 74.072914 28.784374 74.072914Q27.659374 74.072914 26.909374 73.40104Q26.159374 72.71354 26.05 71.65104ZM33.05 69.68229Q33.05 68.15104 33.3625 67.229164Q33.675 66.291664 34.284374 65.791664Q34.909374 65.291664 35.846874 65.291664Q36.534374 65.291664 37.05 65.572914Q37.58125 65.854164 37.925 66.385414Q38.26875 66.90104 38.45625 67.65104Q38.64375 68.40104 38.64375 69.68229Q38.64375 71.197914 38.33125 72.11979Q38.034374 73.041664 37.409374 73.55729Q36.8 74.05729 35.846874 74.05729Q34.6125 74.05729 33.89375 73.166664Q33.05 72.104164 33.05 69.68229ZM34.128124 69.68229Q34.128124 71.791664 34.628124 72.49479Q35.128124 73.197914 35.846874 73.197914Q36.58125 73.197914 37.065624 72.49479Q37.565624 71.791664 37.565624 69.68229Q37.565624 67.55729 37.065624 66.86979Q36.58125 66.166664 35.83125 66.166664Q35.1125 66.166664 34.675 66.77604Q34.128124 67.55729 34.128124 69.68229Z" fill-rule="nonzero"/><path fill="#000000" d="M122.213646 349.45L121.16677 349.45L121.16677 342.73126Q120.776146 343.09064 120.151146 343.46564Q119.54177 343.825 119.057396 343.9969L119.057396 342.98126Q119.932396 342.5594 120.588646 341.98126Q121.26052 341.3875 121.54177 340.825L122.213646 340.825L122.213646 349.45ZM124.744896 349.59064L127.22927 340.71564L128.07303 340.71564L125.588646 349.59064L124.744896 349.59064ZM132.21365 349.45L131.16678 349.45L131.16678 342.73126Q130.77615 343.09064 130.15115 343.46564Q129.54178 343.825 129.0574 343.9969L129.0574 342.98126Q129.9324 342.5594 130.58865 341.98126Q131.26053 341.3875 131.54178 340.825L132.21365 340.825L132.21365 349.45ZM134.7449 349.59064L137.22928 340.71564L138.07303 340.71564L135.58865 349.59064L134.7449 349.59064ZM142.21365 349.45L141.16678 349.45L141.16678 342.73126Q140.77615 343.09064 140.15115 343.46564Q139.54178 343.825 139.0574 343.9969L139.0574 342.98126Q139.9324 342.5594 140.58865 341.98126Q141.26053 341.3875 141.54178 340.825L142.21365 340.825L142.21365 349.45ZM145.40115 347.46564L146.41678 347.3719Q146.54178 348.09064 146.90115 348.41876Q147.27615 348.73126 147.83865 348.73126Q148.32303 348.73126 148.6824 348.5125Q149.0574 348.27814 149.29178 347.91876Q149.52615 347.54376 149.6824 346.91876Q149.83865 346.27814 149.83865 345.6219Q149.83865 345.54376 149.83865 345.40314Q149.52615 345.90314 148.97928 346.23126Q148.4324 346.54376 147.79178 346.54376Q146.71365 346.54376 145.97928 345.77814Q145.2449 344.9969 145.2449 343.73126Q145.2449 342.41876 146.01053 341.6219Q146.79178 340.825 147.94803 340.825Q148.77615 340.825 149.46365 341.27814Q150.16678 341.73126 150.52615 342.575Q150.88553 343.40314 150.88553 344.98126Q150.88553 346.6219 150.52615 347.60626Q150.1824 348.575 149.46365 349.09064Q148.76053 349.59064 147.82303 349.59064Q146.8074 349.59064 146.16678 349.04376Q145.52615 348.48126 145.40115 347.46564ZM149.71365 343.66876Q149.71365 342.7625 149.22928 342.23126Q148.76053 341.7 148.07303 341.7Q147.3699 341.7 146.83865 342.27814Q146.32303 342.84064 146.32303 343.7625Q146.32303 344.575 146.82303 345.09064Q147.32303 345.60626 148.04178 345.60626Q148.77615 345.60626 149.2449 345.09064Q149.71365 344.575 149.71365 343.66876ZM152.40115 347.46564L153.41678 347.3719Q153.54178 348.09064 153.90115 348.41876Q154.27615 348.73126 154.83865 348.73126Q155.32303 348.73126 155.6824 348.5125Q156.0574 348.27814 156.29178 347.91876Q156.52615 347.54376 156.6824 346.91876Q156.83865 346.27814 156.83865 345.6219Q156.83865 345.54376 156.83865 345.40314Q156.52615 345.90314 155.97928 346.23126Q155.4324 346.54376 154.79178 346.54376Q153.71365 346.54376 152.97928 345.77814Q152.2449 344.9969 152.2449 343.73126Q152.2449 342.41876 153.01053 341.6219Q153.79178 340.825 154.94803 340.825Q155.77615 340.825 156.46365 341.27814Q157.16678 341.73126 157.52615 342.575Q157.88553 343.40314 157.88553 344.98126Q157.88553 346.6219 157.52615 347.60626Q157.1824 348.575 156.46365 349.09064Q155.76053 349.59064 154.82303 349.59064Q153.8074 349.59064 153.16678 349.04376Q152.52615 348.48126 152.40115 347.46564ZM156.71365 343.66876Q156.71365 342.7625 156.22928 342.23126Q155.76053 341.7 155.07303 341.7Q154.3699 341.7 153.83865 342.27814Q153.32303 342.84064 153.32303 343.7625Q153.32303 344.575 153.82303 345.09064Q154.32303 345.60626 155.04178 345.60626Q155.77615 345.60626 156.2449 345.09064Q156.71365 344.575 156.71365 343.66876ZM159.2449 345.21564Q159.2449 343.6844 159.5574 342.7625Q159.8699 341.825 160.47928 341.325Q161.10428 340.825 162.04178 340.825Q162.72928 340.825 163.2449 341.10626Q163.77615 341.3875 164.1199 341.91876Q164.46365 342.4344 164.65115 343.1844Q164.83865 343.9344 164.83865 345.21564Q164.83865 346.73126 164.52615 347.65314Q164.22928 348.575 163.60428 349.09064Q162.9949 349.59064 162.04178 349.59064Q160.8074 349.59064 160.08865 348.7Q159.2449 347.6375 159.2449 345.21564ZM160.32303 345.21564Q160.32303 347.325 160.82303 348.02814Q161.32303 348.73126 162.04178 348.73126Q162.77615 348.73126 163.26053 348.02814Q163.76053 347.325 163.76053 345.21564Q163.76053 343.09064 163.26053 342.40314Q162.77615 341.7 162.02615 341.7Q161.3074 341.7 160.8699 342.3094Q160.32303 343.09064 160.32303 345.21564Z" fill-rule="nonzero"/><path fill="#000000" d="M259.60266 349.45L258.5558 349.45L258.5558 342.73126Q258.16516 343.09064 257.54016 343.46564Q256.9308 343.825 256.4464 343.9969L256.4464 342.98126Q257.3214 342.5594 257.97766 341.98126Q258.64954 341.3875 258.9308 340.825L259.60266 340.825L259.60266 349.45ZM262.1339 349.59064L264.6183 340.71564L265.46204 340.71564L262.97766 349.59064L262.1339 349.59064ZM269.60266 349.45L268.5558 349.45L268.5558 342.73126Q268.16516 343.09064 267.54016 343.46564Q266.9308 343.825 266.4464 343.9969L266.4464 342.98126Q267.3214 342.5594 267.97766 341.98126Q268.64954 341.3875 268.9308 340.825L269.60266 340.825L269.60266 349.45ZM272.1339 349.59064L274.6183 340.71564L275.46204 340.71564L272.97766 349.59064L272.1339 349.59064ZM281.1808 348.4344L281.1808 349.45L275.4933 349.45Q275.4933 349.075 275.6183 348.71564Q275.83704 348.1375 276.3058 347.575Q276.79016 347.0125 277.6964 346.27814Q279.10266 345.1219 279.58704 344.45Q280.08704 343.77814 280.08704 343.1844Q280.08704 342.5594 279.6339 342.1375Q279.1808 341.7 278.46204 341.7Q277.6964 341.7 277.2433 342.15314Q276.79016 342.60626 276.77454 343.41876L275.6964 343.3094Q275.8058 342.09064 276.52454 341.46564Q277.2589 340.825 278.4933 340.825Q279.72766 340.825 280.4464 341.5125Q281.16516 342.2 281.16516 343.21564Q281.16516 343.73126 280.9464 344.23126Q280.7433 344.71564 280.2433 345.27814Q279.7589 345.825 278.6339 346.77814Q277.6808 347.575 277.39954 347.8719Q277.1339 348.15314 276.96204 348.4344L281.1808 348.4344ZM282.6339 345.21564Q282.6339 343.6844 282.9464 342.7625Q283.2589 341.825 283.8683 341.325Q284.4933 340.825 285.4308 340.825Q286.1183 340.825 286.6339 341.10626Q287.16516 341.3875 287.5089 341.91876Q287.85266 342.4344 288.04016 343.1844Q288.22766 343.9344 288.22766 345.21564Q288.22766 346.73126 287.91516 347.65314Q287.6183 348.575 286.9933 349.09064Q286.3839 349.59064 285.4308 349.59064Q284.1964 349.59064 283.47766 348.7Q282.6339 347.6375 282.6339 345.21564ZM283.71204 345.21564Q283.71204 347.325 284.21204 348.02814Q284.71204 348.73126 285.4308 348.73126Q286.16516 348.73126 286.64954 348.02814Q287.14954 347.325 287.14954 345.21564Q287.14954 343.09064 286.64954 342.40314Q286.16516 341.7 285.41516 341.7Q284.6964 341.7 284.2589 342.3094Q283.71204 343.09064 283.71204 345.21564ZM289.6339 345.21564Q289.6339 343.6844 289.9464 342.7625Q290.2589 341.825 290.8683 341.325Q291.4933 340.825 292.4308 340.825Q293.1183 340.825 293.6339 341.10626Q294.16516 341.3875 294.5089 341.91876Q294.85266 342.4344 295.04016 343.1844Q295.22766 343.9344 295.22766 345.21564Q295.22766 346.73126 294.91516 347.65314Q294.6183 348.575 293.9933 349.09064Q293.3839 349.59064 292.4308 349.59064Q291.1964 349.59064 290.47766 348.7Q289.6339 347.6375 289.6339 345.21564ZM290.71204 345.21564Q290.71204 347.325 291.21204 348.02814Q291.71204 348.73126 292.4308 348.73126Q293.16516 348.73126 293.64954 348.02814Q294.14954 347.325 294.14954 345.21564Q294.14954 343.09064 293.64954 342.40314Q293.16516 341.7 292.41516 341.7Q291.6964 341.7 291.2589 342.3094Q290.71204 343.09064 290.71204 345.21564ZM296.6339 345.21564Q296.6339 343.6844 296.9464 342.7625Q297.2589 341.825 297.8683 341.325Q298.4933 340.825 299.4308 340.825Q300.1183 340.825 300.6339 341.10626Q301.16516 341.3875 301.5089 341.91876Q301.85266 342.4344 302.04016 343.1844Q302.22766 343.9344 302.22766 345.21564Q302.22766 346.73126 301.91516 347.65314Q301.6183 348.575 300.9933 349.09064Q300.3839 349.59064 299.4308 349.59064Q298.1964 349.59064 297.47766 348.7Q296.6339 347.6375 296.6339 345.21564ZM297.71204 345.21564Q297.71204 347.325 298.21204 348.02814Q298.71204 348.73126 299.4308 348.73126Q300.16516 348.73126 300.64954 348.02814Q301.14954 347.325 301.14954 345.21564Q301.14954 343.09064 300.64954 342.40314Q300.16516 341.7 299.41516 341.7Q298.6964 341.7 298.2589 342.3094Q297.71204 343.09064 297.71204 345.21564Z" fill-rule="nonzero"/><path fill="#000000" d="M397.02933 349.45L395.98245 349.45L395.98245 342.73126Q395.59183 343.09064 394.96683 343.46564Q394.35745 343.825 393.87308 343.9969L393.87308 342.98126Q394.74808 342.5594 395.40433 341.98126Q396.0762 341.3875 396.35745 340.825L397.02933 340.825L397.02933 349.45ZM399.56058 349.59064L402.04495 340.71564L402.8887 340.71564L400.40433 349.59064L399.56058 349.59064ZM407.02933 349.45L405.98245 349.45L405.98245 342.73126Q405.59183 343.09064 404.96683 343.46564Q404.35745 343.825 403.87308 343.9969L403.87308 342.98126Q404.74808 342.5594 405.40433 341.98126Q406.0762 341.3875 406.35745 340.825L407.02933 340.825L407.02933 349.45ZM409.56058 349.59064L412.04495 340.71564L412.8887 340.71564L410.40433 349.59064L409.56058 349.59064ZM418.60745 348.4344L418.60745 349.45L412.91995 349.45Q412.91995 349.075 413.04495 348.71564Q413.2637 348.1375 413.73245 347.575Q414.21683 347.0125 415.12308 346.27814Q416.52933 345.1219 417.0137 344.45Q417.5137 343.77814 417.5137 343.1844Q417.5137 342.5594 417.06058 342.1375Q416.60745 341.7 415.8887 341.7Q415.12308 341.7 414.66995 342.15314Q414.21683 342.60626 414.2012 343.41876L413.12308 343.3094Q413.23245 342.09064 413.9512 341.46564Q414.68558 340.825 415.91995 340.825Q417.15433 340.825 417.87308 341.5125Q418.59183 342.2 418.59183 343.21564Q418.59183 343.73126 418.37308 344.23126Q418.16995 344.71564 417.66995 345.27814Q417.18558 345.825 416.06058 346.77814Q415.10745 347.575 414.8262 347.8719Q414.56058 348.15314 414.3887 348.4344L418.60745 348.4344ZM420.06058 345.21564Q420.06058 343.6844 420.37308 342.7625Q420.68558 341.825 421.29495 341.325Q421.91995 340.825 422.85745 340.825Q423.54495 340.825 424.06058 341.10626Q424.59183 341.3875 424.93558 341.91876Q425.27933 342.4344 425.46683 343.1844Q425.65433 343.9344 425.65433 345.21564Q425.65433 346.73126 425.34183 347.65314Q425.04495 348.575 424.41995 349.09064Q423.81058 349.59064 422.85745 349.59064Q421.62308 349.59064 420.90433 348.7Q420.06058 347.6375 420.06058 345.21564ZM421.1387 345.21564Q421.1387 347.325 421.6387 348.02814Q422.1387 348.73126 422.85745 348.73126Q423.59183 348.73126 424.0762 348.02814Q424.5762 347.325 424.5762 345.21564Q424.5762 343.09064 424.0762 342.40314Q423.59183 341.7 422.84183 341.7Q422.12308 341.7 421.68558 342.3094Q421.1387 343.09064 421.1387 345.21564ZM431.02933 349.45L429.98245 349.45L429.98245 342.73126Q429.59183 343.09064 428.96683 343.46564Q428.35745 343.825 427.87308 343.9969L427.87308 342.98126Q428.74808 342.5594 429.40433 341.98126Q430.0762 341.3875 430.35745 340.825L431.02933 340.825L431.02933 349.45ZM434.06058 345.21564Q434.06058 343.6844 434.37308 342.7625Q434.68558 341.825 435.29495 341.325Q435.91995 340.825 436.85745 340.825Q437.54495 340.825 438.06058 341.10626Q438.59183 341.3875 438.93558 341.91876Q439.27933 342.4344 439.46683 343.1844Q439.65433 343.9344 439.65433 345.21564Q439.65433 346.73126 439.34183 347.65314Q439.04495 348.575 438.41995 349.09064Q437.81058 349.59064 436.85745 349.59064Q435.62308 349.59064 434.90433 348.7Q434.06058 347.6375 434.06058 345.21564ZM435.1387 345.21564Q435.1387 347.325 435.6387 348.02814Q436.1387 348.73126 436.85745 348.73126Q437.59183 348.73126 438.0762 348.02814Q438.5762 347.325 438.5762 345.21564Q438.5762 343.09064 438.0762 342.40314Q437.59183 341.7 436.84183 341.7Q436.12308 341.7 435.68558 342.3094Q435.1387 343.09064 435.1387 345.21564Z" fill-rule="nonzero"/><path fill="#000000" d="M534.4184 349.45L533.3715 349.45L533.3715 342.73126Q532.9809 343.09064 532.3559 343.46564Q531.7465 343.825 531.26215 343.9969L531.26215 342.98126Q532.13715 342.5594 532.7934 341.98126Q533.4653 341.3875 533.7465 340.825L534.4184 340.825L534.4184 349.45ZM536.94965 349.59064L539.434 340.71564L540.2778 340.71564L537.7934 349.59064L536.94965 349.59064ZM544.4184 349.45L543.3715 349.45L543.3715 342.73126Q542.9809 343.09064 542.3559 343.46564Q541.7465 343.825 541.26215 343.9969L541.26215 342.98126Q542.13715 342.5594 542.7934 341.98126Q543.4653 341.3875 543.7465 340.825L544.4184 340.825L544.4184 349.45ZM546.94965 349.59064L549.434 340.71564L550.2778 340.71564L547.7934 349.59064L546.94965 349.59064ZM555.9965 348.4344L555.9965 349.45L550.309 349.45Q550.309 349.075 550.434 348.71564Q550.6528 348.1375 551.1215 347.575Q551.6059 347.0125 552.51215 346.27814Q553.9184 345.1219 554.4028 344.45Q554.9028 343.77814 554.9028 343.1844Q554.9028 342.5594 554.44965 342.1375Q553.9965 341.7 553.2778 341.7Q552.51215 341.7 552.059 342.15314Q551.6059 342.60626 551.5903 343.41876L550.51215 343.3094Q550.6215 342.09064 551.3403 341.46564Q552.07465 340.825 553.309 340.825Q554.5434 340.825 555.26215 341.5125Q555.9809 342.2 555.9809 343.21564Q555.9809 343.73126 555.76215 344.23126Q555.559 344.71564 555.059 345.27814Q554.57465 345.825 553.44965 346.77814Q552.4965 347.575 552.2153 347.8719Q551.94965 348.15314 551.7778 348.4344L555.9965 348.4344ZM557.44965 345.21564Q557.44965 343.6844 557.76215 342.7625Q558.07465 341.825 558.684 341.325Q559.309 340.825 560.2465 340.825Q560.934 340.825 561.44965 341.10626Q561.9809 341.3875 562.32465 341.91876Q562.6684 342.4344 562.8559 343.1844Q563.0434 343.9344 563.0434 345.21564Q563.0434 346.73126 562.7309 347.65314Q562.434 348.575 561.809 349.09064Q561.19965 349.59064 560.2465 349.59064Q559.01215 349.59064 558.2934 348.7Q557.44965 347.6375 557.44965 345.21564ZM558.5278 345.21564Q558.5278 347.325 559.0278 348.02814Q559.5278 348.73126 560.2465 348.73126Q560.9809 348.73126 561.4653 348.02814Q561.9653 347.325 561.9653 345.21564Q561.9653 343.09064 561.4653 342.40314Q560.9809 341.7 560.2309 341.7Q559.51215 341.7 559.07465 342.3094Q558.5278 343.09064 558.5278 345.21564ZM569.9965 348.4344L569.9965 349.45L564.309 349.45Q564.309 349.075 564.434 348.71564Q564.6528 348.1375 565.1215 347.575Q565.6059 347.0125 566.51215 346.27814Q567.9184 345.1219 568.4028 344.45Q568.9028 343.77814 568.9028 343.1844Q568.9028 342.5594 568.44965 342.1375Q567.9965 341.7 567.2778 341.7Q566.51215 341.7 566.059 342.15314Q565.6059 342.60626 565.5903 343.41876L564.51215 343.3094Q564.6215 342.09064 565.3403 341.46564Q566.07465 340.825 567.309 340.825Q568.5434 340.825 569.26215 341.5125Q569.9809 342.2 569.9809 343.21564Q569.9809 343.73126 569.76215 344.23126Q569.559 344.71564 569.059 345.27814Q568.57465 345.825 567.44965 346.77814Q566.4965 347.575 566.2153 347.8719Q565.94965 348.15314 565.7778 348.4344L569.9965 348.4344ZM571.44965 345.21564Q571.44965 343.6844 571.76215 342.7625Q572.07465 341.825 572.684 341.325Q573.309 340.825 574.2465 340.825Q574.934 340.825 575.44965 341.10626Q575.9809 341.3875 576.32465 341.91876Q576.6684 342.4344 576.8559 343.1844Q577.0434 343.9344 577.0434 345.21564Q577.0434 346.73126 576.7309 347.65314Q576.434 348.575 575.809 349.09064Q575.19965 349.59064 574.2465 349.59064Q573.01215 349.59064 572.2934 348.7Q571.44965 347.6375 571.44965 345.21564ZM572.5278 345.21564Q572.5278 347.325 573.0278 348.02814Q573.5278 348.73126 574.2465 348.73126Q574.9809 348.73126 575.4653 348.02814Q575.9653 347.325 575.9653 345.21564Q575.9653 343.09064 575.4653 342.40314Q574.9809 341.7 574.2309 341.7Q573.51215 341.7 573.07465 342.3094Q572.5278 343.09064 572.5278 345.21564Z" fill-rule="nonzero"/><path stroke="#4285f4" stroke-width="4.0" stroke-linecap="butt" d="M105.0 25.55L117.0 25.55" fill-rule="nonzero"/><path fill="#1a1a1a" d="M129.85938 28.784374Q129.26562 29.284374 128.71875 29.4875Q128.1875 29.690624 127.5625 29.690624Q126.53125 29.690624 125.984375 29.190624Q125.4375 28.690624 125.4375 27.909374Q125.4375 27.45625 125.640625 27.08125Q125.84375 26.690624 126.1875 26.471874Q126.53125 26.2375 126.953125 26.128124Q127.25 26.034374 127.890625 25.95625Q129.15625 25.815624 129.76562 25.596874Q129.76562 25.378124 129.76562 25.33125Q129.76562 24.675 129.46875 24.409374Q129.0625 24.065624 128.26562 24.065624Q127.53125 24.065624 127.171875 24.33125Q126.8125 24.58125 126.640625 25.2375L125.609375 25.096874Q125.75 24.440624 126.078125 24.034374Q126.40625 23.628124 127.015625 23.409374Q127.625 23.190624 128.42188 23.190624Q129.21875 23.190624 129.71875 23.378124Q130.21875 23.565624 130.45312 23.846874Q130.6875 24.128124 130.78125 24.565624Q130.82812 24.83125 130.82812 25.534374L130.82812 26.940624Q130.82812 28.409374 130.89062 28.8Q130.96875 29.190624 131.17188 29.55L130.0625 29.55Q129.90625 29.221874 129.85938 28.784374ZM129.76562 26.425Q129.1875 26.659374 128.04688 26.83125Q127.390625 26.925 127.125 27.05Q126.859375 27.159374 126.703125 27.378124Q126.5625 27.596874 126.5625 27.878124Q126.5625 28.3 126.875 28.58125Q127.203125 28.8625 127.8125 28.8625Q128.42188 28.8625 128.89062 28.596874Q129.375 28.33125 129.59375 27.8625Q129.76562 27.503124 129.76562 26.815624L129.76562 26.425ZM132.375 27.690624L133.40625 27.534374Q133.5 28.159374 133.89062 28.4875Q134.29688 28.815624 135.03125 28.815624Q135.75 28.815624 136.09375 28.534374Q136.45312 28.2375 136.45312 27.83125Q136.45312 27.471874 136.14062 27.26875Q135.92188 27.128124 135.0625 26.909374Q133.90625 26.6125 133.45312 26.409374Q133.01562 26.190624 132.78125 25.815624Q132.54688 25.440624 132.54688 24.971874Q132.54688 24.565624 132.73438 24.20625Q132.92188 23.846874 133.25 23.6125Q133.5 23.440624 133.92188 23.315624Q134.34375 23.190624 134.84375 23.190624Q135.5625 23.190624 136.10938 23.409374Q136.67188 23.6125 136.9375 23.971874Q137.20312 24.33125 137.29688 24.925L136.26562 25.065624Q136.20312 24.596874 135.85938 24.33125Q135.53125 24.05 134.90625 24.05Q134.1875 24.05 133.875 24.3Q133.5625 24.534374 133.5625 24.8625Q133.5625 25.065624 133.6875 25.221874Q133.82812 25.39375 134.09375 25.503124Q134.25 25.565624 135.03125 25.76875Q136.15625 26.08125 136.59375 26.26875Q137.03125 26.45625 137.28125 26.815624Q137.53125 27.175 137.53125 27.721874Q137.53125 28.253124 137.21875 28.721874Q136.92188 29.175 136.34375 29.440624Q135.76562 29.690624 135.03125 29.690624Q133.8125 29.690624 133.17188 29.190624Q132.54688 28.675 132.375 27.690624ZM139.375 27.690624L140.40625 27.534374Q140.5 28.159374 140.89062 28.4875Q141.29688 28.815624 142.03125 28.815624Q142.75 28.815624 143.09375 28.534374Q143.45312 28.2375 143.45312 27.83125Q143.45312 27.471874 143.14062 27.26875Q142.92188 27.128124 142.0625 26.909374Q140.90625 26.6125 140.45312 26.409374Q140.01562 26.190624 139.78125 25.815624Q139.54688 25.440624 139.54688 24.971874Q139.54688 24.565624 139.73438 24.20625Q139.92188 23.846874 140.25 23.6125Q140.5 23.440624 140.92188 23.315624Q141.34375 23.190624 141.84375 23.190624Q142.5625 23.190624 143.10938 23.409374Q143.67188 23.6125 143.9375 23.971874Q144.20312 24.33125 144.29688 24.925L143.26562 25.065624Q143.20312 24.596874 142.85938 24.33125Q142.53125 24.05 141.90625 24.05Q141.1875 24.05 140.875 24.3Q140.5625 24.534374 140.5625 24.8625Q140.5625 25.065624 140.6875 25.221874Q140.82812 25.39375 141.09375 25.503124Q141.25 25.565624 142.03125 25.76875Q143.15625 26.08125 143.59375 26.26875Q144.03125 26.45625 144.28125 26.815624Q144.53125 27.175 144.53125 27.721874Q144.53125 28.253124 144.21875 28.721874Q143.92188 29.175 143.34375 29.440624Q142.76562 29.690624 142.03125 29.690624Q140.8125 29.690624 140.17188 29.190624Q139.54688 28.675 139.375 27.690624ZM151.04688 27.55L152.14062 27.675Q151.89062 28.628124 151.1875 29.159374Q150.48438 29.690624 149.40625 29.690624Q148.04688 29.690624 147.23438 28.846874Q146.4375 28.003124 146.4375 26.4875Q146.4375 24.925 147.25 24.065624Q148.0625 23.190624 149.34375 23.190624Q150.59375 23.190624 151.375 24.034374Q152.17188 24.878124 152.17188 26.425Q152.17188 26.51875 152.17188 26.70625L147.53125 26.70625Q147.59375 27.7375 148.10938 28.284374Q148.625 28.815624 149.40625 28.815624Q149.98438 28.815624 150.39062 28.51875Q150.8125 28.20625 151.04688 27.55ZM147.59375 25.846874L151.0625 25.846874Q151.0 25.05 150.67188 24.659374Q150.15625 24.05 149.35938 24.05Q148.625 24.05 148.125 24.534374Q147.64062 25.01875 147.59375 25.846874ZM153.78125 29.55L153.78125 23.33125L154.73438 23.33125L154.73438 24.26875Q155.09375 23.6125 155.39062 23.409374Q155.70312 23.190624 156.07812 23.190624Q156.60938 23.190624 157.15625 23.51875L156.79688 24.503124Q156.40625 24.26875 156.03125 24.26875Q155.67188 24.26875 155.39062 24.4875Q155.125 24.690624 155.01562 25.065624Q154.82812 25.628124 154.82812 26.284374L154.82812 29.55L153.78125 29.55ZM160.09375 28.6125L160.25 29.534374Q159.79688 29.628124 159.45312 29.628124Q158.875 29.628124 158.5625 29.45625Q158.25 29.26875 158.10938 28.971874Q157.98438 28.675 157.98438 27.721874L157.98438 24.14375L157.21875 24.14375L157.21875 23.33125L157.98438 23.33125L157.98438 21.784374L159.03125 21.159374L159.03125 23.33125L160.09375 23.33125L160.09375 24.14375L159.03125 24.14375L159.03125 27.784374Q159.03125 28.2375 159.07812 28.3625Q159.14062 28.4875 159.26562 28.565624Q159.39062 28.64375 159.625 28.64375Q159.8125 28.64375 160.09375 28.6125ZM160.79688 22.175L160.79688 20.95625L161.85938 20.95625L161.85938 22.175L160.79688 22.175ZM160.79688 29.55L160.79688 23.33125L161.85938 23.33125L161.85938 29.55L160.79688 29.55ZM163.40625 26.440624Q163.40625 24.70625 164.35938 23.878124Q165.15625 23.190624 166.3125 23.190624Q167.59375 23.190624 168.40625 24.034374Q169.23438 24.8625 169.23438 26.346874Q169.23438 27.55 168.875 28.2375Q168.51562 28.925 167.8125 29.315624Q167.125 29.690624 166.3125 29.690624Q165.01562 29.690624 164.20312 28.8625Q163.40625 28.01875 163.40625 26.440624ZM164.48438 26.440624Q164.48438 27.628124 165.0 28.221874Q165.53125 28.815624 166.3125 28.815624Q167.10938 28.815624 167.625 28.221874Q168.14062 27.628124 168.14062 26.409374Q168.14062 25.253124 167.60938 24.659374Q167.09375 24.065624 166.3125 24.065624Q165.53125 24.065624 165.0 24.659374Q164.48438 25.2375 164.48438 26.440624ZM170.79688 29.55L170.79688 23.33125L171.73438 23.33125L171.73438 24.20625Q172.42188 23.190624 173.71875 23.190624Q174.28125 23.190624 174.75 23.39375Q175.23438 23.596874 175.46875 23.925Q175.70312 24.253124 175.79688 24.690624Q175.84375 24.9875 175.84375 25.721874L175.84375 29.55L174.79688 29.55L174.79688 25.76875Q174.79688 25.1125 174.67188 24.8Q174.54688 24.4875 174.23438 24.3Q173.92188 24.096874 173.5 24.096874Q172.82812 24.096874 172.32812 24.534374Q171.84375 24.95625 171.84375 26.14375L171.84375 29.55L170.79688 29.55ZM177.375 27.690624L178.40625 27.534374Q178.5 28.159374 178.89062 28.4875Q179.29688 28.815624 180.03125 28.815624Q180.75 28.815624 181.09375 28.534374Q181.45312 28.2375 181.45312 27.83125Q181.45312 27.471874 181.14062 27.26875Q180.92188 27.128124 180.0625 26.909374Q178.90625 26.6125 178.45312 26.409374Q178.01562 26.190624 177.78125 25.815624Q177.54688 25.440624 177.54688 24.971874Q177.54688 24.565624 177.73438 24.20625Q177.92188 23.846874 178.25 23.6125Q178.5 23.440624 178.92188 23.315624Q179.34375 23.190624 179.84375 23.190624Q180.5625 23.190624 181.10938 23.409374Q181.67188 23.6125 181.9375 23.971874Q182.20312 24.33125 182.29688 24.925L181.26562 25.065624Q181.20312 24.596874 180.85938 24.33125Q180.53125 24.05 179.90625 24.05Q179.1875 24.05 178.875 24.3Q178.5625 24.534374 178.5625 24.8625Q178.5625 25.065624 178.6875 25.221874Q178.82812 25.39375 179.09375 25.503124Q179.25 25.565624 180.03125 25.76875Q181.15625 26.08125 181.59375 26.26875Q182.03125 26.45625 182.28125 26.815624Q182.53125 27.175 182.53125 27.721874Q182.53125 28.253124 182.21875 28.721874Q181.92188 29.175 181.34375 29.440624Q180.76562 29.690624 180.03125 29.690624Q178.8125 29.690624 178.17188 29.190624Q177.54688 28.675 177.375 27.690624ZM189.8125 32.08125Q188.9375 30.971874 188.32812 29.503124Q187.73438 28.01875 187.73438 26.440624Q187.73438 25.05 188.17188 23.76875Q188.70312 22.284374 189.8125 20.815624L190.5625 20.815624Q189.85938 22.034374 189.625 22.55Q189.26562 23.3625 189.0625 24.2375Q188.8125 25.33125 188.8125 26.440624Q188.8125 29.26875 190.5625 32.08125L189.8125 32.08125ZM191.79688 22.175L191.79688 20.95625L192.85938 20.95625L192.85938 22.175L191.79688 22.175ZM191.79688 29.55L191.79688 23.33125L192.85938 23.33125L192.85938 29.55L191.79688 29.55ZM194.79688 29.55L194.79688 23.33125L195.73438 23.33125L195.73438 24.20625Q196.42188 23.190624 197.71875 23.190624Q198.28125 23.190624 198.75 23.39375Q199.23438 23.596874 199.46875 23.925Q199.70312 24.253124 199.79688 24.690624Q199.84375 24.9875 199.84375 25.721874L199.84375 29.55L198.79688 29.55L198.79688 25.76875Q198.79688 25.1125 198.67188 24.8Q198.54688 24.4875 198.23438 24.3Q197.92188 24.096874 197.5 24.096874Q196.82812 24.096874 196.32812 24.534374Q195.84375 24.95625 195.84375 26.14375L195.84375 29.55L194.79688 29.55ZM204.89062 29.55L204.89062 20.95625L206.60938 20.95625L208.64062 27.034374Q208.92188 27.89375 209.04688 28.315624Q209.1875 27.846874 209.5 26.940624L211.5625 20.95625L213.09375 20.95625L213.09375 29.55L212.0 29.55L212.0 22.3625L209.5 29.55L208.46875 29.55L205.98438 22.2375L205.98438 29.55L204.89062 29.55ZM214.48438 32.08125L213.73438 32.08125Q215.48438 29.26875 215.48438 26.440624Q215.48438 25.346874 215.23438 24.253124Q215.03125 23.378124 214.67188 22.565624Q214.4375 22.05 213.73438 20.815624L214.48438 20.815624Q215.57812 22.284374 216.10938 23.76875Q216.5625 25.05 216.5625 26.440624Q216.5625 28.01875 215.95312 29.503124Q215.34375 30.971874 214.48438 32.08125Z" fill-rule="nonzero"/><path stroke="#ea4335" stroke-width="4.0" stroke-linecap="butt" d="M233.0 25.55L245.0 25.55" fill-rule="nonzero"/><path fill="#1a1a1a" d="M257.85938 27.26875L258.89062 27.409374Q258.71875 28.471874 258.01562 29.08125Q257.3125 29.690624 256.29688 29.690624Q255.01562 29.690624 254.23438 28.8625Q253.46875 28.01875 253.46875 26.45625Q253.46875 25.45625 253.79688 24.70625Q254.14062 23.940624 254.8125 23.565624Q255.5 23.190624 256.3125 23.190624Q257.3125 23.190624 257.95312 23.70625Q258.60938 24.20625 258.79688 25.159374L257.76562 25.315624Q257.625 24.690624 257.25 24.378124Q256.875 24.05 256.34375 24.05Q255.54688 24.05 255.04688 24.628124Q254.54688 25.190624 254.54688 26.425Q254.54688 27.690624 255.03125 28.253124Q255.51562 28.815624 256.28125 28.815624Q256.90625 28.815624 257.3125 28.440624Q257.73438 28.065624 257.85938 27.26875ZM259.40625 26.440624Q259.40625 24.70625 260.35938 23.878124Q261.15625 23.190624 262.3125 23.190624Q263.59375 23.190624 264.40625 24.034374Q265.23438 24.8625 265.23438 26.346874Q265.23438 27.55 264.875 28.2375Q264.51562 28.925 263.8125 29.315624Q263.125 29.690624 262.3125 29.690624Q261.01562 29.690624 260.20312 28.8625Q259.40625 28.01875 259.40625 26.440624ZM260.48438 26.440624Q260.48438 27.628124 261.0 28.221874Q261.53125 28.815624 262.3125 28.815624Q263.10938 28.815624 263.625 28.221874Q264.14062 27.628124 264.14062 26.409374Q264.14062 25.253124 263.60938 24.659374Q263.09375 24.065624 262.3125 24.065624Q261.53125 24.065624 261.0 24.659374Q260.48438 25.2375 260.48438 26.440624ZM266.375 27.690624L267.40625 27.534374Q267.5 28.159374 267.89062 28.4875Q268.29688 28.815624 269.03125 28.815624Q269.75 28.815624 270.09375 28.534374Q270.45312 28.2375 270.45312 27.83125Q270.45312 27.471874 270.14062 27.26875Q269.92188 27.128124 269.0625 26.909374Q267.90625 26.6125 267.45312 26.409374Q267.01562 26.190624 266.78125 25.815624Q266.54688 25.440624 266.54688 24.971874Q266.54688 24.565624 266.73438 24.20625Q266.92188 23.846874 267.25 23.6125Q267.5 23.440624 267.92188 23.315624Q268.34375 23.190624 268.84375 23.190624Q269.5625 23.190624 270.10938 23.409374Q270.67188 23.6125 270.9375 23.971874Q271.20312 24.33125 271.29688 24.925L270.26562 25.065624Q270.20312 24.596874 269.85938 24.33125Q269.53125 24.05 268.90625 24.05Q268.1875 24.05 267.875 24.3Q267.5625 24.534374 267.5625 24.8625Q267.5625 25.065624 267.6875 25.221874Q267.82812 25.39375 268.09375 25.503124Q268.25 25.565624 269.03125 25.76875Q270.15625 26.08125 270.59375 26.26875Q271.03125 26.45625 271.28125 26.815624Q271.53125 27.175 271.53125 27.721874Q271.53125 28.253124 271.21875 28.721874Q270.92188 29.175 270.34375 29.440624Q269.76562 29.690624 269.03125 29.690624Q267.8125 29.690624 267.17188 29.190624Q266.54688 28.675 266.375 27.690624ZM276.09375 28.6125L276.25 29.534374Q275.79688 29.628124 275.45312 29.628124Q274.875 29.628124 274.5625 29.45625Q274.25 29.26875 274.10938 28.971874Q273.98438 28.675 273.98438 27.721874L273.98438 24.14375L273.21875 24.14375L273.21875 23.33125L273.98438 23.33125L273.98438 21.784374L275.03125 21.159374L275.03125 23.33125L276.09375 23.33125L276.09375 24.14375L275.03125 24.14375L275.03125 27.784374Q275.03125 28.2375 275.07812 28.3625Q275.14062 28.4875 275.26562 28.565624Q275.39062 28.64375 275.625 28.64375Q275.8125 28.64375 276.09375 28.6125ZM281.8125 32.08125Q280.9375 30.971874 280.32812 29.503124Q279.73438 28.01875 279.73438 26.440624Q279.73438 25.05 280.17188 23.76875Q280.70312 22.284374 281.8125 20.815624L282.5625 20.815624Q281.85938 22.034374 281.625 22.55Q281.26562 23.3625 281.0625 24.2375Q280.8125 25.33125 280.8125 26.440624Q280.8125 29.26875 282.5625 32.08125L281.8125 32.08125ZM283.79688 22.175L283.79688 20.95625L284.85938 20.95625L284.85938 22.175L283.79688 22.175ZM283.79688 29.55L283.79688 23.33125L284.85938 23.33125L284.85938 29.55L283.79688 29.55ZM286.79688 29.55L286.79688 23.33125L287.73438 23.33125L287.73438 24.20625Q288.42188 23.190624 289.71875 23.190624Q290.28125 23.190624 290.75 23.39375Q291.23438 23.596874 291.46875 23.925Q291.70312 24.253124 291.79688 24.690624Q291.84375 24.9875 291.84375 25.721874L291.84375 29.55L290.79688 29.55L290.79688 25.76875Q290.79688 25.1125 290.67188 24.8Q290.54688 24.4875 290.23438 24.3Q289.92188 24.096874 289.5 24.096874Q288.82812 24.096874 288.32812 24.534374Q287.84375 24.95625 287.84375 26.14375L287.84375 29.55L286.79688 29.55ZM300.46875 29.55L299.42188 29.55L299.42188 22.83125Q299.03125 23.190624 298.40625 23.565624Q297.79688 23.925 297.3125 24.096874L297.3125 23.08125Q298.1875 22.659374 298.84375 22.08125Q299.51562 21.4875 299.79688 20.925L300.46875 20.925L300.46875 29.55ZM303.5 25.315624Q303.5 23.784374 303.8125 22.8625Q304.125 21.925 304.73438 21.425Q305.35938 20.925 306.29688 20.925Q306.98438 20.925 307.5 21.20625Q308.03125 21.4875 308.375 22.01875Q308.71875 22.534374 308.90625 23.284374Q309.09375 24.034374 309.09375 25.315624Q309.09375 26.83125 308.78125 27.753124Q308.48438 28.675 307.85938 29.190624Q307.25 29.690624 306.29688 29.690624Q305.0625 29.690624 304.34375 28.8Q303.5 27.7375 303.5 25.315624ZM304.57812 25.315624Q304.57812 27.425 305.07812 28.128124Q305.57812 28.83125 306.29688 28.83125Q307.03125 28.83125 307.51562 28.128124Q308.01562 27.425 308.01562 25.315624Q308.01562 23.190624 307.51562 22.503124Q307.03125 21.8 306.28125 21.8Q305.5625 21.8 305.125 22.409374Q304.57812 23.190624 304.57812 25.315624ZM310.89062 29.55L310.89062 20.95625L312.60938 20.95625L314.64062 27.034374Q314.92188 27.89375 315.04688 28.315624Q315.1875 27.846874 315.5 26.940624L317.5625 20.95625L319.09375 20.95625L319.09375 29.55L318.0 29.55L318.0 22.3625L315.5 29.55L314.46875 29.55L311.98438 22.2375L311.98438 29.55L310.89062 29.55ZM321.98438 30.784374L321.98438 29.7375Q321.20312 29.628124 320.70312 29.378124Q320.20312 29.128124 319.84375 28.565624Q319.48438 27.9875 319.42188 27.159374L320.48438 26.971874Q320.60938 27.815624 320.92188 28.20625Q321.375 28.76875 321.98438 28.846874L321.98438 25.4875Q321.34375 25.3625 320.65625 24.971874Q320.15625 24.690624 319.875 24.20625Q319.60938 23.70625 319.60938 23.065624Q319.60938 21.940624 320.40625 21.253124Q320.9375 20.784374 321.98438 20.675L321.98438 20.175L322.60938 20.175L322.60938 20.675Q323.53125 20.753124 324.0625 21.20625Q324.76562 21.784374 324.90625 22.784374L323.8125 22.95625Q323.71875 22.33125 323.42188 22.003124Q323.125 21.675 322.60938 21.565624L322.60938 24.596874Q323.40625 24.8 323.67188 24.909374Q324.15625 25.128124 324.46875 25.440624Q324.78125 25.753124 324.9375 26.190624Q325.10938 26.6125 325.10938 27.1125Q325.10938 28.20625 324.40625 28.940624Q323.71875 29.675 322.60938 29.721874L322.60938 30.784374L321.98438 30.784374ZM321.98438 21.55Q321.375 21.64375 321.01562 22.05Q320.67188 22.440624 320.67188 22.9875Q320.67188 23.51875 320.96875 23.89375Q321.26562 24.253124 321.98438 24.471874L321.98438 21.55ZM322.60938 28.846874Q323.21875 28.76875 323.625 28.315624Q324.03125 27.846874 324.03125 27.175Q324.03125 26.596874 323.73438 26.253124Q323.45312 25.909374 322.60938 25.628124L322.60938 28.846874ZM327.48438 32.08125L326.73438 32.08125Q328.48438 29.26875 328.48438 26.440624Q328.48438 25.346874 328.23438 24.253124Q328.03125 23.378124 327.67188 22.565624Q327.4375 22.05 326.73438 20.815624L327.48438 20.815624Q328.57812 22.284374 329.10938 23.76875Q329.5625 25.05 329.5625 26.440624Q329.5625 28.01875 328.95312 29.503124Q328.34375 30.971874 327.48438 32.08125Z" fill-rule="nonzero"/><path stroke="#fbbc04" stroke-width="4.0" stroke-linecap="butt" d="M346.0 25.55L358.0 25.55" fill-rule="nonzero"/><path fill="#1a1a1a" d="M370.85938 27.26875L371.89062 27.409374Q371.71875 28.471874 371.01562 29.08125Q370.3125 29.690624 369.29688 29.690624Q368.01562 29.690624 367.23438 28.8625Q366.46875 28.01875 366.46875 26.45625Q366.46875 25.45625 366.79688 24.70625Q367.14062 23.940624 367.8125 23.565624Q368.5 23.190624 369.3125 23.190624Q370.3125 23.190624 370.95312 23.70625Q371.60938 24.20625 371.79688 25.159374L370.76562 25.315624Q370.625 24.690624 370.25 24.378124Q369.875 24.05 369.34375 24.05Q368.54688 24.05 368.04688 24.628124Q367.54688 25.190624 367.54688 26.425Q367.54688 27.690624 368.03125 28.253124Q368.51562 28.815624 369.28125 28.815624Q369.90625 28.815624 370.3125 28.440624Q370.73438 28.065624 370.85938 27.26875ZM372.40625 26.440624Q372.40625 24.70625 373.35938 23.878124Q374.15625 23.190624 375.3125 23.190624Q376.59375 23.190624 377.40625 24.034374Q378.23438 24.8625 378.23438 26.346874Q378.23438 27.55 377.875 28.2375Q377.51562 28.925 376.8125 29.315624Q376.125 29.690624 375.3125 29.690624Q374.01562 29.690624 373.20312 28.8625Q372.40625 28.01875 372.40625 26.440624ZM373.48438 26.440624Q373.48438 27.628124 374.0 28.221874Q374.53125 28.815624 375.3125 28.815624Q376.10938 28.815624 376.625 28.221874Q377.14062 27.628124 377.14062 26.409374Q377.14062 25.253124 376.60938 24.659374Q376.09375 24.065624 375.3125 24.065624Q374.53125 24.065624 374.0 24.659374Q373.48438 25.2375 373.48438 26.440624ZM379.375 27.690624L380.40625 27.534374Q380.5 28.159374 380.89062 28.4875Q381.29688 28.815624 382.03125 28.815624Q382.75 28.815624 383.09375 28.534374Q383.45312 28.2375 383.45312 27.83125Q383.45312 27.471874 383.14062 27.26875Q382.92188 27.128124 382.0625 26.909374Q380.90625 26.6125 380.45312 26.409374Q380.01562 26.190624 379.78125 25.815624Q379.54688 25.440624 379.54688 24.971874Q379.54688 24.565624 379.73438 24.20625Q379.92188 23.846874 380.25 23.6125Q380.5 23.440624 380.92188 23.315624Q381.34375 23.190624 381.84375 23.190624Q382.5625 23.190624 383.10938 23.409374Q383.67188 23.6125 383.9375 23.971874Q384.20312 24.33125 384.29688 24.925L383.26562 25.065624Q383.20312 24.596874 382.85938 24.33125Q382.53125 24.05 381.90625 24.05Q381.1875 24.05 380.875 24.3Q380.5625 24.534374 380.5625 24.8625Q380.5625 25.065624 380.6875 25.221874Q380.82812 25.39375 381.09375 25.503124Q381.25 25.565624 382.03125 25.76875Q383.15625 26.08125 383.59375 26.26875Q384.03125 26.45625 384.28125 26.815624Q384.53125 27.175 384.53125 27.721874Q384.53125 28.253124 384.21875 28.721874Q383.92188 29.175 383.34375 29.440624Q382.76562 29.690624 382.03125 29.690624Q380.8125 29.690624 380.17188 29.190624Q379.54688 28.675 379.375 27.690624ZM389.09375 28.6125L389.25 29.534374Q388.79688 29.628124 388.45312 29.628124Q387.875 29.628124 387.5625 29.45625Q387.25 29.26875 387.10938 28.971874Q386.98438 28.675 386.98438 27.721874L386.98438 24.14375L386.21875 24.14375L386.21875 23.33125L386.98438 23.33125L386.98438 21.784374L388.03125 21.159374L388.03125 23.33125L389.09375 23.33125L389.09375 24.14375L388.03125 24.14375L388.03125 27.784374Q388.03125 28.2375 388.07812 28.3625Q388.14062 28.4875 388.26562 28.565624Q388.39062 28.64375 388.625 28.64375Q388.8125 28.64375 389.09375 28.6125ZM394.8125 32.08125Q393.9375 30.971874 393.32812 29.503124Q392.73438 28.01875 392.73438 26.440624Q392.73438 25.05 393.17188 23.76875Q393.70312 22.284374 394.8125 20.815624L395.5625 20.815624Q394.85938 22.034374 394.625 22.55Q394.26562 23.3625 394.0625 24.2375Q393.8125 25.33125 393.8125 26.440624Q393.8125 29.26875 395.5625 32.08125L394.8125 32.08125ZM396.79688 22.175L396.79688 20.95625L397.85938 20.95625L397.85938 22.175L396.79688 22.175ZM396.79688 29.55L396.79688 23.33125L397.85938 23.33125L397.85938 29.55L396.79688 29.55ZM399.79688 29.55L399.79688 23.33125L400.73438 23.33125L400.73438 24.20625Q401.42188 23.190624 402.71875 23.190624Q403.28125 23.190624 403.75 23.39375Q404.23438 23.596874 404.46875 23.925Q404.70312 24.253124 404.79688 24.690624Q404.84375 24.9875 404.84375 25.721874L404.84375 29.55L403.79688 29.55L403.79688 25.76875Q403.79688 25.1125 403.67188 24.8Q403.54688 24.4875 403.23438 24.3Q402.92188 24.096874 402.5 24.096874Q401.82812 24.096874 401.32812 24.534374Q400.84375 24.95625 400.84375 26.14375L400.84375 29.55L399.79688 29.55ZM409.79688 31.940624L409.79688 23.33125L410.75 23.33125L410.75 24.128124Q411.09375 23.659374 411.51562 23.425Q411.95312 23.190624 412.5625 23.190624Q413.35938 23.190624 413.96875 23.596874Q414.57812 24.003124 414.875 24.753124Q415.1875 25.503124 415.1875 26.39375Q415.1875 27.346874 414.84375 28.1125Q414.51562 28.878124 413.85938 29.284374Q413.20312 29.690624 412.48438 29.690624Q411.95312 29.690624 411.53125 29.471874Q411.10938 29.2375 410.84375 28.909374L410.84375 31.940624L409.79688 31.940624ZM410.75 26.471874Q410.75 27.675 411.23438 28.253124Q411.71875 28.815624 412.40625 28.815624Q413.10938 28.815624 413.60938 28.221874Q414.10938 27.628124 414.10938 26.378124Q414.10938 25.190624 413.625 24.6125Q413.14062 24.01875 412.45312 24.01875Q411.78125 24.01875 411.26562 24.64375Q410.75 25.26875 410.75 26.471874ZM421.04688 27.55L422.14062 27.675Q421.89062 28.628124 421.1875 29.159374Q420.48438 29.690624 419.40625 29.690624Q418.04688 29.690624 417.23438 28.846874Q416.4375 28.003124 416.4375 26.4875Q416.4375 24.925 417.25 24.065624Q418.0625 23.190624 419.34375 23.190624Q420.59375 23.190624 421.375 24.034374Q422.17188 24.878124 422.17188 26.425Q422.17188 26.51875 422.17188 26.70625L417.53125 26.70625Q417.59375 27.7375 418.10938 28.284374Q418.625 28.815624 419.40625 28.815624Q419.98438 28.815624 420.39062 28.51875Q420.8125 28.20625 421.04688 27.55ZM417.59375 25.846874L421.0625 25.846874Q421.0 25.05 420.67188 24.659374Q420.15625 24.05 419.35938 24.05Q418.625 24.05 418.125 24.534374Q417.64062 25.01875 417.59375 25.846874ZM423.78125 29.55L423.78125 23.33125L424.73438 23.33125L424.73438 24.26875Q425.09375 23.6125 425.39062 23.409374Q425.70312 23.190624 426.07812 23.190624Q426.60938 23.190624 427.15625 23.51875L426.79688 24.503124Q426.40625 24.26875 426.03125 24.26875Q425.67188 24.26875 425.39062 24.4875Q425.125 24.690624 425.01562 25.065624Q424.82812 25.628124 424.82812 26.284374L424.82812 29.55L423.78125 29.55ZM427.375 27.690624L428.40625 27.534374Q428.5 28.159374 428.89062 28.4875Q429.29688 28.815624 430.03125 28.815624Q430.75 28.815624 431.09375 28.534374Q431.45312 28.2375 431.45312 27.83125Q431.45312 27.471874 431.14062 27.26875Q430.92188 27.128124 430.0625 26.909374Q428.90625 26.6125 428.45312 26.409374Q428.01562 26.190624 427.78125 25.815624Q427.54688 25.440624 427.54688 24.971874Q427.54688 24.565624 427.73438 24.20625Q427.92188 23.846874 428.25 23.6125Q428.5 23.440624 428.92188 23.315624Q429.34375 23.190624 429.84375 23.190624Q430.5625 23.190624 431.10938 23.409374Q431.67188 23.6125 431.9375 23.971874Q432.20312 24.33125 432.29688 24.925L431.26562 25.065624Q431.20312 24.596874 430.85938 24.33125Q430.53125 24.05 429.90625 24.05Q429.1875 24.05 428.875 24.3Q428.5625 24.534374 428.5625 24.8625Q428.5625 25.065624 428.6875 25.221874Q428.82812 25.39375 429.09375 25.503124Q429.25 25.565624 430.03125 25.76875Q431.15625 26.08125 431.59375 26.26875Q432.03125 26.45625 432.28125 26.815624Q432.53125 27.175 432.53125 27.721874Q432.53125 28.253124 432.21875 28.721874Q431.92188 29.175 431.34375 29.440624Q430.76562 29.690624 430.03125 29.690624Q428.8125 29.690624 428.17188 29.190624Q427.54688 28.675 427.375 27.690624ZM434.40625 26.440624Q434.40625 24.70625 435.35938 23.878124Q436.15625 23.190624 437.3125 23.190624Q438.59375 23.190624 439.40625 24.034374Q440.23438 24.8625 440.23438 26.346874Q440.23438 27.55 439.875 28.2375Q439.51562 28.925 438.8125 29.315624Q438.125 29.690624 437.3125 29.690624Q436.01562 29.690624 435.20312 28.8625Q434.40625 28.01875 434.40625 26.440624ZM435.48438 26.440624Q435.48438 27.628124 436.0 28.221874Q436.53125 28.815624 437.3125 28.815624Q438.10938 28.815624 438.625 28.221874Q439.14062 27.628124 439.14062 26.409374Q439.14062 25.253124 438.60938 24.659374Q438.09375 24.065624 437.3125 24.065624Q436.53125 24.065624 436.0 24.659374Q435.48438 25.2375 435.48438 26.440624ZM441.79688 29.55L441.79688 23.33125L442.73438 23.33125L442.73438 24.20625Q443.42188 23.190624 444.71875 23.190624Q445.28125 23.190624 445.75 23.39375Q446.23438 23.596874 446.46875 23.925Q446.70312 24.253124 446.79688 24.690624Q446.84375 24.9875 446.84375 25.721874L446.84375 29.55L445.79688 29.55L445.79688 25.76875Q445.79688 25.1125 445.67188 24.8Q445.54688 24.4875 445.23438 24.3Q444.92188 24.096874 444.5 24.096874Q443.82812 24.096874 443.32812 24.534374Q442.84375 24.95625 442.84375 26.14375L442.84375 29.55L441.79688 29.55ZM448.375 26.971874L448.375 25.909374L451.625 25.909374L451.625 26.971874L448.375 26.971874ZM456.85938 27.26875L457.89062 27.409374Q457.71875 28.471874 457.01562 29.08125Q456.3125 29.690624 455.29688 29.690624Q454.01562 29.690624 453.23438 28.8625Q452.46875 28.01875 452.46875 26.45625Q452.46875 25.45625 452.79688 24.70625Q453.14062 23.940624 453.8125 23.565624Q454.5 23.190624 455.3125 23.190624Q456.3125 23.190624 456.95312 23.70625Q457.60938 24.20625 457.79688 25.159374L456.76562 25.315624Q456.625 24.690624 456.25 24.378124Q455.875 24.05 455.34375 24.05Q454.54688 24.05 454.04688 24.628124Q453.54688 25.190624 453.54688 26.425Q453.54688 27.690624 454.03125 28.253124Q454.51562 28.815624 455.28125 28.815624Q455.90625 28.815624 456.3125 28.440624Q456.73438 28.065624 456.85938 27.26875ZM463.04688 27.55L464.14062 27.675Q463.89062 28.628124 463.1875 29.159374Q462.48438 29.690624 461.40625 29.690624Q460.04688 29.690624 459.23438 28.846874Q458.4375 28.003124 458.4375 26.4875Q458.4375 24.925 459.25 24.065624Q460.0625 23.190624 461.34375 23.190624Q462.59375 23.190624 463.375 24.034374Q464.17188 24.878124 464.17188 26.425Q464.17188 26.51875 464.17188 26.70625L459.53125 26.70625Q459.59375 27.7375 460.10938 28.284374Q460.625 28.815624 461.40625 28.815624Q461.98438 28.815624 462.39062 28.51875Q462.8125 28.20625 463.04688 27.55ZM459.59375 25.846874L463.0625 25.846874Q463.0 25.05 462.67188 24.659374Q462.15625 24.05 461.35938 24.05Q460.625 24.05 460.125 24.534374Q459.64062 25.01875 459.59375 25.846874ZM465.79688 29.55L465.79688 23.33125L466.73438 23.33125L466.73438 24.20625Q467.42188 23.190624 468.71875 23.190624Q469.28125 23.190624 469.75 23.39375Q470.23438 23.596874 470.46875 23.925Q470.70312 24.253124 470.79688 24.690624Q470.84375 24.9875 470.84375 25.721874L470.84375 29.55L469.79688 29.55L469.79688 25.76875Q469.79688 25.1125 469.67188 24.8Q469.54688 24.4875 469.23438 24.3Q468.92188 24.096874 468.5 24.096874Q467.82812 24.096874 467.32812 24.534374Q466.84375 24.95625 466.84375 26.14375L466.84375 29.55L465.79688 29.55ZM475.09375 28.6125L475.25 29.534374Q474.79688 29.628124 474.45312 29.628124Q473.875 29.628124 473.5625 29.45625Q473.25 29.26875 473.10938 28.971874Q472.98438 28.675 472.98438 27.721874L472.98438 24.14375L472.21875 24.14375L472.21875 23.33125L472.98438 23.33125L472.98438 21.784374L474.03125 21.159374L474.03125 23.33125L475.09375 23.33125L475.09375 24.14375L474.03125 24.14375L474.03125 27.784374Q474.03125 28.2375 474.07812 28.3625Q474.14062 28.4875 474.26562 28.565624Q474.39062 28.64375 474.625 28.64375Q474.8125 28.64375 475.09375 28.6125ZM479.875 29.55L479.875 28.628124Q479.14062 29.690624 477.89062 29.690624Q477.34375 29.690624 476.85938 29.4875Q476.39062 29.26875 476.15625 28.95625Q475.92188 28.628124 475.82812 28.159374Q475.76562 27.8625 475.76562 27.175L475.76562 23.33125L476.82812 23.33125L476.82812 26.784374Q476.82812 27.596874 476.89062 27.89375Q476.98438 28.3 477.29688 28.55Q477.625 28.784374 478.10938 28.784374Q478.57812 28.784374 478.98438 28.55Q479.40625 28.3 479.57812 27.878124Q479.76562 27.45625 479.76562 26.659374L479.76562 23.33125L480.8125 23.33125L480.8125 29.55L479.875 29.55ZM482.78125 29.55L482.78125 23.33125L483.73438 23.33125L483.73438 24.26875Q484.09375 23.6125 484.39062 23.409374Q484.70312 23.190624 485.07812 23.190624Q485.60938 23.190624 486.15625 23.51875L485.79688 24.503124Q485.40625 24.26875 485.03125 24.26875Q484.67188 24.26875 484.39062 24.4875Q484.125 24.690624 484.01562 25.065624Q483.82812 25.628124 483.82812 26.284374L483.82812 29.55L482.78125 29.55ZM486.75 31.940624L486.625 30.95625Q486.96875 31.05 487.23438 31.05Q487.57812 31.05 487.78125 30.925Q488.0 30.815624 488.14062 30.6125Q488.23438 30.440624 488.46875 29.815624Q488.48438 29.7375 488.5625 29.565624L486.1875 23.33125L487.32812 23.33125L488.625 26.925Q488.875 27.6125 489.07812 28.378124Q489.26562 27.64375 489.51562 26.95625L490.84375 23.33125L491.89062 23.33125L489.53125 29.659374Q489.14062 30.675 488.9375 31.065624Q488.65625 31.596874 488.28125 31.83125Q487.92188 32.08125 487.42188 32.08125Q487.125 32.08125 486.75 31.940624ZM492.48438 32.08125L491.73438 32.08125Q493.48438 29.26875 493.48438 26.440624Q493.48438 25.346874 493.23438 24.253124Q493.03125 23.378124 492.67188 22.565624Q492.4375 22.05 491.73438 20.815624L492.48438 20.815624Q493.57812 22.284374 494.10938 23.76875Q494.5625 25.05 494.5625 26.440624Q494.5625 28.01875 493.95312 29.503124Q493.34375 30.971874 492.48438 32.08125Z" fill-rule="nonzero"/><path stroke="#34a853" stroke-width="4.0" stroke-linecap="butt" d="M215.5 43.55L227.5 43.55" fill-rule="nonzero"/><path fill="#1a1a1a" d="M240.54688 45.55L241.64062 45.675Q241.39062 46.628124 240.6875 47.159374Q239.98438 47.690624 238.90625 47.690624Q237.54688 47.690624 236.73438 46.846874Q235.9375 46.003124 235.9375 44.4875Q235.9375 42.925 236.75 42.065624Q237.5625 41.190624 238.84375 41.190624Q240.09375 41.190624 240.875 42.034374Q241.67188 42.878124 241.67188 44.425Q241.67188 44.51875 241.67188 44.70625L237.03125 44.70625Q237.09375 45.7375 237.60938 46.284374Q238.125 46.815624 238.90625 46.815624Q239.48438 46.815624 239.89062 46.51875Q240.3125 46.20625 240.54688 45.55ZM237.09375 43.846874L240.5625 43.846874Q240.5 43.05 240.17188 42.659374Q239.65625 42.05 238.85938 42.05Q238.125 42.05 237.625 42.534374Q237.14062 43.01875 237.09375 43.846874ZM242.59375 47.55L244.85938 44.315624L242.76562 41.33125L244.07812 41.33125L245.03125 42.784374Q245.29688 43.20625 245.46875 43.4875Q245.71875 43.096874 245.9375 42.8L246.98438 41.33125L248.25 41.33125L246.09375 44.253124L248.40625 47.55L247.125 47.55L245.84375 45.6125L245.5 45.096874L243.85938 47.55L242.59375 47.55ZM248.29688 49.940624L248.29688 41.33125L249.25 41.33125L249.25 42.128124Q249.59375 41.659374 250.01562 41.425Q250.45312 41.190624 251.0625 41.190624Q251.85938 41.190624 252.46875 41.596874Q253.07812 42.003124 253.375 42.753124Q253.6875 43.503124 253.6875 44.39375Q253.6875 45.346874 253.34375 46.1125Q253.01562 46.878124 252.35938 47.284374Q251.70312 47.690624 250.98438 47.690624Q250.45312 47.690624 250.03125 47.471874Q249.60938 47.2375 249.34375 46.909374L249.34375 49.940624L248.29688 49.940624ZM249.25 44.471874Q249.25 45.675 249.73438 46.253124Q250.21875 46.815624 250.90625 46.815624Q251.60938 46.815624 252.10938 46.221874Q252.60938 45.628124 252.60938 44.378124Q252.60938 43.190624 252.125 42.6125Q251.64062 42.01875 250.95312 42.01875Q250.28125 42.01875 249.76562 42.64375Q249.25 43.26875 249.25 44.471874ZM259.54688 45.55L260.64062 45.675Q260.39062 46.628124 259.6875 47.159374Q258.98438 47.690624 257.90625 47.690624Q256.54688 47.690624 255.73438 46.846874Q254.9375 46.003124 254.9375 44.4875Q254.9375 42.925 255.75 42.065624Q256.5625 41.190624 257.84375 41.190624Q259.09375 41.190624 259.875 42.034374Q260.67188 42.878124 260.67188 44.425Q260.67188 44.51875 260.67188 44.70625L256.03125 44.70625Q256.09375 45.7375 256.60938 46.284374Q257.125 46.815624 257.90625 46.815624Q258.48438 46.815624 258.89062 46.51875Q259.3125 46.20625 259.54688 45.55ZM256.09375 43.846874L259.5625 43.846874Q259.5 43.05 259.17188 42.659374Q258.65625 42.05 257.85938 42.05Q257.125 42.05 256.625 42.534374Q256.14062 43.01875 256.09375 43.846874ZM266.35938 45.26875L267.39062 45.409374Q267.21875 46.471874 266.51562 47.08125Q265.8125 47.690624 264.79688 47.690624Q263.51562 47.690624 262.73438 46.8625Q261.96875 46.01875 261.96875 44.45625Q261.96875 43.45625 262.29688 42.70625Q262.64062 41.940624 263.3125 41.565624Q264.0 41.190624 264.8125 41.190624Q265.8125 41.190624 266.45312 41.70625Q267.10938 42.20625 267.29688 43.159374L266.26562 43.315624Q266.125 42.690624 265.75 42.378124Q265.375 42.05 264.84375 42.05Q264.04688 42.05 263.54688 42.628124Q263.04688 43.190624 263.04688 44.425Q263.04688 45.690624 263.53125 46.253124Q264.01562 46.815624 264.78125 46.815624Q265.40625 46.815624 265.8125 46.440624Q266.23438 46.065624 266.35938 45.26875ZM270.59375 46.6125L270.75 47.534374Q270.29688 47.628124 269.95312 47.628124Q269.375 47.628124 269.0625 47.45625Q268.75 47.26875 268.60938 46.971874Q268.48438 46.675 268.48438 45.721874L268.48438 42.14375L267.71875 42.14375L267.71875 41.33125L268.48438 41.33125L268.48438 39.784374L269.53125 39.159374L269.53125 41.33125L270.59375 41.33125L270.59375 42.14375L269.53125 42.14375L269.53125 45.784374Q269.53125 46.2375 269.57812 46.3625Q269.64062 46.4875 269.76562 46.565624Q269.89062 46.64375 270.125 46.64375Q270.3125 46.64375 270.59375 46.6125ZM275.54688 45.55L276.64062 45.675Q276.39062 46.628124 275.6875 47.159374Q274.98438 47.690624 273.90625 47.690624Q272.54688 47.690624 271.73438 46.846874Q270.9375 46.003124 270.9375 44.4875Q270.9375 42.925 271.75 42.065624Q272.5625 41.190624 273.84375 41.190624Q275.09375 41.190624 275.875 42.034374Q276.67188 42.878124 276.67188 44.425Q276.67188 44.51875 276.67188 44.70625L272.03125 44.70625Q272.09375 45.7375 272.60938 46.284374Q273.125 46.815624 273.90625 46.815624Q274.48438 46.815624 274.89062 46.51875Q275.3125 46.20625 275.54688 45.55ZM272.09375 43.846874L275.5625 43.846874Q275.5 43.05 275.17188 42.659374Q274.65625 42.05 273.85938 42.05Q273.125 42.05 272.625 42.534374Q272.14062 43.01875 272.09375 43.846874ZM282.32812 47.55L282.32812 46.76875Q281.73438 47.690624 280.59375 47.690624Q279.84375 47.690624 279.21875 47.284374Q278.59375 46.8625 278.25 46.128124Q277.90625 45.39375 277.90625 44.440624Q277.90625 43.51875 278.21875 42.753124Q278.53125 41.9875 279.15625 41.596874Q279.78125 41.190624 280.54688 41.190624Q281.10938 41.190624 281.54688 41.425Q281.98438 41.659374 282.26562 42.034374L282.26562 38.95625L283.3125 38.95625L283.3125 47.55L282.32812 47.55ZM279.0 44.440624Q279.0 45.64375 279.5 46.2375Q280.0 46.815624 280.6875 46.815624Q281.375 46.815624 281.85938 46.253124Q282.34375 45.690624 282.34375 44.534374Q282.34375 43.253124 281.84375 42.659374Q281.35938 42.065624 280.64062 42.065624Q279.9375 42.065624 279.46875 42.64375Q279.0 43.20625 279.0 44.440624ZM290.59375 46.6125L290.75 47.534374Q290.29688 47.628124 289.95312 47.628124Q289.375 47.628124 289.0625 47.45625Q288.75 47.26875 288.60938 46.971874Q288.48438 46.675 288.48438 45.721874L288.48438 42.14375L287.71875 42.14375L287.71875 41.33125L288.48438 41.33125L288.48438 39.784374L289.53125 39.159374L289.53125 41.33125L290.59375 41.33125L290.59375 42.14375L289.53125 42.14375L289.53125 45.784374Q289.53125 46.2375 289.57812 46.3625Q289.64062 46.4875 289.76562 46.565624Q289.89062 46.64375 290.125 46.64375Q290.3125 46.64375 290.59375 46.6125ZM291.29688 40.175L291.29688 38.95625L292.35938 38.95625L292.35938 40.175L291.29688 40.175ZM291.29688 47.55L291.29688 41.33125L292.35938 41.33125L292.35938 47.55L291.29688 47.55ZM294.29688 47.55L294.29688 41.33125L295.23438 41.33125L295.23438 42.20625Q295.53125 41.7375 296.01562 41.471874Q296.5 41.190624 297.125 41.190624Q297.8125 41.190624 298.25 41.471874Q298.70312 41.753124 298.875 42.26875Q299.625 41.190624 300.79688 41.190624Q301.73438 41.190624 302.21875 41.70625Q302.71875 42.20625 302.71875 43.284374L302.71875 47.55L301.67188 47.55L301.67188 43.628124Q301.67188 43.003124 301.5625 42.721874Q301.46875 42.440624 301.20312 42.26875Q300.9375 42.096874 300.5625 42.096874Q299.90625 42.096874 299.46875 42.534374Q299.04688 42.971874 299.04688 43.940624L299.04688 47.55L297.98438 47.55L297.98438 43.503124Q297.98438 42.8 297.71875 42.45625Q297.46875 42.096874 296.89062 42.096874Q296.4375 42.096874 296.0625 42.33125Q295.6875 42.565624 295.51562 43.01875Q295.34375 43.471874 295.34375 44.315624L295.34375 47.55L294.29688 47.55ZM309.54688 45.55L310.64062 45.675Q310.39062 46.628124 309.6875 47.159374Q308.98438 47.690624 307.90625 47.690624Q306.54688 47.690624 305.73438 46.846874Q304.9375 46.003124 304.9375 44.4875Q304.9375 42.925 305.75 42.065624Q306.5625 41.190624 307.84375 41.190624Q309.09375 41.190624 309.875 42.034374Q310.67188 42.878124 310.67188 44.425Q310.67188 44.51875 310.67188 44.70625L306.03125 44.70625Q306.09375 45.7375 306.60938 46.284374Q307.125 46.815624 307.90625 46.815624Q308.48438 46.815624 308.89062 46.51875Q309.3125 46.20625 309.54688 45.55ZM306.09375 43.846874L309.5625 43.846874Q309.5 43.05 309.17188 42.659374Q308.65625 42.05 307.85938 42.05Q307.125 42.05 306.625 42.534374Q306.14062 43.01875 306.09375 43.846874ZM315.26562 47.55L315.26562 38.95625L316.32812 38.95625L316.32812 47.55L315.26562 47.55ZM322.54688 45.55L323.64062 45.675Q323.39062 46.628124 322.6875 47.159374Q321.98438 47.690624 320.90625 47.690624Q319.54688 47.690624 318.73438 46.846874Q317.9375 46.003124 317.9375 44.4875Q317.9375 42.925 318.75 42.065624Q319.5625 41.190624 320.84375 41.190624Q322.09375 41.190624 322.875 42.034374Q323.67188 42.878124 323.67188 44.425Q323.67188 44.51875 323.67188 44.70625L319.03125 44.70625Q319.09375 45.7375 319.60938 46.284374Q320.125 46.815624 320.90625 46.815624Q321.48438 46.815624 321.89062 46.51875Q322.3125 46.20625 322.54688 45.55ZM319.09375 43.846874L322.5625 43.846874Q322.5 43.05 322.17188 42.659374Q321.65625 42.05 320.85938 42.05Q320.125 42.05 319.625 42.534374Q319.14062 43.01875 319.09375 43.846874ZM325.54688 47.55L325.54688 42.14375L324.60938 42.14375L324.60938 41.33125L325.54688 41.33125L325.54688 40.659374Q325.54688 40.034374 325.65625 39.7375Q325.8125 39.315624 326.1875 39.065624Q326.57812 38.815624 327.26562 38.815624Q327.71875 38.815624 328.25 38.925L328.09375 39.83125Q327.76562 39.784374 327.46875 39.784374Q326.98438 39.784374 326.78125 39.9875Q326.59375 40.190624 326.59375 40.753124L326.59375 41.33125L327.8125 41.33125L327.8125 42.14375L326.59375 42.14375L326.59375 47.55L325.54688 47.55ZM330.59375 46.6125L330.75 47.534374Q330.29688 47.628124 329.95312 47.628124Q329.375 47.628124 329.0625 47.45625Q328.75 47.26875 328.60938 46.971874Q328.48438 46.675 328.48438 45.721874L328.48438 42.14375L327.71875 42.14375L327.71875 41.33125L328.48438 41.33125L328.48438 39.784374L329.53125 39.159374L329.53125 41.33125L330.59375 41.33125L330.59375 42.14375L329.53125 42.14375L329.53125 45.784374Q329.53125 46.2375 329.57812 46.3625Q329.64062 46.4875 329.76562 46.565624Q329.89062 46.64375 330.125 46.64375Q330.3125 46.64375 330.59375 46.6125ZM336.3125 50.08125Q335.4375 48.971874 334.82812 47.503124Q334.23438 46.01875 334.23438 44.440624Q334.23438 43.05 334.67188 41.76875Q335.20312 40.284374 336.3125 38.815624L337.0625 38.815624Q336.35938 40.034374 336.125 40.55Q335.76562 41.3625 335.5625 42.2375Q335.3125 43.33125 335.3125 44.440624Q335.3125 47.26875 337.0625 50.08125L336.3125 50.08125ZM338.29688 40.175L338.29688 38.95625L339.35938 38.95625L339.35938 40.175L338.29688 40.175ZM338.29688 47.55L338.29688 41.33125L339.35938 41.33125L339.35938 47.55L338.29688 47.55ZM341.29688 47.55L341.29688 41.33125L342.23438 41.33125L342.23438 42.20625Q342.92188 41.190624 344.21875 41.190624Q344.78125 41.190624 345.25 41.39375Q345.73438 41.596874 345.96875 41.925Q346.20312 42.253124 346.29688 42.690624Q346.34375 42.9875 346.34375 43.721874L346.34375 47.55L345.29688 47.55L345.29688 43.76875Q345.29688 43.1125 345.17188 42.8Q345.04688 42.4875 344.73438 42.3Q344.42188 42.096874 344.0 42.096874Q343.32812 42.096874 342.82812 42.534374Q342.34375 42.95625 342.34375 44.14375L342.34375 47.55L341.29688 47.55ZM351.25 49.940624L351.125 48.95625Q351.46875 49.05 351.73438 49.05Q352.07812 49.05 352.28125 48.925Q352.5 48.815624 352.64062 48.6125Q352.73438 48.440624 352.96875 47.815624Q352.98438 47.7375 353.0625 47.565624L350.6875 41.33125L351.82812 41.33125L353.125 44.925Q353.375 45.6125 353.57812 46.378124Q353.76562 45.64375 354.01562 44.95625L355.34375 41.33125L356.39062 41.33125L354.03125 47.659374Q353.64062 48.675 353.4375 49.065624Q353.15625 49.596874 352.78125 49.83125Q352.42188 50.08125 351.92188 50.08125Q351.625 50.08125 351.25 49.940624ZM360.54688 45.55L361.64062 45.675Q361.39062 46.628124 360.6875 47.159374Q359.98438 47.690624 358.90625 47.690624Q357.54688 47.690624 356.73438 46.846874Q355.9375 46.003124 355.9375 44.4875Q355.9375 42.925 356.75 42.065624Q357.5625 41.190624 358.84375 41.190624Q360.09375 41.190624 360.875 42.034374Q361.67188 42.878124 361.67188 44.425Q361.67188 44.51875 361.67188 44.70625L357.03125 44.70625Q357.09375 45.7375 357.60938 46.284374Q358.125 46.815624 358.90625 46.815624Q359.48438 46.815624 359.89062 46.51875Q360.3125 46.20625 360.54688 45.55ZM357.09375 43.846874L360.5625 43.846874Q360.5 43.05 360.17188 42.659374Q359.65625 42.05 358.85938 42.05Q358.125 42.05 357.625 42.534374Q357.14062 43.01875 357.09375 43.846874ZM367.35938 46.784374Q366.76562 47.284374 366.21875 47.4875Q365.6875 47.690624 365.0625 47.690624Q364.03125 47.690624 363.48438 47.190624Q362.9375 46.690624 362.9375 45.909374Q362.9375 45.45625 363.14062 45.08125Q363.34375 44.690624 363.6875 44.471874Q364.03125 44.2375 364.45312 44.128124Q364.75 44.034374 365.39062 43.95625Q366.65625 43.815624 367.26562 43.596874Q367.26562 43.378124 367.26562 43.33125Q367.26562 42.675 366.96875 42.409374Q366.5625 42.065624 365.76562 42.065624Q365.03125 42.065624 364.67188 42.33125Q364.3125 42.58125 364.14062 43.2375L363.10938 43.096874Q363.25 42.440624 363.57812 42.034374Q363.90625 41.628124 364.51562 41.409374Q365.125 41.190624 365.92188 41.190624Q366.71875 41.190624 367.21875 41.378124Q367.71875 41.565624 367.95312 41.846874Q368.1875 42.128124 368.28125 42.565624Q368.32812 42.83125 368.32812 43.534374L368.32812 44.940624Q368.32812 46.409374 368.39062 46.8Q368.46875 47.190624 368.67188 47.55L367.5625 47.55Q367.40625 47.221874 367.35938 46.784374ZM367.26562 44.425Q366.6875 44.659374 365.54688 44.83125Q364.89062 44.925 364.625 45.05Q364.35938 45.159374 364.20312 45.378124Q364.0625 45.596874 364.0625 45.878124Q364.0625 46.3 364.375 46.58125Q364.70312 46.8625 365.3125 46.8625Q365.92188 46.8625 366.39062 46.596874Q366.875 46.33125 367.09375 45.8625Q367.26562 45.503124 367.26562 44.815624L367.26562 44.425ZM370.28125 47.55L370.28125 41.33125L371.23438 41.33125L371.23438 42.26875Q371.59375 41.6125 371.89062 41.409374Q372.20312 41.190624 372.57812 41.190624Q373.10938 41.190624 373.65625 41.51875L373.29688 42.503124Q372.90625 42.26875 372.53125 42.26875Q372.17188 42.26875 371.89062 42.4875Q371.625 42.690624 371.51562 43.065624Q371.32812 43.628124 371.32812 44.284374L371.32812 47.55L370.28125 47.55ZM373.875 45.690624L374.90625 45.534374Q375.0 46.159374 375.39062 46.4875Q375.79688 46.815624 376.53125 46.815624Q377.25 46.815624 377.59375 46.534374Q377.95312 46.2375 377.95312 45.83125Q377.95312 45.471874 377.64062 45.26875Q377.42188 45.128124 376.5625 44.909374Q375.40625 44.6125 374.95312 44.409374Q374.51562 44.190624 374.28125 43.815624Q374.04688 43.440624 374.04688 42.971874Q374.04688 42.565624 374.23438 42.20625Q374.42188 41.846874 374.75 41.6125Q375.0 41.440624 375.42188 41.315624Q375.84375 41.190624 376.34375 41.190624Q377.0625 41.190624 377.60938 41.409374Q378.17188 41.6125 378.4375 41.971874Q378.70312 42.33125 378.79688 42.925L377.76562 43.065624Q377.70312 42.596874 377.35938 42.33125Q377.03125 42.05 376.40625 42.05Q375.6875 42.05 375.375 42.3Q375.0625 42.534374 375.0625 42.8625Q375.0625 43.065624 375.1875 43.221874Q375.32812 43.39375 375.59375 43.503124Q375.75 43.565624 376.53125 43.76875Q377.65625 44.08125 378.09375 44.26875Q378.53125 44.45625 378.78125 44.815624Q379.03125 45.175 379.03125 45.721874Q379.03125 46.253124 378.71875 46.721874Q378.42188 47.175 377.84375 47.440624Q377.26562 47.690624 376.53125 47.690624Q375.3125 47.690624 374.67188 47.190624Q374.04688 46.675 373.875 45.690624ZM381.98438 50.08125L381.23438 50.08125Q382.98438 47.26875 382.98438 44.440624Q382.98438 43.346874 382.73438 42.253124Q382.53125 41.378124 382.17188 40.565624Q381.9375 40.05 381.23438 38.815624L381.98438 38.815624Q383.07812 40.284374 383.60938 41.76875Q384.0625 43.05 384.0625 44.440624Q384.0625 46.01875 383.45312 47.503124Q382.84375 48.971874 381.98438 50.08125Z" fill-rule="nonzero"/></svg>