<svg xmlns="http://www.w3.org/2000/svg" version="1.1" style="font-family:Lato, &#x27;Helvetica Neue&#x27;, Helvetica, Arial, &#x27;Liberation Sans&#x27;, sans-serif;text-rendering:geometricPrecision;-webkit-font-smoothing:antialiased;font-size:18px;background-color:#ffffff" width="850" height="600" viewBox="0 0 850 600"><defs><style>@import url(https://ourworldindata.org/fonts.css)</style></defs><defs><pattern id="noDataPattern" patternUnits="userSpaceOnUse" width="4" height="4" patternTransform="rotate(-45 2 2)"><path d="M -1,2 l 6,0" stroke="#ccc" stroke-width="0.7"></path></pattern></defs><g id="header" class="HeaderView"><g id="logo" transform="translate(769, 16) scale(1)"><svg className="owidLogo" xmlns="http://www.w3.org/2000/svg" width="65" height="36" viewBox="0 0 65 36"  fill="none"><path fill="#002147" d="M0 0h64.8v36H0z"/><path fill="#CE261E" d="M0 33.3h64.8V36H0z"/><path fill="#fff" d="M13.796 10.575c0 .636-.106 1.226-.318 1.77a4.193 4.193 0 0 1-.894 1.404 4.084 4.084 0 0 1-1.386.93c-.54.22-1.138.33-1.794.33-.656 0-1.256-.11-1.8-.33a4.149 4.149 0 0 1-1.392-.93 4.193 4.193 0 0 1-.894-1.404A4.833 4.833 0 0 1 5 10.575c0-.636.106-1.224.318-1.764a4.18 4.18 0 0 1 .894-1.41 4.076 4.076 0 0 1 1.392-.924 4.684 4.684 0 0 1 1.8-.336c.656 0 1.254.112 1.794.336.54.224 1.002.534 1.386.93.384.392.682.86.894 1.404.212.54.318 1.128.318 1.764Zm-1.656 0c0-.476-.064-.902-.192-1.278a2.671 2.671 0 0 0-.54-.966 2.332 2.332 0 0 0-.864-.606 2.94 2.94 0 0 0-1.14-.21c-.424 0-.806.07-1.146.21-.34.14-.63.342-.87.606a2.742 2.742 0 0 0-.546.966 3.955 3.955 0 0 0-.192 1.278c0 .476.064.904.192 1.284.128.376.31.696.546.96.24.26.53.46.87.6.34.14.722.21 1.146.21.424 0 .804-.07 1.14-.21.34-.14.628-.34.864-.6.236-.264.416-.584.54-.96a4.01 4.01 0 0 0 .192-1.284ZM16.104 8.757v3.912c0 .376.086.668.258.876.176.204.438.306.786.306.256 0 .496-.056.72-.168a2.58 2.58 0 0 0 .636-.474V8.757h1.482v6.156h-.906c-.192 0-.318-.09-.378-.27l-.102-.492a4.65 4.65 0 0 1-.396.354 2.577 2.577 0 0 1-.438.27 2.35 2.35 0 0 1-.498.168 2.345 2.345 0 0 1-.57.066c-.336 0-.634-.056-.894-.168a1.821 1.821 0 0 1-.648-.486 2.157 2.157 0 0 1-.402-.738 3.233 3.233 0 0 1-.132-.948V8.757h1.482ZM21.328 14.913V8.757h.87c.152 0 .258.028.318.084.06.056.1.152.12.288l.09.744c.22-.38.478-.68.774-.9.296-.22.628-.33.996-.33.304 0 .556.07.756.21l-.192 1.11c-.012.072-.038.124-.078.156a.278.278 0 0 1-.162.042 1.01 1.01 0 0 1-.246-.042 1.646 1.646 0 0 0-.414-.042c-.308 0-.572.086-.792.258-.22.168-.406.416-.558.744v3.834h-1.482ZM27.347 6.237h1.356a.57.57 0 0 1 .348.102c.096.064.16.152.192.264l1.476 5.19c.036.128.068.268.096.42.032.148.062.306.09.474a5.968 5.968 0 0 1 .228-.894l1.704-5.19a.575.575 0 0 1 .186-.252.543.543 0 0 1 .348-.114h.474a.57.57 0 0 1 .348.102.497.497 0 0 1 .192.264l1.692 5.19c.088.256.164.54.228.852.028-.156.056-.306.084-.45.032-.144.064-.278.096-.402l1.476-5.19c.028-.1.09-.186.186-.258a.563.563 0 0 1 .348-.108h1.266l-2.694 8.676h-1.458l-1.896-5.928-.078-.246a9.504 9.504 0 0 1-.072-.282c-.024.1-.05.194-.078.282-.024.088-.048.17-.072.246l-1.914 5.928H30.04l-2.694-8.676ZM42.771 8.661c.46 0 .876.074 1.248.222.376.148.696.358.96.63s.468.604.612.996c.144.392.216.83.216 1.314 0 .488-.072.928-.216 1.32a2.85 2.85 0 0 1-.612 1.002 2.653 2.653 0 0 1-.96.636 3.35 3.35 0 0 1-1.248.222c-.46 0-.878-.074-1.254-.222a2.712 2.712 0 0 1-.966-.636 2.922 2.922 0 0 1-.618-1.002 3.807 3.807 0 0 1-.216-1.32c0-.484.072-.922.216-1.314.148-.392.354-.724.618-.996.268-.272.59-.482.966-.63a3.397 3.397 0 0 1 1.254-.222Zm0 5.202c.512 0 .89-.172 1.134-.516.248-.344.372-.848.372-1.512s-.124-1.17-.372-1.518c-.244-.348-.622-.522-1.134-.522-.52 0-.904.176-1.152.528-.248.348-.372.852-.372 1.512s.124 1.164.372 1.512c.248.344.632.516 1.152.516ZM46.723 14.913V8.757h.87c.152 0 .258.028.318.084.06.056.1.152.12.288l.09.744c.22-.38.478-.68.774-.9.296-.22.628-.33.996-.33.304 0 .556.07.756.21l-.192 1.11c-.012.072-.038.124-.078.156a.278.278 0 0 1-.162.042 1.01 1.01 0 0 1-.246-.042 1.646 1.646 0 0 0-.414-.042c-.308 0-.572.086-.792.258-.22.168-.406.416-.558.744v3.834h-1.482ZM52.96 5.997v8.916h-1.482V5.997h1.482ZM58.732 14.913c-.192 0-.318-.09-.378-.27l-.12-.594a3.68 3.68 0 0 1-.402.39c-.14.116-.292.216-.456.3-.16.084-.334.148-.522.192a2.372 2.372 0 0 1-.6.072c-.336 0-.644-.07-.924-.21a2.098 2.098 0 0 1-.726-.606 3.033 3.033 0 0 1-.468-.99 5.072 5.072 0 0 1-.162-1.344c0-.456.062-.88.186-1.272s.302-.732.534-1.02c.232-.288.51-.512.834-.672a2.384 2.384 0 0 1 1.092-.246 2.103 2.103 0 0 1 1.536.606V5.997h1.482v8.916h-.906Zm-1.974-1.086c.308 0 .57-.064.786-.192.216-.128.42-.31.612-.546v-2.76a1.452 1.452 0 0 0-.552-.432 1.597 1.597 0 0 0-.636-.126c-.224 0-.428.042-.612.126a1.21 1.21 0 0 0-.462.384c-.124.168-.22.384-.288.648-.068.26-.102.568-.102.924 0 .36.028.666.084.918.06.248.144.452.252.612.108.156.24.27.396.342.156.068.33.102.522.102ZM16.331 20.757v6.156H14.85v-6.156h1.481Zm.223-1.794a.844.844 0 0 1-.078.36.963.963 0 0 1-.21.294.995.995 0 0 1-.3.204.963.963 0 0 1-.372.072.948.948 0 0 1-.367-.072 1.018 1.018 0 0 1-.498-.498.963.963 0 0 1 0-.732.995.995 0 0 1 .205-.3.929.929 0 0 1 .293-.198.899.899 0 0 1 .738 0 .912.912 0 0 1 .3.198.943.943 0 0 1 .288.672ZM17.771 26.913v-6.156h.906c.192 0 .318.09.378.27l.102.486a2.934 2.934 0 0 1 .828-.618c.156-.076.322-.134.498-.174.176-.04.368-.06.576-.06.336 0 .634.058.894.174.26.112.476.272.648.48.176.204.308.45.396.738.092.284.138.598.138.942v3.918h-1.482v-3.918c0-.376-.088-.666-.264-.87-.172-.208-.432-.312-.78-.312-.256 0-.496.058-.72.174a2.58 2.58 0 0 0-.636.474v4.452h-1.482ZM34.22 22.575c0 .636-.106 1.22-.318 1.752-.212.532-.51.99-.894 1.374a4 4 0 0 1-1.386.894 4.87 4.87 0 0 1-1.794.318h-3.312v-8.676h3.312a4.79 4.79 0 0 1 1.794.324 4 4 0 0 1 1.386.894c.384.38.682.836.894 1.368.212.532.318 1.116.318 1.752Zm-1.65 0c0-.476-.064-.902-.192-1.278a2.68 2.68 0 0 0-.546-.96 2.332 2.332 0 0 0-.864-.606 2.94 2.94 0 0 0-1.14-.21h-1.686v6.108h1.686c.424 0 .804-.07 1.14-.21.34-.14.628-.34.864-.6a2.75 2.75 0 0 0 .546-.96 4.01 4.01 0 0 0 .192-1.284ZM39.98 26.913h-.665c-.14 0-.25-.02-.33-.06-.08-.044-.14-.13-.18-.258l-.132-.438c-.156.14-.31.264-.462.372a2.804 2.804 0 0 1-.462.264c-.16.072-.33.126-.51.162-.18.036-.38.054-.6.054-.26 0-.5-.034-.72-.102a1.618 1.618 0 0 1-.57-.318 1.448 1.448 0 0 1-.366-.522 1.852 1.852 0 0 1-.132-.726c0-.232.06-.46.18-.684.124-.228.328-.432.612-.612.284-.184.662-.336 1.134-.456.472-.12 1.058-.188 1.758-.204v-.36c0-.412-.088-.716-.264-.912-.172-.2-.424-.3-.756-.3a1.837 1.837 0 0 0-1.02.276c-.116.068-.224.13-.324.186a.664.664 0 0 1-.33.084.429.429 0 0 1-.258-.078.614.614 0 0 1-.174-.192l-.27-.474c.708-.648 1.562-.972 2.562-.972.36 0 .68.06.96.18.284.116.524.28.72.492.196.208.344.458.444.75.104.292.156.612.156.96v3.888Zm-2.88-.924c.153 0 .293-.014.42-.042.129-.028.249-.07.36-.126.117-.056.227-.124.33-.204.109-.084.217-.182.325-.294v-1.038c-.432.02-.794.058-1.086.114-.288.052-.52.12-.696.204a.923.923 0 0 0-.378.294.664.664 0 0 0-.108.366c0 .26.076.446.228.558.156.112.358.168.606.168ZM43.22 27.01c-.532 0-.942-.15-1.23-.45-.288-.305-.432-.723-.432-1.255v-3.438h-.624a.31.31 0 0 1-.21-.078c-.056-.052-.084-.13-.084-.234v-.588l.99-.162.312-1.68a.302.302 0 0 1 .108-.186.365.365 0 0 1 .222-.066h.768v1.938h1.62v1.056h-1.62v3.336c0 .192.048.342.144.45a.488.488 0 0 0 .384.162c.092 0 .168-.01.228-.03.064-.024.118-.048.162-.072.048-.024.09-.046.126-.066a.194.194 0 0 1 .108-.036.16.16 0 0 1 .108.036c.028.02.058.052.09.096l.444.72c-.216.18-.464.316-.744.408a2.77 2.77 0 0 1-.87.138ZM50.423 26.913h-.666c-.14 0-.25-.02-.33-.06-.08-.044-.14-.13-.18-.258l-.132-.438c-.156.14-.31.264-.462.372a2.804 2.804 0 0 1-.462.264c-.16.072-.33.126-.51.162-.18.036-.38.054-.6.054-.26 0-.5-.034-.72-.102a1.618 1.618 0 0 1-.57-.318 1.448 1.448 0 0 1-.366-.522 1.852 1.852 0 0 1-.132-.726c0-.232.06-.46.18-.684.124-.228.328-.432.612-.612.284-.184.662-.336 1.134-.456.472-.12 1.058-.188 1.758-.204v-.36c0-.412-.088-.716-.264-.912-.172-.2-.424-.3-.756-.3a1.837 1.837 0 0 0-1.02.276c-.116.068-.224.13-.324.186a.664.664 0 0 1-.33.084.429.429 0 0 1-.258-.078.614.614 0 0 1-.174-.192l-.27-.474c.708-.648 1.562-.972 2.562-.972.36 0 .68.06.96.18.284.116.524.28.72.492.196.208.344.458.444.75.104.292.156.612.156.96v3.888Zm-2.88-.924c.152 0 .292-.014.42-.042.128-.028.248-.07.36-.126.116-.056.226-.124.33-.204.108-.084.216-.182.324-.294v-1.038c-.432.02-.794.058-1.086.114-.288.052-.52.12-.696.204a.923.923 0 0 0-.378.294.664.664 0 0 0-.108.366c0 .26.076.446.228.558.156.112.358.168.606.168Z"/></svg></g><a id="title" href="https://ourworldindata.org/grapher/tfp-at-constant-national-prices-20111?country=TWN~USA~CHN~JPN~GBR" style="font-family:&#x27;Playfair Display&#x27;, Georgia, &#x27;Times New Roman&#x27;, &#x27;Liberation Serif&#x27;, serif" target="_blank" rel="noopener"><text font-size="25.00" font-weight="600" x="16.0" y="40.3" fill="#2d2e2d"><tspan x="16" y="40.25">Total factor productivity, 1954 to 2019</tspan></text></a><g id="subtitle" class="markdown-text-wrap"><text x="16.0" y="66.5" style="font-size:15px;line-height:1.2" fill="#5b5b5b"><tspan x="16" y="66.5">This data is adjusted for inflation but does not account for differences in living costs between countries. TFP is</tspan><tspan x="16" y="84.5">measured relative to each country&#x27;s TFP in 2017.</tspan></text></g></g><g id="chart-area" style="pointer-events:none"><g id="horizontal-axis" class="HorizontalAxis"><g id="tick-marks"><line id="1954" x1="39.2" y1="531.9" x2="39.2" y2="537.4" stroke="#999" stroke-width="1"></line><line id="2019" x1="704.6" y1="531.9" x2="704.6" y2="537.4" stroke="#999" stroke-width="1"></line><line id="1960" x1="100.6" y1="531.9" x2="100.6" y2="537.4" stroke="#999" stroke-width="1"></line><line id="1970" x1="203" y1="531.9" x2="203" y2="537.4" stroke="#999" stroke-width="1"></line><line id="1980" x1="305.4" y1="531.9" x2="305.4" y2="537.4" stroke="#999" stroke-width="1"></line><line id="1990" x1="407.8" y1="531.9" x2="407.8" y2="537.4" stroke="#999" stroke-width="1"></line><line id="2000" x1="510.1" y1="531.9" x2="510.1" y2="537.4" stroke="#999" stroke-width="1"></line><line id="2010" x1="612.5" y1="531.9" x2="612.5" y2="537.4" stroke="#999" stroke-width="1"></line></g><g id="tick-labels"><text x="39.2" y="550.4" fill="#5b5b5b" text-anchor="start" font-size="13">1954</text><text x="704.64" y="550.4" fill="#5b5b5b" text-anchor="end" font-size="13">2019</text><text x="100.6" y="550.4" fill="#5b5b5b" text-anchor="middle" font-size="13">1960</text><text x="203" y="550.4" fill="#5b5b5b" text-anchor="middle" font-size="13">1970</text><text x="305.4" y="550.4" fill="#5b5b5b" text-anchor="middle" font-size="13">1980</text><text x="407.8" y="550.4" fill="#5b5b5b" text-anchor="middle" font-size="13">1990</text><text x="510.1" y="550.4" fill="#5b5b5b" text-anchor="middle" font-size="13">2000</text><text x="612.5" y="550.4" fill="#5b5b5b" text-anchor="middle" font-size="13">2010</text></g></g><g id="vertical-axis" class="VerticalAxis"><g id="tick-labels"><text x="34.20" y="532.4" dy=".32em" text-anchor="end" fill="#5b5b5b" font-size="13">0</text><text x="34.20" y="450.2" dy=".32em" text-anchor="end" fill="#5b5b5b" font-size="13">0.2</text><text x="34.20" y="367.9" dy=".32em" text-anchor="end" fill="#5b5b5b" font-size="13">0.4</text><text x="34.20" y="285.7" dy=".32em" text-anchor="end" fill="#5b5b5b" font-size="13">0.6</text><text x="34.20" y="203.4" dy=".32em" text-anchor="end" fill="#5b5b5b" font-size="13">0.8</text><text x="34.20" y="121.2" dy=".32em" text-anchor="end" fill="#5b5b5b" font-size="13">1</text></g></g><g id="horizontal-grid-lines" class="AxisGridLines horizontalLines"><line id="0" x1="39.20" y1="532.4" x2="704.64" y2="532.4" stroke="#999"></line><line id="0.2" x1="39.20" y1="450.2" x2="704.64" y2="450.2" stroke="#ddd" stroke-dasharray="4,4"></line><line id="0.4" x1="39.20" y1="367.9" x2="704.64" y2="367.9" stroke="#ddd" stroke-dasharray="4,4"></line><line id="0.6" x1="39.20" y1="285.7" x2="704.64" y2="285.7" stroke="#ddd" stroke-dasharray="4,4"></line><line id="0.8" x1="39.20" y1="203.4" x2="704.64" y2="203.4" stroke="#ddd" stroke-dasharray="4,4"></line><line id="1" x1="39.20" y1="121.2" x2="704.64" y2="121.2" stroke="#ddd" stroke-dasharray="4,4"></line></g><g id="line-labels" class="LineLabels"><g id="connectors"><path id="United-States" d="M708.64,114.2 H722.24 V111.15 H725.64" stroke="#999" stroke-width="0.5" fill="none"></path><path id="Taiwan" d="M708.64,114.7 H722.24 V129.45 H725.64" stroke="#999" stroke-width="0.5" fill="none"></path><path id="Japan" d="M708.64,119.3 H718.8399999999999 V147.75 H725.64" stroke="#999" stroke-width="0.5" fill="none"></path><path id="United-Kingdom" d="M708.64,123.1 H715.4399999999999 V166.05 H725.64" stroke="#999" stroke-width="0.5" fill="none"></path><path id="China" d="M708.64,134.8 H712.04 V184.35000000000002 H725.64" stroke="#999" stroke-width="0.5" fill="none"></path></g><g id="text-annotations"></g><g id="text-labels"><text id="label__United-States" font-size="13.00" font-weight="400" x="729.6" y="116.0" fill="#996d39" opacity="1" text-anchor="start"><tspan x="729.64" y="115.96000000000001">United States</tspan></text><text id="label__Taiwan" font-size="13.00" font-weight="400" x="729.6" y="134.3" fill="#2c8465" opacity="1" text-anchor="start"><tspan x="729.64" y="134.26">Taiwan</tspan></text><text id="label__Japan" font-size="13.00" font-weight="400" x="729.6" y="152.6" fill="#4c6a9c" opacity="1" text-anchor="start"><tspan x="729.64" y="152.56">Japan</tspan></text><text id="label__United-Kingdom" font-size="13.00" font-weight="400" x="729.6" y="170.9" fill="#b13507" opacity="1" text-anchor="start"><tspan x="729.64" y="170.86">United Kingdom</tspan></text><text id="label__China" font-size="13.00" font-weight="400" x="729.6" y="189.2" fill="#6d3e91" opacity="1" text-anchor="start"><tspan x="729.64" y="189.16000000000003">China</tspan></text></g></g><g id="lines"><path fill="none" stroke-linecap="butt" stroke-linejoin="round" stroke="#ffffff" id="outline__China" stroke-width="2.5" d="M59.7 119.4L69.9 125.6L80.2 149.9L90.4 194.9L100.6 220L110.9 276.7L121.1 261.3L131.3 225.7L141.6 195.9L151.8 176.8L162.1 186.2L172.3 199.1L182.5 222.5L192.8 209L203 184.1L213.2 178.3L223.5 201L233.7 195.2L244 205.8L254.2 204.8L264.4 232.1L274.7 231.2L284.9 216.4L295.1 211.9L305.4 216.6L315.6 225.3L325.9 218.6L336.1 213.6L346.3 199.3L356.6 195.9L366.8 193.7L377 186.1L387.3 193L397.5 208.8L407.8 221.5L418 223.6L428.2 217L438.5 206.9L448.7 202.1L458.9 193.4L469.2 191.1L479.4 193.3L489.7 213.4L499.9 217.3L510.1 213.7L520.4 209.5L530.6 197.5L540.8 193.2L551.1 183.9L561.3 174.3L571.6 156.2L581.8 136.4L592 132.7L602.3 126.5L612.5 113.1L622.7 112.1L633 124.3L643.2 117.6L653.5 110.9L663.7 114.4L673.9 115.7L684.2 121.2L694.4 134.2L704.6 134.8"></path><path fill="none" stroke-linecap="butt" stroke-linejoin="round" stroke="#6d3e91" id="line__China" stroke-width="1.5" stroke-opacity="1" d="M59.7 119.4L69.9 125.6L80.2 149.9L90.4 194.9L100.6 220L110.9 276.7L121.1 261.3L131.3 225.7L141.6 195.9L151.8 176.8L162.1 186.2L172.3 199.1L182.5 222.5L192.8 209L203 184.1L213.2 178.3L223.5 201L233.7 195.2L244 205.8L254.2 204.8L264.4 232.1L274.7 231.2L284.9 216.4L295.1 211.9L305.4 216.6L315.6 225.3L325.9 218.6L336.1 213.6L346.3 199.3L356.6 195.9L366.8 193.7L377 186.1L387.3 193L397.5 208.8L407.8 221.5L418 223.6L428.2 217L438.5 206.9L448.7 202.1L458.9 193.4L469.2 191.1L479.4 193.3L489.7 213.4L499.9 217.3L510.1 213.7L520.4 209.5L530.6 197.5L540.8 193.2L551.1 183.9L561.3 174.3L571.6 156.2L581.8 136.4L592 132.7L602.3 126.5L612.5 113.1L622.7 112.1L633 124.3L643.2 117.6L653.5 110.9L663.7 114.4L673.9 115.7L684.2 121.2L694.4 134.2L704.6 134.8"></path><g id="datapoints__China"><circle id="1956" cx="59.7" cy="119.4" r="1.8" fill="#6d3e91" opacity="1"></circle><circle id="1957" cx="69.9" cy="125.6" r="1.8" fill="#6d3e91" opacity="1"></circle><circle id="1958" cx="80.2" cy="149.9" r="1.8" fill="#6d3e91" opacity="1"></circle><circle id="1959" cx="90.4" cy="194.9" r="1.8" fill="#6d3e91" opacity="1"></circle><circle id="1960" cx="100.6" cy="220" r="1.8" fill="#6d3e91" opacity="1"></circle><circle id="1961" cx="110.9" cy="276.7" r="1.8" fill="#6d3e91" opacity="1"></circle><circle id="1962" cx="121.1" cy="261.3" r="1.8" fill="#6d3e91" opacity="1"></circle><circle id="1963" cx="131.3" cy="225.7" r="1.8" fill="#6d3e91" opacity="1"></circle><circle id="1964" cx="141.6" cy="195.9" r="1.8" fill="#6d3e91" opacity="1"></circle><circle id="1965" cx="151.8" cy="176.8" r="1.8" fill="#6d3e91" opacity="1"></circle><circle id="1966" cx="162.1" cy="186.2" r="1.8" fill="#6d3e91" opacity="1"></circle><circle id="1967" cx="172.3" cy="199.1" r="1.8" fill="#6d3e91" opacity="1"></circle><circle id="1968" cx="182.5" cy="222.5" r="1.8" fill="#6d3e91" opacity="1"></circle><circle id="1969" cx="192.8" cy="209" r="1.8" fill="#6d3e91" opacity="1"></circle><circle id="1970" cx="203" cy="184.1" r="1.8" fill="#6d3e91" opacity="1"></circle><circle id="1971" cx="213.2" cy="178.3" r="1.8" fill="#6d3e91" opacity="1"></circle><circle id="1972" cx="223.5" cy="201" r="1.8" fill="#6d3e91" opacity="1"></circle><circle id="1973" cx="233.7" cy="195.2" r="1.8" fill="#6d3e91" opacity="1"></circle><circle id="1974" cx="244" cy="205.8" r="1.8" fill="#6d3e91" opacity="1"></circle><circle id="1975" cx="254.2" cy="204.8" r="1.8" fill="#6d3e91" opacity="1"></circle><circle id="1976" cx="264.4" cy="232.1" r="1.8" fill="#6d3e91" opacity="1"></circle><circle id="1977" cx="274.7" cy="231.2" r="1.8" fill="#6d3e91" opacity="1"></circle><circle id="1978" cx="284.9" cy="216.4" r="1.8" fill="#6d3e91" opacity="1"></circle><circle id="1979" cx="295.1" cy="211.9" r="1.8" fill="#6d3e91" opacity="1"></circle><circle id="1980" cx="305.4" cy="216.6" r="1.8" fill="#6d3e91" opacity="1"></circle><circle id="1981" cx="315.6" cy="225.3" r="1.8" fill="#6d3e91" opacity="1"></circle><circle id="1982" cx="325.9" cy="218.6" r="1.8" fill="#6d3e91" opacity="1"></circle><circle id="1983" cx="336.1" cy="213.6" r="1.8" fill="#6d3e91" opacity="1"></circle><circle id="1984" cx="346.3" cy="199.3" r="1.8" fill="#6d3e91" opacity="1"></circle><circle id="1985" cx="356.6" cy="195.9" r="1.8" fill="#6d3e91" opacity="1"></circle><circle id="1986" cx="366.8" cy="193.7" r="1.8" fill="#6d3e91" opacity="1"></circle><circle id="1987" cx="377" cy="186.1" r="1.8" fill="#6d3e91" opacity="1"></circle><circle id="1988" cx="387.3" cy="193" r="1.8" fill="#6d3e91" opacity="1"></circle><circle id="1989" cx="397.5" cy="208.8" r="1.8" fill="#6d3e91" opacity="1"></circle><circle id="1990" cx="407.8" cy="221.5" r="1.8" fill="#6d3e91" opacity="1"></circle><circle id="1991" cx="418" cy="223.6" r="1.8" fill="#6d3e91" opacity="1"></circle><circle id="1992" cx="428.2" cy="217" r="1.8" fill="#6d3e91" opacity="1"></circle><circle id="1993" cx="438.5" cy="206.9" r="1.8" fill="#6d3e91" opacity="1"></circle><circle id="1994" cx="448.7" cy="202.1" r="1.8" fill="#6d3e91" opacity="1"></circle><circle id="1995" cx="458.9" cy="193.4" r="1.8" fill="#6d3e91" opacity="1"></circle><circle id="1996" cx="469.2" cy="191.1" r="1.8" fill="#6d3e91" opacity="1"></circle><circle id="1997" cx="479.4" cy="193.3" r="1.8" fill="#6d3e91" opacity="1"></circle><circle id="1998" cx="489.7" cy="213.4" r="1.8" fill="#6d3e91" opacity="1"></circle><circle id="1999" cx="499.9" cy="217.3" r="1.8" fill="#6d3e91" opacity="1"></circle><circle id="2000" cx="510.1" cy="213.7" r="1.8" fill="#6d3e91" opacity="1"></circle><circle id="2001" cx="520.4" cy="209.5" r="1.8" fill="#6d3e91" opacity="1"></circle><circle id="2002" cx="530.6" cy="197.5" r="1.8" fill="#6d3e91" opacity="1"></circle><circle id="2003" cx="540.8" cy="193.2" r="1.8" fill="#6d3e91" opacity="1"></circle><circle id="2004" cx="551.1" cy="183.9" r="1.8" fill="#6d3e91" opacity="1"></circle><circle id="2005" cx="561.3" cy="174.3" r="1.8" fill="#6d3e91" opacity="1"></circle><circle id="2006" cx="571.6" cy="156.2" r="1.8" fill="#6d3e91" opacity="1"></circle><circle id="2007" cx="581.8" cy="136.4" r="1.8" fill="#6d3e91" opacity="1"></circle><circle id="2008" cx="592" cy="132.7" r="1.8" fill="#6d3e91" opacity="1"></circle><circle id="2009" cx="602.3" cy="126.5" r="1.8" fill="#6d3e91" opacity="1"></circle><circle id="2010" cx="612.5" cy="113.1" r="1.8" fill="#6d3e91" opacity="1"></circle><circle id="2011" cx="622.7" cy="112.1" r="1.8" fill="#6d3e91" opacity="1"></circle><circle id="2012" cx="633" cy="124.3" r="1.8" fill="#6d3e91" opacity="1"></circle><circle id="2013" cx="643.2" cy="117.6" r="1.8" fill="#6d3e91" opacity="1"></circle><circle id="2014" cx="653.5" cy="110.9" r="1.8" fill="#6d3e91" opacity="1"></circle><circle id="2015" cx="663.7" cy="114.4" r="1.8" fill="#6d3e91" opacity="1"></circle><circle id="2016" cx="673.9" cy="115.7" r="1.8" fill="#6d3e91" opacity="1"></circle><circle id="2017" cx="684.2" cy="121.2" r="1.8" fill="#6d3e91" opacity="1"></circle><circle id="2018" cx="694.4" cy="134.2" r="1.8" fill="#6d3e91" opacity="1"></circle><circle id="2019" cx="704.6" cy="134.8" r="1.8" fill="#6d3e91" opacity="1"></circle></g><path fill="none" stroke-linecap="butt" stroke-linejoin="round" stroke="#ffffff" id="outline__Taiwan" stroke-width="2.5" d="M49.4 449.5L59.7 446.9L69.9 442.8L80.2 438.9L90.4 433.8L100.6 430.7L110.9 428.9L121.1 424.6L131.3 418.8L141.6 408.7L151.8 399L162.1 394.4L172.3 390.8L182.5 388.3L192.8 385.2L203 380.2L213.2 372.7L223.5 365.2L233.7 361.9L244 368.5L254.2 366.4L264.4 354.9L274.7 350.2L284.9 340.5L295.1 340.4L305.4 336.7L315.6 334.7L325.9 334L336.1 328.5L346.3 320.6L356.6 318.6L366.8 308.4L377 297.6L387.3 288.4L397.5 279.5L407.8 276.1L418 266.7L428.2 261L438.5 257.5L448.7 247.1L458.9 245L469.2 232.1L479.4 221.4L489.7 225.5L499.9 216.1L510.1 209.9L520.4 210.2L530.6 200.4L540.8 197.4L551.1 190.6L561.3 184.2L571.6 176L581.8 162.5L592 159.7L602.3 163.4L612.5 137.9L622.7 132.5L633 133.8L643.2 131.4L653.5 126.9L663.7 135.1L673.9 130.7L684.2 121.2L694.4 117.5L704.6 114.7"></path><path fill="none" stroke-linecap="butt" stroke-linejoin="round" stroke="#2c8465" id="line__Taiwan" stroke-width="1.5" stroke-opacity="1" d="M49.4 449.5L59.7 446.9L69.9 442.8L80.2 438.9L90.4 433.8L100.6 430.7L110.9 428.9L121.1 424.6L131.3 418.8L141.6 408.7L151.8 399L162.1 394.4L172.3 390.8L182.5 388.3L192.8 385.2L203 380.2L213.2 372.7L223.5 365.2L233.7 361.9L244 368.5L254.2 366.4L264.4 354.9L274.7 350.2L284.9 340.5L295.1 340.4L305.4 336.7L315.6 334.7L325.9 334L336.1 328.5L346.3 320.6L356.6 318.6L366.8 308.4L377 297.6L387.3 288.4L397.5 279.5L407.8 276.1L418 266.7L428.2 261L438.5 257.5L448.7 247.1L458.9 245L469.2 232.1L479.4 221.4L489.7 225.5L499.9 216.1L510.1 209.9L520.4 210.2L530.6 200.4L540.8 197.4L551.1 190.6L561.3 184.2L571.6 176L581.8 162.5L592 159.7L602.3 163.4L612.5 137.9L622.7 132.5L633 133.8L643.2 131.4L653.5 126.9L663.7 135.1L673.9 130.7L684.2 121.2L694.4 117.5L704.6 114.7"></path><g id="datapoints__Taiwan"><circle id="1955" cx="49.4" cy="449.5" r="1.8" fill="#2c8465" opacity="1"></circle><circle id="1956" cx="59.7" cy="446.9" r="1.8" fill="#2c8465" opacity="1"></circle><circle id="1957" cx="69.9" cy="442.8" r="1.8" fill="#2c8465" opacity="1"></circle><circle id="1958" cx="80.2" cy="438.9" r="1.8" fill="#2c8465" opacity="1"></circle><circle id="1959" cx="90.4" cy="433.8" r="1.8" fill="#2c8465" opacity="1"></circle><circle id="1960" cx="100.6" cy="430.7" r="1.8" fill="#2c8465" opacity="1"></circle><circle id="1961" cx="110.9" cy="428.9" r="1.8" fill="#2c8465" opacity="1"></circle><circle id="1962" cx="121.1" cy="424.6" r="1.8" fill="#2c8465" opacity="1"></circle><circle id="1963" cx="131.3" cy="418.8" r="1.8" fill="#2c8465" opacity="1"></circle><circle id="1964" cx="141.6" cy="408.7" r="1.8" fill="#2c8465" opacity="1"></circle><circle id="1965" cx="151.8" cy="399" r="1.8" fill="#2c8465" opacity="1"></circle><circle id="1966" cx="162.1" cy="394.4" r="1.8" fill="#2c8465" opacity="1"></circle><circle id="1967" cx="172.3" cy="390.8" r="1.8" fill="#2c8465" opacity="1"></circle><circle id="1968" cx="182.5" cy="388.3" r="1.8" fill="#2c8465" opacity="1"></circle><circle id="1969" cx="192.8" cy="385.2" r="1.8" fill="#2c8465" opacity="1"></circle><circle id="1970" cx="203" cy="380.2" r="1.8" fill="#2c8465" opacity="1"></circle><circle id="1971" cx="213.2" cy="372.7" r="1.8" fill="#2c8465" opacity="1"></circle><circle id="1972" cx="223.5" cy="365.2" r="1.8" fill="#2c8465" opacity="1"></circle><circle id="1973" cx="233.7" cy="361.9" r="1.8" fill="#2c8465" opacity="1"></circle><circle id="1974" cx="244" cy="368.5" r="1.8" fill="#2c8465" opacity="1"></circle><circle id="1975" cx="254.2" cy="366.4" r="1.8" fill="#2c8465" opacity="1"></circle><circle id="1976" cx="264.4" cy="354.9" r="1.8" fill="#2c8465" opacity="1"></circle><circle id="1977" cx="274.7" cy="350.2" r="1.8" fill="#2c8465" opacity="1"></circle><circle id="1978" cx="284.9" cy="340.5" r="1.8" fill="#2c8465" opacity="1"></circle><circle id="1979" cx="295.1" cy="340.4" r="1.8" fill="#2c8465" opacity="1"></circle><circle id="1980" cx="305.4" cy="336.7" r="1.8" fill="#2c8465" opacity="1"></circle><circle id="1981" cx="315.6" cy="334.7" r="1.8" fill="#2c8465" opacity="1"></circle><circle id="1982" cx="325.9" cy="334" r="1.8" fill="#2c8465" opacity="1"></circle><circle id="1983" cx="336.1" cy="328.5" r="1.8" fill="#2c8465" opacity="1"></circle><circle id="1984" cx="346.3" cy="320.6" r="1.8" fill="#2c8465" opacity="1"></circle><circle id="1985" cx="356.6" cy="318.6" r="1.8" fill="#2c8465" opacity="1"></circle><circle id="1986" cx="366.8" cy="308.4" r="1.8" fill="#2c8465" opacity="1"></circle><circle id="1987" cx="377" cy="297.6" r="1.8" fill="#2c8465" opacity="1"></circle><circle id="1988" cx="387.3" cy="288.4" r="1.8" fill="#2c8465" opacity="1"></circle><circle id="1989" cx="397.5" cy="279.5" r="1.8" fill="#2c8465" opacity="1"></circle><circle id="1990" cx="407.8" cy="276.1" r="1.8" fill="#2c8465" opacity="1"></circle><circle id="1991" cx="418" cy="266.7" r="1.8" fill="#2c8465" opacity="1"></circle><circle id="1992" cx="428.2" cy="261" r="1.8" fill="#2c8465" opacity="1"></circle><circle id="1993" cx="438.5" cy="257.5" r="1.8" fill="#2c8465" opacity="1"></circle><circle id="1994" cx="448.7" cy="247.1" r="1.8" fill="#2c8465" opacity="1"></circle><circle id="1995" cx="458.9" cy="245" r="1.8" fill="#2c8465" opacity="1"></circle><circle id="1996" cx="469.2" cy="232.1" r="1.8" fill="#2c8465" opacity="1"></circle><circle id="1997" cx="479.4" cy="221.4" r="1.8" fill="#2c8465" opacity="1"></circle><circle id="1998" cx="489.7" cy="225.5" r="1.8" fill="#2c8465" opacity="1"></circle><circle id="1999" cx="499.9" cy="216.1" r="1.8" fill="#2c8465" opacity="1"></circle><circle id="2000" cx="510.1" cy="209.9" r="1.8" fill="#2c8465" opacity="1"></circle><circle id="2001" cx="520.4" cy="210.2" r="1.8" fill="#2c8465" opacity="1"></circle><circle id="2002" cx="530.6" cy="200.4" r="1.8" fill="#2c8465" opacity="1"></circle><circle id="2003" cx="540.8" cy="197.4" r="1.8" fill="#2c8465" opacity="1"></circle><circle id="2004" cx="551.1" cy="190.6" r="1.8" fill="#2c8465" opacity="1"></circle><circle id="2005" cx="561.3" cy="184.2" r="1.8" fill="#2c8465" opacity="1"></circle><circle id="2006" cx="571.6" cy="176" r="1.8" fill="#2c8465" opacity="1"></circle><circle id="2007" cx="581.8" cy="162.5" r="1.8" fill="#2c8465" opacity="1"></circle><circle id="2008" cx="592" cy="159.7" r="1.8" fill="#2c8465" opacity="1"></circle><circle id="2009" cx="602.3" cy="163.4" r="1.8" fill="#2c8465" opacity="1"></circle><circle id="2010" cx="612.5" cy="137.9" r="1.8" fill="#2c8465" opacity="1"></circle><circle id="2011" cx="622.7" cy="132.5" r="1.8" fill="#2c8465" opacity="1"></circle><circle id="2012" cx="633" cy="133.8" r="1.8" fill="#2c8465" opacity="1"></circle><circle id="2013" cx="643.2" cy="131.4" r="1.8" fill="#2c8465" opacity="1"></circle><circle id="2014" cx="653.5" cy="126.9" r="1.8" fill="#2c8465" opacity="1"></circle><circle id="2015" cx="663.7" cy="135.1" r="1.8" fill="#2c8465" opacity="1"></circle><circle id="2016" cx="673.9" cy="130.7" r="1.8" fill="#2c8465" opacity="1"></circle><circle id="2017" cx="684.2" cy="121.2" r="1.8" fill="#2c8465" opacity="1"></circle><circle id="2018" cx="694.4" cy="117.5" r="1.8" fill="#2c8465" opacity="1"></circle><circle id="2019" cx="704.6" cy="114.7" r="1.8" fill="#2c8465" opacity="1"></circle></g><path fill="none" stroke-linecap="butt" stroke-linejoin="round" stroke="#ffffff" id="outline__United-States" stroke-width="2.5" d="M39.2 265.1L49.4 256.4L59.7 258L69.9 255L80.2 254.5L90.4 246.6L100.6 245.1L110.9 242.4L121.1 235.9L131.3 231.6L141.6 226.9L151.8 222.1L162.1 217.4L172.3 218.7L182.5 214.6L192.8 216.7L203 218.5L213.2 212.2L223.5 207.2L233.7 202.7L244 211.6L254.2 211.3L264.4 205L274.7 202.8L284.9 200.9L295.1 203.4L305.4 209.2L315.6 207.1L325.9 213.3L336.1 206.9L346.3 199.8L356.6 197L366.8 193.4L377 193.3L387.3 190.1L397.5 188.4L407.8 186.9L418 188L428.2 179.4L438.5 178.9L448.7 176.8L458.9 177.5L469.2 174.3L479.4 171.1L489.7 167.5L499.9 162.4L510.1 158.6L520.4 157.9L530.6 152.8L540.8 145.5L551.1 138.8L561.3 134.4L571.6 134.2L581.8 134.9L592 137.5L602.3 137.3L612.5 130.7L622.7 131.5L633 130.4L643.2 129.6L653.5 127.8L663.7 124.1L673.9 123.7L684.2 121.2L694.4 117.8L704.6 114.2"></path><path fill="none" stroke-linecap="butt" stroke-linejoin="round" stroke="#996d39" id="line__United-States" stroke-width="1.5" stroke-opacity="1" d="M39.2 265.1L49.4 256.4L59.7 258L69.9 255L80.2 254.5L90.4 246.6L100.6 245.1L110.9 242.4L121.1 235.9L131.3 231.6L141.6 226.9L151.8 222.1L162.1 217.4L172.3 218.7L182.5 214.6L192.8 216.7L203 218.5L213.2 212.2L223.5 207.2L233.7 202.7L244 211.6L254.2 211.3L264.4 205L274.7 202.8L284.9 200.9L295.1 203.4L305.4 209.2L315.6 207.1L325.9 213.3L336.1 206.9L346.3 199.8L356.6 197L366.8 193.4L377 193.3L387.3 190.1L397.5 188.4L407.8 186.9L418 188L428.2 179.4L438.5 178.9L448.7 176.8L458.9 177.5L469.2 174.3L479.4 171.1L489.7 167.5L499.9 162.4L510.1 158.6L520.4 157.9L530.6 152.8L540.8 145.5L551.1 138.8L561.3 134.4L571.6 134.2L581.8 134.9L592 137.5L602.3 137.3L612.5 130.7L622.7 131.5L633 130.4L643.2 129.6L653.5 127.8L663.7 124.1L673.9 123.7L684.2 121.2L694.4 117.8L704.6 114.2"></path><g id="datapoints__United-States"><circle id="1954" cx="39.2" cy="265.1" r="1.8" fill="#996d39" opacity="1"></circle><circle id="1955" cx="49.4" cy="256.4" r="1.8" fill="#996d39" opacity="1"></circle><circle id="1956" cx="59.7" cy="258" r="1.8" fill="#996d39" opacity="1"></circle><circle id="1957" cx="69.9" cy="255" r="1.8" fill="#996d39" opacity="1"></circle><circle id="1958" cx="80.2" cy="254.5" r="1.8" fill="#996d39" opacity="1"></circle><circle id="1959" cx="90.4" cy="246.6" r="1.8" fill="#996d39" opacity="1"></circle><circle id="1960" cx="100.6" cy="245.1" r="1.8" fill="#996d39" opacity="1"></circle><circle id="1961" cx="110.9" cy="242.4" r="1.8" fill="#996d39" opacity="1"></circle><circle id="1962" cx="121.1" cy="235.9" r="1.8" fill="#996d39" opacity="1"></circle><circle id="1963" cx="131.3" cy="231.6" r="1.8" fill="#996d39" opacity="1"></circle><circle id="1964" cx="141.6" cy="226.9" r="1.8" fill="#996d39" opacity="1"></circle><circle id="1965" cx="151.8" cy="222.1" r="1.8" fill="#996d39" opacity="1"></circle><circle id="1966" cx="162.1" cy="217.4" r="1.8" fill="#996d39" opacity="1"></circle><circle id="1967" cx="172.3" cy="218.7" r="1.8" fill="#996d39" opacity="1"></circle><circle id="1968" cx="182.5" cy="214.6" r="1.8" fill="#996d39" opacity="1"></circle><circle id="1969" cx="192.8" cy="216.7" r="1.8" fill="#996d39" opacity="1"></circle><circle id="1970" cx="203" cy="218.5" r="1.8" fill="#996d39" opacity="1"></circle><circle id="1971" cx="213.2" cy="212.2" r="1.8" fill="#996d39" opacity="1"></circle><circle id="1972" cx="223.5" cy="207.2" r="1.8" fill="#996d39" opacity="1"></circle><circle id="1973" cx="233.7" cy="202.7" r="1.8" fill="#996d39" opacity="1"></circle><circle id="1974" cx="244" cy="211.6" r="1.8" fill="#996d39" opacity="1"></circle><circle id="1975" cx="254.2" cy="211.3" r="1.8" fill="#996d39" opacity="1"></circle><circle id="1976" cx="264.4" cy="205" r="1.8" fill="#996d39" opacity="1"></circle><circle id="1977" cx="274.7" cy="202.8" r="1.8" fill="#996d39" opacity="1"></circle><circle id="1978" cx="284.9" cy="200.9" r="1.8" fill="#996d39" opacity="1"></circle><circle id="1979" cx="295.1" cy="203.4" r="1.8" fill="#996d39" opacity="1"></circle><circle id="1980" cx="305.4" cy="209.2" r="1.8" fill="#996d39" opacity="1"></circle><circle id="1981" cx="315.6" cy="207.1" r="1.8" fill="#996d39" opacity="1"></circle><circle id="1982" cx="325.9" cy="213.3" r="1.8" fill="#996d39" opacity="1"></circle><circle id="1983" cx="336.1" cy="206.9" r="1.8" fill="#996d39" opacity="1"></circle><circle id="1984" cx="346.3" cy="199.8" r="1.8" fill="#996d39" opacity="1"></circle><circle id="1985" cx="356.6" cy="197" r="1.8" fill="#996d39" opacity="1"></circle><circle id="1986" cx="366.8" cy="193.4" r="1.8" fill="#996d39" opacity="1"></circle><circle id="1987" cx="377" cy="193.3" r="1.8" fill="#996d39" opacity="1"></circle><circle id="1988" cx="387.3" cy="190.1" r="1.8" fill="#996d39" opacity="1"></circle><circle id="1989" cx="397.5" cy="188.4" r="1.8" fill="#996d39" opacity="1"></circle><circle id="1990" cx="407.8" cy="186.9" r="1.8" fill="#996d39" opacity="1"></circle><circle id="1991" cx="418" cy="188" r="1.8" fill="#996d39" opacity="1"></circle><circle id="1992" cx="428.2" cy="179.4" r="1.8" fill="#996d39" opacity="1"></circle><circle id="1993" cx="438.5" cy="178.9" r="1.8" fill="#996d39" opacity="1"></circle><circle id="1994" cx="448.7" cy="176.8" r="1.8" fill="#996d39" opacity="1"></circle><circle id="1995" cx="458.9" cy="177.5" r="1.8" fill="#996d39" opacity="1"></circle><circle id="1996" cx="469.2" cy="174.3" r="1.8" fill="#996d39" opacity="1"></circle><circle id="1997" cx="479.4" cy="171.1" r="1.8" fill="#996d39" opacity="1"></circle><circle id="1998" cx="489.7" cy="167.5" r="1.8" fill="#996d39" opacity="1"></circle><circle id="1999" cx="499.9" cy="162.4" r="1.8" fill="#996d39" opacity="1"></circle><circle id="2000" cx="510.1" cy="158.6" r="1.8" fill="#996d39" opacity="1"></circle><circle id="2001" cx="520.4" cy="157.9" r="1.8" fill="#996d39" opacity="1"></circle><circle id="2002" cx="530.6" cy="152.8" r="1.8" fill="#996d39" opacity="1"></circle><circle id="2003" cx="540.8" cy="145.5" r="1.8" fill="#996d39" opacity="1"></circle><circle id="2004" cx="551.1" cy="138.8" r="1.8" fill="#996d39" opacity="1"></circle><circle id="2005" cx="561.3" cy="134.4" r="1.8" fill="#996d39" opacity="1"></circle><circle id="2006" cx="571.6" cy="134.2" r="1.8" fill="#996d39" opacity="1"></circle><circle id="2007" cx="581.8" cy="134.9" r="1.8" fill="#996d39" opacity="1"></circle><circle id="2008" cx="592" cy="137.5" r="1.8" fill="#996d39" opacity="1"></circle><circle id="2009" cx="602.3" cy="137.3" r="1.8" fill="#996d39" opacity="1"></circle><circle id="2010" cx="612.5" cy="130.7" r="1.8" fill="#996d39" opacity="1"></circle><circle id="2011" cx="622.7" cy="131.5" r="1.8" fill="#996d39" opacity="1"></circle><circle id="2012" cx="633" cy="130.4" r="1.8" fill="#996d39" opacity="1"></circle><circle id="2013" cx="643.2" cy="129.6" r="1.8" fill="#996d39" opacity="1"></circle><circle id="2014" cx="653.5" cy="127.8" r="1.8" fill="#996d39" opacity="1"></circle><circle id="2015" cx="663.7" cy="124.1" r="1.8" fill="#996d39" opacity="1"></circle><circle id="2016" cx="673.9" cy="123.7" r="1.8" fill="#996d39" opacity="1"></circle><circle id="2017" cx="684.2" cy="121.2" r="1.8" fill="#996d39" opacity="1"></circle><circle id="2018" cx="694.4" cy="117.8" r="1.8" fill="#996d39" opacity="1"></circle><circle id="2019" cx="704.6" cy="114.2" r="1.8" fill="#996d39" opacity="1"></circle></g><path fill="none" stroke-linecap="butt" stroke-linejoin="round" stroke="#ffffff" id="outline__United-Kingdom" stroke-width="2.5" d="M39.2 237.5L49.4 238.9L59.7 244L69.9 246.4L80.2 247.7L90.4 242.8L100.6 241.5L110.9 242.7L121.1 242.4L131.3 237.4L141.6 232.9L151.8 234.4L162.1 232.8L172.3 230.8L182.5 216.4L192.8 226.1L203 222.6L213.2 213.3L223.5 208.9L233.7 198.9L244 212.4L254.2 218.7L264.4 213.2L274.7 211.7L284.9 204.9L295.1 199.7L305.4 206.2L315.6 202.6L325.9 195.5L336.1 183.3L346.3 185.4L356.6 179.4L366.8 174.3L377 166L387.3 161.2L397.5 166.4L407.8 171.8L418 173.7L428.2 172.1L438.5 166.1L448.7 161.3L458.9 161.1L469.2 160.6L479.4 151.8L489.7 146.6L499.9 142.5L510.1 136.3L520.4 133.1L530.6 128.8L540.8 121.3L551.1 118.8L561.3 115L571.6 111.3L581.8 110L592 117.9L602.3 131.5L612.5 128.5L622.7 126.5L633 128.2L643.2 126.4L653.5 124.6L663.7 122L673.9 121.9L684.2 121.2L694.4 121.6L704.6 123.1"></path><path fill="none" stroke-linecap="butt" stroke-linejoin="round" stroke="#b13507" id="line__United-Kingdom" stroke-width="1.5" stroke-opacity="1" d="M39.2 237.5L49.4 238.9L59.7 244L69.9 246.4L80.2 247.7L90.4 242.8L100.6 241.5L110.9 242.7L121.1 242.4L131.3 237.4L141.6 232.9L151.8 234.4L162.1 232.8L172.3 230.8L182.5 216.4L192.8 226.1L203 222.6L213.2 213.3L223.5 208.9L233.7 198.9L244 212.4L254.2 218.7L264.4 213.2L274.7 211.7L284.9 204.9L295.1 199.7L305.4 206.2L315.6 202.6L325.9 195.5L336.1 183.3L346.3 185.4L356.6 179.4L366.8 174.3L377 166L387.3 161.2L397.5 166.4L407.8 171.8L418 173.7L428.2 172.1L438.5 166.1L448.7 161.3L458.9 161.1L469.2 160.6L479.4 151.8L489.7 146.6L499.9 142.5L510.1 136.3L520.4 133.1L530.6 128.8L540.8 121.3L551.1 118.8L561.3 115L571.6 111.3L581.8 110L592 117.9L602.3 131.5L612.5 128.5L622.7 126.5L633 128.2L643.2 126.4L653.5 124.6L663.7 122L673.9 121.9L684.2 121.2L694.4 121.6L704.6 123.1"></path><g id="datapoints__United-Kingdom"><circle id="1954" cx="39.2" cy="237.5" r="1.8" fill="#b13507" opacity="1"></circle><circle id="1955" cx="49.4" cy="238.9" r="1.8" fill="#b13507" opacity="1"></circle><circle id="1956" cx="59.7" cy="244" r="1.8" fill="#b13507" opacity="1"></circle><circle id="1957" cx="69.9" cy="246.4" r="1.8" fill="#b13507" opacity="1"></circle><circle id="1958" cx="80.2" cy="247.7" r="1.8" fill="#b13507" opacity="1"></circle><circle id="1959" cx="90.4" cy="242.8" r="1.8" fill="#b13507" opacity="1"></circle><circle id="1960" cx="100.6" cy="241.5" r="1.8" fill="#b13507" opacity="1"></circle><circle id="1961" cx="110.9" cy="242.7" r="1.8" fill="#b13507" opacity="1"></circle><circle id="1962" cx="121.1" cy="242.4" r="1.8" fill="#b13507" opacity="1"></circle><circle id="1963" cx="131.3" cy="237.4" r="1.8" fill="#b13507" opacity="1"></circle><circle id="1964" cx="141.6" cy="232.9" r="1.8" fill="#b13507" opacity="1"></circle><circle id="1965" cx="151.8" cy="234.4" r="1.8" fill="#b13507" opacity="1"></circle><circle id="1966" cx="162.1" cy="232.8" r="1.8" fill="#b13507" opacity="1"></circle><circle id="1967" cx="172.3" cy="230.8" r="1.8" fill="#b13507" opacity="1"></circle><circle id="1968" cx="182.5" cy="216.4" r="1.8" fill="#b13507" opacity="1"></circle><circle id="1969" cx="192.8" cy="226.1" r="1.8" fill="#b13507" opacity="1"></circle><circle id="1970" cx="203" cy="222.6" r="1.8" fill="#b13507" opacity="1"></circle><circle id="1971" cx="213.2" cy="213.3" r="1.8" fill="#b13507" opacity="1"></circle><circle id="1972" cx="223.5" cy="208.9" r="1.8" fill="#b13507" opacity="1"></circle><circle id="1973" cx="233.7" cy="198.9" r="1.8" fill="#b13507" opacity="1"></circle><circle id="1974" cx="244" cy="212.4" r="1.8" fill="#b13507" opacity="1"></circle><circle id="1975" cx="254.2" cy="218.7" r="1.8" fill="#b13507" opacity="1"></circle><circle id="1976" cx="264.4" cy="213.2" r="1.8" fill="#b13507" opacity="1"></circle><circle id="1977" cx="274.7" cy="211.7" r="1.8" fill="#b13507" opacity="1"></circle><circle id="1978" cx="284.9" cy="204.9" r="1.8" fill="#b13507" opacity="1"></circle><circle id="1979" cx="295.1" cy="199.7" r="1.8" fill="#b13507" opacity="1"></circle><circle id="1980" cx="305.4" cy="206.2" r="1.8" fill="#b13507" opacity="1"></circle><circle id="1981" cx="315.6" cy="202.6" r="1.8" fill="#b13507" opacity="1"></circle><circle id="1982" cx="325.9" cy="195.5" r="1.8" fill="#b13507" opacity="1"></circle><circle id="1983" cx="336.1" cy="183.3" r="1.8" fill="#b13507" opacity="1"></circle><circle id="1984" cx="346.3" cy="185.4" r="1.8" fill="#b13507" opacity="1"></circle><circle id="1985" cx="356.6" cy="179.4" r="1.8" fill="#b13507" opacity="1"></circle><circle id="1986" cx="366.8" cy="174.3" r="1.8" fill="#b13507" opacity="1"></circle><circle id="1987" cx="377" cy="166" r="1.8" fill="#b13507" opacity="1"></circle><circle id="1988" cx="387.3" cy="161.2" r="1.8" fill="#b13507" opacity="1"></circle><circle id="1989" cx="397.5" cy="166.4" r="1.8" fill="#b13507" opacity="1"></circle><circle id="1990" cx="407.8" cy="171.8" r="1.8" fill="#b13507" opacity="1"></circle><circle id="1991" cx="418" cy="173.7" r="1.8" fill="#b13507" opacity="1"></circle><circle id="1992" cx="428.2" cy="172.1" r="1.8" fill="#b13507" opacity="1"></circle><circle id="1993" cx="438.5" cy="166.1" r="1.8" fill="#b13507" opacity="1"></circle><circle id="1994" cx="448.7" cy="161.3" r="1.8" fill="#b13507" opacity="1"></circle><circle id="1995" cx="458.9" cy="161.1" r="1.8" fill="#b13507" opacity="1"></circle><circle id="1996" cx="469.2" cy="160.6" r="1.8" fill="#b13507" opacity="1"></circle><circle id="1997" cx="479.4" cy="151.8" r="1.8" fill="#b13507" opacity="1"></circle><circle id="1998" cx="489.7" cy="146.6" r="1.8" fill="#b13507" opacity="1"></circle><circle id="1999" cx="499.9" cy="142.5" r="1.8" fill="#b13507" opacity="1"></circle><circle id="2000" cx="510.1" cy="136.3" r="1.8" fill="#b13507" opacity="1"></circle><circle id="2001" cx="520.4" cy="133.1" r="1.8" fill="#b13507" opacity="1"></circle><circle id="2002" cx="530.6" cy="128.8" r="1.8" fill="#b13507" opacity="1"></circle><circle id="2003" cx="540.8" cy="121.3" r="1.8" fill="#b13507" opacity="1"></circle><circle id="2004" cx="551.1" cy="118.8" r="1.8" fill="#b13507" opacity="1"></circle><circle id="2005" cx="561.3" cy="115" r="1.8" fill="#b13507" opacity="1"></circle><circle id="2006" cx="571.6" cy="111.3" r="1.8" fill="#b13507" opacity="1"></circle><circle id="2007" cx="581.8" cy="110" r="1.8" fill="#b13507" opacity="1"></circle><circle id="2008" cx="592" cy="117.9" r="1.8" fill="#b13507" opacity="1"></circle><circle id="2009" cx="602.3" cy="131.5" r="1.8" fill="#b13507" opacity="1"></circle><circle id="2010" cx="612.5" cy="128.5" r="1.8" fill="#b13507" opacity="1"></circle><circle id="2011" cx="622.7" cy="126.5" r="1.8" fill="#b13507" opacity="1"></circle><circle id="2012" cx="633" cy="128.2" r="1.8" fill="#b13507" opacity="1"></circle><circle id="2013" cx="643.2" cy="126.4" r="1.8" fill="#b13507" opacity="1"></circle><circle id="2014" cx="653.5" cy="124.6" r="1.8" fill="#b13507" opacity="1"></circle><circle id="2015" cx="663.7" cy="122" r="1.8" fill="#b13507" opacity="1"></circle><circle id="2016" cx="673.9" cy="121.9" r="1.8" fill="#b13507" opacity="1"></circle><circle id="2017" cx="684.2" cy="121.2" r="1.8" fill="#b13507" opacity="1"></circle><circle id="2018" cx="694.4" cy="121.6" r="1.8" fill="#b13507" opacity="1"></circle><circle id="2019" cx="704.6" cy="123.1" r="1.8" fill="#b13507" opacity="1"></circle></g><path fill="none" stroke-linecap="butt" stroke-linejoin="round" stroke="#ffffff" id="outline__Japan" stroke-width="2.5" d="M39.2 341.5L49.4 339.1L59.7 336.3L69.9 333.4L80.2 329.8L90.4 321.4L100.6 309L110.9 298.1L121.1 291L131.3 283.4L141.6 271.7L151.8 269.7L162.1 259.8L172.3 249.1L182.5 235.8L192.8 219.1L203 208.9L213.2 212.3L223.5 203.8L233.7 197.5L244 207.1L254.2 204.1L264.4 205.5L274.7 204.3L284.9 200.3L295.1 195.9L305.4 198.5L315.6 195L325.9 194L336.1 193.7L346.3 189L356.6 179.4L366.8 177.4L377 171.5L387.3 160.5L397.5 155.3L407.8 148.4L418 148.3L428.2 150.6L438.5 155.5L448.7 155.1L458.9 152.1L469.2 148.5L479.4 149.6L489.7 154.1L499.9 155.2L510.1 148.8L520.4 148.5L530.6 146.7L540.8 144.2L551.1 140.8L561.3 138L571.6 138.3L581.8 135.5L592 139.6L602.3 153L612.5 140.1L622.7 140.4L633 136.2L643.2 128.3L653.5 129.2L663.7 126.3L673.9 126.5L684.2 121.2L694.4 123.4L704.6 119.3"></path><path fill="none" stroke-linecap="butt" stroke-linejoin="round" stroke="#4c6a9c" id="line__Japan" stroke-width="1.5" stroke-opacity="1" d="M39.2 341.5L49.4 339.1L59.7 336.3L69.9 333.4L80.2 329.8L90.4 321.4L100.6 309L110.9 298.1L121.1 291L131.3 283.4L141.6 271.7L151.8 269.7L162.1 259.8L172.3 249.1L182.5 235.8L192.8 219.1L203 208.9L213.2 212.3L223.5 203.8L233.7 197.5L244 207.1L254.2 204.1L264.4 205.5L274.7 204.3L284.9 200.3L295.1 195.9L305.4 198.5L315.6 195L325.9 194L336.1 193.7L346.3 189L356.6 179.4L366.8 177.4L377 171.5L387.3 160.5L397.5 155.3L407.8 148.4L418 148.3L428.2 150.6L438.5 155.5L448.7 155.1L458.9 152.1L469.2 148.5L479.4 149.6L489.7 154.1L499.9 155.2L510.1 148.8L520.4 148.5L530.6 146.7L540.8 144.2L551.1 140.8L561.3 138L571.6 138.3L581.8 135.5L592 139.6L602.3 153L612.5 140.1L622.7 140.4L633 136.2L643.2 128.3L653.5 129.2L663.7 126.3L673.9 126.5L684.2 121.2L694.4 123.4L704.6 119.3"></path><g id="datapoints__Japan"><circle id="1954" cx="39.2" cy="341.5" r="1.8" fill="#4c6a9c" opacity="1"></circle><circle id="1955" cx="49.4" cy="339.1" r="1.8" fill="#4c6a9c" opacity="1"></circle><circle id="1956" cx="59.7" cy="336.3" r="1.8" fill="#4c6a9c" opacity="1"></circle><circle id="1957" cx="69.9" cy="333.4" r="1.8" fill="#4c6a9c" opacity="1"></circle><circle id="1958" cx="80.2" cy="329.8" r="1.8" fill="#4c6a9c" opacity="1"></circle><circle id="1959" cx="90.4" cy="321.4" r="1.8" fill="#4c6a9c" opacity="1"></circle><circle id="1960" cx="100.6" cy="309" r="1.8" fill="#4c6a9c" opacity="1"></circle><circle id="1961" cx="110.9" cy="298.1" r="1.8" fill="#4c6a9c" opacity="1"></circle><circle id="1962" cx="121.1" cy="291" r="1.8" fill="#4c6a9c" opacity="1"></circle><circle id="1963" cx="131.3" cy="283.4" r="1.8" fill="#4c6a9c" opacity="1"></circle><circle id="1964" cx="141.6" cy="271.7" r="1.8" fill="#4c6a9c" opacity="1"></circle><circle id="1965" cx="151.8" cy="269.7" r="1.8" fill="#4c6a9c" opacity="1"></circle><circle id="1966" cx="162.1" cy="259.8" r="1.8" fill="#4c6a9c" opacity="1"></circle><circle id="1967" cx="172.3" cy="249.1" r="1.8" fill="#4c6a9c" opacity="1"></circle><circle id="1968" cx="182.5" cy="235.8" r="1.8" fill="#4c6a9c" opacity="1"></circle><circle id="1969" cx="192.8" cy="219.1" r="1.8" fill="#4c6a9c" opacity="1"></circle><circle id="1970" cx="203" cy="208.9" r="1.8" fill="#4c6a9c" opacity="1"></circle><circle id="1971" cx="213.2" cy="212.3" r="1.8" fill="#4c6a9c" opacity="1"></circle><circle id="1972" cx="223.5" cy="203.8" r="1.8" fill="#4c6a9c" opacity="1"></circle><circle id="1973" cx="233.7" cy="197.5" r="1.8" fill="#4c6a9c" opacity="1"></circle><circle id="1974" cx="244" cy="207.1" r="1.8" fill="#4c6a9c" opacity="1"></circle><circle id="1975" cx="254.2" cy="204.1" r="1.8" fill="#4c6a9c" opacity="1"></circle><circle id="1976" cx="264.4" cy="205.5" r="1.8" fill="#4c6a9c" opacity="1"></circle><circle id="1977" cx="274.7" cy="204.3" r="1.8" fill="#4c6a9c" opacity="1"></circle><circle id="1978" cx="284.9" cy="200.3" r="1.8" fill="#4c6a9c" opacity="1"></circle><circle id="1979" cx="295.1" cy="195.9" r="1.8" fill="#4c6a9c" opacity="1"></circle><circle id="1980" cx="305.4" cy="198.5" r="1.8" fill="#4c6a9c" opacity="1"></circle><circle id="1981" cx="315.6" cy="195" r="1.8" fill="#4c6a9c" opacity="1"></circle><circle id="1982" cx="325.9" cy="194" r="1.8" fill="#4c6a9c" opacity="1"></circle><circle id="1983" cx="336.1" cy="193.7" r="1.8" fill="#4c6a9c" opacity="1"></circle><circle id="1984" cx="346.3" cy="189" r="1.8" fill="#4c6a9c" opacity="1"></circle><circle id="1985" cx="356.6" cy="179.4" r="1.8" fill="#4c6a9c" opacity="1"></circle><circle id="1986" cx="366.8" cy="177.4" r="1.8" fill="#4c6a9c" opacity="1"></circle><circle id="1987" cx="377" cy="171.5" r="1.8" fill="#4c6a9c" opacity="1"></circle><circle id="1988" cx="387.3" cy="160.5" r="1.8" fill="#4c6a9c" opacity="1"></circle><circle id="1989" cx="397.5" cy="155.3" r="1.8" fill="#4c6a9c" opacity="1"></circle><circle id="1990" cx="407.8" cy="148.4" r="1.8" fill="#4c6a9c" opacity="1"></circle><circle id="1991" cx="418" cy="148.3" r="1.8" fill="#4c6a9c" opacity="1"></circle><circle id="1992" cx="428.2" cy="150.6" r="1.8" fill="#4c6a9c" opacity="1"></circle><circle id="1993" cx="438.5" cy="155.5" r="1.8" fill="#4c6a9c" opacity="1"></circle><circle id="1994" cx="448.7" cy="155.1" r="1.8" fill="#4c6a9c" opacity="1"></circle><circle id="1995" cx="458.9" cy="152.1" r="1.8" fill="#4c6a9c" opacity="1"></circle><circle id="1996" cx="469.2" cy="148.5" r="1.8" fill="#4c6a9c" opacity="1"></circle><circle id="1997" cx="479.4" cy="149.6" r="1.8" fill="#4c6a9c" opacity="1"></circle><circle id="1998" cx="489.7" cy="154.1" r="1.8" fill="#4c6a9c" opacity="1"></circle><circle id="1999" cx="499.9" cy="155.2" r="1.8" fill="#4c6a9c" opacity="1"></circle><circle id="2000" cx="510.1" cy="148.8" r="1.8" fill="#4c6a9c" opacity="1"></circle><circle id="2001" cx="520.4" cy="148.5" r="1.8" fill="#4c6a9c" opacity="1"></circle><circle id="2002" cx="530.6" cy="146.7" r="1.8" fill="#4c6a9c" opacity="1"></circle><circle id="2003" cx="540.8" cy="144.2" r="1.8" fill="#4c6a9c" opacity="1"></circle><circle id="2004" cx="551.1" cy="140.8" r="1.8" fill="#4c6a9c" opacity="1"></circle><circle id="2005" cx="561.3" cy="138" r="1.8" fill="#4c6a9c" opacity="1"></circle><circle id="2006" cx="571.6" cy="138.3" r="1.8" fill="#4c6a9c" opacity="1"></circle><circle id="2007" cx="581.8" cy="135.5" r="1.8" fill="#4c6a9c" opacity="1"></circle><circle id="2008" cx="592" cy="139.6" r="1.8" fill="#4c6a9c" opacity="1"></circle><circle id="2009" cx="602.3" cy="153" r="1.8" fill="#4c6a9c" opacity="1"></circle><circle id="2010" cx="612.5" cy="140.1" r="1.8" fill="#4c6a9c" opacity="1"></circle><circle id="2011" cx="622.7" cy="140.4" r="1.8" fill="#4c6a9c" opacity="1"></circle><circle id="2012" cx="633" cy="136.2" r="1.8" fill="#4c6a9c" opacity="1"></circle><circle id="2013" cx="643.2" cy="128.3" r="1.8" fill="#4c6a9c" opacity="1"></circle><circle id="2014" cx="653.5" cy="129.2" r="1.8" fill="#4c6a9c" opacity="1"></circle><circle id="2015" cx="663.7" cy="126.3" r="1.8" fill="#4c6a9c" opacity="1"></circle><circle id="2016" cx="673.9" cy="126.5" r="1.8" fill="#4c6a9c" opacity="1"></circle><circle id="2017" cx="684.2" cy="121.2" r="1.8" fill="#4c6a9c" opacity="1"></circle><circle id="2018" cx="694.4" cy="123.4" r="1.8" fill="#4c6a9c" opacity="1"></circle><circle id="2019" cx="704.6" cy="119.3" r="1.8" fill="#4c6a9c" opacity="1"></circle></g></g></g><g id="footer" class="SourcesFooter" style="fill:#858585"><g id="sources" class="markdown-text-wrap"><text x="16.0" y="581.0" style="font-size:13px;line-height:1.2"><tspan x="16" y="581.0"><tspan style="font-weight:700">Data source:</tspan> Feenstra et al. (2015), Penn World Table (2021)</tspan></text></g><text id="origin-url" font-size="13.00" x="564.9" y="581.0"><tspan x="564.9" y="581.01"><a target="_blank" style="fill: #858585;" href="https://ourworldindata.org/economic-growth">OurWorldinData.org/economic-growth</a> | <a target="_blank" style="fill: #858585;" href="https://creativecommons.org/licenses/by/4.0/">CC BY</a></tspan></text></g></svg>