<?xml version="1.0" encoding="utf-8" standalone="no"?>
<!DOCTYPE svg PUBLIC "-//W3C//DTD SVG 1.1//EN"
  "http://www.w3.org/Graphics/SVG/1.1/DTD/svg11.dtd">
<svg xmlns:xlink="http://www.w3.org/1999/xlink" width="460.8pt" height="345.6pt" viewBox="0 0 460.8 345.6" xmlns="http://www.w3.org/2000/svg" version="1.1">
 <metadata>
  <rdf:RDF xmlns:dc="http://purl.org/dc/elements/1.1/" xmlns:cc="http://creativecommons.org/ns#" xmlns:rdf="http://www.w3.org/1999/02/22-rdf-syntax-ns#">
   <cc:Work>
    <dc:type rdf:resource="http://purl.org/dc/dcmitype/StillImage"/>
    <dc:date>2024-04-26T02:05:38.075051</dc:date>
    <dc:format>image/svg+xml</dc:format>
    <dc:creator>
     <cc:Agent>
      <dc:title>Matplotlib v3.7.1, https://matplotlib.org/</dc:title>
     </cc:Agent>
    </dc:creator>
   </cc:Work>
  </rdf:RDF>
 </metadata>
 <defs>
  <style type="text/css">*{stroke-linejoin: round; stroke-linecap: butt}</style>
 </defs>
 <g id="figure_1">
  <g id="patch_1">
   <path d="M 0 345.6 
L 460.8 345.6 
L 460.8 0 
L 0 0 
z
" style="fill: #ffffff"/>
  </g>
  <g id="axes_1">
   <g id="patch_2">
    <path d="M 103.104 307.584 
L 369.216 307.584 
L 369.216 41.472 
L 103.104 41.472 
z
" style="fill: #ffffff"/>
   </g>
   <g id="PathCollection_1">
    <defs>
     <path id="mea10e35d0f" d="M 0 3 
C 0.795609 3 1.55874 2.683901 2.12132 2.12132 
C 2.683901 1.55874 3 0.795609 3 0 
C 3 -0.795609 2.683901 -1.55874 2.12132 -2.12132 
C 1.55874 -2.683901 0.795609 -3 0 -3 
C -0.795609 -3 -1.55874 -2.683901 -2.12132 -2.12132 
C -2.683901 -1.55874 -3 -0.795609 -3 0 
C -3 0.795609 -2.683901 1.55874 -2.12132 2.12132 
C -1.55874 2.683901 -0.795609 3 0 3 
z
" style="stroke: #ff0000; stroke-opacity: 0.3"/>
    </defs>
    <g clip-path="url(#pb36d78f580)">
     <use xlink:href="#mea10e35d0f" x="103.104" y="307.584" style="fill: #ff0000; fill-opacity: 0.3; stroke: #ff0000; stroke-opacity: 0.3"/>
    </g>
   </g>
   <g id="PathCollection_2">
    <g clip-path="url(#pb36d78f580)">
     <use xlink:href="#mea10e35d0f" x="107.614373" y="303.073627" style="fill: #ff0000; fill-opacity: 0.3; stroke: #ff0000; stroke-opacity: 0.3"/>
    </g>
   </g>
   <g id="PathCollection_3">
    <g clip-path="url(#pb36d78f580)">
     <use xlink:href="#mea10e35d0f" x="112.124746" y="298.563254" style="fill: #ff0000; fill-opacity: 0.3; stroke: #ff0000; stroke-opacity: 0.3"/>
    </g>
   </g>
   <g id="PathCollection_4">
    <g clip-path="url(#pb36d78f580)">
     <use xlink:href="#mea10e35d0f" x="116.635119" y="294.052881" style="fill: #ff0000; fill-opacity: 0.3; stroke: #ff0000; stroke-opacity: 0.3"/>
    </g>
   </g>
   <g id="PathCollection_5">
    <g clip-path="url(#pb36d78f580)">
     <use xlink:href="#mea10e35d0f" x="121.145492" y="289.542508" style="fill: #ff0000; fill-opacity: 0.3; stroke: #ff0000; stroke-opacity: 0.3"/>
    </g>
   </g>
   <g id="PathCollection_6">
    <g clip-path="url(#pb36d78f580)">
     <use xlink:href="#mea10e35d0f" x="125.655864" y="285.032136" style="fill: #ff0000; fill-opacity: 0.3; stroke: #ff0000; stroke-opacity: 0.3"/>
    </g>
   </g>
   <g id="PathCollection_7">
    <g clip-path="url(#pb36d78f580)">
     <use xlink:href="#mea10e35d0f" x="130.166237" y="280.521763" style="fill: #ff0000; fill-opacity: 0.3; stroke: #ff0000; stroke-opacity: 0.3"/>
    </g>
   </g>
   <g id="PathCollection_8">
    <g clip-path="url(#pb36d78f580)">
     <use xlink:href="#mea10e35d0f" x="134.67661" y="276.01139" style="fill: #ff0000; fill-opacity: 0.3; stroke: #ff0000; stroke-opacity: 0.3"/>
    </g>
   </g>
   <g id="PathCollection_9">
    <g clip-path="url(#pb36d78f580)">
     <use xlink:href="#mea10e35d0f" x="139.186983" y="271.501017" style="fill: #ff0000; fill-opacity: 0.3; stroke: #ff0000; stroke-opacity: 0.3"/>
    </g>
   </g>
   <g id="PathCollection_10">
    <g clip-path="url(#pb36d78f580)">
     <use xlink:href="#mea10e35d0f" x="143.697356" y="266.990644" style="fill: #ff0000; fill-opacity: 0.3; stroke: #ff0000; stroke-opacity: 0.3"/>
    </g>
   </g>
   <g id="PathCollection_11">
    <g clip-path="url(#pb36d78f580)">
     <use xlink:href="#mea10e35d0f" x="148.207729" y="262.480271" style="fill: #ff0000; fill-opacity: 0.3; stroke: #ff0000; stroke-opacity: 0.3"/>
    </g>
   </g>
   <g id="PathCollection_12">
    <g clip-path="url(#pb36d78f580)">
     <use xlink:href="#mea10e35d0f" x="152.718102" y="257.969898" style="fill: #ff0000; fill-opacity: 0.3; stroke: #ff0000; stroke-opacity: 0.3"/>
    </g>
   </g>
   <g id="PathCollection_13">
    <g clip-path="url(#pb36d78f580)">
     <use xlink:href="#mea10e35d0f" x="157.228475" y="253.459525" style="fill: #ff0000; fill-opacity: 0.3; stroke: #ff0000; stroke-opacity: 0.3"/>
    </g>
   </g>
   <g id="PathCollection_14">
    <g clip-path="url(#pb36d78f580)">
     <use xlink:href="#mea10e35d0f" x="161.738847" y="248.949153" style="fill: #ff0000; fill-opacity: 0.3; stroke: #ff0000; stroke-opacity: 0.3"/>
    </g>
   </g>
   <g id="PathCollection_15">
    <g clip-path="url(#pb36d78f580)">
     <use xlink:href="#mea10e35d0f" x="166.24922" y="244.43878" style="fill: #ff0000; fill-opacity: 0.3; stroke: #ff0000; stroke-opacity: 0.3"/>
    </g>
   </g>
   <g id="PathCollection_16">
    <g clip-path="url(#pb36d78f580)">
     <use xlink:href="#mea10e35d0f" x="170.759593" y="239.928407" style="fill: #ff0000; fill-opacity: 0.3; stroke: #ff0000; stroke-opacity: 0.3"/>
    </g>
   </g>
   <g id="PathCollection_17">
    <g clip-path="url(#pb36d78f580)">
     <use xlink:href="#mea10e35d0f" x="175.269966" y="235.418034" style="fill: #ff0000; fill-opacity: 0.3; stroke: #ff0000; stroke-opacity: 0.3"/>
    </g>
   </g>
   <g id="PathCollection_18">
    <g clip-path="url(#pb36d78f580)">
     <use xlink:href="#mea10e35d0f" x="179.780339" y="230.907661" style="fill: #ff0000; fill-opacity: 0.3; stroke: #ff0000; stroke-opacity: 0.3"/>
    </g>
   </g>
   <g id="PathCollection_19">
    <g clip-path="url(#pb36d78f580)">
     <use xlink:href="#mea10e35d0f" x="184.290712" y="226.397288" style="fill: #ff0000; fill-opacity: 0.3; stroke: #ff0000; stroke-opacity: 0.3"/>
    </g>
   </g>
   <g id="PathCollection_20">
    <g clip-path="url(#pb36d78f580)">
     <use xlink:href="#mea10e35d0f" x="188.801085" y="221.886915" style="fill: #ff0000; fill-opacity: 0.3; stroke: #ff0000; stroke-opacity: 0.3"/>
    </g>
   </g>
   <g id="PathCollection_21">
    <g clip-path="url(#pb36d78f580)">
     <use xlink:href="#mea10e35d0f" x="193.311458" y="217.376542" style="fill: #ff0000; fill-opacity: 0.3; stroke: #ff0000; stroke-opacity: 0.3"/>
    </g>
   </g>
   <g id="PathCollection_22">
    <g clip-path="url(#pb36d78f580)">
     <use xlink:href="#mea10e35d0f" x="197.821831" y="212.866169" style="fill: #ff0000; fill-opacity: 0.3; stroke: #ff0000; stroke-opacity: 0.3"/>
    </g>
   </g>
   <g id="PathCollection_23">
    <g clip-path="url(#pb36d78f580)">
     <use xlink:href="#mea10e35d0f" x="202.332203" y="208.355797" style="fill: #ff0000; fill-opacity: 0.3; stroke: #ff0000; stroke-opacity: 0.3"/>
    </g>
   </g>
   <g id="PathCollection_24">
    <g clip-path="url(#pb36d78f580)">
     <use xlink:href="#mea10e35d0f" x="206.842576" y="203.845424" style="fill: #ff0000; fill-opacity: 0.3; stroke: #ff0000; stroke-opacity: 0.3"/>
    </g>
   </g>
   <g id="PathCollection_25">
    <g clip-path="url(#pb36d78f580)">
     <use xlink:href="#mea10e35d0f" x="211.352949" y="199.335051" style="fill: #ff0000; fill-opacity: 0.3; stroke: #ff0000; stroke-opacity: 0.3"/>
    </g>
   </g>
   <g id="PathCollection_26">
    <g clip-path="url(#pb36d78f580)">
     <use xlink:href="#mea10e35d0f" x="215.863322" y="194.824678" style="fill: #ff0000; fill-opacity: 0.3; stroke: #ff0000; stroke-opacity: 0.3"/>
    </g>
   </g>
   <g id="PathCollection_27">
    <g clip-path="url(#pb36d78f580)">
     <use xlink:href="#mea10e35d0f" x="220.373695" y="190.314305" style="fill: #ff0000; fill-opacity: 0.3; stroke: #ff0000; stroke-opacity: 0.3"/>
    </g>
   </g>
   <g id="PathCollection_28">
    <g clip-path="url(#pb36d78f580)">
     <use xlink:href="#mea10e35d0f" x="224.884068" y="185.803932" style="fill: #ff0000; fill-opacity: 0.3; stroke: #ff0000; stroke-opacity: 0.3"/>
    </g>
   </g>
   <g id="PathCollection_29">
    <g clip-path="url(#pb36d78f580)">
     <use xlink:href="#mea10e35d0f" x="229.394441" y="181.293559" style="fill: #ff0000; fill-opacity: 0.3; stroke: #ff0000; stroke-opacity: 0.3"/>
    </g>
   </g>
   <g id="PathCollection_30">
    <g clip-path="url(#pb36d78f580)">
     <use xlink:href="#mea10e35d0f" x="233.904814" y="176.783186" style="fill: #ff0000; fill-opacity: 0.3; stroke: #ff0000; stroke-opacity: 0.3"/>
    </g>
   </g>
   <g id="PathCollection_31">
    <g clip-path="url(#pb36d78f580)">
     <use xlink:href="#mea10e35d0f" x="238.415186" y="172.272814" style="fill: #ff0000; fill-opacity: 0.3; stroke: #ff0000; stroke-opacity: 0.3"/>
    </g>
   </g>
   <g id="PathCollection_32">
    <g clip-path="url(#pb36d78f580)">
     <use xlink:href="#mea10e35d0f" x="242.925559" y="167.762441" style="fill: #ff0000; fill-opacity: 0.3; stroke: #ff0000; stroke-opacity: 0.3"/>
    </g>
   </g>
   <g id="PathCollection_33">
    <g clip-path="url(#pb36d78f580)">
     <use xlink:href="#mea10e35d0f" x="247.435932" y="163.252068" style="fill: #ff0000; fill-opacity: 0.3; stroke: #ff0000; stroke-opacity: 0.3"/>
    </g>
   </g>
   <g id="PathCollection_34">
    <g clip-path="url(#pb36d78f580)">
     <use xlink:href="#mea10e35d0f" x="251.946305" y="158.741695" style="fill: #ff0000; fill-opacity: 0.3; stroke: #ff0000; stroke-opacity: 0.3"/>
    </g>
   </g>
   <g id="PathCollection_35">
    <g clip-path="url(#pb36d78f580)">
     <use xlink:href="#mea10e35d0f" x="256.456678" y="154.231322" style="fill: #ff0000; fill-opacity: 0.3; stroke: #ff0000; stroke-opacity: 0.3"/>
    </g>
   </g>
   <g id="PathCollection_36">
    <g clip-path="url(#pb36d78f580)">
     <use xlink:href="#mea10e35d0f" x="260.967051" y="149.720949" style="fill: #ff0000; fill-opacity: 0.3; stroke: #ff0000; stroke-opacity: 0.3"/>
    </g>
   </g>
   <g id="PathCollection_37">
    <g clip-path="url(#pb36d78f580)">
     <use xlink:href="#mea10e35d0f" x="265.477424" y="145.210576" style="fill: #ff0000; fill-opacity: 0.3; stroke: #ff0000; stroke-opacity: 0.3"/>
    </g>
   </g>
   <g id="PathCollection_38">
    <g clip-path="url(#pb36d78f580)">
     <use xlink:href="#mea10e35d0f" x="269.987797" y="140.700203" style="fill: #ff0000; fill-opacity: 0.3; stroke: #ff0000; stroke-opacity: 0.3"/>
    </g>
   </g>
   <g id="PathCollection_39">
    <g clip-path="url(#pb36d78f580)">
     <use xlink:href="#mea10e35d0f" x="274.498169" y="136.189831" style="fill: #ff0000; fill-opacity: 0.3; stroke: #ff0000; stroke-opacity: 0.3"/>
    </g>
   </g>
   <g id="PathCollection_40">
    <g clip-path="url(#pb36d78f580)">
     <use xlink:href="#mea10e35d0f" x="279.008542" y="131.679458" style="fill: #ff0000; fill-opacity: 0.3; stroke: #ff0000; stroke-opacity: 0.3"/>
    </g>
   </g>
   <g id="PathCollection_41">
    <g clip-path="url(#pb36d78f580)">
     <use xlink:href="#mea10e35d0f" x="283.518915" y="127.169085" style="fill: #ff0000; fill-opacity: 0.3; stroke: #ff0000; stroke-opacity: 0.3"/>
    </g>
   </g>
   <g id="PathCollection_42">
    <g clip-path="url(#pb36d78f580)">
     <use xlink:href="#mea10e35d0f" x="288.029288" y="122.658712" style="fill: #ff0000; fill-opacity: 0.3; stroke: #ff0000; stroke-opacity: 0.3"/>
    </g>
   </g>
   <g id="PathCollection_43">
    <g clip-path="url(#pb36d78f580)">
     <use xlink:href="#mea10e35d0f" x="292.539661" y="118.148339" style="fill: #ff0000; fill-opacity: 0.3; stroke: #ff0000; stroke-opacity: 0.3"/>
    </g>
   </g>
   <g id="PathCollection_44">
    <g clip-path="url(#pb36d78f580)">
     <use xlink:href="#mea10e35d0f" x="297.050034" y="113.637966" style="fill: #ff0000; fill-opacity: 0.3; stroke: #ff0000; stroke-opacity: 0.3"/>
    </g>
   </g>
   <g id="PathCollection_45">
    <g clip-path="url(#pb36d78f580)">
     <use xlink:href="#mea10e35d0f" x="301.560407" y="109.127593" style="fill: #ff0000; fill-opacity: 0.3; stroke: #ff0000; stroke-opacity: 0.3"/>
    </g>
   </g>
   <g id="PathCollection_46">
    <g clip-path="url(#pb36d78f580)">
     <use xlink:href="#mea10e35d0f" x="306.07078" y="104.61722" style="fill: #ff0000; fill-opacity: 0.3; stroke: #ff0000; stroke-opacity: 0.3"/>
    </g>
   </g>
   <g id="PathCollection_47">
    <g clip-path="url(#pb36d78f580)">
     <use xlink:href="#mea10e35d0f" x="310.581153" y="100.106847" style="fill: #ff0000; fill-opacity: 0.3; stroke: #ff0000; stroke-opacity: 0.3"/>
    </g>
   </g>
   <g id="PathCollection_48">
    <g clip-path="url(#pb36d78f580)">
     <use xlink:href="#mea10e35d0f" x="315.091525" y="95.596475" style="fill: #ff0000; fill-opacity: 0.3; stroke: #ff0000; stroke-opacity: 0.3"/>
    </g>
   </g>
   <g id="PathCollection_49">
    <g clip-path="url(#pb36d78f580)">
     <use xlink:href="#mea10e35d0f" x="319.601898" y="91.086102" style="fill: #ff0000; fill-opacity: 0.3; stroke: #ff0000; stroke-opacity: 0.3"/>
    </g>
   </g>
   <g id="PathCollection_50">
    <g clip-path="url(#pb36d78f580)">
     <use xlink:href="#mea10e35d0f" x="324.112271" y="86.575729" style="fill: #ff0000; fill-opacity: 0.3; stroke: #ff0000; stroke-opacity: 0.3"/>
    </g>
   </g>
   <g id="PathCollection_51">
    <g clip-path="url(#pb36d78f580)">
     <use xlink:href="#mea10e35d0f" x="328.622644" y="82.065356" style="fill: #ff0000; fill-opacity: 0.3; stroke: #ff0000; stroke-opacity: 0.3"/>
    </g>
   </g>
   <g id="PathCollection_52">
    <g clip-path="url(#pb36d78f580)">
     <use xlink:href="#mea10e35d0f" x="333.133017" y="77.554983" style="fill: #ff0000; fill-opacity: 0.3; stroke: #ff0000; stroke-opacity: 0.3"/>
    </g>
   </g>
   <g id="PathCollection_53">
    <g clip-path="url(#pb36d78f580)">
     <use xlink:href="#mea10e35d0f" x="337.64339" y="73.04461" style="fill: #ff0000; fill-opacity: 0.3; stroke: #ff0000; stroke-opacity: 0.3"/>
    </g>
   </g>
   <g id="PathCollection_54">
    <g clip-path="url(#pb36d78f580)">
     <use xlink:href="#mea10e35d0f" x="342.153763" y="68.534237" style="fill: #ff0000; fill-opacity: 0.3; stroke: #ff0000; stroke-opacity: 0.3"/>
    </g>
   </g>
   <g id="PathCollection_55">
    <g clip-path="url(#pb36d78f580)">
     <use xlink:href="#mea10e35d0f" x="346.664136" y="64.023864" style="fill: #ff0000; fill-opacity: 0.3; stroke: #ff0000; stroke-opacity: 0.3"/>
    </g>
   </g>
   <g id="PathCollection_56">
    <g clip-path="url(#pb36d78f580)">
     <use xlink:href="#mea10e35d0f" x="351.174508" y="59.513492" style="fill: #ff0000; fill-opacity: 0.3; stroke: #ff0000; stroke-opacity: 0.3"/>
    </g>
   </g>
   <g id="PathCollection_57">
    <g clip-path="url(#pb36d78f580)">
     <use xlink:href="#mea10e35d0f" x="355.684881" y="55.003119" style="fill: #ff0000; fill-opacity: 0.3; stroke: #ff0000; stroke-opacity: 0.3"/>
    </g>
   </g>
   <g id="PathCollection_58">
    <g clip-path="url(#pb36d78f580)">
     <use xlink:href="#mea10e35d0f" x="360.195254" y="50.492746" style="fill: #ff0000; fill-opacity: 0.3; stroke: #ff0000; stroke-opacity: 0.3"/>
    </g>
   </g>
   <g id="PathCollection_59">
    <g clip-path="url(#pb36d78f580)">
     <use xlink:href="#mea10e35d0f" x="364.705627" y="45.982373" style="fill: #ff0000; fill-opacity: 0.3; stroke: #ff0000; stroke-opacity: 0.3"/>
    </g>
   </g>
   <g id="PathCollection_60">
    <g clip-path="url(#pb36d78f580)">
     <use xlink:href="#mea10e35d0f" x="369.216" y="41.472" style="fill: #ff0000; fill-opacity: 0.3; stroke: #ff0000; stroke-opacity: 0.3"/>
    </g>
   </g>
   <g id="matplotlib.axis_1">
    <g id="xtick_1">
     <g id="line2d_1">
      <defs>
       <path id="m4729059131" d="M 0 0 
L 0 3.5 
" style="stroke: #000000; stroke-width: 0.8"/>
      </defs>
      <g>
       <use xlink:href="#m4729059131" x="103.104" y="307.584" style="stroke: #000000; stroke-width: 0.8"/>
      </g>
     </g>
     <g id="text_1">
      <!-- −1.0 -->
      <g transform="translate(90.962594 322.182437) scale(0.1 -0.1)">
       <defs>
        <path id="DejaVuSans-2212" d="M 678 2272 
L 4684 2272 
L 4684 1741 
L 678 1741 
L 678 2272 
z
" transform="scale(0.015625)"/>
        <path id="DejaVuSans-31" d="M 794 531 
L 1825 531 
L 1825 4091 
L 703 3866 
L 703 4441 
L 1819 4666 
L 2450 4666 
L 2450 531 
L 3481 531 
L 3481 0 
L 794 0 
L 794 531 
z
" transform="scale(0.015625)"/>
        <path id="DejaVuSans-2e" d="M 684 794 
L 1344 794 
L 1344 0 
L 684 0 
L 684 794 
z
" transform="scale(0.015625)"/>
        <path id="DejaVuSans-30" d="M 2034 4250 
Q 1547 4250 1301 3770 
Q 1056 3291 1056 2328 
Q 1056 1369 1301 889 
Q 1547 409 2034 409 
Q 2525 409 2770 889 
Q 3016 1369 3016 2328 
Q 3016 3291 2770 3770 
Q 2525 4250 2034 4250 
z
M 2034 4750 
Q 2819 4750 3233 4129 
Q 3647 3509 3647 2328 
Q 3647 1150 3233 529 
Q 2819 -91 2034 -91 
Q 1250 -91 836 529 
Q 422 1150 422 2328 
Q 422 3509 836 4129 
Q 1250 4750 2034 4750 
z
" transform="scale(0.015625)"/>
       </defs>
       <use xlink:href="#DejaVuSans-2212"/>
       <use xlink:href="#DejaVuSans-31" x="83.789062"/>
       <use xlink:href="#DejaVuSans-2e" x="147.412109"/>
       <use xlink:href="#DejaVuSans-30" x="179.199219"/>
      </g>
     </g>
    </g>
    <g id="xtick_2">
     <g id="line2d_2">
      <g>
       <use xlink:href="#m4729059131" x="147.456" y="307.584" style="stroke: #000000; stroke-width: 0.8"/>
      </g>
     </g>
     <g id="text_2">
      <!-- −0.5 -->
      <g transform="translate(135.314594 322.182437) scale(0.1 -0.1)">
       <defs>
        <path id="DejaVuSans-35" d="M 691 4666 
L 3169 4666 
L 3169 4134 
L 1269 4134 
L 1269 2991 
Q 1406 3038 1543 3061 
Q 1681 3084 1819 3084 
Q 2600 3084 3056 2656 
Q 3513 2228 3513 1497 
Q 3513 744 3044 326 
Q 2575 -91 1722 -91 
Q 1428 -91 1123 -41 
Q 819 9 494 109 
L 494 744 
Q 775 591 1075 516 
Q 1375 441 1709 441 
Q 2250 441 2565 725 
Q 2881 1009 2881 1497 
Q 2881 1984 2565 2268 
Q 2250 2553 1709 2553 
Q 1456 2553 1204 2497 
Q 953 2441 691 2322 
L 691 4666 
z
" transform="scale(0.015625)"/>
       </defs>
       <use xlink:href="#DejaVuSans-2212"/>
       <use xlink:href="#DejaVuSans-30" x="83.789062"/>
       <use xlink:href="#DejaVuSans-2e" x="147.412109"/>
       <use xlink:href="#DejaVuSans-35" x="179.199219"/>
      </g>
     </g>
    </g>
    <g id="xtick_3">
     <g id="line2d_3">
      <g>
       <use xlink:href="#m4729059131" x="191.808" y="307.584" style="stroke: #000000; stroke-width: 0.8"/>
      </g>
     </g>
     <g id="text_3">
      <!-- 0.0 -->
      <g transform="translate(183.856437 322.182437) scale(0.1 -0.1)">
       <use xlink:href="#DejaVuSans-30"/>
       <use xlink:href="#DejaVuSans-2e" x="63.623047"/>
       <use xlink:href="#DejaVuSans-30" x="95.410156"/>
      </g>
     </g>
    </g>
    <g id="xtick_4">
     <g id="line2d_4">
      <g>
       <use xlink:href="#m4729059131" x="236.16" y="307.584" style="stroke: #000000; stroke-width: 0.8"/>
      </g>
     </g>
     <g id="text_4">
      <!-- 0.5 -->
      <g transform="translate(228.208437 322.182437) scale(0.1 -0.1)">
       <use xlink:href="#DejaVuSans-30"/>
       <use xlink:href="#DejaVuSans-2e" x="63.623047"/>
       <use xlink:href="#DejaVuSans-35" x="95.410156"/>
      </g>
     </g>
    </g>
    <g id="xtick_5">
     <g id="line2d_5">
      <g>
       <use xlink:href="#m4729059131" x="280.512" y="307.584" style="stroke: #000000; stroke-width: 0.8"/>
      </g>
     </g>
     <g id="text_5">
      <!-- 1.0 -->
      <g transform="translate(272.560437 322.182437) scale(0.1 -0.1)">
       <use xlink:href="#DejaVuSans-31"/>
       <use xlink:href="#DejaVuSans-2e" x="63.623047"/>
       <use xlink:href="#DejaVuSans-30" x="95.410156"/>
      </g>
     </g>
    </g>
    <g id="xtick_6">
     <g id="line2d_6">
      <g>
       <use xlink:href="#m4729059131" x="324.864" y="307.584" style="stroke: #000000; stroke-width: 0.8"/>
      </g>
     </g>
     <g id="text_6">
      <!-- 1.5 -->
      <g transform="translate(316.912437 322.182437) scale(0.1 -0.1)">
       <use xlink:href="#DejaVuSans-31"/>
       <use xlink:href="#DejaVuSans-2e" x="63.623047"/>
       <use xlink:href="#DejaVuSans-35" x="95.410156"/>
      </g>
     </g>
    </g>
    <g id="xtick_7">
     <g id="line2d_7">
      <g>
       <use xlink:href="#m4729059131" x="369.216" y="307.584" style="stroke: #000000; stroke-width: 0.8"/>
      </g>
     </g>
     <g id="text_7">
      <!-- 2.0 -->
      <g transform="translate(361.264437 322.182437) scale(0.1 -0.1)">
       <defs>
        <path id="DejaVuSans-32" d="M 1228 531 
L 3431 531 
L 3431 0 
L 469 0 
L 469 531 
Q 828 903 1448 1529 
Q 2069 2156 2228 2338 
Q 2531 2678 2651 2914 
Q 2772 3150 2772 3378 
Q 2772 3750 2511 3984 
Q 2250 4219 1831 4219 
Q 1534 4219 1204 4116 
Q 875 4013 500 3803 
L 500 4441 
Q 881 4594 1212 4672 
Q 1544 4750 1819 4750 
Q 2544 4750 2975 4387 
Q 3406 4025 3406 3419 
Q 3406 3131 3298 2873 
Q 3191 2616 2906 2266 
Q 2828 2175 2409 1742 
Q 1991 1309 1228 531 
z
" transform="scale(0.015625)"/>
       </defs>
       <use xlink:href="#DejaVuSans-32"/>
       <use xlink:href="#DejaVuSans-2e" x="63.623047"/>
       <use xlink:href="#DejaVuSans-30" x="95.410156"/>
      </g>
     </g>
    </g>
    <g id="text_8">
     <!-- x -->
     <g transform="translate(233.200625 335.860562) scale(0.1 -0.1)">
      <defs>
       <path id="DejaVuSans-78" d="M 3513 3500 
L 2247 1797 
L 3578 0 
L 2900 0 
L 1881 1375 
L 863 0 
L 184 0 
L 1544 1831 
L 300 3500 
L 978 3500 
L 1906 2253 
L 2834 3500 
L 3513 3500 
z
" transform="scale(0.015625)"/>
      </defs>
      <use xlink:href="#DejaVuSans-78"/>
     </g>
    </g>
   </g>
   <g id="matplotlib.axis_2">
    <g id="ytick_1">
     <g id="line2d_8">
      <defs>
       <path id="m619c4ba95c" d="M 0 0 
L -3.5 0 
" style="stroke: #000000; stroke-width: 0.8"/>
      </defs>
      <g>
       <use xlink:href="#m619c4ba95c" x="103.104" y="307.584" style="stroke: #000000; stroke-width: 0.8"/>
      </g>
     </g>
     <g id="text_9">
      <!-- −1.0 -->
      <g transform="translate(71.821188 311.383219) scale(0.1 -0.1)">
       <use xlink:href="#DejaVuSans-2212"/>
       <use xlink:href="#DejaVuSans-31" x="83.789062"/>
       <use xlink:href="#DejaVuSans-2e" x="147.412109"/>
       <use xlink:href="#DejaVuSans-30" x="179.199219"/>
      </g>
     </g>
    </g>
    <g id="ytick_2">
     <g id="line2d_9">
      <g>
       <use xlink:href="#m619c4ba95c" x="103.104" y="263.232" style="stroke: #000000; stroke-width: 0.8"/>
      </g>
     </g>
     <g id="text_10">
      <!-- −0.5 -->
      <g transform="translate(71.821188 267.031219) scale(0.1 -0.1)">
       <use xlink:href="#DejaVuSans-2212"/>
       <use xlink:href="#DejaVuSans-30" x="83.789062"/>
       <use xlink:href="#DejaVuSans-2e" x="147.412109"/>
       <use xlink:href="#DejaVuSans-35" x="179.199219"/>
      </g>
     </g>
    </g>
    <g id="ytick_3">
     <g id="line2d_10">
      <g>
       <use xlink:href="#m619c4ba95c" x="103.104" y="218.88" style="stroke: #000000; stroke-width: 0.8"/>
      </g>
     </g>
     <g id="text_11">
      <!-- 0.0 -->
      <g transform="translate(80.200875 222.679219) scale(0.1 -0.1)">
       <use xlink:href="#DejaVuSans-30"/>
       <use xlink:href="#DejaVuSans-2e" x="63.623047"/>
       <use xlink:href="#DejaVuSans-30" x="95.410156"/>
      </g>
     </g>
    </g>
    <g id="ytick_4">
     <g id="line2d_11">
      <g>
       <use xlink:href="#m619c4ba95c" x="103.104" y="174.528" style="stroke: #000000; stroke-width: 0.8"/>
      </g>
     </g>
     <g id="text_12">
      <!-- 0.5 -->
      <g transform="translate(80.200875 178.327219) scale(0.1 -0.1)">
       <use xlink:href="#DejaVuSans-30"/>
       <use xlink:href="#DejaVuSans-2e" x="63.623047"/>
       <use xlink:href="#DejaVuSans-35" x="95.410156"/>
      </g>
     </g>
    </g>
    <g id="ytick_5">
     <g id="line2d_12">
      <g>
       <use xlink:href="#m619c4ba95c" x="103.104" y="130.176" style="stroke: #000000; stroke-width: 0.8"/>
      </g>
     </g>
     <g id="text_13">
      <!-- 1.0 -->
      <g transform="translate(80.200875 133.975219) scale(0.1 -0.1)">
       <use xlink:href="#DejaVuSans-31"/>
       <use xlink:href="#DejaVuSans-2e" x="63.623047"/>
       <use xlink:href="#DejaVuSans-30" x="95.410156"/>
      </g>
     </g>
    </g>
    <g id="ytick_6">
     <g id="line2d_13">
      <g>
       <use xlink:href="#m619c4ba95c" x="103.104" y="85.824" style="stroke: #000000; stroke-width: 0.8"/>
      </g>
     </g>
     <g id="text_14">
      <!-- 1.5 -->
      <g transform="translate(80.200875 89.623219) scale(0.1 -0.1)">
       <use xlink:href="#DejaVuSans-31"/>
       <use xlink:href="#DejaVuSans-2e" x="63.623047"/>
       <use xlink:href="#DejaVuSans-35" x="95.410156"/>
      </g>
     </g>
    </g>
    <g id="ytick_7">
     <g id="line2d_14">
      <g>
       <use xlink:href="#m619c4ba95c" x="103.104" y="41.472" style="stroke: #000000; stroke-width: 0.8"/>
      </g>
     </g>
     <g id="text_15">
      <!-- 2.0 -->
      <g transform="translate(80.200875 45.271219) scale(0.1 -0.1)">
       <use xlink:href="#DejaVuSans-32"/>
       <use xlink:href="#DejaVuSans-2e" x="63.623047"/>
       <use xlink:href="#DejaVuSans-30" x="95.410156"/>
      </g>
     </g>
    </g>
    <g id="text_16">
     <!-- y -->
     <g transform="translate(65.7415 177.487375) rotate(-90) scale(0.1 -0.1)">
      <defs>
       <path id="DejaVuSans-79" d="M 2059 -325 
Q 1816 -950 1584 -1140 
Q 1353 -1331 966 -1331 
L 506 -1331 
L 506 -850 
L 844 -850 
Q 1081 -850 1212 -737 
Q 1344 -625 1503 -206 
L 1606 56 
L 191 3500 
L 800 3500 
L 1894 763 
L 2988 3500 
L 3597 3500 
L 2059 -325 
z
" transform="scale(0.015625)"/>
      </defs>
      <use xlink:href="#DejaVuSans-79"/>
     </g>
    </g>
   </g>
   <g id="line2d_15">
    <path d="M 109.247181 303.430224 
L 109.074913 304.275595 
L 108.681159 305.067375 
L 108.059766 305.810127 
L 107.210733 306.472201 
L 106.152519 307.012061 
L 104.915885 307.390965 
L 103.562355 307.571904 
L 102.17191 307.533759 
L 100.836837 307.277687 
L 99.630965 306.824102 
L 98.62197 306.212819 
L 97.846766 305.491401 
L 97.311506 304.695443 
L 97.022343 303.879096 
L 96.960819 303.430224 
L 96.960819 303.430224 
" clip-path="url(#pb36d78f580)" style="fill: none; stroke: #0000ff; stroke-opacity: 0.3; stroke-width: 1.5; stroke-linecap: square"/>
   </g>
   <g id="line2d_16">
    <path d="M 109.247181 303.041306 
L 109.074913 302.195935 
L 108.681159 301.404154 
L 108.059766 300.661402 
L 107.210733 299.999328 
L 106.152519 299.459468 
L 104.915885 299.080565 
L 103.562355 298.899625 
L 102.17191 298.93777 
L 100.836837 299.193842 
L 99.630965 299.647428 
L 98.62197 300.25871 
L 97.846766 300.980128 
L 97.311506 301.776087 
L 97.022343 302.592433 
L 96.960819 303.041306 
L 96.960819 303.041306 
" clip-path="url(#pb36d78f580)" style="fill: none; stroke: #0000ff; stroke-opacity: 0.3; stroke-width: 1.5; stroke-linecap: square"/>
   </g>
   <g id="line2d_17">
    <path d="M 113.924603 298.597794 
L 113.769035 299.508624 
L 113.393078 300.335272 
L 112.790252 301.114422 
L 111.967038 301.810109 
L 110.936399 302.387787 
L 109.724265 302.810102 
L 108.388972 303.038999 
L 107.001824 303.052003 
L 105.640603 302.843881 
L 104.389576 302.430593 
L 103.313564 301.845545 
L 102.45794 301.134529 
L 101.835667 300.335272 
L 101.453229 299.487717 
L 101.310625 298.725194 
L 101.304143 298.597794 
L 101.304143 298.597794 
" clip-path="url(#pb36d78f580)" style="fill: none; stroke: #0000ff; stroke-opacity: 0.3; stroke-width: 1.5; stroke-linecap: square"/>
   </g>
   <g id="line2d_18">
    <path d="M 113.924603 298.387107 
L 113.769035 297.476277 
L 113.393078 296.649629 
L 112.790252 295.87048 
L 111.967038 295.174792 
L 110.936399 294.597114 
L 109.724265 294.174799 
L 108.388972 293.945902 
L 107.001824 293.932898 
L 105.640603 294.141021 
L 104.389576 294.554308 
L 103.313564 295.139356 
L 102.45794 295.850373 
L 101.835667 296.649629 
L 101.453229 297.497185 
L 101.310625 298.259708 
L 101.304143 298.387107 
L 101.304143 298.387107 
" clip-path="url(#pb36d78f580)" style="fill: none; stroke: #0000ff; stroke-opacity: 0.3; stroke-width: 1.5; stroke-linecap: square"/>
   </g>
   <g id="line2d_19">
    <path d="M 118.607238 293.923594 
L 118.436015 294.845093 
L 118.045627 295.702048 
L 117.429226 296.510038 
L 116.593659 297.231938 
L 115.559473 297.829331 
L 114.347217 298.270408 
L 113.018528 298.517105 
L 111.635049 298.549447 
L 110.272116 298.361724 
L 108.998219 297.964161 
L 107.888696 297.389176 
L 106.98464 296.676488 
L 106.306598 295.864919 
L 105.868268 295.004521 
L 105.6628 294.156781 
L 105.642254 293.923594 
L 105.642254 293.923594 
" clip-path="url(#pb36d78f580)" style="fill: none; stroke: #0000ff; stroke-opacity: 0.3; stroke-width: 1.5; stroke-linecap: square"/>
   </g>
   <g id="line2d_20">
    <path d="M 118.607238 293.521938 
L 118.436015 292.600439 
L 118.045627 291.743484 
L 117.429226 290.935494 
L 116.593659 290.213593 
L 115.559473 289.616201 
L 114.347217 289.175123 
L 113.018528 288.928427 
L 111.635049 288.896085 
L 110.272116 289.083808 
L 108.998219 289.481371 
L 107.888696 290.056356 
L 106.98464 290.769044 
L 106.306598 291.580613 
L 105.868268 292.44101 
L 105.6628 293.28875 
L 105.642254 293.521938 
L 105.642254 293.521938 
" clip-path="url(#pb36d78f580)" style="fill: none; stroke: #0000ff; stroke-opacity: 0.3; stroke-width: 1.5; stroke-linecap: square"/>
   </g>
   <g id="line2d_21">
    <path d="M 123.310545 289.109428 
L 123.143568 290.076938 
L 122.751537 290.984506 
L 122.14171 291.826445 
L 121.314088 292.583875 
L 120.29045 293.216502 
L 119.092576 293.693048 
L 117.771284 293.978119 
L 116.391914 294.04948 
L 115.012544 293.899211 
L 113.713032 293.535915 
L 112.558717 292.986721 
L 111.585898 292.281202 
L 110.838134 291.471345 
L 110.315425 290.584066 
L 110.025031 289.661758 
L 109.959693 289.109428 
L 109.959693 289.109428 
" clip-path="url(#pb36d78f580)" style="fill: none; stroke: #0000ff; stroke-opacity: 0.3; stroke-width: 1.5; stroke-linecap: square"/>
   </g>
   <g id="line2d_22">
    <path d="M 123.310545 288.7345 
L 123.143568 287.766989 
L 122.751537 286.859421 
L 122.14171 286.017482 
L 121.314088 285.260053 
L 120.29045 284.627425 
L 119.092576 284.150879 
L 117.771284 283.865809 
L 116.391914 283.794448 
L 115.012544 283.944716 
L 113.713032 284.308012 
L 112.558717 284.857206 
L 111.585898 285.562725 
L 110.838134 286.372582 
L 110.315425 287.259861 
L 110.025031 288.182169 
L 109.959693 288.7345 
L 109.959693 288.7345 
" clip-path="url(#pb36d78f580)" style="fill: none; stroke: #0000ff; stroke-opacity: 0.3; stroke-width: 1.5; stroke-linecap: square"/>
   </g>
   <g id="line2d_23">
    <path d="M 128.030758 284.281552 
L 127.860847 285.304516 
L 127.466961 286.254912 
L 126.856826 287.137042 
L 126.038162 287.927173 
L 125.026418 288.594166 
L 123.844763 289.106158 
L 122.539536 289.429608 
L 121.1648 289.542487 
L 119.78234 289.434607 
L 118.461666 289.111351 
L 117.256841 288.589989 
L 116.221928 287.902329 
L 115.395541 287.091201 
L 114.793129 286.197552 
L 114.41469 285.249885 
L 114.260225 284.281552 
L 114.260225 284.281552 
" clip-path="url(#pb36d78f580)" style="fill: none; stroke: #0000ff; stroke-opacity: 0.3; stroke-width: 1.5; stroke-linecap: square"/>
   </g>
   <g id="line2d_24">
    <path d="M 128.030758 283.886619 
L 127.860847 282.863655 
L 127.466961 281.913259 
L 126.856826 281.031129 
L 126.038162 280.240998 
L 125.026418 279.574005 
L 123.844763 279.062013 
L 122.539536 278.738563 
L 121.1648 278.625684 
L 119.78234 278.733564 
L 118.461666 279.05682 
L 117.256841 279.578182 
L 116.221928 280.265842 
L 115.395541 281.07697 
L 114.793129 281.970619 
L 114.41469 282.918286 
L 114.260225 283.886619 
L 114.260225 283.886619 
" clip-path="url(#pb36d78f580)" style="fill: none; stroke: #0000ff; stroke-opacity: 0.3; stroke-width: 1.5; stroke-linecap: square"/>
   </g>
   <g id="line2d_25">
    <path d="M 132.771336 279.426693 
L 132.59809 280.499062 
L 132.202098 281.496031 
L 131.591611 282.422351 
L 130.774879 283.254566 
L 129.768401 283.96142 
L 128.596926 284.511579 
L 127.301704 284.874257 
L 125.932233 285.027743 
L 124.546263 284.960912 
L 123.201542 284.674859 
L 121.964069 284.187317 
L 120.875093 283.522658 
L 119.975862 282.717976 
L 119.282877 281.80256 
L 118.812637 280.813544 
L 118.573392 279.805545 
L 118.540393 279.426693 
L 118.540393 279.426693 
" clip-path="url(#pb36d78f580)" style="fill: none; stroke: #0000ff; stroke-opacity: 0.3; stroke-width: 1.5; stroke-linecap: square"/>
   </g>
   <g id="line2d_26">
    <path d="M 132.771336 278.976402 
L 132.59809 277.904033 
L 132.202098 276.907064 
L 131.591611 275.980744 
L 130.774879 275.148529 
L 129.768401 274.441674 
L 128.596926 273.891516 
L 127.301704 273.528837 
L 125.932233 273.375352 
L 124.546263 273.442182 
L 123.201542 273.728235 
L 121.964069 274.215778 
L 120.875093 274.880437 
L 119.975862 275.685119 
L 119.282877 276.600534 
L 118.812637 277.58955 
L 118.573392 278.59755 
L 118.540393 278.976402 
L 118.540393 278.976402 
" clip-path="url(#pb36d78f580)" style="fill: none; stroke: #0000ff; stroke-opacity: 0.3; stroke-width: 1.5; stroke-linecap: square"/>
   </g>
   <g id="line2d_27">
    <path d="M 137.536749 274.520793 
L 137.35968 275.650606 
L 136.961273 276.699925 
L 136.350384 277.6757 
L 135.535865 278.5549 
L 134.535423 279.306116 
L 133.375619 279.898522 
L 132.091866 280.304809 
L 130.728432 280.503564 
L 129.338438 280.48224 
L 127.975004 280.239328 
L 126.700105 279.787995 
L 125.558008 279.150583 
L 124.584126 278.355119 
L 123.813874 277.445526 
L 123.247253 276.434343 
L 122.910821 275.394532 
L 122.795726 274.520793 
L 122.795726 274.520793 
" clip-path="url(#pb36d78f580)" style="fill: none; stroke: #0000ff; stroke-opacity: 0.3; stroke-width: 1.5; stroke-linecap: square"/>
   </g>
   <g id="line2d_28">
    <path d="M 137.536749 274.0083 
L 137.35968 272.878486 
L 136.961273 271.829167 
L 136.350384 270.853392 
L 135.535865 269.974193 
L 134.535423 269.222976 
L 133.375619 268.63057 
L 132.091866 268.224283 
L 130.728432 268.025528 
L 129.338438 268.046853 
L 127.975004 268.289764 
L 126.700105 268.741097 
L 125.558008 269.378509 
L 124.584126 270.173973 
L 123.813874 271.083566 
L 123.247253 272.094749 
L 122.910821 273.13456 
L 122.795726 274.0083 
L 122.795726 274.0083 
" clip-path="url(#pb36d78f580)" style="fill: none; stroke: #0000ff; stroke-opacity: 0.3; stroke-width: 1.5; stroke-linecap: square"/>
   </g>
   <g id="line2d_29">
    <path d="M 142.332879 269.529201 
L 142.151383 270.744874 
L 141.750181 271.855472 
L 141.138826 272.887809 
L 140.32687 273.82029 
L 139.333418 274.6215 
L 138.187126 275.261157 
L 136.916654 275.716451 
L 135.56021 275.966351 
L 134.175108 275.996914 
L 132.799559 275.805684 
L 131.490876 275.400219 
L 130.296823 274.799776 
L 129.255609 274.031452 
L 128.386338 273.115297 
L 127.727221 272.104017 
L 127.278257 271.017073 
L 127.048999 269.902361 
L 127.020341 269.529201 
L 127.020341 269.529201 
" clip-path="url(#pb36d78f580)" style="fill: none; stroke: #0000ff; stroke-opacity: 0.3; stroke-width: 1.5; stroke-linecap: square"/>
   </g>
   <g id="line2d_30">
    <path d="M 142.332879 268.991164 
L 142.151383 267.775491 
L 141.750181 266.664893 
L 141.138826 265.632556 
L 140.32687 264.700075 
L 139.333418 263.898864 
L 138.187126 263.259208 
L 136.916654 262.803914 
L 135.56021 262.554014 
L 134.175108 262.523451 
L 132.799559 262.714681 
L 131.490876 263.120146 
L 130.296823 263.720589 
L 129.255609 264.488913 
L 128.386338 265.405068 
L 127.727221 266.416348 
L 127.278257 267.503292 
L 127.048999 268.618004 
L 127.020341 268.991164 
L 127.020341 268.991164 
" clip-path="url(#pb36d78f580)" style="fill: none; stroke: #0000ff; stroke-opacity: 0.3; stroke-width: 1.5; stroke-linecap: square"/>
   </g>
   <g id="line2d_31">
    <path d="M 147.167625 264.383406 
L 147.001686 265.672549 
L 146.617951 266.851658 
L 146.026793 267.952113 
L 145.238581 268.952369 
L 144.263688 269.828367 
L 143.133226 270.543065 
L 141.878311 271.072015 
L 140.540425 271.39493 
L 139.161055 271.500978 
L 137.781685 271.38658 
L 136.443799 271.054784 
L 135.188884 270.51576 
L 134.058422 269.788806 
L 133.0939 268.907753 
L 132.305689 267.888126 
L 131.724901 266.777788 
L 131.361909 265.626308 
L 131.216712 264.600661 
L 131.206341 264.383406 
L 131.206341 264.383406 
" clip-path="url(#pb36d78f580)" style="fill: none; stroke: #0000ff; stroke-opacity: 0.3; stroke-width: 1.5; stroke-linecap: square"/>
   </g>
   <g id="line2d_32">
    <path d="M 147.167625 263.958863 
L 147.001686 262.66972 
L 146.617951 261.490611 
L 146.026793 260.390157 
L 145.238581 259.389901 
L 144.263688 258.513902 
L 143.133226 257.799204 
L 141.878311 257.270254 
L 140.540425 256.947339 
L 139.161055 256.841291 
L 137.781685 256.95569 
L 136.443799 257.287485 
L 135.188884 257.826509 
L 134.058422 258.553463 
L 133.0939 259.434517 
L 132.305689 260.454143 
L 131.724901 261.564481 
L 131.361909 262.715961 
L 131.216712 263.741608 
L 131.206341 263.958863 
L 131.206341 263.958863 
" clip-path="url(#pb36d78f580)" style="fill: none; stroke: #0000ff; stroke-opacity: 0.3; stroke-width: 1.5; stroke-linecap: square"/>
   </g>
   <g id="line2d_33">
    <path d="M 152.040504 259.294908 
L 151.859008 260.66615 
L 151.461985 261.922124 
L 150.849436 263.110886 
L 150.044047 264.183159 
L 149.068506 265.111812 
L 147.945499 265.875499 
L 146.697713 266.455188 
L 145.370523 266.82804 
L 143.986615 266.985832 
L 142.602708 266.921452 
L 141.241487 266.636035 
L 139.948328 266.13711 
L 138.768603 265.444944 
L 137.725001 264.576339 
L 136.851551 263.563739 
L 136.159597 262.422398 
L 135.671826 261.186291 
L 135.410925 259.959866 
L 135.354208 259.294908 
L 135.354208 259.294908 
" clip-path="url(#pb36d78f580)" style="fill: none; stroke: #0000ff; stroke-opacity: 0.3; stroke-width: 1.5; stroke-linecap: square"/>
   </g>
   <g id="line2d_34">
    <path d="M 152.040504 258.652263 
L 151.859008 257.28102 
L 151.461985 256.025047 
L 150.849436 254.836285 
L 150.044047 253.764012 
L 149.068506 252.835358 
L 147.945499 252.071671 
L 146.697713 251.491982 
L 145.370523 251.119131 
L 143.986615 250.961338 
L 142.602708 251.025718 
L 141.241487 251.311136 
L 139.948328 251.810061 
L 138.768603 252.502226 
L 137.725001 253.370832 
L 136.851551 254.383431 
L 136.159597 255.524772 
L 135.671826 256.76088 
L 135.410925 257.987304 
L 135.354208 258.652263 
L 135.354208 258.652263 
" clip-path="url(#pb36d78f580)" style="fill: none; stroke: #0000ff; stroke-opacity: 0.3; stroke-width: 1.5; stroke-linecap: square"/>
   </g>
   <g id="line2d_35">
    <path d="M 156.975867 253.864502 
L 156.800629 255.408109 
L 156.412603 256.76089 
L 155.811789 258.042978 
L 155.02322 259.20227 
L 154.059413 260.223731 
L 152.945402 261.078754 
L 151.718739 261.740601 
L 150.404457 262.198332 
L 149.040107 262.440346 
L 147.650724 262.462415 
L 146.273857 262.262571 
L 144.947058 261.846272 
L 143.695361 261.219798 
L 142.568833 260.409819 
L 141.579993 259.428231 
L 140.753873 258.296593 
L 140.115507 257.046467 
L 139.68993 255.744586 
L 139.464624 254.340352 
L 139.439591 253.864502 
L 139.439591 253.864502 
" clip-path="url(#pb36d78f580)" style="fill: none; stroke: #0000ff; stroke-opacity: 0.3; stroke-width: 1.5; stroke-linecap: square"/>
   </g>
   <g id="line2d_36">
    <path d="M 156.975867 253.403221 
L 156.800629 251.859614 
L 156.412603 250.506833 
L 155.811789 249.224745 
L 155.02322 248.065453 
L 154.059413 247.043992 
L 152.945402 246.188969 
L 151.718739 245.527121 
L 150.404457 245.069391 
L 149.040107 244.827377 
L 147.650724 244.805308 
L 146.273857 245.005152 
L 144.947058 245.421451 
L 143.695361 246.047924 
L 142.568833 246.857904 
L 141.579993 247.839492 
L 140.753873 248.97113 
L 140.115507 250.221256 
L 139.68993 251.523137 
L 139.464624 252.927371 
L 139.439591 253.403221 
L 139.439591 253.403221 
" clip-path="url(#pb36d78f580)" style="fill: none; stroke: #0000ff; stroke-opacity: 0.3; stroke-width: 1.5; stroke-linecap: square"/>
   </g>
   <g id="line2d_37">
    <path d="M 161.981382 248.136492 
L 161.827809 249.892323 
L 161.450855 251.394215 
L 160.864483 252.799934 
L 160.096615 254.068432 
L 159.147251 255.206444 
L 158.058275 256.165273 
L 156.857608 256.92989 
L 155.559213 257.494347 
L 154.204973 257.841961 
L 152.822811 257.969268 
L 151.440649 257.875623 
L 150.086409 257.563325 
L 148.788013 257.037839 
L 147.573386 256.308206 
L 146.470448 255.38787 
L 145.507123 254.296509 
L 144.711332 253.064836 
L 144.097038 251.712861 
L 143.678201 250.256834 
L 143.482743 248.869038 
L 143.454821 248.136492 
L 143.454821 248.136492 
" clip-path="url(#pb36d78f580)" style="fill: none; stroke: #0000ff; stroke-opacity: 0.3; stroke-width: 1.5; stroke-linecap: square"/>
   </g>
   <g id="line2d_38">
    <path d="M 161.981382 248.069006 
L 161.827809 246.313175 
L 161.450855 244.811283 
L 160.864483 243.405564 
L 160.096615 242.137066 
L 159.147251 240.999054 
L 158.058275 240.040225 
L 156.857608 239.275608 
L 155.559213 238.711151 
L 154.204973 238.363537 
L 152.822811 238.23623 
L 151.440649 238.329875 
L 150.086409 238.642173 
L 148.788013 239.167659 
L 147.573386 239.897292 
L 146.470448 240.817628 
L 145.507123 241.908989 
L 144.711332 243.140662 
L 144.097038 244.492637 
L 143.678201 245.948664 
L 143.482743 247.33646 
L 143.454821 248.069006 
L 143.454821 248.069006 
" clip-path="url(#pb36d78f580)" style="fill: none; stroke: #0000ff; stroke-opacity: 0.3; stroke-width: 1.5; stroke-linecap: square"/>
   </g>
   <g id="line2d_39">
    <path d="M 167.068719 242.774361 
L 166.879331 244.531237 
L 166.468992 246.16504 
L 165.853484 247.690634 
L 165.048588 249.086109 
L 164.08587 250.311745 
L 162.981111 251.359103 
L 161.765877 252.205312 
L 160.471731 252.837407 
L 159.114456 253.253112 
L 157.725616 253.445307 
L 156.336776 253.413716 
L 154.963719 253.160624 
L 153.638009 252.691925 
L 152.375427 252.011406 
L 151.191757 251.118682 
L 150.134345 250.042672 
L 149.218974 248.796384 
L 148.461425 247.387943 
L 147.893263 245.860781 
L 147.530271 244.249456 
L 147.388231 242.774361 
L 147.388231 242.774361 
" clip-path="url(#pb36d78f580)" style="fill: none; stroke: #0000ff; stroke-opacity: 0.3; stroke-width: 1.5; stroke-linecap: square"/>
   </g>
   <g id="line2d_40">
    <path d="M 167.068719 241.836353 
L 166.879331 240.079477 
L 166.468992 238.445673 
L 165.853484 236.920079 
L 165.048588 235.524604 
L 164.08587 234.298968 
L 162.981111 233.25161 
L 161.765877 232.405401 
L 160.471731 231.773306 
L 159.114456 231.357602 
L 157.725616 231.165407 
L 156.336776 231.196997 
L 154.963719 231.450089 
L 153.638009 231.918788 
L 152.375427 232.599307 
L 151.191757 233.492031 
L 150.134345 234.568041 
L 149.218974 235.81433 
L 148.461425 237.22277 
L 147.893263 238.749932 
L 147.530271 240.361257 
L 147.388231 241.836353 
L 147.388231 241.836353 
" clip-path="url(#pb36d78f580)" style="fill: none; stroke: #0000ff; stroke-opacity: 0.3; stroke-width: 1.5; stroke-linecap: square"/>
   </g>
   <g id="line2d_41">
    <path d="M 172.292845 236.615683 
L 172.093199 238.651858 
L 171.675758 240.468667 
L 171.058671 242.156946 
L 170.260088 243.700608 
L 169.298159 245.080277 
L 168.209183 246.260312 
L 167.011309 247.236541 
L 165.722686 248.001664 
L 164.379615 248.541735 
L 163.000245 248.857343 
L 161.602725 248.948087 
L 160.223355 248.816417 
L 158.862135 248.46419 
L 157.537213 247.89047 
L 156.28489 247.106604 
L 155.105166 246.103392 
L 154.034339 244.895927 
L 153.108709 243.516621 
L 152.346425 241.988589 
L 151.765638 240.344267 
L 151.366346 238.539714 
L 151.203 237.020998 
L 151.18485 236.615683 
L 151.18485 236.615683 
" clip-path="url(#pb36d78f580)" style="fill: none; stroke: #0000ff; stroke-opacity: 0.3; stroke-width: 1.5; stroke-linecap: square"/>
   </g>
   <g id="line2d_42">
    <path d="M 172.292845 235.628034 
L 172.093199 233.591859 
L 171.675758 231.77505 
L 171.058671 230.086771 
L 170.260088 228.543109 
L 169.298159 227.16344 
L 168.209183 225.983405 
L 167.011309 225.007176 
L 165.722686 224.242052 
L 164.379615 223.701982 
L 163.000245 223.386374 
L 161.602725 223.29563 
L 160.223355 223.4273 
L 158.862135 223.779527 
L 157.537213 224.353247 
L 156.28489 225.137113 
L 155.105166 226.140325 
L 154.034339 227.34779 
L 153.108709 228.727096 
L 152.346425 230.255128 
L 151.765638 231.89945 
L 151.366346 233.704003 
L 151.203 235.222719 
L 151.18485 235.628034 
L 151.18485 235.628034 
" clip-path="url(#pb36d78f580)" style="fill: none; stroke: #0000ff; stroke-opacity: 0.3; stroke-width: 1.5; stroke-linecap: square"/>
   </g>
   <g id="line2d_43">
    <path d="M 177.704826 229.457795 
L 177.534006 231.946471 
L 177.149661 233.989969 
L 176.551792 235.946861 
L 175.76175 237.756925 
L 174.822241 239.357737 
L 173.733265 240.773294 
L 172.537526 241.962041 
L 171.256377 242.920968 
L 169.932523 243.637494 
L 168.565964 244.126967 
L 167.178053 244.389096 
L 165.790142 244.426658 
L 164.402231 244.241353 
L 163.035672 243.832876 
L 161.711818 243.204614 
L 160.43067 242.347345 
L 159.234931 241.27929 
L 158.124602 239.986949 
L 157.142388 238.503211 
L 156.309641 236.851011 
L 155.626361 234.997341 
L 155.135254 233.007402 
L 154.857672 230.945263 
L 154.793615 229.457795 
L 154.793615 229.457795 
" clip-path="url(#pb36d78f580)" style="fill: none; stroke: #0000ff; stroke-opacity: 0.3; stroke-width: 1.5; stroke-linecap: square"/>
   </g>
   <g id="line2d_44">
    <path d="M 177.704826 229.237896 
L 177.534006 226.74922 
L 177.149661 224.705721 
L 176.551792 222.74883 
L 175.76175 220.938766 
L 174.822241 219.337954 
L 173.733265 217.922397 
L 172.537526 216.73365 
L 171.256377 215.774722 
L 169.932523 215.058197 
L 168.565964 214.568723 
L 167.178053 214.306595 
L 165.790142 214.269033 
L 164.402231 214.454338 
L 163.035672 214.862815 
L 161.711818 215.491077 
L 160.43067 216.348346 
L 159.234931 217.416401 
L 158.124602 218.708742 
L 157.142388 220.19248 
L 156.309641 221.84468 
L 155.626361 223.698349 
L 155.135254 225.688289 
L 154.857672 227.750427 
L 154.793615 229.237896 
L 154.793615 229.237896 
" clip-path="url(#pb36d78f580)" style="fill: none; stroke: #0000ff; stroke-opacity: 0.3; stroke-width: 1.5; stroke-linecap: square"/>
   </g>
   <g id="line2d_45">
    <path d="M 183.373571 222.32635 
L 183.166147 224.988668 
L 182.751299 227.329572 
L 182.129026 229.567187 
L 181.325258 231.632041 
L 180.365922 233.492538 
L 179.276945 235.128921 
L 178.084256 236.528351 
L 176.813784 237.683541 
L 175.491455 238.592368 
L 174.117271 239.268324 
L 172.743086 239.700795 
L 171.342973 239.908829 
L 169.942861 239.890015 
L 168.568676 239.650316 
L 167.194492 239.182471 
L 165.846235 238.483456 
L 164.549834 237.558045 
L 163.30529 236.39248 
L 162.138529 234.989746 
L 161.075481 233.358815 
L 160.142072 231.515964 
L 159.364232 229.488711 
L 158.767888 227.329572 
L 158.35304 224.988668 
L 158.171544 222.981783 
L 158.145616 222.32635 
L 158.145616 222.32635 
" clip-path="url(#pb36d78f580)" style="fill: none; stroke: #0000ff; stroke-opacity: 0.3; stroke-width: 1.5; stroke-linecap: square"/>
   </g>
   <g id="line2d_46">
    <path d="M 183.373571 220.881052 
L 183.166147 218.218734 
L 182.751299 215.87783 
L 182.129026 213.640215 
L 181.325258 211.575361 
L 180.365922 209.714864 
L 179.276945 208.078481 
L 178.084256 206.679051 
L 176.813784 205.523861 
L 175.491455 204.615033 
L 174.117271 203.939077 
L 172.743086 203.506606 
L 171.342973 203.298573 
L 169.942861 203.317387 
L 168.568676 203.557086 
L 167.194492 204.024931 
L 165.846235 204.723946 
L 164.549834 205.649357 
L 163.30529 206.814921 
L 162.138529 208.217656 
L 161.075481 209.848587 
L 160.142072 211.691438 
L 159.364232 213.718691 
L 158.767888 215.87783 
L 158.35304 218.218734 
L 158.171544 220.225619 
L 158.145616 220.881052 
L 158.145616 220.881052 
" clip-path="url(#pb36d78f580)" style="fill: none; stroke: #0000ff; stroke-opacity: 0.3; stroke-width: 1.5; stroke-linecap: square"/>
   </g>
   <g id="line2d_47">
    <path d="M 189.509159 212.521312 
L 189.311163 215.994107 
L 188.882172 218.952231 
L 188.255186 221.673514 
L 187.430204 224.235203 
L 186.473224 226.494609 
L 185.384248 228.514745 
L 184.163274 230.311736 
L 182.876302 231.812982 
L 181.523331 233.049458 
L 180.137361 234.013613 
L 178.751391 234.710447 
L 177.365421 235.164198 
L 175.979451 235.389075 
L 174.593481 235.391708 
L 173.207511 235.172172 
L 171.821541 234.724002 
L 170.46857 234.052618 
L 169.115599 233.127917 
L 167.795627 231.947895 
L 166.541655 230.524519 
L 165.35368 228.835503 
L 164.264704 226.898437 
L 163.307724 224.751777 
L 162.482742 222.363093 
L 161.822756 219.775903 
L 161.360766 217.104868 
L 161.096772 214.378233 
L 161.030774 212.521312 
L 161.030774 212.521312 
" clip-path="url(#pb36d78f580)" style="fill: none; stroke: #0000ff; stroke-opacity: 0.3; stroke-width: 1.5; stroke-linecap: square"/>
   </g>
   <g id="line2d_48">
    <path d="M 189.509159 211.670049 
L 189.311163 208.197255 
L 188.882172 205.239131 
L 188.255186 202.517848 
L 187.430204 199.956158 
L 186.473224 197.696753 
L 185.384248 195.676617 
L 184.163274 193.879626 
L 182.876302 192.37838 
L 181.523331 191.141903 
L 180.137361 190.177749 
L 178.751391 189.480915 
L 177.365421 189.027164 
L 175.979451 188.802287 
L 174.593481 188.799654 
L 173.207511 189.01919 
L 171.821541 189.467359 
L 170.46857 190.138744 
L 169.115599 191.063444 
L 167.795627 192.243467 
L 166.541655 193.666843 
L 165.35368 195.355859 
L 164.264704 197.292925 
L 163.307724 199.439585 
L 162.482742 201.828269 
L 161.822756 204.415459 
L 161.360766 207.086494 
L 161.096772 209.813128 
L 161.030774 211.670049 
L 161.030774 211.670049 
" clip-path="url(#pb36d78f580)" style="fill: none; stroke: #0000ff; stroke-opacity: 0.3; stroke-width: 1.5; stroke-linecap: square"/>
   </g>
   <g id="line2d_49">
    <path d="M 196.455291 200.585119 
L 196.183047 204.860565 
L 195.683933 208.622745 
L 195.003323 212.024011 
L 194.141216 215.206493 
L 193.097614 218.188697 
L 191.963263 220.772495 
L 190.692791 223.114069 
L 189.376944 225.083892 
L 188.015724 226.737091 
L 186.609129 228.103992 
L 185.202534 229.170243 
L 183.79594 229.966754 
L 182.389345 230.513883 
L 180.982751 230.824428 
L 179.576156 230.905264 
L 178.169561 230.758137 
L 176.762967 230.379856 
L 175.356372 229.76194 
L 173.995151 228.921929 
L 172.633931 227.822987 
L 171.27271 226.434197 
L 169.956864 224.772522 
L 168.686391 222.808784 
L 167.461292 220.490309 
L 166.372316 217.956201 
L 165.374088 215.058787 
L 164.557355 212.024011 
L 163.876745 208.622745 
L 163.423005 205.299721 
L 163.150761 201.775384 
L 163.105387 200.585119 
L 163.105387 200.585119 
" clip-path="url(#pb36d78f580)" style="fill: none; stroke: #0000ff; stroke-opacity: 0.3; stroke-width: 1.5; stroke-linecap: square"/>
   </g>
   <g id="line2d_50">
    <path d="M 196.455291 197.093733 
L 196.183047 192.818287 
L 195.683933 189.056106 
L 195.003323 185.654841 
L 194.141216 182.472359 
L 193.097614 179.490155 
L 191.963263 176.906357 
L 190.692791 174.564783 
L 189.376944 172.594959 
L 188.015724 170.941761 
L 186.609129 169.574859 
L 185.202534 168.508609 
L 183.79594 167.712097 
L 182.389345 167.164969 
L 180.982751 166.854424 
L 179.576156 166.773588 
L 178.169561 166.920715 
L 176.762967 167.298995 
L 175.356372 167.916912 
L 173.995151 168.756922 
L 172.633931 169.855864 
L 171.27271 171.244655 
L 169.956864 172.906329 
L 168.686391 174.870067 
L 167.461292 177.188542 
L 166.372316 179.72265 
L 165.374088 182.620065 
L 164.557355 185.654841 
L 163.876745 189.056106 
L 163.423005 192.37913 
L 163.150761 195.903468 
L 163.105387 197.093733 
L 163.105387 197.093733 
" clip-path="url(#pb36d78f580)" style="fill: none; stroke: #0000ff; stroke-opacity: 0.3; stroke-width: 1.5; stroke-linecap: square"/>
   </g>
   <g id="line2d_51">
    <path d="M 205.380556 177.989916 
L 205.090163 184.043019 
L 204.581974 189.349713 
L 203.855989 194.430063 
L 202.984808 198.97876 
L 201.895832 203.442726 
L 200.734257 207.295713 
L 199.427485 210.876551 
L 198.048115 214.02346 
L 196.596146 216.792208 
L 195.144178 219.106574 
L 193.61961 221.122494 
L 192.095043 222.767004 
L 190.570476 224.077524 
L 189.118508 225.039255 
L 187.666539 225.73783 
L 186.21457 226.184044 
L 184.8352 226.38024 
L 183.45583 226.357197 
L 182.07646 226.114619 
L 180.697089 225.649345 
L 179.317719 224.955142 
L 177.865751 223.966316 
L 176.413782 222.696515 
L 174.961813 221.122494 
L 173.509845 219.211708 
L 172.057876 216.918031 
L 170.678506 214.3234 
L 169.299136 211.235341 
L 167.992364 207.728245 
L 166.830789 203.967568 
L 165.814411 199.95831 
L 164.94323 195.682132 
L 164.217245 191.065021 
L 163.636458 185.844605 
L 163.346064 181.75368 
L 163.200867 177.989916 
L 163.200867 177.989916 
" clip-path="url(#pb36d78f580)" style="fill: none; stroke: #0000ff; stroke-opacity: 0.3; stroke-width: 1.5; stroke-linecap: square"/>
   </g>
   <g id="line2d_52">
    <path d="M 205.380556 172.186308 
L 205.090163 166.133205 
L 204.581974 160.82651 
L 203.855989 155.74616 
L 202.984808 151.197463 
L 201.895832 146.733498 
L 200.734257 142.88051 
L 199.427485 139.299673 
L 198.048115 136.152763 
L 196.596146 133.384015 
L 195.144178 131.069649 
L 193.61961 129.05373 
L 192.095043 127.409219 
L 190.570476 126.0987 
L 189.118508 125.136969 
L 187.666539 124.438393 
L 186.21457 123.992179 
L 184.8352 123.795983 
L 183.45583 123.819026 
L 182.07646 124.061605 
L 180.697089 124.526879 
L 179.317719 125.221081 
L 177.865751 126.209908 
L 176.413782 127.479709 
L 174.961813 129.05373 
L 173.509845 130.964516 
L 172.057876 133.258192 
L 170.678506 135.852823 
L 169.299136 138.940883 
L 167.992364 142.447978 
L 166.830789 146.208655 
L 165.814411 150.217914 
L 164.94323 154.494091 
L 164.217245 159.111202 
L 163.636458 164.331618 
L 163.346064 168.422544 
L 163.200867 172.186308 
L 163.200867 172.186308 
" clip-path="url(#pb36d78f580)" style="fill: none; stroke: #0000ff; stroke-opacity: 0.3; stroke-width: 1.5; stroke-linecap: square"/>
   </g>
   <g id="line2d_53">
    <path d="M 222.105616 103.276723 
L 221.742623 114.78138 
L 221.198135 124.80382 
L 220.472151 134.343141 
L 219.56467 143.559683 
L 218.475694 152.481253 
L 217.205221 161.095242 
L 215.753253 169.37189 
L 214.301284 176.454845 
L 212.667819 183.347119 
L 211.034355 189.336242 
L 209.219394 195.125373 
L 207.404433 200.146598 
L 205.589472 204.504283 
L 203.774511 208.274105 
L 201.959551 211.51247 
L 200.326086 214.008198 
L 198.692621 216.132424 
L 197.059156 217.9042 
L 195.425692 219.338425 
L 193.973723 220.339243 
L 192.521754 221.088511 
L 191.069786 221.590648 
L 189.617817 221.848558 
L 188.165848 221.863713 
L 186.71388 221.636199 
L 185.261911 221.164719 
L 183.809943 220.446552 
L 182.357974 219.477474 
L 180.906005 218.251634 
L 179.27254 216.556027 
L 177.639076 214.51161 
L 176.005611 212.100329 
L 174.372146 209.299246 
L 172.738682 206.079238 
L 171.105217 202.403115 
L 169.471752 198.222801 
L 167.838287 193.474998 
L 166.204823 188.074174 
L 164.571358 181.900567 
L 162.937893 174.778027 
L 161.485925 167.429333 
L 160.215452 159.955183 
L 158.944979 151.111703 
L 157.856003 141.87758 
L 156.948523 132.19905 
L 156.222538 121.878128 
L 155.67805 110.082118 
L 155.496554 103.276723 
L 155.496554 103.276723 
" clip-path="url(#pb36d78f580)" style="fill: none; stroke: #0000ff; stroke-opacity: 0.3; stroke-width: 1.5; stroke-linecap: square"/>
   </g>
   <g id="line2d_54">
    <path d="M 222.105616 83.951225 
L 221.742623 72.446568 
L 221.198135 62.424129 
L 220.472151 52.884807 
L 219.56467 43.668265 
L 218.475694 34.746695 
L 217.205221 26.132707 
L 215.753253 17.856058 
L 214.301284 10.773103 
L 212.667819 3.880829 
L 211.353442 -1 
M 166.248727 -1 
L 164.752854 4.598437 
L 163.119389 11.604264 
L 161.667421 18.817781 
L 160.215452 27.272765 
L 158.944979 36.116245 
L 157.856003 45.350369 
L 156.948523 55.028899 
L 156.222538 65.34982 
L 155.67805 77.14583 
L 155.496554 83.951225 
L 155.496554 83.951225 
" clip-path="url(#pb36d78f580)" style="fill: none; stroke: #0000ff; stroke-opacity: 0.3; stroke-width: 1.5; stroke-linecap: square"/>
   </g>
   <g id="line2d_55">
    <path d="M 119.726386 -1 
L 126.838925 31.017901 
L 133.406305 59.579215 
L 139.263698 84.06345 
L 144.411103 104.656252 
L 149.026019 122.253273 
L 153.285941 137.654632 
L 157.190869 150.960588 
L 160.740804 162.296383 
L 164.113243 172.317394 
L 167.130687 180.603391 
L 169.970635 187.763007 
L 172.633086 193.869138 
L 175.118041 199.003706 
L 177.425499 203.255621 
L 179.55546 206.718382 
L 181.507924 209.487498 
L 183.282891 211.657925 
L 185.057859 213.489352 
L 186.65533 214.841822 
L 188.2528 215.90945 
L 189.672774 216.616439 
L 191.092748 217.093671 
L 192.512722 217.339865 
L 193.932696 217.354354 
L 195.35267 217.1371 
L 196.772644 216.68869 
L 198.192618 216.01033 
L 199.612592 215.103827 
L 201.210063 213.814303 
L 202.807534 212.243297 
L 204.582501 210.173749 
L 206.357469 207.770884 
L 208.309933 204.753444 
L 210.439894 201.029409 
L 212.747352 196.506614 
L 215.232306 191.095206 
L 217.894757 184.710082 
L 220.734705 177.273124 
L 223.75215 168.715045 
L 226.947091 158.976735 
L 230.497026 147.414535 
L 234.401955 133.886479 
L 238.661877 118.271929 
L 243.276792 100.474219 
L 248.424198 79.689616 
L 254.104094 55.783385 
L 260.31648 28.657173 
L 266.896529 -1 
L 266.896529 -1 
" clip-path="url(#pb36d78f580)" style="fill: none; stroke: #0000ff; stroke-opacity: 0.3; stroke-width: 1.5; stroke-linecap: square"/>
   </g>
   <g id="line2d_56">
    <path d="M 102.949819 11.496257 
L 120.699493 57.961738 
L 134.189246 92.677813 
L 144.484058 118.589392 
L 152.648908 138.572659 
L 159.393784 154.510771 
L 164.896184 166.963051 
L 169.511099 176.88006 
L 173.416028 184.772734 
L 176.788466 191.117806 
L 179.805911 196.335327 
L 182.468362 200.504351 
L 184.77582 203.731226 
L 186.90578 206.34648 
L 188.858245 208.402074 
L 190.633212 209.960869 
L 192.230683 211.093337 
L 193.828154 211.955626 
L 195.248128 212.486452 
L 196.668102 212.789685 
L 198.088076 212.862094 
L 199.50805 212.702901 
L 200.928024 212.313815 
L 202.347998 211.698946 
L 203.945468 210.745251 
L 205.542939 209.525597 
L 207.317907 207.875721 
L 209.270371 205.727671 
L 211.400332 203.021172 
L 213.707789 199.706656 
L 216.192744 195.747 
L 219.032692 190.796468 
L 222.227633 184.772734 
L 225.955065 177.249727 
L 230.214987 168.134845 
L 235.184896 156.965242 
L 241.219785 142.825769 
L 248.497152 125.172472 
L 257.37199 103.028878 
L 268.376788 74.947569 
L 282.399031 38.530219 
L 297.429181 -1 
L 297.429181 -1 
" clip-path="url(#pb36d78f580)" style="fill: none; stroke: #0000ff; stroke-opacity: 0.3; stroke-width: 1.5; stroke-linecap: square"/>
   </g>
   <g id="line2d_57">
    <path d="M 103.022773 37.867585 
L 127.517324 87.107589 
L 144.024522 119.821951 
L 155.739307 142.574921 
L 164.436648 159.009848 
L 171.181524 171.299211 
L 176.506427 180.553795 
L 180.766348 187.531866 
L 184.316283 192.937711 
L 187.333728 197.138718 
L 189.818683 200.249351 
L 192.12614 202.78963 
L 194.078605 204.628674 
L 195.853572 206.017208 
L 197.451043 207.010632 
L 199.048514 207.741011 
L 200.468488 208.156634 
L 201.888462 208.344477 
L 203.308436 208.301043 
L 204.728409 208.027148 
L 206.148383 207.527842 
L 207.745854 206.707819 
L 209.343325 205.630901 
L 211.118292 204.157899 
L 213.070757 202.236573 
L 215.200718 199.827122 
L 217.685672 196.666727 
L 220.52562 192.678258 
L 223.898058 187.531866 
L 227.802987 181.151917 
L 232.595399 172.874221 
L 238.452792 162.291577 
L 245.907655 148.333861 
L 255.49248 129.884342 
L 268.094749 105.11685 
L 285.311933 70.76051 
L 309.806485 21.35097 
L 320.829529 -1 
L 320.829529 -1 
" clip-path="url(#pb36d78f580)" style="fill: none; stroke: #0000ff; stroke-opacity: 0.3; stroke-width: 1.5; stroke-linecap: square"/>
   </g>
   <g id="line2d_58">
    <path d="M 103.095727 49.471643 
L 133.625168 101.154832 
L 152.439823 132.602367 
L 165.042092 153.259371 
L 173.916929 167.401319 
L 180.484309 177.464498 
L 185.454218 184.692977 
L 189.359147 190.004628 
L 192.554088 193.997441 
L 195.216539 196.990108 
L 197.523997 199.262223 
L 199.476461 200.895399 
L 201.251429 202.10699 
L 202.848899 202.944244 
L 204.44637 203.517398 
L 205.866344 203.790688 
L 207.286318 203.834105 
L 208.706292 203.646491 
L 210.126266 203.232796 
L 211.723737 202.510314 
L 213.321208 201.536156 
L 215.096175 200.189306 
L 217.048639 198.428467 
L 219.356097 196.03222 
L 222.018548 192.92717 
L 225.21349 188.833628 
L 229.118418 183.434986 
L 233.91083 176.400158 
L 239.94572 167.123563 
L 247.755577 154.693027 
L 258.405382 137.297027 
L 273.315109 112.482831 
L 294.969712 75.97798 
L 328.339101 19.251816 
L 340.211057 -1 
L 340.211057 -1 
" clip-path="url(#pb36d78f580)" style="fill: none; stroke: #0000ff; stroke-opacity: 0.3; stroke-width: 1.5; stroke-linecap: square"/>
   </g>
   <g id="line2d_59">
    <path d="M 102.991184 54.644997 
L 139.555514 109.128293 
L 160.322634 139.704807 
L 173.279897 158.416051 
L 181.977237 170.616946 
L 188.36712 179.214778 
L 192.982036 185.079847 
L 196.709467 189.471423 
L 199.726912 192.684458 
L 202.211867 195.005724 
L 204.341828 196.686578 
L 206.116795 197.817085 
L 207.714266 198.587963 
L 209.13424 199.054025 
L 210.554214 199.298405 
L 211.974188 199.312874 
L 213.394162 199.096933 
L 214.814136 198.657894 
L 216.411606 197.914866 
L 218.186574 196.811496 
L 220.139038 195.307686 
L 222.268999 193.381913 
L 224.753954 190.838751 
L 227.771398 187.428414 
L 231.49883 182.869562 
L 236.291242 176.634469 
L 242.503628 168.163316 
L 250.845976 156.38953 
L 262.560761 139.445796 
L 279.777946 114.122049 
L 306.579955 74.268654 
L 351.486632 7.052024 
L 356.854302 -1 
L 356.854302 -1 
" clip-path="url(#pb36d78f580)" style="fill: none; stroke: #0000ff; stroke-opacity: 0.3; stroke-width: 1.5; stroke-linecap: square"/>
   </g>
   <g id="line2d_60">
    <path d="M 103.064138 56.857713 
L 145.485861 113.961104 
L 167.672955 143.487773 
L 180.985211 160.858968 
L 189.505055 171.640771 
L 195.539944 178.942736 
L 199.977363 183.98151 
L 203.349801 187.496381 
L 206.012252 189.977775 
L 208.31971 191.832143 
L 210.272174 193.118157 
L 212.047142 194.008161 
L 213.644613 194.544106 
L 215.064587 194.78804 
L 216.484561 194.802504 
L 217.904535 194.586887 
L 219.324509 194.150094 
L 220.921979 193.415329 
L 222.696947 192.333322 
L 224.649411 190.873254 
L 226.956869 188.858857 
L 229.796817 186.05874 
L 233.169255 182.410818 
L 237.606674 177.261641 
L 243.464066 170.095286 
L 251.45142 159.94489 
L 262.988709 144.891404 
L 280.38339 121.79518 
L 308.427876 84.151631 
L 357.949469 17.262333 
L 369.309261 1.886557 
L 369.309261 1.886557 
" clip-path="url(#pb36d78f580)" style="fill: none; stroke: #0000ff; stroke-opacity: 0.3; stroke-width: 1.5; stroke-linecap: square"/>
   </g>
   <g id="line2d_61">
    <path d="M 102.959596 56.891556 
L 151.416208 116.838056 
L 174.845779 145.502089 
L 188.158035 161.464483 
L 196.500382 171.148473 
L 202.180278 177.430419 
L 206.4402 181.822479 
L 209.635142 184.807267 
L 212.120096 186.8437 
L 214.250057 188.307457 
L 216.025025 189.267599 
L 217.622495 189.885918 
L 219.042469 190.212797 
L 220.462443 190.313852 
L 221.882417 190.184062 
L 223.302391 189.82985 
L 224.899862 189.183788 
L 226.674829 188.197458 
L 228.627294 186.8437 
L 230.934751 184.962294 
L 233.774699 182.342374 
L 237.324634 178.748023 
L 241.93955 173.743101 
L 248.329433 166.457211 
L 257.381767 155.766794 
L 270.87152 139.461667 
L 292.526123 112.903172 
L 330.155434 66.358807 
L 369.382215 17.654879 
L 369.382215 17.654879 
" clip-path="url(#pb36d78f580)" style="fill: none; stroke: #0000ff; stroke-opacity: 0.3; stroke-width: 1.5; stroke-linecap: square"/>
   </g>
   <g id="line2d_62">
    <path d="M 103.03255 55.882896 
L 157.346555 118.393669 
L 181.66361 146.076278 
L 194.975866 160.921615 
L 203.140716 169.717512 
L 208.643115 175.33656 
L 212.548044 179.024956 
L 215.565489 181.577311 
L 217.872946 183.256079 
L 219.82541 184.415323 
L 221.422881 185.13438 
L 223.020352 185.60591 
L 224.440326 185.792617 
L 225.8603 185.749266 
L 227.280274 185.478355 
L 228.877745 184.920396 
L 230.475215 184.127151 
L 232.42768 182.894971 
L 234.735137 181.152241 
L 237.575085 178.704713 
L 241.12502 175.33656 
L 245.917432 170.461322 
L 252.484812 163.443218 
L 262.247133 152.655619 
L 277.334357 135.619592 
L 302.716392 106.585865 
L 349.930527 52.19548 
L 369.277673 29.854594 
L 369.277673 29.854594 
" clip-path="url(#pb36d78f580)" style="fill: none; stroke: #0000ff; stroke-opacity: 0.3; stroke-width: 1.5; stroke-linecap: square"/>
   </g>
   <g id="line2d_63">
    <path d="M 102.928007 53.794948 
L 163.099405 118.813091 
L 188.303943 145.75527 
L 201.438703 159.500711 
L 209.426056 167.559266 
L 214.573462 172.463362 
L 218.300894 175.727443 
L 221.140842 177.928616 
L 223.270803 179.326167 
L 225.04577 180.258485 
L 226.643241 180.867233 
L 228.063215 181.19217 
L 229.483189 181.293106 
L 230.903163 181.163512 
L 232.323137 180.811725 
L 233.920608 180.176512 
L 235.695575 179.220228 
L 237.825536 177.80099 
L 240.487987 175.727443 
L 243.860426 172.7874 
L 248.297844 168.599679 
L 254.510231 162.406592 
L 263.740061 152.860966 
L 278.294795 137.45388 
L 303.14434 110.787942 
L 350.890965 59.178041 
L 369.350627 39.178128 
L 369.350627 39.178128 
" clip-path="url(#pb36d78f580)" style="fill: none; stroke: #0000ff; stroke-opacity: 0.3; stroke-width: 1.5; stroke-linecap: square"/>
   </g>
   <g id="line2d_64">
    <path d="M 103.000962 51.269048 
L 169.029752 118.728039 
L 194.766781 144.74124 
L 207.724043 157.55362 
L 215.356403 164.816812 
L 220.326312 169.266161 
L 223.876247 172.164805 
L 226.538699 174.06635 
L 228.668659 175.323167 
L 230.443627 176.118521 
L 232.041098 176.585613 
L 233.461072 176.771872 
L 234.881046 176.728555 
L 236.30102 176.458806 
L 237.89849 175.90798 
L 239.673458 175.036429 
L 241.803419 173.711207 
L 244.288373 171.89054 
L 247.483315 169.266161 
L 251.920734 165.307954 
L 258.13312 159.442586 
L 267.540447 150.225616 
L 282.805168 134.923037 
L 309.784673 107.522629 
L 364.276175 51.814343 
L 369.246084 46.724528 
L 369.246084 46.724528 
" clip-path="url(#pb36d78f580)" style="fill: none; stroke: #0000ff; stroke-opacity: 0.3; stroke-width: 1.5; stroke-linecap: square"/>
   </g>
   <g id="line2d_65">
    <path d="M 103.073916 48.263086 
L 174.960099 118.09689 
L 201.052121 143.172865 
L 213.831887 155.179545 
L 221.28675 161.902465 
L 226.079162 165.943665 
L 229.451601 168.509179 
L 231.936555 170.135586 
L 233.889019 171.168631 
L 235.48649 171.793545 
L 236.906464 172.142961 
L 238.326438 172.272361 
L 239.746412 172.171543 
L 241.166386 171.848509 
L 242.763857 171.248882 
L 244.538824 170.342055 
L 246.668785 169.002386 
L 249.331236 167.062157 
L 252.881171 164.189215 
L 257.85108 159.861237 
L 265.128447 153.207015 
L 276.665736 142.328127 
L 296.545372 123.241424 
L 334.884669 86.078703 
L 369.319038 52.583052 
L 369.319038 52.583052 
" clip-path="url(#pb36d78f580)" style="fill: none; stroke: #0000ff; stroke-opacity: 0.3; stroke-width: 1.5; stroke-linecap: square"/>
   </g>
   <g id="line2d_66">
    <path d="M 102.969373 44.723935 
L 180.890446 117.033143 
L 207.337461 141.310553 
L 219.93973 152.606499 
L 227.0396 158.69777 
L 231.654516 162.378992 
L 234.849457 164.653097 
L 237.156915 166.044702 
L 239.109379 166.967055 
L 240.70685 167.484532 
L 242.126824 167.725849 
L 243.546798 167.740284 
L 244.966772 167.526573 
L 246.564243 167.036165 
L 248.33921 166.232516 
L 250.469171 164.997308 
L 253.131622 163.170716 
L 256.681557 160.437913 
L 261.651466 156.303097 
L 269.10633 149.780515 
L 280.998612 139.049968 
L 302.120725 119.655163 
L 344.719945 80.189156 
L 369.391993 57.266086 
L 369.391993 57.266086 
" clip-path="url(#pb36d78f580)" style="fill: none; stroke: #0000ff; stroke-opacity: 0.3; stroke-width: 1.5; stroke-linecap: square"/>
   </g>
   <g id="line2d_67">
    <path d="M 103.042327 41.068211 
L 186.820793 115.619252 
L 213.445305 139.053066 
L 225.692581 149.569807 
L 232.614954 155.245484 
L 236.874876 158.480908 
L 239.89232 160.518948 
L 242.199778 161.822992 
L 243.974746 162.594476 
L 245.572216 163.05516 
L 246.99219 163.240756 
L 248.412164 163.197489 
L 249.832138 162.929451 
L 251.429609 162.3888 
L 253.204577 161.548166 
L 255.512034 160.181827 
L 258.351982 158.224057 
L 262.256911 155.245484 
L 267.936807 150.611048 
L 276.811644 143.05477 
L 291.898868 129.883199 
L 320.653341 104.44216 
L 369.28745 61.161979 
L 369.28745 61.161979 
" clip-path="url(#pb36d78f580)" style="fill: none; stroke: #0000ff; stroke-opacity: 0.3; stroke-width: 1.5; stroke-linecap: square"/>
   </g>
   <g id="line2d_68">
    <path d="M 102.937785 37.029447 
L 192.75114 113.916834 
L 219.553149 136.607035 
L 231.445431 146.417795 
L 238.01281 151.579083 
L 242.272732 154.660169 
L 245.11268 156.461956 
L 247.242641 157.575655 
L 249.017609 158.266177 
L 250.615079 158.640602 
L 252.035053 158.741242 
L 253.455027 158.612132 
L 254.875001 158.266177 
L 256.472472 157.65578 
L 258.424936 156.664776 
L 260.909891 155.135864 
L 264.282329 152.771249 
L 269.074741 149.108377 
L 276.352108 143.236817 
L 288.421887 133.181054 
L 310.786477 114.219282 
L 358.710599 73.244445 
L 369.360404 64.118903 
L 369.360404 64.118903 
" clip-path="url(#pb36d78f580)" style="fill: none; stroke: #0000ff; stroke-opacity: 0.3; stroke-width: 1.5; stroke-linecap: square"/>
   </g>
   <g id="line2d_69">
    <path d="M 103.010739 32.961462 
L 198.681486 111.973031 
L 225.483495 133.85845 
L 237.198281 143.166936 
L 243.588164 147.982608 
L 247.493092 150.672992 
L 250.155543 152.270694 
L 252.285504 153.303185 
L 254.060472 153.90986 
L 255.480446 154.176777 
L 256.90042 154.220012 
L 258.320394 154.034853 
L 259.917865 153.578287 
L 261.692832 152.821538 
L 263.822793 151.664043 
L 266.662741 149.850694 
L 270.567669 147.074968 
L 276.425062 142.614928 
L 286.009887 135.002606 
L 303.049574 121.147123 
L 338.016434 92.380306 
L 369.255862 66.577983 
L 369.255862 66.577983 
" clip-path="url(#pb36d78f580)" style="fill: none; stroke: #0000ff; stroke-opacity: 0.3; stroke-width: 1.5; stroke-linecap: square"/>
   </g>
   <g id="line2d_70">
    <path d="M 103.083693 28.73976 
L 204.78933 109.96571 
L 231.413842 130.98314 
L 242.773634 139.697525 
L 248.808524 144.077171 
L 252.535955 146.540754 
L 255.198407 148.056161 
L 257.150871 148.938526 
L 258.748341 149.444761 
L 260.168315 149.684389 
L 261.588289 149.698804 
L 263.008263 149.48633 
L 264.605734 149.005598 
L 266.380702 148.234113 
L 268.688159 146.971236 
L 271.705604 145.048309 
L 276.143023 141.926319 
L 282.887899 136.878866 
L 294.247691 128.069129 
L 315.902294 110.952977 
L 364.18141 72.454507 
L 369.328816 68.341297 
L 369.328816 68.341297 
" clip-path="url(#pb36d78f580)" style="fill: none; stroke: #0000ff; stroke-opacity: 0.3; stroke-width: 1.5; stroke-linecap: square"/>
   </g>
   <g id="line2d_71">
    <path d="M 102.979151 24.253044 
L 210.54218 107.5009 
L 236.989196 127.73023 
L 248.171491 136.033704 
L 254.028883 140.135011 
L 257.756315 142.489901 
L 260.24127 143.819128 
L 262.193734 144.623544 
L 263.791205 145.049575 
L 265.211179 145.206502 
L 266.631153 145.134597 
L 268.051127 144.842662 
L 269.648597 144.291002 
L 271.601062 143.376007 
L 274.086016 141.959288 
L 277.635951 139.656796 
L 282.960853 135.905305 
L 291.658194 129.468354 
L 307.277908 117.592805 
L 339.93731 92.435074 
L 369.224273 69.777605 
L 369.224273 69.777605 
" clip-path="url(#pb36d78f580)" style="fill: none; stroke: #0000ff; stroke-opacity: 0.3; stroke-width: 1.5; stroke-linecap: square"/>
   </g>
   <g id="line2d_72">
    <path d="M 103.052105 19.801344 
L 216.472527 105.02536 
L 242.742046 124.527613 
L 253.569347 132.319623 
L 259.249243 136.159597 
L 262.799178 138.308719 
L 265.284133 139.559938 
L 267.0591 140.229511 
L 268.656571 140.599345 
L 270.076545 140.699751 
L 271.496519 140.571023 
L 273.09399 140.173577 
L 274.868957 139.481 
L 277.176415 138.308719 
L 280.19386 136.499609 
L 284.631278 133.551194 
L 291.553652 128.657704 
L 303.800927 119.692328 
L 328.295478 101.440286 
L 369.297227 70.671557 
L 369.297227 70.671557 
" clip-path="url(#pb36d78f580)" style="fill: none; stroke: #0000ff; stroke-opacity: 0.3; stroke-width: 1.5; stroke-linecap: square"/>
   </g>
   <g id="line2d_73">
    <path d="M 102.947562 15.129481 
L 222.402874 102.417272 
L 248.494896 121.247404 
L 258.967204 128.560643 
L 264.469603 132.153696 
L 267.842041 134.107423 
L 270.149499 135.206255 
L 271.924467 135.823384 
L 273.521937 136.135355 
L 274.941911 136.178523 
L 276.361885 135.994228 
L 277.959356 135.545552 
L 279.91182 134.732469 
L 282.396775 133.42329 
L 285.769213 131.373004 
L 290.916619 127.956921 
L 299.436463 122.004056 
L 315.41117 110.530017 
L 350.200533 85.216404 
L 369.370181 71.216633 
L 369.370181 71.216633 
" clip-path="url(#pb36d78f580)" style="fill: none; stroke: #0000ff; stroke-opacity: 0.3; stroke-width: 1.5; stroke-linecap: square"/>
   </g>
   <g id="line2d_74">
    <path d="M 103.020516 10.514225 
L 228.333221 99.692545 
L 254.070249 117.775488 
L 264.187564 124.644518 
L 269.512466 128.013791 
L 272.707408 129.797175 
L 275.014866 130.841772 
L 276.789833 131.404949 
L 278.209807 131.642928 
L 279.629781 131.657324 
L 281.049755 131.446061 
L 282.647226 130.974418 
L 284.59969 130.147438 
L 287.084644 128.840519 
L 290.634579 126.705199 
L 296.136979 123.110912 
L 305.544306 116.667942 
L 323.826471 103.834969 
L 365.893201 73.980897 
L 369.265639 71.58163 
L 369.265639 71.58163 
" clip-path="url(#pb36d78f580)" style="fill: none; stroke: #0000ff; stroke-opacity: 0.3; stroke-width: 1.5; stroke-linecap: square"/>
   </g>
   <g id="line2d_75">
    <path d="M 106.110915 7.930329 
L 234.441064 96.986973 
L 259.645603 114.248401 
L 269.407924 120.698452 
L 274.555329 123.855217 
L 277.572774 125.47676 
L 279.702735 126.401774 
L 281.477703 126.93599 
L 282.897677 127.146954 
L 284.317651 127.132563 
L 285.737625 126.89499 
L 287.335095 126.401774 
L 289.28756 125.562633 
L 291.950011 124.159213 
L 295.854939 121.82061 
L 302.067325 117.807538 
L 313.072124 110.397009 
L 335.614211 94.903436 
L 369.338593 71.546181 
L 369.338593 71.546181 
" clip-path="url(#pb36d78f580)" style="fill: none; stroke: #0000ff; stroke-opacity: 0.3; stroke-width: 1.5; stroke-linecap: square"/>
   </g>
   <g id="line2d_76">
    <path d="M 110.621288 6.154047 
L 240.726405 94.302988 
L 265.220956 110.671704 
L 274.628284 116.725076 
L 279.598193 119.679159 
L 282.615637 121.228741 
L 284.745598 122.080475 
L 286.343069 122.49844 
L 287.763043 122.654638 
L 289.183017 122.582898 
L 290.602991 122.294424 
L 292.377958 121.688781 
L 294.507919 120.716184 
L 297.525364 119.075564 
L 302.14028 116.282145 
L 309.77264 111.370599 
L 324.327373 101.699723 
L 356.986775 79.679069 
L 369.234051 71.389863 
L 369.234051 71.389863 
" clip-path="url(#pb36d78f580)" style="fill: none; stroke: #0000ff; stroke-opacity: 0.3; stroke-width: 1.5; stroke-linecap: square"/>
   </g>
   <g id="line2d_77">
    <path d="M 115.131661 4.196059 
L 247.011745 91.525643 
L 270.796309 107.050126 
L 279.848644 112.726604 
L 284.463559 115.391082 
L 287.303507 116.80695 
L 289.433468 117.628846 
L 291.030939 118.019631 
L 292.450913 118.147886 
L 293.870887 118.04777 
L 295.468357 117.683418 
L 297.243325 117.037449 
L 299.550783 115.952035 
L 302.923221 114.094882 
L 308.248123 110.872979 
L 317.477954 104.992349 
L 336.115113 92.810463 
L 369.307005 70.894706 
L 369.307005 70.894706 
" clip-path="url(#pb36d78f580)" style="fill: none; stroke: #0000ff; stroke-opacity: 0.3; stroke-width: 1.5; stroke-linecap: square"/>
   </g>
   <g id="line2d_78">
    <path d="M 119.642034 2.075717 
L 253.119589 88.549819 
L 276.194166 103.276525 
L 284.891507 108.600523 
L 289.506422 111.186238 
L 292.34637 112.532617 
L 294.298834 113.225944 
L 295.896305 113.562218 
L 297.316279 113.633893 
L 298.736253 113.477982 
L 300.333724 113.063108 
L 302.286188 112.304284 
L 304.948639 111.00022 
L 308.853568 108.808988 
L 315.243451 104.93663 
L 327.135733 97.431129 
L 353.227755 80.650028 
L 369.379959 70.205295 
L 369.379959 70.205295 
" clip-path="url(#pb36d78f580)" style="fill: none; stroke: #0000ff; stroke-opacity: 0.3; stroke-width: 1.5; stroke-linecap: square"/>
   </g>
   <g id="line2d_79">
    <path d="M 124.152407 -0.190404 
L 259.049936 85.390624 
L 281.592023 99.4706 
L 290.111867 104.560042 
L 294.371788 106.877082 
L 297.03424 108.099987 
L 298.986704 108.765415 
L 300.584175 109.07322 
L 302.004149 109.11629 
L 303.424123 108.933262 
L 305.021593 108.495639 
L 306.974058 107.723182 
L 309.636509 106.420353 
L 313.718934 104.151342 
L 320.641307 100.01342 
L 333.776067 91.863202 
L 363.950514 72.825374 
L 369.275416 69.452532 
L 369.275416 69.452532 
" clip-path="url(#pb36d78f580)" style="fill: none; stroke: #0000ff; stroke-opacity: 0.3; stroke-width: 1.5; stroke-linecap: square"/>
   </g>
   <g id="line2d_80">
    <path d="M 131.21286 -1 
L 265.157779 82.280532 
L 286.989879 95.635012 
L 295.15473 100.400219 
L 299.237155 102.559495 
L 301.899606 103.732761 
L 303.674574 104.301831 
L 305.272044 104.580737 
L 306.692018 104.595103 
L 308.111992 104.385612 
L 309.709463 103.926632 
L 311.839424 103.062152 
L 314.856869 101.561752 
L 319.471784 98.987116 
L 327.636635 94.139249 
L 344.143832 84.033445 
L 369.34837 68.425165 
L 369.34837 68.425165 
" clip-path="url(#pb36d78f580)" style="fill: none; stroke: #0000ff; stroke-opacity: 0.3; stroke-width: 1.5; stroke-linecap: square"/>
   </g>
   <g id="line2d_81">
    <path d="M 139.893405 -1 
L 271.44312 79.218365 
L 292.387736 91.772073 
L 300.197593 96.226362 
L 304.280018 98.317201 
L 306.764972 99.356279 
L 308.53994 99.875532 
L 309.959914 100.084733 
L 311.379888 100.070372 
L 312.799862 99.835184 
L 314.574829 99.292057 
L 316.882287 98.317201 
L 320.077229 96.70454 
L 325.402131 93.732872 
L 334.986955 88.090927 
L 355.576578 75.667392 
L 369.243828 67.359936 
L 369.243828 67.359936 
" clip-path="url(#pb36d78f580)" style="fill: none; stroke: #0000ff; stroke-opacity: 0.3; stroke-width: 1.5; stroke-linecap: square"/>
   </g>
   <g id="line2d_82">
    <path d="M 148.908563 -1 
L 277.550963 75.992062 
L 297.785592 87.883798 
L 305.240456 92.039262 
L 309.145384 93.98083 
L 311.452842 94.910458 
L 313.22781 95.402767 
L 314.647784 95.585174 
L 316.067758 95.542152 
L 317.487732 95.282142 
L 319.262699 94.719153 
L 321.570157 93.736284 
L 324.942595 92.039262 
L 330.622491 88.89832 
L 341.272296 82.713312 
L 365.234357 68.487288 
L 369.316782 66.050823 
L 369.316782 66.050823 
" clip-path="url(#pb36d78f580)" style="fill: none; stroke: #0000ff; stroke-opacity: 0.3; stroke-width: 1.5; stroke-linecap: square"/>
   </g>
   <g id="line2d_83">
    <path d="M 158.247894 -1 
L 283.658807 72.715582 
L 303.005952 83.872071 
L 310.283319 87.839576 
L 314.010751 89.636757 
L 316.318208 90.519368 
L 318.093176 90.957951 
L 319.51315 91.085649 
L 320.933124 90.985876 
L 322.530595 90.627758 
L 324.483059 89.93555 
L 327.14551 88.732212 
L 331.227935 86.619667 
L 338.505302 82.566222 
L 353.237532 74.060424 
L 369.389736 64.618549 
L 369.389736 64.618549 
" clip-path="url(#pb36d78f580)" style="fill: none; stroke: #0000ff; stroke-opacity: 0.3; stroke-width: 1.5; stroke-linecap: square"/>
   </g>
   <g id="line2d_84">
    <path d="M 167.901732 -1 
L 289.589154 69.29107 
L 308.226312 79.842286 
L 315.148685 83.538455 
L 318.69862 85.210409 
L 321.006078 86.065624 
L 322.603549 86.44767 
L 324.023523 86.575276 
L 325.443497 86.47556 
L 327.040968 86.118446 
L 328.993432 85.430731 
L 331.655883 84.239794 
L 335.915805 82.061087 
L 343.548165 77.866378 
L 359.345376 68.884214 
L 369.285194 63.174463 
L 369.285194 63.174463 
" clip-path="url(#pb36d78f580)" style="fill: none; stroke: #0000ff; stroke-opacity: 0.3; stroke-width: 1.5; stroke-linecap: square"/>
   </g>
   <g id="line2d_85">
    <path d="M 177.861096 -1 
L 295.5195 65.827114 
L 313.446672 75.795604 
L 320.014052 79.230182 
L 323.563987 80.854222 
L 325.693948 81.609126 
L 327.291418 81.965244 
L 328.711392 82.064903 
L 330.131366 81.937389 
L 331.728837 81.55654 
L 333.681301 80.854222 
L 336.521249 79.576766 
L 341.136165 77.222302 
L 349.478512 72.679884 
L 367.760677 62.423115 
L 369.358148 61.520486 
L 369.358148 61.520486 
" clip-path="url(#pb36d78f580)" style="fill: none; stroke: #0000ff; stroke-opacity: 0.3; stroke-width: 1.5; stroke-linecap: square"/>
   </g>
   <g id="line2d_86">
    <path d="M 188.11763 -1 
L 301.449847 62.326516 
L 318.667032 71.733049 
L 325.056915 75.000479 
L 328.429353 76.490528 
L 330.559314 77.197548 
L 332.156785 77.500728 
L 333.576759 77.543685 
L 334.996733 77.362095 
L 336.594204 76.936327 
L 338.724165 76.129774 
L 341.919106 74.656158 
L 347.244008 71.921276 
L 357.53882 66.342201 
L 369.253605 59.866032 
L 369.253605 59.866032 
" clip-path="url(#pb36d78f580)" style="fill: none; stroke: #0000ff; stroke-opacity: 0.3; stroke-width: 1.5; stroke-linecap: square"/>
   </g>
   <g id="line2d_87">
    <path d="M 198.663536 -1 
L 307.202697 58.695094 
L 323.709895 67.563021 
L 329.922281 70.676881 
L 333.117223 72.05275 
L 335.247184 72.732861 
L 336.844654 73.008181 
L 338.264628 73.022513 
L 339.684602 72.815021 
L 341.45957 72.309471 
L 343.767028 71.399973 
L 347.316963 69.735064 
L 353.529349 66.538196 
L 366.131618 59.757827 
L 369.326559 58.017927 
L 369.326559 58.017927 
" clip-path="url(#pb36d78f580)" style="fill: none; stroke: #0000ff; stroke-opacity: 0.3; stroke-width: 1.5; stroke-linecap: square"/>
   </g>
   <g id="line2d_88">
    <path d="M 209.491523 -1 
L 313.133044 55.13 
L 328.930255 63.473057 
L 334.787648 66.346994 
L 337.805092 67.612533 
L 339.757557 68.222995 
L 341.355027 68.497816 
L 342.775001 68.512143 
L 344.194975 68.304931 
L 345.969943 67.801555 
L 348.277401 66.899248 
L 351.827335 65.252723 
L 358.217218 62.005644 
L 369.222017 56.175714 
L 369.222017 56.175714 
" clip-path="url(#pb36d78f580)" style="fill: none; stroke: #0000ff; stroke-opacity: 0.3; stroke-width: 1.5; stroke-linecap: square"/>
   </g>
   <g id="line2d_89">
    <path d="M 220.594769 -1 
L 318.885894 51.441287 
L 333.973118 59.280435 
L 339.653014 62.011005 
L 342.670459 63.232556 
L 344.622923 63.79484 
L 346.220394 64.012569 
L 347.640368 63.96966 
L 349.237838 63.66839 
L 351.190303 63.040242 
L 354.030251 61.851538 
L 358.645166 59.635924 
L 367.342507 55.171308 
L 369.294971 54.149778 
L 369.294971 54.149778 
" clip-path="url(#pb36d78f580)" style="fill: none; stroke: #0000ff; stroke-opacity: 0.3; stroke-width: 1.5; stroke-linecap: square"/>
   </g>
   <g id="line2d_90">
    <path d="M 231.966879 -1 
L 324.638745 47.727295 
L 339.015981 55.078162 
L 344.51838 57.669058 
L 347.358328 58.785632 
L 349.310793 59.32141 
L 350.730767 59.502197 
L 352.150741 59.459304 
L 353.748211 59.158661 
L 355.700676 58.533894 
L 358.540624 57.355729 
L 363.155539 55.165689 
L 369.367925 52.035472 
L 369.367925 52.035472 
" clip-path="url(#pb36d78f580)" style="fill: none; stroke: #0000ff; stroke-opacity: 0.3; stroke-width: 1.5; stroke-linecap: square"/>
   </g>
   <g id="line2d_91">
    <path d="M 243.601859 -1 
L 330.391595 43.989514 
L 344.058844 50.866692 
L 349.20625 53.245892 
L 352.046198 54.336338 
L 353.821165 54.811237 
L 355.241139 54.991825 
L 356.661113 54.948948 
L 358.258584 54.648928 
L 360.211048 54.027485 
L 363.050996 52.859581 
L 367.843409 50.607783 
L 369.263383 49.910985 
L 369.263383 49.910985 
" clip-path="url(#pb36d78f580)" style="fill: none; stroke: #0000ff; stroke-opacity: 0.3; stroke-width: 1.5; stroke-linecap: square"/>
   </g>
   <g id="line2d_92">
    <path d="M 255.494094 -1 
L 336.144445 40.229285 
L 349.101707 46.646421 
L 354.071616 48.894408 
L 356.734068 49.884681 
L 358.509035 50.33472 
L 359.929009 50.488674 
L 361.348983 50.417453 
L 362.946454 50.092527 
L 364.898918 49.455539 
L 367.916363 48.206316 
L 369.336337 47.562631 
L 369.336337 47.562631 
" clip-path="url(#pb36d78f580)" style="fill: none; stroke: #0000ff; stroke-opacity: 0.3; stroke-width: 1.5; stroke-linecap: square"/>
   </g>
   <g id="line2d_93">
    <path d="M 267.638334 -1 
L 341.897295 36.447818 
L 354.144571 42.417691 
L 358.936983 44.537209 
L 361.599434 45.483435 
L 363.374402 45.882709 
L 364.794375 45.98192 
L 366.214349 45.85513 
L 367.81182 45.483435 
L 369.231794 45.014493 
L 369.231794 45.014493 
" clip-path="url(#pb36d78f580)" style="fill: none; stroke: #0000ff; stroke-opacity: 0.3; stroke-width: 1.5; stroke-linecap: square"/>
   </g>
   <g id="line2d_94">
    <path d="M 280.0297 -1 
L 347.650145 32.646194 
L 359.187434 38.180788 
L 363.802349 40.174275 
L 366.287304 41.024839 
L 368.062271 41.396771 
L 369.304748 41.471547 
L 369.304748 41.471547 
" clip-path="url(#pb36d78f580)" style="fill: none; stroke: #0000ff; stroke-opacity: 0.3; stroke-width: 1.5; stroke-linecap: square"/>
   </g>
   <g id="patch_3">
    <path d="M 103.104 307.584 
L 103.104 41.472 
" style="fill: none; stroke: #000000; stroke-width: 0.8; stroke-linejoin: miter; stroke-linecap: square"/>
   </g>
   <g id="patch_4">
    <path d="M 369.216 307.584 
L 369.216 41.472 
" style="fill: none; stroke: #000000; stroke-width: 0.8; stroke-linejoin: miter; stroke-linecap: square"/>
   </g>
   <g id="patch_5">
    <path d="M 103.104 307.584 
L 369.216 307.584 
" style="fill: none; stroke: #000000; stroke-width: 0.8; stroke-linejoin: miter; stroke-linecap: square"/>
   </g>
   <g id="patch_6">
    <path d="M 103.104 41.472 
L 369.216 41.472 
" style="fill: none; stroke: #000000; stroke-width: 0.8; stroke-linejoin: miter; stroke-linecap: square"/>
   </g>
   <g id="text_17">
    <!-- falling particle, planar wave -->
    <g transform="translate(152.57625 35.472) scale(0.12 -0.12)">
     <defs>
      <path id="DejaVuSans-66" d="M 2375 4863 
L 2375 4384 
L 1825 4384 
Q 1516 4384 1395 4259 
Q 1275 4134 1275 3809 
L 1275 3500 
L 2222 3500 
L 2222 3053 
L 1275 3053 
L 1275 0 
L 697 0 
L 697 3053 
L 147 3053 
L 147 3500 
L 697 3500 
L 697 3744 
Q 697 4328 969 4595 
Q 1241 4863 1831 4863 
L 2375 4863 
z
" transform="scale(0.015625)"/>
      <path id="DejaVuSans-61" d="M 2194 1759 
Q 1497 1759 1228 1600 
Q 959 1441 959 1056 
Q 959 750 1161 570 
Q 1363 391 1709 391 
Q 2188 391 2477 730 
Q 2766 1069 2766 1631 
L 2766 1759 
L 2194 1759 
z
M 3341 1997 
L 3341 0 
L 2766 0 
L 2766 531 
Q 2569 213 2275 61 
Q 1981 -91 1556 -91 
Q 1019 -91 701 211 
Q 384 513 384 1019 
Q 384 1609 779 1909 
Q 1175 2209 1959 2209 
L 2766 2209 
L 2766 2266 
Q 2766 2663 2505 2880 
Q 2244 3097 1772 3097 
Q 1472 3097 1187 3025 
Q 903 2953 641 2809 
L 641 3341 
Q 956 3463 1253 3523 
Q 1550 3584 1831 3584 
Q 2591 3584 2966 3190 
Q 3341 2797 3341 1997 
z
" transform="scale(0.015625)"/>
      <path id="DejaVuSans-6c" d="M 603 4863 
L 1178 4863 
L 1178 0 
L 603 0 
L 603 4863 
z
" transform="scale(0.015625)"/>
      <path id="DejaVuSans-69" d="M 603 3500 
L 1178 3500 
L 1178 0 
L 603 0 
L 603 3500 
z
M 603 4863 
L 1178 4863 
L 1178 4134 
L 603 4134 
L 603 4863 
z
" transform="scale(0.015625)"/>
      <path id="DejaVuSans-6e" d="M 3513 2113 
L 3513 0 
L 2938 0 
L 2938 2094 
Q 2938 2591 2744 2837 
Q 2550 3084 2163 3084 
Q 1697 3084 1428 2787 
Q 1159 2491 1159 1978 
L 1159 0 
L 581 0 
L 581 3500 
L 1159 3500 
L 1159 2956 
Q 1366 3272 1645 3428 
Q 1925 3584 2291 3584 
Q 2894 3584 3203 3211 
Q 3513 2838 3513 2113 
z
" transform="scale(0.015625)"/>
      <path id="DejaVuSans-67" d="M 2906 1791 
Q 2906 2416 2648 2759 
Q 2391 3103 1925 3103 
Q 1463 3103 1205 2759 
Q 947 2416 947 1791 
Q 947 1169 1205 825 
Q 1463 481 1925 481 
Q 2391 481 2648 825 
Q 2906 1169 2906 1791 
z
M 3481 434 
Q 3481 -459 3084 -895 
Q 2688 -1331 1869 -1331 
Q 1566 -1331 1297 -1286 
Q 1028 -1241 775 -1147 
L 775 -588 
Q 1028 -725 1275 -790 
Q 1522 -856 1778 -856 
Q 2344 -856 2625 -561 
Q 2906 -266 2906 331 
L 2906 616 
Q 2728 306 2450 153 
Q 2172 0 1784 0 
Q 1141 0 747 490 
Q 353 981 353 1791 
Q 353 2603 747 3093 
Q 1141 3584 1784 3584 
Q 2172 3584 2450 3431 
Q 2728 3278 2906 2969 
L 2906 3500 
L 3481 3500 
L 3481 434 
z
" transform="scale(0.015625)"/>
      <path id="DejaVuSans-20" transform="scale(0.015625)"/>
      <path id="DejaVuSans-70" d="M 1159 525 
L 1159 -1331 
L 581 -1331 
L 581 3500 
L 1159 3500 
L 1159 2969 
Q 1341 3281 1617 3432 
Q 1894 3584 2278 3584 
Q 2916 3584 3314 3078 
Q 3713 2572 3713 1747 
Q 3713 922 3314 415 
Q 2916 -91 2278 -91 
Q 1894 -91 1617 61 
Q 1341 213 1159 525 
z
M 3116 1747 
Q 3116 2381 2855 2742 
Q 2594 3103 2138 3103 
Q 1681 3103 1420 2742 
Q 1159 2381 1159 1747 
Q 1159 1113 1420 752 
Q 1681 391 2138 391 
Q 2594 391 2855 752 
Q 3116 1113 3116 1747 
z
" transform="scale(0.015625)"/>
      <path id="DejaVuSans-72" d="M 2631 2963 
Q 2534 3019 2420 3045 
Q 2306 3072 2169 3072 
Q 1681 3072 1420 2755 
Q 1159 2438 1159 1844 
L 1159 0 
L 581 0 
L 581 3500 
L 1159 3500 
L 1159 2956 
Q 1341 3275 1631 3429 
Q 1922 3584 2338 3584 
Q 2397 3584 2469 3576 
Q 2541 3569 2628 3553 
L 2631 2963 
z
" transform="scale(0.015625)"/>
      <path id="DejaVuSans-74" d="M 1172 4494 
L 1172 3500 
L 2356 3500 
L 2356 3053 
L 1172 3053 
L 1172 1153 
Q 1172 725 1289 603 
Q 1406 481 1766 481 
L 2356 481 
L 2356 0 
L 1766 0 
Q 1100 0 847 248 
Q 594 497 594 1153 
L 594 3053 
L 172 3053 
L 172 3500 
L 594 3500 
L 594 4494 
L 1172 4494 
z
" transform="scale(0.015625)"/>
      <path id="DejaVuSans-63" d="M 3122 3366 
L 3122 2828 
Q 2878 2963 2633 3030 
Q 2388 3097 2138 3097 
Q 1578 3097 1268 2742 
Q 959 2388 959 1747 
Q 959 1106 1268 751 
Q 1578 397 2138 397 
Q 2388 397 2633 464 
Q 2878 531 3122 666 
L 3122 134 
Q 2881 22 2623 -34 
Q 2366 -91 2075 -91 
Q 1284 -91 818 406 
Q 353 903 353 1747 
Q 353 2603 823 3093 
Q 1294 3584 2113 3584 
Q 2378 3584 2631 3529 
Q 2884 3475 3122 3366 
z
" transform="scale(0.015625)"/>
      <path id="DejaVuSans-65" d="M 3597 1894 
L 3597 1613 
L 953 1613 
Q 991 1019 1311 708 
Q 1631 397 2203 397 
Q 2534 397 2845 478 
Q 3156 559 3463 722 
L 3463 178 
Q 3153 47 2828 -22 
Q 2503 -91 2169 -91 
Q 1331 -91 842 396 
Q 353 884 353 1716 
Q 353 2575 817 3079 
Q 1281 3584 2069 3584 
Q 2775 3584 3186 3129 
Q 3597 2675 3597 1894 
z
M 3022 2063 
Q 3016 2534 2758 2815 
Q 2500 3097 2075 3097 
Q 1594 3097 1305 2825 
Q 1016 2553 972 2059 
L 3022 2063 
z
" transform="scale(0.015625)"/>
      <path id="DejaVuSans-2c" d="M 750 794 
L 1409 794 
L 1409 256 
L 897 -744 
L 494 -744 
L 750 256 
L 750 794 
z
" transform="scale(0.015625)"/>
      <path id="DejaVuSans-77" d="M 269 3500 
L 844 3500 
L 1563 769 
L 2278 3500 
L 2956 3500 
L 3675 769 
L 4391 3500 
L 4966 3500 
L 4050 0 
L 3372 0 
L 2619 2869 
L 1863 0 
L 1184 0 
L 269 3500 
z
" transform="scale(0.015625)"/>
      <path id="DejaVuSans-76" d="M 191 3500 
L 800 3500 
L 1894 563 
L 2988 3500 
L 3597 3500 
L 2284 0 
L 1503 0 
L 191 3500 
z
" transform="scale(0.015625)"/>
     </defs>
     <use xlink:href="#DejaVuSans-66"/>
     <use xlink:href="#DejaVuSans-61" x="35.205078"/>
     <use xlink:href="#DejaVuSans-6c" x="96.484375"/>
     <use xlink:href="#DejaVuSans-6c" x="124.267578"/>
     <use xlink:href="#DejaVuSans-69" x="152.050781"/>
     <use xlink:href="#DejaVuSans-6e" x="179.833984"/>
     <use xlink:href="#DejaVuSans-67" x="243.212891"/>
     <use xlink:href="#DejaVuSans-20" x="306.689453"/>
     <use xlink:href="#DejaVuSans-70" x="338.476562"/>
     <use xlink:href="#DejaVuSans-61" x="401.953125"/>
     <use xlink:href="#DejaVuSans-72" x="463.232422"/>
     <use xlink:href="#DejaVuSans-74" x="504.345703"/>
     <use xlink:href="#DejaVuSans-69" x="543.554688"/>
     <use xlink:href="#DejaVuSans-63" x="571.337891"/>
     <use xlink:href="#DejaVuSans-6c" x="626.318359"/>
     <use xlink:href="#DejaVuSans-65" x="654.101562"/>
     <use xlink:href="#DejaVuSans-2c" x="715.625"/>
     <use xlink:href="#DejaVuSans-20" x="747.412109"/>
     <use xlink:href="#DejaVuSans-70" x="779.199219"/>
     <use xlink:href="#DejaVuSans-6c" x="842.675781"/>
     <use xlink:href="#DejaVuSans-61" x="870.458984"/>
     <use xlink:href="#DejaVuSans-6e" x="931.738281"/>
     <use xlink:href="#DejaVuSans-61" x="995.117188"/>
     <use xlink:href="#DejaVuSans-72" x="1056.396484"/>
     <use xlink:href="#DejaVuSans-20" x="1097.509766"/>
     <use xlink:href="#DejaVuSans-77" x="1129.296875"/>
     <use xlink:href="#DejaVuSans-61" x="1211.083984"/>
     <use xlink:href="#DejaVuSans-76" x="1272.363281"/>
     <use xlink:href="#DejaVuSans-65" x="1331.542969"/>
    </g>
   </g>
  </g>
 </g>
 <defs>
  <clipPath id="pb36d78f580">
   <rect x="103.104" y="41.472" width="266.112" height="266.112"/>
  </clipPath>
 </defs>
</svg>
