<?xml version="1.0" encoding="utf-8" standalone="no"?>
<!DOCTYPE svg PUBLIC "-//W3C//DTD SVG 1.1//EN"
  "http://www.w3.org/Graphics/SVG/1.1/DTD/svg11.dtd">
<svg xmlns:xlink="http://www.w3.org/1999/xlink" width="460.8pt" height="345.6pt" viewBox="0 0 460.8 345.6" xmlns="http://www.w3.org/2000/svg" version="1.1">
 <metadata>
  <rdf:RDF xmlns:dc="http://purl.org/dc/elements/1.1/" xmlns:cc="http://creativecommons.org/ns#" xmlns:rdf="http://www.w3.org/1999/02/22-rdf-syntax-ns#">
   <cc:Work>
    <dc:type rdf:resource="http://purl.org/dc/dcmitype/StillImage"/>
    <dc:date>2024-04-19T23:49:40.633656</dc:date>
    <dc:format>image/svg+xml</dc:format>
    <dc:creator>
     <cc:Agent>
      <dc:title>Matplotlib v3.7.1, https://matplotlib.org/</dc:title>
     </cc:Agent>
    </dc:creator>
   </cc:Work>
  </rdf:RDF>
 </metadata>
 <defs>
  <style type="text/css">*{stroke-linejoin: round; stroke-linecap: butt}</style>
 </defs>
 <g id="figure_1">
  <g id="patch_1">
   <path d="M 0 345.6 
L 460.8 345.6 
L 460.8 0 
L 0 0 
z
" style="fill: #ffffff"/>
  </g>
  <g id="axes_1">
   <g id="patch_2">
    <path d="M 57.6 307.584 
L 414.72 307.584 
L 414.72 41.472 
L 57.6 41.472 
z
" style="fill: #ffffff"/>
   </g>
   <g id="PathCollection_1">
    <defs>
     <path id="m20e4db51bc" d="M 0 3 
C 0.795609 3 1.55874 2.683901 2.12132 2.12132 
C 2.683901 1.55874 3 0.795609 3 0 
C 3 -0.795609 2.683901 -1.55874 2.12132 -2.12132 
C 1.55874 -2.683901 0.795609 -3 0 -3 
C -0.795609 -3 -1.55874 -2.683901 -2.12132 -2.12132 
C -2.683901 -1.55874 -3 -0.795609 -3 0 
C -3 0.795609 -2.683901 1.55874 -2.12132 2.12132 
C -1.55874 2.683901 -0.795609 3 0 3 
z
" style="stroke: #ff0000; stroke-opacity: 0.4"/>
    </defs>
    <g clip-path="url(#p84609f2474)"/>
   </g>
   <g id="PathCollection_2">
    <g clip-path="url(#p84609f2474)"/>
   </g>
   <g id="PathCollection_3">
    <g clip-path="url(#p84609f2474)">
     <use xlink:href="#m20e4db51bc" x="97.28" y="39.281778" style="fill: #ff0000; fill-opacity: 0.4; stroke: #ff0000; stroke-opacity: 0.4"/>
    </g>
   </g>
   <g id="PathCollection_4">
    <g clip-path="url(#p84609f2474)"/>
   </g>
   <g id="PathCollection_5">
    <g clip-path="url(#p84609f2474)">
     <use xlink:href="#m20e4db51bc" x="136.96" y="170.695111" style="fill: #ff0000; fill-opacity: 0.4; stroke: #ff0000; stroke-opacity: 0.4"/>
    </g>
   </g>
   <g id="PathCollection_6">
    <g clip-path="url(#p84609f2474)">
     <use xlink:href="#m20e4db51bc" x="70.826667" y="79.435852" style="fill: #ff0000; fill-opacity: 0.4; stroke: #ff0000; stroke-opacity: 0.4"/>
    </g>
   </g>
   <g id="PathCollection_7">
    <g clip-path="url(#p84609f2474)">
     <use xlink:href="#m20e4db51bc" x="176.64" y="258.304" style="fill: #ff0000; fill-opacity: 0.4; stroke: #ff0000; stroke-opacity: 0.4"/>
    </g>
   </g>
   <g id="PathCollection_8">
    <g clip-path="url(#p84609f2474)">
     <use xlink:href="#m20e4db51bc" x="136.96" y="225.450667" style="fill: #ff0000; fill-opacity: 0.4; stroke: #ff0000; stroke-opacity: 0.4"/>
    </g>
   </g>
   <g id="PathCollection_9">
    <g clip-path="url(#p84609f2474)">
     <use xlink:href="#m20e4db51bc" x="216.32" y="302.108444" style="fill: #ff0000; fill-opacity: 0.4; stroke: #ff0000; stroke-opacity: 0.4"/>
    </g>
   </g>
   <g id="PathCollection_10">
    <g clip-path="url(#p84609f2474)">
     <use xlink:href="#m20e4db51bc" x="203.093333" y="298.458074" style="fill: #ff0000; fill-opacity: 0.4; stroke: #ff0000; stroke-opacity: 0.4"/>
    </g>
   </g>
   <g id="PathCollection_11">
    <g clip-path="url(#p84609f2474)">
     <use xlink:href="#m20e4db51bc" x="256" y="302.108444" style="fill: #ff0000; fill-opacity: 0.4; stroke: #ff0000; stroke-opacity: 0.4"/>
    </g>
   </g>
   <g id="PathCollection_12">
    <g clip-path="url(#p84609f2474)">
     <use xlink:href="#m20e4db51bc" x="269.226667" y="298.458074" style="fill: #ff0000; fill-opacity: 0.4; stroke: #ff0000; stroke-opacity: 0.4"/>
    </g>
   </g>
   <g id="PathCollection_13">
    <g clip-path="url(#p84609f2474)">
     <use xlink:href="#m20e4db51bc" x="295.68" y="258.304" style="fill: #ff0000; fill-opacity: 0.4; stroke: #ff0000; stroke-opacity: 0.4"/>
    </g>
   </g>
   <g id="PathCollection_14">
    <g clip-path="url(#p84609f2474)">
     <use xlink:href="#m20e4db51bc" x="335.36" y="225.450667" style="fill: #ff0000; fill-opacity: 0.4; stroke: #ff0000; stroke-opacity: 0.4"/>
    </g>
   </g>
   <g id="PathCollection_15">
    <g clip-path="url(#p84609f2474)">
     <use xlink:href="#m20e4db51bc" x="335.36" y="170.695111" style="fill: #ff0000; fill-opacity: 0.4; stroke: #ff0000; stroke-opacity: 0.4"/>
    </g>
   </g>
   <g id="PathCollection_16">
    <g clip-path="url(#p84609f2474)">
     <use xlink:href="#m20e4db51bc" x="401.493333" y="79.435852" style="fill: #ff0000; fill-opacity: 0.4; stroke: #ff0000; stroke-opacity: 0.4"/>
    </g>
   </g>
   <g id="PathCollection_17">
    <g clip-path="url(#p84609f2474)">
     <use xlink:href="#m20e4db51bc" x="375.04" y="39.281778" style="fill: #ff0000; fill-opacity: 0.4; stroke: #ff0000; stroke-opacity: 0.4"/>
    </g>
   </g>
   <g id="PathCollection_18">
    <g clip-path="url(#p84609f2474)"/>
   </g>
   <g id="PathCollection_19">
    <g clip-path="url(#p84609f2474)"/>
   </g>
   <g id="PathCollection_20">
    <g clip-path="url(#p84609f2474)"/>
   </g>
   <g id="matplotlib.axis_1">
    <g id="xtick_1">
     <g id="line2d_1">
      <defs>
       <path id="m4547096be7" d="M 0 0 
L 0 3.5 
" style="stroke: #000000; stroke-width: 0.8"/>
      </defs>
      <g>
       <use xlink:href="#m4547096be7" x="57.6" y="307.584" style="stroke: #000000; stroke-width: 0.8"/>
      </g>
     </g>
     <g id="text_1">
      <!-- −1.00 -->
      <g transform="translate(42.277344 322.182437) scale(0.1 -0.1)">
       <defs>
        <path id="DejaVuSans-2212" d="M 678 2272 
L 4684 2272 
L 4684 1741 
L 678 1741 
L 678 2272 
z
" transform="scale(0.015625)"/>
        <path id="DejaVuSans-31" d="M 794 531 
L 1825 531 
L 1825 4091 
L 703 3866 
L 703 4441 
L 1819 4666 
L 2450 4666 
L 2450 531 
L 3481 531 
L 3481 0 
L 794 0 
L 794 531 
z
" transform="scale(0.015625)"/>
        <path id="DejaVuSans-2e" d="M 684 794 
L 1344 794 
L 1344 0 
L 684 0 
L 684 794 
z
" transform="scale(0.015625)"/>
        <path id="DejaVuSans-30" d="M 2034 4250 
Q 1547 4250 1301 3770 
Q 1056 3291 1056 2328 
Q 1056 1369 1301 889 
Q 1547 409 2034 409 
Q 2525 409 2770 889 
Q 3016 1369 3016 2328 
Q 3016 3291 2770 3770 
Q 2525 4250 2034 4250 
z
M 2034 4750 
Q 2819 4750 3233 4129 
Q 3647 3509 3647 2328 
Q 3647 1150 3233 529 
Q 2819 -91 2034 -91 
Q 1250 -91 836 529 
Q 422 1150 422 2328 
Q 422 3509 836 4129 
Q 1250 4750 2034 4750 
z
" transform="scale(0.015625)"/>
       </defs>
       <use xlink:href="#DejaVuSans-2212"/>
       <use xlink:href="#DejaVuSans-31" x="83.789062"/>
       <use xlink:href="#DejaVuSans-2e" x="147.412109"/>
       <use xlink:href="#DejaVuSans-30" x="179.199219"/>
       <use xlink:href="#DejaVuSans-30" x="242.822266"/>
      </g>
     </g>
    </g>
    <g id="xtick_2">
     <g id="line2d_2">
      <g>
       <use xlink:href="#m4547096be7" x="102.24" y="307.584" style="stroke: #000000; stroke-width: 0.8"/>
      </g>
     </g>
     <g id="text_2">
      <!-- −0.75 -->
      <g transform="translate(86.917344 322.182437) scale(0.1 -0.1)">
       <defs>
        <path id="DejaVuSans-37" d="M 525 4666 
L 3525 4666 
L 3525 4397 
L 1831 0 
L 1172 0 
L 2766 4134 
L 525 4134 
L 525 4666 
z
" transform="scale(0.015625)"/>
        <path id="DejaVuSans-35" d="M 691 4666 
L 3169 4666 
L 3169 4134 
L 1269 4134 
L 1269 2991 
Q 1406 3038 1543 3061 
Q 1681 3084 1819 3084 
Q 2600 3084 3056 2656 
Q 3513 2228 3513 1497 
Q 3513 744 3044 326 
Q 2575 -91 1722 -91 
Q 1428 -91 1123 -41 
Q 819 9 494 109 
L 494 744 
Q 775 591 1075 516 
Q 1375 441 1709 441 
Q 2250 441 2565 725 
Q 2881 1009 2881 1497 
Q 2881 1984 2565 2268 
Q 2250 2553 1709 2553 
Q 1456 2553 1204 2497 
Q 953 2441 691 2322 
L 691 4666 
z
" transform="scale(0.015625)"/>
       </defs>
       <use xlink:href="#DejaVuSans-2212"/>
       <use xlink:href="#DejaVuSans-30" x="83.789062"/>
       <use xlink:href="#DejaVuSans-2e" x="147.412109"/>
       <use xlink:href="#DejaVuSans-37" x="179.199219"/>
       <use xlink:href="#DejaVuSans-35" x="242.822266"/>
      </g>
     </g>
    </g>
    <g id="xtick_3">
     <g id="line2d_3">
      <g>
       <use xlink:href="#m4547096be7" x="146.88" y="307.584" style="stroke: #000000; stroke-width: 0.8"/>
      </g>
     </g>
     <g id="text_3">
      <!-- −0.50 -->
      <g transform="translate(131.557344 322.182437) scale(0.1 -0.1)">
       <use xlink:href="#DejaVuSans-2212"/>
       <use xlink:href="#DejaVuSans-30" x="83.789062"/>
       <use xlink:href="#DejaVuSans-2e" x="147.412109"/>
       <use xlink:href="#DejaVuSans-35" x="179.199219"/>
       <use xlink:href="#DejaVuSans-30" x="242.822266"/>
      </g>
     </g>
    </g>
    <g id="xtick_4">
     <g id="line2d_4">
      <g>
       <use xlink:href="#m4547096be7" x="191.52" y="307.584" style="stroke: #000000; stroke-width: 0.8"/>
      </g>
     </g>
     <g id="text_4">
      <!-- −0.25 -->
      <g transform="translate(176.197344 322.182437) scale(0.1 -0.1)">
       <defs>
        <path id="DejaVuSans-32" d="M 1228 531 
L 3431 531 
L 3431 0 
L 469 0 
L 469 531 
Q 828 903 1448 1529 
Q 2069 2156 2228 2338 
Q 2531 2678 2651 2914 
Q 2772 3150 2772 3378 
Q 2772 3750 2511 3984 
Q 2250 4219 1831 4219 
Q 1534 4219 1204 4116 
Q 875 4013 500 3803 
L 500 4441 
Q 881 4594 1212 4672 
Q 1544 4750 1819 4750 
Q 2544 4750 2975 4387 
Q 3406 4025 3406 3419 
Q 3406 3131 3298 2873 
Q 3191 2616 2906 2266 
Q 2828 2175 2409 1742 
Q 1991 1309 1228 531 
z
" transform="scale(0.015625)"/>
       </defs>
       <use xlink:href="#DejaVuSans-2212"/>
       <use xlink:href="#DejaVuSans-30" x="83.789062"/>
       <use xlink:href="#DejaVuSans-2e" x="147.412109"/>
       <use xlink:href="#DejaVuSans-32" x="179.199219"/>
       <use xlink:href="#DejaVuSans-35" x="242.822266"/>
      </g>
     </g>
    </g>
    <g id="xtick_5">
     <g id="line2d_5">
      <g>
       <use xlink:href="#m4547096be7" x="236.16" y="307.584" style="stroke: #000000; stroke-width: 0.8"/>
      </g>
     </g>
     <g id="text_5">
      <!-- 0.00 -->
      <g transform="translate(225.027187 322.182437) scale(0.1 -0.1)">
       <use xlink:href="#DejaVuSans-30"/>
       <use xlink:href="#DejaVuSans-2e" x="63.623047"/>
       <use xlink:href="#DejaVuSans-30" x="95.410156"/>
       <use xlink:href="#DejaVuSans-30" x="159.033203"/>
      </g>
     </g>
    </g>
    <g id="xtick_6">
     <g id="line2d_6">
      <g>
       <use xlink:href="#m4547096be7" x="280.8" y="307.584" style="stroke: #000000; stroke-width: 0.8"/>
      </g>
     </g>
     <g id="text_6">
      <!-- 0.25 -->
      <g transform="translate(269.667188 322.182437) scale(0.1 -0.1)">
       <use xlink:href="#DejaVuSans-30"/>
       <use xlink:href="#DejaVuSans-2e" x="63.623047"/>
       <use xlink:href="#DejaVuSans-32" x="95.410156"/>
       <use xlink:href="#DejaVuSans-35" x="159.033203"/>
      </g>
     </g>
    </g>
    <g id="xtick_7">
     <g id="line2d_7">
      <g>
       <use xlink:href="#m4547096be7" x="325.44" y="307.584" style="stroke: #000000; stroke-width: 0.8"/>
      </g>
     </g>
     <g id="text_7">
      <!-- 0.50 -->
      <g transform="translate(314.307187 322.182437) scale(0.1 -0.1)">
       <use xlink:href="#DejaVuSans-30"/>
       <use xlink:href="#DejaVuSans-2e" x="63.623047"/>
       <use xlink:href="#DejaVuSans-35" x="95.410156"/>
       <use xlink:href="#DejaVuSans-30" x="159.033203"/>
      </g>
     </g>
    </g>
    <g id="xtick_8">
     <g id="line2d_8">
      <g>
       <use xlink:href="#m4547096be7" x="370.08" y="307.584" style="stroke: #000000; stroke-width: 0.8"/>
      </g>
     </g>
     <g id="text_8">
      <!-- 0.75 -->
      <g transform="translate(358.947188 322.182437) scale(0.1 -0.1)">
       <use xlink:href="#DejaVuSans-30"/>
       <use xlink:href="#DejaVuSans-2e" x="63.623047"/>
       <use xlink:href="#DejaVuSans-37" x="95.410156"/>
       <use xlink:href="#DejaVuSans-35" x="159.033203"/>
      </g>
     </g>
    </g>
    <g id="xtick_9">
     <g id="line2d_9">
      <g>
       <use xlink:href="#m4547096be7" x="414.72" y="307.584" style="stroke: #000000; stroke-width: 0.8"/>
      </g>
     </g>
     <g id="text_9">
      <!-- 1.00 -->
      <g transform="translate(403.587188 322.182437) scale(0.1 -0.1)">
       <use xlink:href="#DejaVuSans-31"/>
       <use xlink:href="#DejaVuSans-2e" x="63.623047"/>
       <use xlink:href="#DejaVuSans-30" x="95.410156"/>
       <use xlink:href="#DejaVuSans-30" x="159.033203"/>
      </g>
     </g>
    </g>
    <g id="text_10">
     <!-- q -->
     <g transform="translate(232.985781 335.860562) scale(0.1 -0.1)">
      <defs>
       <path id="DejaVuSans-71" d="M 947 1747 
Q 947 1113 1208 752 
Q 1469 391 1925 391 
Q 2381 391 2643 752 
Q 2906 1113 2906 1747 
Q 2906 2381 2643 2742 
Q 2381 3103 1925 3103 
Q 1469 3103 1208 2742 
Q 947 2381 947 1747 
z
M 2906 525 
Q 2725 213 2448 61 
Q 2172 -91 1784 -91 
Q 1150 -91 751 415 
Q 353 922 353 1747 
Q 353 2572 751 3078 
Q 1150 3584 1784 3584 
Q 2172 3584 2448 3432 
Q 2725 3281 2906 2969 
L 2906 3500 
L 3481 3500 
L 3481 -1331 
L 2906 -1331 
L 2906 525 
z
" transform="scale(0.015625)"/>
      </defs>
      <use xlink:href="#DejaVuSans-71"/>
     </g>
    </g>
   </g>
   <g id="matplotlib.axis_2">
    <g id="ytick_1">
     <g id="line2d_10">
      <defs>
       <path id="m799c16d091" d="M 0 0 
L -3.5 0 
" style="stroke: #000000; stroke-width: 0.8"/>
      </defs>
      <g>
       <use xlink:href="#m799c16d091" x="57.6" y="307.584" style="stroke: #000000; stroke-width: 0.8"/>
      </g>
     </g>
     <g id="text_11">
      <!-- 0.00 -->
      <g transform="translate(28.334375 311.383219) scale(0.1 -0.1)">
       <use xlink:href="#DejaVuSans-30"/>
       <use xlink:href="#DejaVuSans-2e" x="63.623047"/>
       <use xlink:href="#DejaVuSans-30" x="95.410156"/>
       <use xlink:href="#DejaVuSans-30" x="159.033203"/>
      </g>
     </g>
    </g>
    <g id="ytick_2">
     <g id="line2d_11">
      <g>
       <use xlink:href="#m799c16d091" x="57.6" y="274.32" style="stroke: #000000; stroke-width: 0.8"/>
      </g>
     </g>
     <g id="text_12">
      <!-- 0.25 -->
      <g transform="translate(28.334375 278.119219) scale(0.1 -0.1)">
       <use xlink:href="#DejaVuSans-30"/>
       <use xlink:href="#DejaVuSans-2e" x="63.623047"/>
       <use xlink:href="#DejaVuSans-32" x="95.410156"/>
       <use xlink:href="#DejaVuSans-35" x="159.033203"/>
      </g>
     </g>
    </g>
    <g id="ytick_3">
     <g id="line2d_12">
      <g>
       <use xlink:href="#m799c16d091" x="57.6" y="241.056" style="stroke: #000000; stroke-width: 0.8"/>
      </g>
     </g>
     <g id="text_13">
      <!-- 0.50 -->
      <g transform="translate(28.334375 244.855219) scale(0.1 -0.1)">
       <use xlink:href="#DejaVuSans-30"/>
       <use xlink:href="#DejaVuSans-2e" x="63.623047"/>
       <use xlink:href="#DejaVuSans-35" x="95.410156"/>
       <use xlink:href="#DejaVuSans-30" x="159.033203"/>
      </g>
     </g>
    </g>
    <g id="ytick_4">
     <g id="line2d_13">
      <g>
       <use xlink:href="#m799c16d091" x="57.6" y="207.792" style="stroke: #000000; stroke-width: 0.8"/>
      </g>
     </g>
     <g id="text_14">
      <!-- 0.75 -->
      <g transform="translate(28.334375 211.591219) scale(0.1 -0.1)">
       <use xlink:href="#DejaVuSans-30"/>
       <use xlink:href="#DejaVuSans-2e" x="63.623047"/>
       <use xlink:href="#DejaVuSans-37" x="95.410156"/>
       <use xlink:href="#DejaVuSans-35" x="159.033203"/>
      </g>
     </g>
    </g>
    <g id="ytick_5">
     <g id="line2d_14">
      <g>
       <use xlink:href="#m799c16d091" x="57.6" y="174.528" style="stroke: #000000; stroke-width: 0.8"/>
      </g>
     </g>
     <g id="text_15">
      <!-- 1.00 -->
      <g transform="translate(28.334375 178.327219) scale(0.1 -0.1)">
       <use xlink:href="#DejaVuSans-31"/>
       <use xlink:href="#DejaVuSans-2e" x="63.623047"/>
       <use xlink:href="#DejaVuSans-30" x="95.410156"/>
       <use xlink:href="#DejaVuSans-30" x="159.033203"/>
      </g>
     </g>
    </g>
    <g id="ytick_6">
     <g id="line2d_15">
      <g>
       <use xlink:href="#m799c16d091" x="57.6" y="141.264" style="stroke: #000000; stroke-width: 0.8"/>
      </g>
     </g>
     <g id="text_16">
      <!-- 1.25 -->
      <g transform="translate(28.334375 145.063219) scale(0.1 -0.1)">
       <use xlink:href="#DejaVuSans-31"/>
       <use xlink:href="#DejaVuSans-2e" x="63.623047"/>
       <use xlink:href="#DejaVuSans-32" x="95.410156"/>
       <use xlink:href="#DejaVuSans-35" x="159.033203"/>
      </g>
     </g>
    </g>
    <g id="ytick_7">
     <g id="line2d_16">
      <g>
       <use xlink:href="#m799c16d091" x="57.6" y="108" style="stroke: #000000; stroke-width: 0.8"/>
      </g>
     </g>
     <g id="text_17">
      <!-- 1.50 -->
      <g transform="translate(28.334375 111.799219) scale(0.1 -0.1)">
       <use xlink:href="#DejaVuSans-31"/>
       <use xlink:href="#DejaVuSans-2e" x="63.623047"/>
       <use xlink:href="#DejaVuSans-35" x="95.410156"/>
       <use xlink:href="#DejaVuSans-30" x="159.033203"/>
      </g>
     </g>
    </g>
    <g id="ytick_8">
     <g id="line2d_17">
      <g>
       <use xlink:href="#m799c16d091" x="57.6" y="74.736" style="stroke: #000000; stroke-width: 0.8"/>
      </g>
     </g>
     <g id="text_18">
      <!-- 1.75 -->
      <g transform="translate(28.334375 78.535219) scale(0.1 -0.1)">
       <use xlink:href="#DejaVuSans-31"/>
       <use xlink:href="#DejaVuSans-2e" x="63.623047"/>
       <use xlink:href="#DejaVuSans-37" x="95.410156"/>
       <use xlink:href="#DejaVuSans-35" x="159.033203"/>
      </g>
     </g>
    </g>
    <g id="ytick_9">
     <g id="line2d_18">
      <g>
       <use xlink:href="#m799c16d091" x="57.6" y="41.472" style="stroke: #000000; stroke-width: 0.8"/>
      </g>
     </g>
     <g id="text_19">
      <!-- 2.00 -->
      <g transform="translate(28.334375 45.271219) scale(0.1 -0.1)">
       <use xlink:href="#DejaVuSans-32"/>
       <use xlink:href="#DejaVuSans-2e" x="63.623047"/>
       <use xlink:href="#DejaVuSans-30" x="95.410156"/>
       <use xlink:href="#DejaVuSans-30" x="159.033203"/>
      </g>
     </g>
    </g>
    <g id="text_20">
     <!-- t -->
     <g transform="translate(22.254688 176.488156) rotate(-90) scale(0.1 -0.1)">
      <defs>
       <path id="DejaVuSans-74" d="M 1172 4494 
L 1172 3500 
L 2356 3500 
L 2356 3053 
L 1172 3053 
L 1172 1153 
Q 1172 725 1289 603 
Q 1406 481 1766 481 
L 2356 481 
L 2356 0 
L 1766 0 
Q 1100 0 847 248 
Q 594 497 594 1153 
L 594 3053 
L 172 3053 
L 172 3500 
L 594 3500 
L 594 4494 
L 1172 4494 
z
" transform="scale(0.015625)"/>
      </defs>
      <use xlink:href="#DejaVuSans-74"/>
     </g>
    </g>
   </g>
   <g id="line2d_19">
    <path d="M 87.221699 -1 
L 91.696884 17.276131 
L 97.080603 38.510795 
L 102.464322 58.939079 
L 107.84804 78.560983 
L 113.231759 97.376508 
L 118.615477 115.385653 
L 123.999196 132.588419 
L 129.382915 148.984805 
L 134.766633 164.574811 
L 140.150352 179.358438 
L 145.53407 193.335685 
L 150.917789 206.506552 
L 156.301508 218.87104 
L 159.890653 226.666043 
L 163.479799 234.102656 
L 167.068945 241.180877 
L 170.65809 247.900707 
L 174.247236 254.262147 
L 177.836382 260.265195 
L 181.425528 265.909852 
L 185.014673 271.196119 
L 188.603819 276.123994 
L 192.192965 280.693479 
L 195.782111 284.904573 
L 199.371256 288.757275 
L 202.960402 292.251587 
L 206.549548 295.387508 
L 210.138693 298.165038 
L 213.727839 300.584177 
L 217.316985 302.644925 
L 220.906131 304.347282 
L 224.495276 305.691248 
L 228.084422 306.676823 
L 231.673568 307.304007 
L 235.262714 307.5728 
L 238.851859 307.483203 
L 242.441005 307.035214 
L 246.030151 306.228834 
L 249.619296 305.064064 
L 253.208442 303.540902 
L 256.797588 301.65935 
L 260.386734 299.419406 
L 263.975879 296.821072 
L 267.565025 293.864346 
L 271.154171 290.54923 
L 274.743317 286.875723 
L 278.332462 282.843825 
L 281.921608 278.453536 
L 285.510754 273.704856 
L 289.099899 268.597785 
L 292.689045 263.132323 
L 296.278191 257.30847 
L 299.867337 251.126226 
L 303.456482 244.585591 
L 307.045628 237.686565 
L 310.634774 230.429148 
L 314.22392 222.813341 
L 317.813065 214.839142 
L 323.196784 202.205861 
L 328.580503 188.7662 
L 333.964221 174.52016 
L 339.34794 159.46774 
L 344.731658 143.608941 
L 350.115377 126.943762 
L 355.499095 109.472203 
L 360.882814 91.194264 
L 366.266533 72.109946 
L 371.650251 52.219249 
L 377.03397 31.522171 
L 382.417688 10.018714 
L 385.098301 -1 
L 385.098301 -1 
" clip-path="url(#p84609f2474)" style="fill: none; stroke: #ff0000; stroke-opacity: 0.8; stroke-width: 1.5; stroke-linecap: square"/>
   </g>
   <g id="line2d_20">
    <path d="M 57.6 41.472 
L 64.778291 62.437871 
L 71.956583 82.543603 
L 79.134874 101.789197 
L 84.518593 115.658927 
L 89.902312 129.044829 
L 95.28603 141.946903 
L 100.669749 154.365149 
L 106.053467 166.299568 
L 111.437186 177.750159 
L 116.820905 188.716922 
L 122.204623 199.199857 
L 127.588342 209.198964 
L 132.97206 218.714244 
L 138.355779 227.745696 
L 143.739497 236.29332 
L 149.123216 244.357117 
L 154.506935 251.937085 
L 159.890653 259.033226 
L 165.274372 265.645539 
L 170.65809 271.774024 
L 176.041809 277.418682 
L 179.630955 280.912994 
L 183.220101 284.192271 
L 186.809246 287.256513 
L 190.398392 290.105721 
L 193.987538 292.739895 
L 197.576683 295.159034 
L 201.165829 297.363138 
L 204.754975 299.352208 
L 208.344121 301.126243 
L 211.933266 302.685244 
L 215.522412 304.02921 
L 219.111558 305.158141 
L 222.700704 306.072038 
L 226.289849 306.770901 
L 229.878995 307.254728 
L 233.468141 307.523522 
L 237.057286 307.57728 
L 240.646432 307.416004 
L 244.235578 307.039694 
L 247.824724 306.448349 
L 251.413869 305.641969 
L 255.003015 304.620555 
L 258.592161 303.384106 
L 262.181307 301.932623 
L 265.770452 300.266105 
L 269.359598 298.384552 
L 272.948744 296.287965 
L 276.537889 293.976344 
L 280.127035 291.449687 
L 283.716181 288.707997 
L 287.305327 285.751271 
L 290.894472 282.579511 
L 294.483618 279.192717 
L 298.072764 275.590888 
L 301.66191 271.774024 
L 307.045628 265.645539 
L 312.429347 259.033226 
L 317.813065 251.937085 
L 323.196784 244.357117 
L 328.580503 236.29332 
L 333.964221 227.745696 
L 339.34794 218.714244 
L 344.731658 209.198964 
L 350.115377 199.199857 
L 355.499095 188.716922 
L 360.882814 177.750159 
L 366.266533 166.299568 
L 371.650251 154.365149 
L 377.03397 141.946903 
L 382.417688 129.044829 
L 387.801407 115.658927 
L 393.185126 101.789197 
L 398.568844 87.435639 
L 405.747136 67.544942 
L 412.925427 46.794106 
L 414.72 41.472 
L 414.72 41.472 
" clip-path="url(#p84609f2474)" style="fill: none; stroke: #ff0000; stroke-opacity: 0.8; stroke-width: 1.5; stroke-linecap: square"/>
   </g>
   <g id="line2d_21">
    <path d="M 0 0 
" clip-path="url(#p84609f2474)" style="fill: none; stroke: #0000ff; stroke-opacity: 0.3; stroke-width: 1.5; stroke-linecap: square"/>
   </g>
   <g id="line2d_22">
    <path clip-path="url(#p84609f2474)" style="fill: none; stroke: #ff0000; stroke-opacity: 0.4; stroke-width: 1.5; stroke-linecap: square"/>
   </g>
   <g id="line2d_23">
    <path d="M 57.6 6.428444 
L 61.189146 12.102968 
L 64.778291 17.239905 
L 68.367437 21.839255 
L 71.956583 25.901019 
L 75.545729 29.425197 
L 79.134874 32.411788 
L 82.72402 34.860793 
L 84.518593 35.883701 
L 86.313166 36.772212 
L 88.107739 37.526326 
L 89.902312 38.146043 
L 91.696884 38.631365 
L 93.491457 38.982289 
L 95.28603 39.198817 
L 97.080603 39.280948 
L 98.875176 39.228683 
L 100.669749 39.042021 
L 102.464322 38.720962 
L 104.258894 38.265507 
L 106.053467 37.675655 
L 107.84804 36.951407 
L 109.642613 36.092762 
L 111.437186 35.09972 
L 113.231759 33.972282 
L 116.820905 31.314216 
L 120.41005 28.118563 
L 123.999196 24.385324 
L 127.588342 20.114499 
L 131.177487 15.306087 
L 134.766633 9.960089 
L 138.355779 4.076504 
L 141.208725 -1 
L 141.208725 -1 
" clip-path="url(#p84609f2474)" style="fill: none; stroke: #0000ff; stroke-opacity: 0.3; stroke-width: 1.5; stroke-linecap: square"/>
   </g>
   <g id="line2d_24">
    <path d="M 97.28 39.281778 
L 76.429135 -1 
" clip-path="url(#p84609f2474)" style="fill: none; stroke: #ff0000; stroke-opacity: 0.4; stroke-width: 1.5; stroke-linecap: square"/>
   </g>
   <g id="line2d_25">
    <path d="M 57.6 39.281778 
L 61.189146 50.899618 
L 64.778291 61.979871 
L 68.367437 72.522538 
L 71.956583 82.527619 
L 75.545729 91.995113 
L 79.134874 100.925021 
L 82.72402 109.317343 
L 86.313166 117.172078 
L 89.902312 124.489226 
L 93.491457 131.268788 
L 97.080603 137.510764 
L 100.669749 143.215153 
L 104.258894 148.381956 
L 107.84804 153.011172 
L 111.437186 157.102802 
L 115.026332 160.656846 
L 118.615477 163.673303 
L 122.204623 166.152174 
L 123.999196 167.190014 
L 125.793769 168.093458 
L 127.588342 168.862506 
L 129.382915 169.497156 
L 131.177487 169.99741 
L 132.97206 170.363268 
L 134.766633 170.594728 
L 136.561206 170.691793 
L 138.355779 170.65446 
L 140.150352 170.482731 
L 141.944925 170.176606 
L 143.739497 169.736083 
L 145.53407 169.161165 
L 147.328643 168.451849 
L 149.123216 167.608137 
L 150.917789 166.630029 
L 152.712362 165.517523 
L 156.301508 162.889323 
L 159.890653 159.723536 
L 163.479799 156.020163 
L 167.068945 151.779204 
L 170.65809 147.000658 
L 174.247236 141.684525 
L 177.836382 135.830806 
L 181.425528 129.439501 
L 185.014673 122.510609 
L 188.603819 115.044131 
L 192.192965 107.040067 
L 195.782111 98.498416 
L 199.371256 89.419178 
L 202.960402 79.802355 
L 206.549548 69.647944 
L 210.138693 58.955948 
L 213.727839 47.726365 
L 217.316985 35.959195 
L 220.906131 23.654439 
L 226.289849 4.189331 
L 227.668036 -1 
L 227.668036 -1 
" clip-path="url(#p84609f2474)" style="fill: none; stroke: #0000ff; stroke-opacity: 0.3; stroke-width: 1.5; stroke-linecap: square"/>
   </g>
   <g id="line2d_26">
    <path d="M 136.96 170.695111 
L 70.826667 79.435852 
" clip-path="url(#p84609f2474)" style="fill: none; stroke: #ff0000; stroke-opacity: 0.4; stroke-width: 1.5; stroke-linecap: square"/>
   </g>
   <g id="line2d_27">
    <path d="M 65.165114 -1 
L 70.16201 21.736107 
L 75.545729 45.053918 
L 80.929447 67.16216 
L 86.313166 88.060832 
L 91.696884 107.749935 
L 97.080603 126.229469 
L 100.669749 137.877174 
L 104.258894 148.987294 
L 107.84804 159.559827 
L 111.437186 169.594773 
L 115.026332 179.092134 
L 118.615477 188.051907 
L 122.204623 196.474095 
L 125.793769 204.358696 
L 129.382915 211.70571 
L 132.97206 218.515138 
L 136.561206 224.78698 
L 140.150352 230.521235 
L 143.739497 235.717904 
L 147.328643 240.376986 
L 150.917789 244.498482 
L 154.506935 248.082391 
L 158.09608 251.128715 
L 161.685226 253.637451 
L 163.479799 254.690225 
L 165.274372 255.608601 
L 167.068945 256.392582 
L 168.863518 257.042165 
L 170.65809 257.557352 
L 172.452663 257.938143 
L 174.247236 258.184536 
L 176.041809 258.296534 
L 177.836382 258.274134 
L 179.630955 258.117338 
L 181.425528 257.826145 
L 183.220101 257.400556 
L 185.014673 256.84057 
L 186.809246 256.146188 
L 188.603819 255.317409 
L 190.398392 254.354233 
L 192.192965 253.256661 
L 195.782111 250.658326 
L 199.371256 247.522406 
L 202.960402 243.848898 
L 206.549548 239.637805 
L 210.138693 234.889125 
L 213.727839 229.602858 
L 217.316985 223.779005 
L 220.906131 217.417566 
L 224.495276 210.51854 
L 228.084422 203.081928 
L 231.673568 195.107729 
L 235.262714 186.595944 
L 238.851859 177.546573 
L 242.441005 167.959615 
L 246.030151 157.83507 
L 249.619296 147.17294 
L 253.208442 135.973222 
L 256.797588 124.235919 
L 260.386734 111.961029 
L 265.770452 92.540719 
L 271.154171 71.91084 
L 276.537889 50.071392 
L 281.921608 27.022374 
L 287.305327 2.763786 
L 288.113752 -1 
L 288.113752 -1 
" clip-path="url(#p84609f2474)" style="fill: none; stroke: #0000ff; stroke-opacity: 0.3; stroke-width: 1.5; stroke-linecap: square"/>
   </g>
   <g id="line2d_28">
    <path d="M 176.64 258.304 
L 136.96 225.450667 
" clip-path="url(#p84609f2474)" style="fill: none; stroke: #ff0000; stroke-opacity: 0.4; stroke-width: 1.5; stroke-linecap: square"/>
   </g>
   <g id="line2d_29">
    <path d="M 95.796659 -1 
L 100.669749 23.028085 
L 106.053467 48.406644 
L 111.437186 72.575633 
L 116.820905 95.535054 
L 122.204623 117.284904 
L 127.588342 137.825186 
L 132.97206 157.155897 
L 136.561206 169.371056 
L 140.150352 181.048627 
L 143.739497 192.188613 
L 147.328643 202.791012 
L 150.917789 212.855824 
L 154.506935 222.38305 
L 158.09608 231.37269 
L 161.685226 239.824743 
L 165.274372 247.73921 
L 168.863518 255.11609 
L 172.452663 261.955384 
L 176.041809 268.257092 
L 179.630955 274.021213 
L 183.220101 279.247748 
L 186.809246 283.936696 
L 190.398392 288.088058 
L 193.987538 291.701833 
L 197.576683 294.778022 
L 201.165829 297.316625 
L 202.960402 298.384331 
L 204.754975 299.317641 
L 206.549548 300.116554 
L 208.344121 300.781071 
L 210.138693 301.311191 
L 211.933266 301.706914 
L 213.727839 301.968241 
L 215.522412 302.095171 
L 217.316985 302.087704 
L 219.111558 301.945841 
L 220.906131 301.669581 
L 222.700704 301.258925 
L 224.495276 300.713872 
L 226.289849 300.034423 
L 228.084422 299.220577 
L 229.878995 298.272334 
L 231.673568 297.189695 
L 233.468141 295.972659 
L 237.057286 293.135397 
L 240.646432 289.760549 
L 244.235578 285.848114 
L 247.824724 281.398093 
L 251.413869 276.410486 
L 255.003015 270.885292 
L 258.592161 264.822512 
L 262.181307 258.222145 
L 265.770452 251.084192 
L 269.359598 243.408653 
L 272.948744 235.195527 
L 276.537889 226.444814 
L 280.127035 217.156516 
L 283.716181 207.33063 
L 287.305327 196.967159 
L 290.894472 186.066101 
L 294.483618 174.627456 
L 298.072764 162.651225 
L 301.66191 150.137408 
L 307.045628 130.358707 
L 312.429347 109.370437 
L 317.813065 87.172598 
L 323.196784 63.765189 
L 328.580503 39.148211 
L 333.964221 13.321663 
L 336.842865 -1 
L 336.842865 -1 
" clip-path="url(#p84609f2474)" style="fill: none; stroke: #0000ff; stroke-opacity: 0.3; stroke-width: 1.5; stroke-linecap: square"/>
   </g>
   <g id="line2d_30">
    <path d="M 216.32 302.108444 
L 203.093333 298.458074 
" clip-path="url(#p84609f2474)" style="fill: none; stroke: #ff0000; stroke-opacity: 0.4; stroke-width: 1.5; stroke-linecap: square"/>
   </g>
   <g id="line2d_31">
    <path d="M 135.477135 -1 
L 140.150352 22.064909 
L 145.53407 47.488267 
L 150.917789 71.702055 
L 156.301508 94.706274 
L 161.685226 116.500924 
L 167.068945 137.086004 
L 172.452663 156.461515 
L 176.041809 168.706539 
L 179.630955 180.413977 
L 183.220101 191.583828 
L 186.809246 202.216093 
L 190.398392 212.310771 
L 193.987538 221.867863 
L 197.576683 230.887369 
L 201.165829 239.369288 
L 204.754975 247.313621 
L 208.344121 254.720367 
L 211.933266 261.589527 
L 215.522412 267.9211 
L 219.111558 273.715087 
L 222.700704 278.971488 
L 226.289849 283.690302 
L 229.878995 287.87153 
L 233.468141 291.515171 
L 237.057286 294.621226 
L 240.646432 297.189695 
L 242.441005 298.272334 
L 244.235578 299.220577 
L 246.030151 300.034423 
L 247.824724 300.713872 
L 249.619296 301.258925 
L 251.413869 301.669581 
L 253.208442 301.945841 
L 255.003015 302.087704 
L 256.797588 302.095171 
L 258.592161 301.968241 
L 260.386734 301.706914 
L 262.181307 301.311191 
L 263.975879 300.781071 
L 265.770452 300.116554 
L 267.565025 299.317641 
L 269.359598 298.384331 
L 271.154171 297.316625 
L 272.948744 296.114522 
L 276.537889 293.307126 
L 280.127035 289.962144 
L 283.716181 286.079575 
L 287.305327 281.65942 
L 290.894472 276.701679 
L 294.483618 271.206351 
L 298.072764 265.173436 
L 301.66191 258.602936 
L 305.251055 251.494848 
L 308.840201 243.849175 
L 312.429347 235.665915 
L 316.018492 226.945068 
L 319.607638 217.686636 
L 323.196784 207.890616 
L 326.78593 197.557011 
L 330.375075 186.685818 
L 333.964221 175.27704 
L 337.553367 163.330675 
L 341.142513 150.846723 
L 346.526231 131.112822 
L 351.90995 110.169351 
L 357.293668 88.01631 
L 362.677387 64.6537 
L 368.061106 40.081521 
L 373.444824 14.299772 
L 376.523341 -1 
L 376.523341 -1 
" clip-path="url(#p84609f2474)" style="fill: none; stroke: #0000ff; stroke-opacity: 0.3; stroke-width: 1.5; stroke-linecap: square"/>
   </g>
   <g id="line2d_32">
    <path d="M 256 302.108444 
L 269.226667 298.458074 
" clip-path="url(#p84609f2474)" style="fill: none; stroke: #ff0000; stroke-opacity: 0.4; stroke-width: 1.5; stroke-linecap: square"/>
   </g>
   <g id="line2d_33">
    <path d="M 184.206248 -1 
L 188.603819 19.070575 
L 193.987538 42.522782 
L 199.371256 64.765421 
L 204.754975 85.79849 
L 210.138693 105.621989 
L 215.522412 124.235919 
L 219.111558 135.973222 
L 222.700704 147.17294 
L 226.289849 157.83507 
L 229.878995 167.959615 
L 233.468141 177.546573 
L 237.057286 186.595944 
L 240.646432 195.107729 
L 244.235578 203.081928 
L 247.824724 210.51854 
L 251.413869 217.417566 
L 255.003015 223.779005 
L 258.592161 229.602858 
L 262.181307 234.889125 
L 265.770452 239.637805 
L 269.359598 243.848898 
L 272.948744 247.522406 
L 276.537889 250.658326 
L 280.127035 253.256661 
L 281.921608 254.354233 
L 283.716181 255.317409 
L 285.510754 256.146188 
L 287.305327 256.84057 
L 289.099899 257.400556 
L 290.894472 257.826145 
L 292.689045 258.117338 
L 294.483618 258.274134 
L 296.278191 258.296534 
L 298.072764 258.184536 
L 299.867337 257.938143 
L 301.66191 257.557352 
L 303.456482 257.042165 
L 305.251055 256.392582 
L 307.045628 255.608601 
L 308.840201 254.690225 
L 310.634774 253.637451 
L 312.429347 252.450281 
L 316.018492 249.672751 
L 319.607638 246.357635 
L 323.196784 242.504932 
L 326.78593 238.114643 
L 330.375075 233.186768 
L 333.964221 227.721306 
L 337.553367 221.718257 
L 341.142513 215.177622 
L 344.731658 208.099401 
L 348.320804 200.483593 
L 351.90995 192.330199 
L 355.499095 183.639219 
L 359.088241 174.410652 
L 362.677387 164.644498 
L 366.266533 154.340759 
L 369.855678 143.499432 
L 373.444824 132.12052 
L 377.03397 120.204021 
L 380.623116 107.749935 
L 386.006834 88.060832 
L 391.390553 67.16216 
L 396.774271 45.053918 
L 402.15799 21.736107 
L 407.154886 -1 
L 407.154886 -1 
" clip-path="url(#p84609f2474)" style="fill: none; stroke: #0000ff; stroke-opacity: 0.3; stroke-width: 1.5; stroke-linecap: square"/>
   </g>
   <g id="line2d_34">
    <path d="M 295.68 258.304 
L 335.36 225.450667 
" clip-path="url(#p84609f2474)" style="fill: none; stroke: #ff0000; stroke-opacity: 0.4; stroke-width: 1.5; stroke-linecap: square"/>
   </g>
   <g id="line2d_35">
    <path d="M 244.651964 -1 
L 249.619296 17.300466 
L 255.003015 35.959195 
L 258.592161 47.726365 
L 262.181307 58.955948 
L 265.770452 69.647944 
L 269.359598 79.802355 
L 272.948744 89.419178 
L 276.537889 98.498416 
L 280.127035 107.040067 
L 283.716181 115.044131 
L 287.305327 122.510609 
L 290.894472 129.439501 
L 294.483618 135.830806 
L 298.072764 141.684525 
L 301.66191 147.000658 
L 305.251055 151.779204 
L 308.840201 156.020163 
L 312.429347 159.723536 
L 316.018492 162.889323 
L 319.607638 165.517523 
L 321.402211 166.630029 
L 323.196784 167.608137 
L 324.991357 168.451849 
L 326.78593 169.161165 
L 328.580503 169.736083 
L 330.375075 170.176606 
L 332.169648 170.482731 
L 333.964221 170.65446 
L 335.758794 170.691793 
L 337.553367 170.594728 
L 339.34794 170.363268 
L 341.142513 169.99741 
L 342.937085 169.497156 
L 344.731658 168.862506 
L 346.526231 168.093458 
L 348.320804 167.190014 
L 350.115377 166.152174 
L 351.90995 164.979937 
L 355.499095 162.232273 
L 359.088241 158.947023 
L 362.677387 155.124186 
L 366.266533 150.763763 
L 369.855678 145.865753 
L 373.444824 140.430157 
L 377.03397 134.456974 
L 380.623116 127.946205 
L 384.212261 120.89785 
L 387.801407 113.311908 
L 391.390553 105.18838 
L 394.979698 96.527266 
L 398.568844 87.328564 
L 402.15799 77.592277 
L 405.747136 67.318403 
L 409.336281 56.506943 
L 412.925427 45.157896 
L 414.72 39.281778 
L 414.72 39.281778 
" clip-path="url(#p84609f2474)" style="fill: none; stroke: #0000ff; stroke-opacity: 0.3; stroke-width: 1.5; stroke-linecap: square"/>
   </g>
   <g id="line2d_36">
    <path d="M 335.36 170.695111 
L 401.493333 79.435852 
" clip-path="url(#p84609f2474)" style="fill: none; stroke: #ff0000; stroke-opacity: 0.4; stroke-width: 1.5; stroke-linecap: square"/>
   </g>
   <g id="line2d_37">
    <path d="M 331.111275 -1 
L 333.964221 4.076504 
L 337.553367 9.960089 
L 341.142513 15.306087 
L 344.731658 20.114499 
L 348.320804 24.385324 
L 351.90995 28.118563 
L 355.499095 31.314216 
L 359.088241 33.972282 
L 360.882814 35.09972 
L 362.677387 36.092762 
L 364.47196 36.951407 
L 366.266533 37.675655 
L 368.061106 38.265507 
L 369.855678 38.720962 
L 371.650251 39.042021 
L 373.444824 39.228683 
L 375.239397 39.280948 
L 377.03397 39.198817 
L 378.828543 38.982289 
L 380.623116 38.631365 
L 382.417688 38.146043 
L 384.212261 37.526326 
L 386.006834 36.772212 
L 387.801407 35.883701 
L 389.59598 34.860793 
L 391.390553 33.703489 
L 394.979698 30.985691 
L 398.568844 27.730307 
L 402.15799 23.937336 
L 405.747136 19.606778 
L 409.336281 14.738635 
L 412.925427 9.332904 
L 414.72 6.428444 
L 414.72 6.428444 
" clip-path="url(#p84609f2474)" style="fill: none; stroke: #0000ff; stroke-opacity: 0.3; stroke-width: 1.5; stroke-linecap: square"/>
   </g>
   <g id="line2d_38">
    <path d="M 375.04 39.281778 
L 395.890865 -1 
" clip-path="url(#p84609f2474)" style="fill: none; stroke: #ff0000; stroke-opacity: 0.4; stroke-width: 1.5; stroke-linecap: square"/>
   </g>
   <g id="line2d_39">
    <path d="M 0 0 
" clip-path="url(#p84609f2474)" style="fill: none; stroke: #0000ff; stroke-opacity: 0.3; stroke-width: 1.5; stroke-linecap: square"/>
   </g>
   <g id="line2d_40">
    <path clip-path="url(#p84609f2474)" style="fill: none; stroke: #ff0000; stroke-opacity: 0.4; stroke-width: 1.5; stroke-linecap: square"/>
   </g>
   <g id="patch_3">
    <path d="M 57.6 307.584 
L 57.6 41.472 
" style="fill: none; stroke: #000000; stroke-width: 0.8; stroke-linejoin: miter; stroke-linecap: square"/>
   </g>
   <g id="patch_4">
    <path d="M 414.72 307.584 
L 414.72 41.472 
" style="fill: none; stroke: #000000; stroke-width: 0.8; stroke-linejoin: miter; stroke-linecap: square"/>
   </g>
   <g id="patch_5">
    <path d="M 57.6 307.584 
L 414.72 307.584 
" style="fill: none; stroke: #000000; stroke-width: 0.8; stroke-linejoin: miter; stroke-linecap: square"/>
   </g>
   <g id="patch_6">
    <path d="M 57.6 41.472 
L 414.72 41.472 
" style="fill: none; stroke: #000000; stroke-width: 0.8; stroke-linejoin: miter; stroke-linecap: square"/>
   </g>
   <g id="text_21">
    <!-- free particle, point source -->
    <g transform="translate(158.851875 35.472) scale(0.12 -0.12)">
     <defs>
      <path id="DejaVuSans-66" d="M 2375 4863 
L 2375 4384 
L 1825 4384 
Q 1516 4384 1395 4259 
Q 1275 4134 1275 3809 
L 1275 3500 
L 2222 3500 
L 2222 3053 
L 1275 3053 
L 1275 0 
L 697 0 
L 697 3053 
L 147 3053 
L 147 3500 
L 697 3500 
L 697 3744 
Q 697 4328 969 4595 
Q 1241 4863 1831 4863 
L 2375 4863 
z
" transform="scale(0.015625)"/>
      <path id="DejaVuSans-72" d="M 2631 2963 
Q 2534 3019 2420 3045 
Q 2306 3072 2169 3072 
Q 1681 3072 1420 2755 
Q 1159 2438 1159 1844 
L 1159 0 
L 581 0 
L 581 3500 
L 1159 3500 
L 1159 2956 
Q 1341 3275 1631 3429 
Q 1922 3584 2338 3584 
Q 2397 3584 2469 3576 
Q 2541 3569 2628 3553 
L 2631 2963 
z
" transform="scale(0.015625)"/>
      <path id="DejaVuSans-65" d="M 3597 1894 
L 3597 1613 
L 953 1613 
Q 991 1019 1311 708 
Q 1631 397 2203 397 
Q 2534 397 2845 478 
Q 3156 559 3463 722 
L 3463 178 
Q 3153 47 2828 -22 
Q 2503 -91 2169 -91 
Q 1331 -91 842 396 
Q 353 884 353 1716 
Q 353 2575 817 3079 
Q 1281 3584 2069 3584 
Q 2775 3584 3186 3129 
Q 3597 2675 3597 1894 
z
M 3022 2063 
Q 3016 2534 2758 2815 
Q 2500 3097 2075 3097 
Q 1594 3097 1305 2825 
Q 1016 2553 972 2059 
L 3022 2063 
z
" transform="scale(0.015625)"/>
      <path id="DejaVuSans-20" transform="scale(0.015625)"/>
      <path id="DejaVuSans-70" d="M 1159 525 
L 1159 -1331 
L 581 -1331 
L 581 3500 
L 1159 3500 
L 1159 2969 
Q 1341 3281 1617 3432 
Q 1894 3584 2278 3584 
Q 2916 3584 3314 3078 
Q 3713 2572 3713 1747 
Q 3713 922 3314 415 
Q 2916 -91 2278 -91 
Q 1894 -91 1617 61 
Q 1341 213 1159 525 
z
M 3116 1747 
Q 3116 2381 2855 2742 
Q 2594 3103 2138 3103 
Q 1681 3103 1420 2742 
Q 1159 2381 1159 1747 
Q 1159 1113 1420 752 
Q 1681 391 2138 391 
Q 2594 391 2855 752 
Q 3116 1113 3116 1747 
z
" transform="scale(0.015625)"/>
      <path id="DejaVuSans-61" d="M 2194 1759 
Q 1497 1759 1228 1600 
Q 959 1441 959 1056 
Q 959 750 1161 570 
Q 1363 391 1709 391 
Q 2188 391 2477 730 
Q 2766 1069 2766 1631 
L 2766 1759 
L 2194 1759 
z
M 3341 1997 
L 3341 0 
L 2766 0 
L 2766 531 
Q 2569 213 2275 61 
Q 1981 -91 1556 -91 
Q 1019 -91 701 211 
Q 384 513 384 1019 
Q 384 1609 779 1909 
Q 1175 2209 1959 2209 
L 2766 2209 
L 2766 2266 
Q 2766 2663 2505 2880 
Q 2244 3097 1772 3097 
Q 1472 3097 1187 3025 
Q 903 2953 641 2809 
L 641 3341 
Q 956 3463 1253 3523 
Q 1550 3584 1831 3584 
Q 2591 3584 2966 3190 
Q 3341 2797 3341 1997 
z
" transform="scale(0.015625)"/>
      <path id="DejaVuSans-69" d="M 603 3500 
L 1178 3500 
L 1178 0 
L 603 0 
L 603 3500 
z
M 603 4863 
L 1178 4863 
L 1178 4134 
L 603 4134 
L 603 4863 
z
" transform="scale(0.015625)"/>
      <path id="DejaVuSans-63" d="M 3122 3366 
L 3122 2828 
Q 2878 2963 2633 3030 
Q 2388 3097 2138 3097 
Q 1578 3097 1268 2742 
Q 959 2388 959 1747 
Q 959 1106 1268 751 
Q 1578 397 2138 397 
Q 2388 397 2633 464 
Q 2878 531 3122 666 
L 3122 134 
Q 2881 22 2623 -34 
Q 2366 -91 2075 -91 
Q 1284 -91 818 406 
Q 353 903 353 1747 
Q 353 2603 823 3093 
Q 1294 3584 2113 3584 
Q 2378 3584 2631 3529 
Q 2884 3475 3122 3366 
z
" transform="scale(0.015625)"/>
      <path id="DejaVuSans-6c" d="M 603 4863 
L 1178 4863 
L 1178 0 
L 603 0 
L 603 4863 
z
" transform="scale(0.015625)"/>
      <path id="DejaVuSans-2c" d="M 750 794 
L 1409 794 
L 1409 256 
L 897 -744 
L 494 -744 
L 750 256 
L 750 794 
z
" transform="scale(0.015625)"/>
      <path id="DejaVuSans-6f" d="M 1959 3097 
Q 1497 3097 1228 2736 
Q 959 2375 959 1747 
Q 959 1119 1226 758 
Q 1494 397 1959 397 
Q 2419 397 2687 759 
Q 2956 1122 2956 1747 
Q 2956 2369 2687 2733 
Q 2419 3097 1959 3097 
z
M 1959 3584 
Q 2709 3584 3137 3096 
Q 3566 2609 3566 1747 
Q 3566 888 3137 398 
Q 2709 -91 1959 -91 
Q 1206 -91 779 398 
Q 353 888 353 1747 
Q 353 2609 779 3096 
Q 1206 3584 1959 3584 
z
" transform="scale(0.015625)"/>
      <path id="DejaVuSans-6e" d="M 3513 2113 
L 3513 0 
L 2938 0 
L 2938 2094 
Q 2938 2591 2744 2837 
Q 2550 3084 2163 3084 
Q 1697 3084 1428 2787 
Q 1159 2491 1159 1978 
L 1159 0 
L 581 0 
L 581 3500 
L 1159 3500 
L 1159 2956 
Q 1366 3272 1645 3428 
Q 1925 3584 2291 3584 
Q 2894 3584 3203 3211 
Q 3513 2838 3513 2113 
z
" transform="scale(0.015625)"/>
      <path id="DejaVuSans-73" d="M 2834 3397 
L 2834 2853 
Q 2591 2978 2328 3040 
Q 2066 3103 1784 3103 
Q 1356 3103 1142 2972 
Q 928 2841 928 2578 
Q 928 2378 1081 2264 
Q 1234 2150 1697 2047 
L 1894 2003 
Q 2506 1872 2764 1633 
Q 3022 1394 3022 966 
Q 3022 478 2636 193 
Q 2250 -91 1575 -91 
Q 1294 -91 989 -36 
Q 684 19 347 128 
L 347 722 
Q 666 556 975 473 
Q 1284 391 1588 391 
Q 1994 391 2212 530 
Q 2431 669 2431 922 
Q 2431 1156 2273 1281 
Q 2116 1406 1581 1522 
L 1381 1569 
Q 847 1681 609 1914 
Q 372 2147 372 2553 
Q 372 3047 722 3315 
Q 1072 3584 1716 3584 
Q 2034 3584 2315 3537 
Q 2597 3491 2834 3397 
z
" transform="scale(0.015625)"/>
      <path id="DejaVuSans-75" d="M 544 1381 
L 544 3500 
L 1119 3500 
L 1119 1403 
Q 1119 906 1312 657 
Q 1506 409 1894 409 
Q 2359 409 2629 706 
Q 2900 1003 2900 1516 
L 2900 3500 
L 3475 3500 
L 3475 0 
L 2900 0 
L 2900 538 
Q 2691 219 2414 64 
Q 2138 -91 1772 -91 
Q 1169 -91 856 284 
Q 544 659 544 1381 
z
M 1991 3584 
L 1991 3584 
z
" transform="scale(0.015625)"/>
     </defs>
     <use xlink:href="#DejaVuSans-66"/>
     <use xlink:href="#DejaVuSans-72" x="35.205078"/>
     <use xlink:href="#DejaVuSans-65" x="74.068359"/>
     <use xlink:href="#DejaVuSans-65" x="135.591797"/>
     <use xlink:href="#DejaVuSans-20" x="197.115234"/>
     <use xlink:href="#DejaVuSans-70" x="228.902344"/>
     <use xlink:href="#DejaVuSans-61" x="292.378906"/>
     <use xlink:href="#DejaVuSans-72" x="353.658203"/>
     <use xlink:href="#DejaVuSans-74" x="394.771484"/>
     <use xlink:href="#DejaVuSans-69" x="433.980469"/>
     <use xlink:href="#DejaVuSans-63" x="461.763672"/>
     <use xlink:href="#DejaVuSans-6c" x="516.744141"/>
     <use xlink:href="#DejaVuSans-65" x="544.527344"/>
     <use xlink:href="#DejaVuSans-2c" x="606.050781"/>
     <use xlink:href="#DejaVuSans-20" x="637.837891"/>
     <use xlink:href="#DejaVuSans-70" x="669.625"/>
     <use xlink:href="#DejaVuSans-6f" x="733.101562"/>
     <use xlink:href="#DejaVuSans-69" x="794.283203"/>
     <use xlink:href="#DejaVuSans-6e" x="822.066406"/>
     <use xlink:href="#DejaVuSans-74" x="885.445312"/>
     <use xlink:href="#DejaVuSans-20" x="924.654297"/>
     <use xlink:href="#DejaVuSans-73" x="956.441406"/>
     <use xlink:href="#DejaVuSans-6f" x="1008.541016"/>
     <use xlink:href="#DejaVuSans-75" x="1069.722656"/>
     <use xlink:href="#DejaVuSans-72" x="1133.101562"/>
     <use xlink:href="#DejaVuSans-63" x="1171.964844"/>
     <use xlink:href="#DejaVuSans-65" x="1226.945312"/>
    </g>
   </g>
  </g>
 </g>
 <defs>
  <clipPath id="p84609f2474">
   <rect x="57.6" y="41.472" width="357.12" height="266.112"/>
  </clipPath>
 </defs>
</svg>
