<svg xmlns="http://www.w3.org/2000/svg" xmlns:xlink="http://www.w3.org/1999/xlink" version="1.1" width="672" height="551" viewBox="0 0 672 551"><g><clipPath id="cp0"><path d="M 66 461 L 606 461 L 606 461.52 L 66 461.52 Z "/></clipPath><g clip-path="url(#cp0)"><path stroke-width="1" stroke-miterlimit="3.25" fill="none" stroke="#b3b3b3" d="M 66 461.645 L 606 461.645 "/></g><path stroke-width="1" stroke-miterlimit="3.25" fill="none" stroke="#b3b3b3" d="M 66 362.172 L 606 362.172 "/><path stroke-width="1" stroke-miterlimit="3.25" fill="none" stroke="#b3b3b3" d="M 66 262.699 L 606 262.699 "/><path stroke-width="1" stroke-miterlimit="3.25" fill="none" stroke="#b3b3b3" d="M 66 163.223 L 606 163.223 "/><clipPath id="cp1"><path d="M 66 63.602 L 606 63.602 L 606 65 L 66 65 Z "/></clipPath><g clip-path="url(#cp1)"><path stroke-width="1" stroke-miterlimit="3.25" fill="none" stroke="#b3b3b3" d="M 66 63.75 L 606 63.75 "/></g><path stroke-width="1.6" stroke-miterlimit="3.25" fill="none" stroke="#49149f" d="M 74.977 201.016 L 84.789 143.465 L 94.629 132.402 L 104.438 137.379 L 114.25 149.344 L 124.063 122.68 L 133.898 127.102 L 143.711 128.504 L 153.523 140.961 L 163.332 164.117 L 173.172 185.719 L 182.984 195.332 L 192.793 206.043 L 202.605 242.043 L 212.445 265.219 L 222.254 254.684 L 232.066 246.199 L 241.879 230.258 L 251.715 227.238 L 261.527 217.262 L 271.34 231.805 L 281.152 211.922 L 290.988 203.609 L 300.801 173.254 L 310.613 340.785 L 320.422 323.23 L 330.262 309.555 L 340.074 306.766 L 349.883 310.117 L 359.695 317.961 L 369.535 323.262 L 379.344 324.262 L 389.156 337.082 L 398.969 335.512 L 408.805 337.02 L 418.617 323.809 L 428.43 326.246 L 438.238 332.672 L 448.078 328.777 L 457.891 324.461 L 467.699 318.043 L 477.512 309.516 L 487.352 302.035 L 497.16 295.473 L 506.973 292.266 L 516.785 290.004 L 526.621 289.258 L 536.434 297.527 L 546.246 295.555 L 556.055 297.063 L 565.895 288.813 L 575.707 288.352 L 585.516 295.488 L 595.328 292.188 "/><path stroke-width="1.6" stroke-miterlimit="3.25" fill="none" stroke="#de1d84" d="M 74.977 356.602 L 84.789 359.703 L 94.629 343.914 L 104.438 340.074 L 114.25 314.145 L 124.063 311.801 L 133.898 297.957 L 143.711 295.887 L 153.523 299.613 L 163.332 317.941 L 173.172 333.641 L 182.984 337.094 L 192.793 327.324 L 202.605 331.785 L 212.445 324.953 L 222.254 261.098 L 232.066 252.41 L 241.879 249.672 L 251.715 232.461 L 261.527 220.293 L 271.34 225.77 L 281.152 223.949 L 290.988 219.313 L 300.801 204.32 L 310.613 214.387 L 320.422 209.191 L 330.262 198.547 L 340.074 200.164 L 349.883 207.719 L 359.695 220.352 L 369.535 236.566 L 379.344 215.516 L 389.156 216.473 L 398.969 213.469 L 408.805 201.574 L 418.617 192.395 L 428.43 186.684 L 438.238 178.07 L 448.078 169.785 L 457.891 163.199 L 467.699 152.238 L 477.512 138.934 L 487.352 137.848 L 497.16 136.371 L 506.973 130.328 L 516.785 135.984 L 526.621 136.348 L 536.434 136.875 L 546.246 137.391 L 556.055 136.867 L 565.895 134.801 L 575.707 134.711 L 585.516 131.652 L 595.328 132.984 "/><path stroke-width="1" stroke-miterlimit="3.25" fill="none" stroke="#000000" d="M 606 461.645 L 66 461.645 "/><path stroke-width="1" stroke-miterlimit="3.25" fill="none" stroke="#000000" d="M 66 461.645 L 66 63.75 "/><path stroke-width="1" stroke-miterlimit="3.25" fill="none" stroke="#000000" d="M 66 63.75 L 606 63.75 "/><path stroke-width="1" stroke-miterlimit="3.25" fill="none" stroke="#000000" d="M 606 63.75 L 606 461.645 "/><path stroke-width="1" stroke-miterlimit="3.25" fill="none" stroke="#000000" d="M 66 461.645 L 66 453.543 "/><path stroke-width="1" stroke-miterlimit="3.25" fill="none" stroke="#000000" d="M 75.813 461.645 L 75.813 453.543 "/><path stroke-width="1" stroke-miterlimit="3.25" fill="none" stroke="#000000" d="M 85.621 461.645 L 85.621 453.543 "/><path stroke-width="1" stroke-miterlimit="3.25" fill="none" stroke="#000000" d="M 95.461 461.645 L 95.461 453.543 "/><path stroke-width="1" stroke-miterlimit="3.25" fill="none" stroke="#000000" d="M 105.273 461.645 L 105.273 453.543 "/><path stroke-width="1" stroke-miterlimit="3.25" fill="none" stroke="#000000" d="M 115.082 461.645 L 115.082 453.543 "/><path stroke-width="1" stroke-miterlimit="3.25" fill="none" stroke="#000000" d="M 124.895 461.645 L 124.895 453.543 "/><path stroke-width="1" stroke-miterlimit="3.25" fill="none" stroke="#000000" d="M 134.734 461.645 L 134.734 453.543 "/><path stroke-width="1" stroke-miterlimit="3.25" fill="none" stroke="#000000" d="M 144.543 461.645 L 144.543 453.543 "/><path stroke-width="1" stroke-miterlimit="3.25" fill="none" stroke="#000000" d="M 154.355 461.645 L 154.355 453.543 "/><path stroke-width="1" stroke-miterlimit="3.25" fill="none" stroke="#000000" d="M 164.168 461.645 L 164.168 453.543 "/><path stroke-width="1" stroke-miterlimit="3.25" fill="none" stroke="#000000" d="M 174.004 461.645 L 174.004 453.543 "/><path stroke-width="1" stroke-miterlimit="3.25" fill="none" stroke="#000000" d="M 183.816 461.645 L 183.816 453.543 "/><path stroke-width="1" stroke-miterlimit="3.25" fill="none" stroke="#000000" d="M 193.629 461.645 L 193.629 453.543 "/><path stroke-width="1" stroke-miterlimit="3.25" fill="none" stroke="#000000" d="M 203.438 461.645 L 203.438 453.543 "/><path stroke-width="1" stroke-miterlimit="3.25" fill="none" stroke="#000000" d="M 213.277 461.645 L 213.277 453.543 "/><path stroke-width="1" stroke-miterlimit="3.25" fill="none" stroke="#000000" d="M 223.09 461.645 L 223.09 453.543 "/><path stroke-width="1" stroke-miterlimit="3.25" fill="none" stroke="#000000" d="M 232.898 461.645 L 232.898 453.543 "/><path stroke-width="1" stroke-miterlimit="3.25" fill="none" stroke="#000000" d="M 242.711 461.645 L 242.711 453.543 "/><path stroke-width="1" stroke-miterlimit="3.25" fill="none" stroke="#000000" d="M 252.551 461.645 L 252.551 453.543 "/><path stroke-width="1" stroke-miterlimit="3.25" fill="none" stroke="#000000" d="M 262.359 461.645 L 262.359 453.543 "/><path stroke-width="1" stroke-miterlimit="3.25" fill="none" stroke="#000000" d="M 272.172 461.645 L 272.172 453.543 "/><path stroke-width="1" stroke-miterlimit="3.25" fill="none" stroke="#000000" d="M 281.984 461.645 L 281.984 453.543 "/><path stroke-width="1" stroke-miterlimit="3.25" fill="none" stroke="#000000" d="M 291.82 461.645 L 291.82 453.543 "/><path stroke-width="1" stroke-miterlimit="3.25" fill="none" stroke="#000000" d="M 301.633 461.645 L 301.633 453.543 "/><path stroke-width="1" stroke-miterlimit="3.25" fill="none" stroke="#000000" d="M 311.445 461.645 L 311.445 453.543 "/><path stroke-width="1" stroke-miterlimit="3.25" fill="none" stroke="#000000" d="M 321.258 461.645 L 321.258 453.543 "/><path stroke-width="1" stroke-miterlimit="3.25" fill="none" stroke="#000000" d="M 331.094 461.645 L 331.094 453.543 "/><path stroke-width="1" stroke-miterlimit="3.25" fill="none" stroke="#000000" d="M 340.906 461.645 L 340.906 453.543 "/><path stroke-width="1" stroke-miterlimit="3.25" fill="none" stroke="#000000" d="M 350.719 461.645 L 350.719 453.543 "/><path stroke-width="1" stroke-miterlimit="3.25" fill="none" stroke="#000000" d="M 360.527 461.645 L 360.527 453.543 "/><path stroke-width="1" stroke-miterlimit="3.25" fill="none" stroke="#000000" d="M 370.367 461.645 L 370.367 453.543 "/><path stroke-width="1" stroke-miterlimit="3.25" fill="none" stroke="#000000" d="M 380.18 461.645 L 380.18 453.543 "/><path stroke-width="1" stroke-miterlimit="3.25" fill="none" stroke="#000000" d="M 389.988 461.645 L 389.988 453.543 "/><path stroke-width="1" stroke-miterlimit="3.25" fill="none" stroke="#000000" d="M 399.801 461.645 L 399.801 453.543 "/><path stroke-width="1" stroke-miterlimit="3.25" fill="none" stroke="#000000" d="M 409.641 461.645 L 409.641 453.543 "/><path stroke-width="1" stroke-miterlimit="3.25" fill="none" stroke="#000000" d="M 419.449 461.645 L 419.449 453.543 "/><path stroke-width="1" stroke-miterlimit="3.25" fill="none" stroke="#000000" d="M 429.262 461.645 L 429.262 453.543 "/><path stroke-width="1" stroke-miterlimit="3.25" fill="none" stroke="#000000" d="M 439.074 461.645 L 439.074 453.543 "/><path stroke-width="1" stroke-miterlimit="3.25" fill="none" stroke="#000000" d="M 448.91 461.645 L 448.91 453.543 "/><path stroke-width="1" stroke-miterlimit="3.25" fill="none" stroke="#000000" d="M 458.723 461.645 L 458.723 453.543 "/><path stroke-width="1" stroke-miterlimit="3.25" fill="none" stroke="#000000" d="M 468.535 461.645 L 468.535 453.543 "/><path stroke-width="1" stroke-miterlimit="3.25" fill="none" stroke="#000000" d="M 478.344 461.645 L 478.344 453.543 "/><path stroke-width="1" stroke-miterlimit="3.25" fill="none" stroke="#000000" d="M 488.184 461.645 L 488.184 453.543 "/><path stroke-width="1" stroke-miterlimit="3.25" fill="none" stroke="#000000" d="M 497.996 461.645 L 497.996 453.543 "/><path stroke-width="1" stroke-miterlimit="3.25" fill="none" stroke="#000000" d="M 507.805 461.645 L 507.805 453.543 "/><path stroke-width="1" stroke-miterlimit="3.25" fill="none" stroke="#000000" d="M 517.617 461.645 L 517.617 453.543 "/><path stroke-width="1" stroke-miterlimit="3.25" fill="none" stroke="#000000" d="M 527.457 461.645 L 527.457 453.543 "/><path stroke-width="1" stroke-miterlimit="3.25" fill="none" stroke="#000000" d="M 537.266 461.645 L 537.266 453.543 "/><path stroke-width="1" stroke-miterlimit="3.25" fill="none" stroke="#000000" d="M 547.078 461.645 L 547.078 453.543 "/><path stroke-width="1" stroke-miterlimit="3.25" fill="none" stroke="#000000" d="M 556.891 461.645 L 556.891 453.543 "/><path stroke-width="1" stroke-miterlimit="3.25" fill="none" stroke="#000000" d="M 566.727 461.645 L 566.727 453.543 "/><path stroke-width="1" stroke-miterlimit="3.25" fill="none" stroke="#000000" d="M 576.539 461.645 L 576.539 453.543 "/><path stroke-width="1" stroke-miterlimit="3.25" fill="none" stroke="#000000" d="M 586.352 461.645 L 586.352 453.543 "/><path stroke-width="1" stroke-miterlimit="3.25" fill="none" stroke="#000000" d="M 596.16 461.645 L 596.16 453.543 "/><path stroke-width="1" stroke-miterlimit="3.25" fill="none" stroke="#000000" d="M 606 461.645 L 606 453.543 "/><text transform="matrix(1 0 0 1 0 0)" font-size="20.000002" font-family="Arial"><tspan y="487.7502" x="480.6139 491.7339 502.85389 513.9739 382.43385 393.55384 404.67384 415.79383 284.2527 295.37269 306.49269 317.61268 186.07265 197.19264 208.31264 219.43264 87.89149 99.01149 110.13149 121.251499 578.8079 589.9279 601.0479 612.1679">201420041994198419742024</tspan><tspan y="468.57835" x="40.753866 51.873868">20</tspan><tspan y="369.10466" x="40.753866 51.873868">40</tspan><tspan y="269.63096" x="40.753866 51.873868">60</tspan><tspan y="170.15727" x="40.753866 51.873868">80</tspan><tspan y="79.30273" x="45.216768">%</tspan><tspan y="468.57835" x="609 620.12">20</tspan><tspan y="369.10466" x="609 620.12">40</tspan><tspan y="269.63096" x="609 620.12">60</tspan><tspan y="170.15727" x="609 620.12">80</tspan><tspan y="79.30273" x="609">%</tspan></text><text transform="matrix(1 0 0 1 0 0)" font-size="27.999999" font-family="Arial" font-weight="bold"><tspan y="27.083985" x="31.5 48.579999 65.659999 81.228 96.796 112.33599 134.092 151.172 166.73999 182.30799 193.19998 210.27999 235.17198 250.73998 267.81999 284.92799 305.14399 320.71199 336.27998 351.84797 368.92796 386.00794 409.33195 424.89994 441.97993 466.8439 485.4919 501.0599 518.1399 533.7079 550.7879 567.8679 575.6239 584.9479 602.0279 612.9199 628.4879">LocalGovernmentRevenueandExpenditure*</tspan></text><text transform="matrix(1 0 0 1 0 0)" font-size="20.000002" font-family="Arial"><tspan y="54.083986" x="51.276369 64.59637 75.71637 86.83637 93.496379 110.17638 121.29638 133.07639 138.61638 149.73638 155.27637 166.39636 176.39636 187.51636 198.63636 208.63636 219.75635 226.41635 237.53635 254.19635 265.31636 276.43635 287.53636 294.19636 305.31636 315.31636 326.43635 337.55635 348.67634 365.35633 376.47633 387.5963 404.2763 415.3963 425.3963 436.5163 447.6363 458.7563 469.87629 474.31629 479.8563 490.9763 497.6363 514.29629 520.95626 532.07626 542.07626 553.1962 564.3162 574.3162 579.8562 584.2962 594.2962 605.4162 609.8562">Shareoftotalgovernmentrevenueandexpenditurerespectively</tspan></text><text fill="#de1d84" transform="matrix(1 0 0 1 0 0)" font-size="20.000002" font-family="Arial"><tspan y="118.05202" x="429.3969 442.71693 452.71693 463.8369 474.9569 486.0769 497.1969 501.6369 507.1769 518.29696 524.9569">Expenditure</tspan></text><text fill="#49149f" transform="matrix(1 0 0 1 0 0)" font-size="20.000002" font-family="Arial"><tspan y="297.5534" x="379.4119 393.8519 404.9719 414.9719 426.0919 437.21189 448.33189">Revenue</tspan></text><text transform="matrix(1 0 0 1 0 0)" font-size="15.999999" font-family="MathematicaSans"><tspan y="516.2" x="63.55">*</tspan></text><text transform="matrix(1 0 0 1 0 0)" font-size="15.999999" font-family="Arial"><tspan y="519.2" x="98.34049 110.77249 119.668498 128.5645 137.4605 142.7885 151.6845 159.6845 168.58049 177.47649 186.37248 189.92449 193.47649 205.92449 214.82048 223.71648 232.61248 241.50847 250.40447 259.26847 264.59648 273.49247 281.49247 290.38847 299.28446 308.18046 321.52445 330.42045 339.31645 352.66044 361.55644 369.55644 378.45243 387.34843 396.24443 405.1404 408.6924 413.12443 422.02043 427.34843 436.24443">Generalpublicbudgetrevenueandexpenditure.</tspan><tspan y="543.4" x="63.55">Sources: CEIC; RBA.</tspan></text></g></svg>